/* XPM */
static char *_d46aec051174ca5be332869fe80b5bcDXZgCQYUWR3n6xDu[] = {
/* columns rows colors chars-per-pixel */
"64 64 207 2 ",
"   c None",
".  c #161617",
"X  c #17161A",
"o  c #18171D",
"O  c #1A1A1B",
"+  c #291718",
"@  c #341516",
"#  c #391818",
"$  c #33261B",
"%  c #1C1922",
"&  c #252526",
"*  c #2A2526",
"=  c #26262A",
"-  c #262829",
";  c #2B2A2B",
":  c #28272E",
">  c #342C2D",
",  c #3C2D2D",
"<  c #372425",
"1  c #282731",
"2  c #2A2834",
"3  c #2C293B",
"4  c #3E3636",
"5  c #4B0505",
"6  c #440C0C",
"7  c #4B0A0A",
"8  c #470707",
"9  c #520505",
"0  c #510A0A",
"q  c #5C0C0C",
"w  c #580606",
"e  c #431212",
"r  c #481A1B",
"t  c #5C1313",
"y  c #5C1C1D",
"u  c #551617",
"i  c #650A0A",
"p  c #6D0C0C",
"a  c #680303",
"s  c #7C0404",
"d  c #730B0B",
"f  c #7D0D0E",
"g  c #720505",
"h  c #641414",
"j  c #6B1414",
"k  c #661B1C",
"l  c #6C1B1B",
"z  c #741414",
"x  c #7C1313",
"c  c #731B1B",
"v  c #7B1B1B",
"b  c #7C1F20",
"n  c #472929",
"m  c #5C2323",
"M  c #542B2B",
"N  c #5D2829",
"B  c #433E3E",
"V  c #583B3B",
"C  c #452F30",
"Z  c #642323",
"A  c #6C2222",
"S  c #6E2D2D",
"D  c #732222",
"F  c #7A2323",
"G  c #6A3434",
"H  c #2D2A40",
"J  c #494746",
"K  c #594B49",
"L  c #58544C",
"P  c #525252",
"I  c #5B5B5C",
"U  c #5B5956",
"Y  c #4F5050",
"T  c #764747",
"R  c #625E54",
"E  c #625454",
"W  c #7A5A5A",
"Q  c #7B5943",
"!  c #69645A",
"~  c #6A6558",
"^  c #726C5C",
"/  c #5F5F61",
"(  c #646363",
")  c #6B6B6C",
"_  c #696968",
"`  c #776A65",
"'  c #777265",
"]  c #797466",
"[  c #7D776A",
"{  c #7A7B7B",
"}  c #777676",
"|  c #830303",
" . c #8C0202",
".. c #840D0D",
"X. c #8B0C0C",
"o. c #930303",
"O. c #9B0202",
"+. c #930B0B",
"@. c #9A0A0A",
"#. c #821414",
"$. c #8C1515",
"%. c #821C1C",
"&. c #8C1C1C",
"*. c #931313",
"=. c #981717",
"-. c #A30202",
";. c #A10D0D",
":. c #8B2121",
">. c #855B5C",
",. c #8A7843",
"<. c #877745",
"1. c #867B5A",
"2. c #94705A",
"3. c #AB6E47",
"4. c #827D6E",
"5. c #857C63",
"6. c #847F70",
"7. c #947664",
"8. c #A07F6B",
"9. c #C07A4F",
"0. c #9E853B",
"q. c #B99836",
"w. c #BC9C3A",
"e. c #B59537",
"r. c #A2852F",
"t. c #C09F3E",
"y. c #C1A03E",
"u. c #8D815E",
"i. c #9E8C57",
"p. c #9C8747",
"a. c #B99C45",
"s. c #A8955C",
"d. c #B69E56",
"f. c #A28A43",
"g. c #8F8361",
"h. c #878071",
"j. c #8B8575",
"k. c #8F8978",
"l. c #938C7B",
"z. c #93847C",
"x. c #B8A774",
"c. c #D78858",
"v. c #C5A443",
"b. c #CCAB4B",
"n. c #C6A649",
"m. c #C6AA56",
"M. c #D3B352",
"N. c #D8B857",
"B. c #DCBC5A",
"V. c #D5B557",
"C. c #D1B04E",
"Z. c #C99A7D",
"A. c #F99F68",
"S. c #CBB46D",
"D. c #F8AD7E",
"F. c #E4C35F",
"G. c #E5C360",
"H. c #ECC963",
"J. c #EAC96A",
"K. c #EBCC73",
"L. c #EBCF7B",
"P. c #7E8080",
"I. c #868686",
"U. c #878888",
"Y. c #888888",
"T. c #888787",
"R. c #9B9482",
"E. c #9F9885",
"W. c #959696",
"Q. c #958C87",
"!. c #A19986",
"~. c #A59D89",
"^. c #AE9282",
"/. c #AAA28E",
"(. c #AEA691",
"). c #A5A39E",
"_. c #B2AA94",
"`. c #B7AF97",
"'. c #BBB39C",
"]. c #BEB393",
"[. c #B8B4A8",
"{. c #B6B6B6",
"}. c #B5B6B8",
"|. c #C0B081",
" X c #F5B58E",
".X c #C7BEA5",
"XX c #D8C58E",
"oX c #EAD082",
"OX c #FAC09C",
"+X c #CCC3AE",
"@X c #D2C8AE",
"#X c #C6C3B9",
"$X c #C9C5BA",
"%X c #CBC3B0",
"&X c #D6CCB1",
"*X c #D8CEB3",
"=X c #DCD2B6",
"-X c #DFD5B8",
";X c #EACAA7",
":X c #EADAAC",
">X c #EAD9A6",
",X c #EADCB4",
"<X c #E1D6BA",
"1X c #E6DBBE",
"2X c #EADDB9",
"3X c #EADFC1",
"4X c #EBE0C2",
/* pixels */
"                                                                                                                                ",
"                                                                                                                                ",
"                                                                      H 3 2 1 1 = & O . X X X o X o % % % %                     ",
"                                                      3 3 2 1 : = = & & & & & & & & O . . . . . . . . . . .                     ",
"                                        2 1 2 : = = & & & & & & & & & = & & & & & & O . . . . . . . . . . .                     ",
"                        2 : : : = = = & & & & & & & & & & & & & & & & & & & & = & & O . . . . . . . . . . .                     ",
"              = = & & & & & & & & & & & & & & & & & & & & & & & & & * & & & & & & & O . . . . . . . . . . .                     ",
"              & & & & & & & & & & & & & & & & & & & & & & & & & & & & & & & & & & & O . . O . . . . X . . X                     ",
"              & & & & & & & * & & & & & & & - ; > > : ; - - - & & & & & & & & & & & O . . . . . . . . . . .                     ",
"              & & & & & & & & & & & & - > C F :.:.=.b S b D Z M M n n , > ; * - & & O . . . . . . . . . . .                     ",
"              & & & & = & & & - ; , N %.=.D O.@.=.O.d v -.-.O.c ;.-.+.%.*.D $.D S Z # + O . . . . . O . . X                     ",
"              & & * & & & & < Z &.%.o.o.o.y q l A t y N j i t m z p d j d c | d x  .i 7 0 @ @ + + + @ + @ @                     ",
"              & & & & & & & # o. .k h j Z l ..@.;.o.o.A *.@.+.+.*.v %.*...l #.x #.c t @ 5 8 7 7 w 9 0 6 9 9                     ",
"              & & & & & & & < k v $.X.-.$.f  . . .s s y #.s | s | p v | | j X.| | z i 8 5 9 7 7 e 0 7 7 7 9                     ",
"              & & & & & & - u #.|  .s d A y k k A c l c v k D x z x c l x %.v v ..x t 7 6 7 6 7 e 8 8 5 7 7                     ",
"              * & * * * * < r D l x F c +.O.O.;.=.-.O.O.O.z &.O.o. . .x  . .d #.| f 0 5 7 0 8 6 9 5 9 w e 0                     ",
"              k l l l z z v z o.o.o.$.p | | g x F p p z p y D j j l j c c D x v c X.i 6 7 7 7 7 0 0 6 7 7 6                     ",
"              #.x f #.f z f z j j k c l c Z c &.&.$.Z &.+.X.+.x &.-.O.-...x o.| c ..q e 7 7 9 7 9 0 e 7 5 9                     ",
"              #...#.x x f x ..o.@.v o.O.-.c X.-.-.O.k X. .s s j v x z j j l x l #...q 9 7 7 8 8 9 9 0 6 6 7                     ",
"              x f f f x z z x f z A j p z Z t h h h m A c z Z %.$.X.X.#.o.o.| z ..d q 6 6 6 6 6 8 e 7 e 6 8                     ",
"              G T T W W ` >.T X.X.X.A X.X.X.+.$.:.+.O.o.o.o.j X.s s p l z l z x z #.a 5 7 5 6 8 5 # 5 5 9 9                     ",
"              T.U.U.T.Y.Y.Y.` d d f k s s  . .+.$.| | d i h Z l k D ..X.o.x .. .d k r # , C B B B B , n < r                     ",
"              Y.U.Y.U.U.Y.Y.>.#.A x v z Z l l c A c c A D +.o.o.f v  .s d y G V E ) U Y P P P P Y P P P Y Y                     ",
"              Y.Y.Y.U.U.U.W.>.| j  . .o.c | o.@.O.O.o.z F  .s d u M M K / } P.T.Y.Y.( Y P P P P Y P P P P P                     ",
"              Y.Y.Y.T.Y.Y.Y.} K V M y h m g |  . .s g T ` V K E ) { I.I.U.Y.Y.Y.Y.I.( Y P P P P P P P P P P                     ",
"              Y.Y.Y.Y.Y.Y.T.T.Y.I.{ } _ ( K V n n V P ) ( ) P.Y.Y.I.Y.Y.I.U.Y.Y.Y.I.( P P P P P P P P P P P                     ",
"              Y.Y.Y.Y.Y.Y.Y.Y.Y.Y.Y.T.Y.T.I.I.{ { I._ { } J 6.Y.T.Y.T.Y.Y.Y.Y.Y.Y.U.( P P P P P P P P P P P                     ",
"              Y.Y.Y.T.Y.Y.Y.Y.Y.Y.Y.Y.T.Y.Y.Y.Y.Y.Q.7.B : $ 2.Y.Y.Y.Y.U.Y.T.Y.U.Y.U.( P P P P P P P P P P P                     ",
"              Y.T.T.Y.T.T.T.Y.Y.T.T.Y.T.T.T.Y.T.U.^. X8.Q 3.9.z.Y.Y.Y.Y.I.T.I.T.Y.Y.( P P P P P P P P P P P                     ",
"              Y.Y.Y.Y.Y.Y.Y.Y.Y.T.Y.Y.Y.Y.Y.Y.Y.Y.Z. XOX XA.c.z.Y.Y.Y.Y.Y.Y.Y.Y.Y.Y.( P P P P U P P P P P P                     ",
"              +X+X+X+X+X+X+X+X+X+X+X%X+X+X+X%X+X+X;X;X;X;X;X;X+X%X%X+X+X+X+X+X+X+X%X).W.W.W.W.W.W.W.W.W.W.W.                    ",
"              4X4X4X4X4X4X4X4X4X4X4X4X4X4X4X4X4X4X4X4X4X4X4X2X3X4X4X4X4X4X4X4X4X4X4X$X{.{.{.{.{.{.{.{.{.{.{.                    ",
"              4X4X4X4X4X4X4X3X3X4X4X4X4X4X4X4X4X3X4X4X4X4X4X4X4X4X4X4X4X4X4X4X4X4X3X#X}.}.}.{.{.{.{.{.{.{.{.                    ",
"              4X-XE./.1X3X4X4X3X4X2X3X4X3X3X.X*X(.-X4X4X4X3X4X4X4X4X4X4X4X4X4X4X4X3X#X}.}.}.{.{.{.{.{.{.{.{.                    ",
"              4X+X' ' R.l.(._.~.k._.h.`.k.R.R k.l.E.[ E.'.4.4.&X4X4X4X4X4X4X4X4X4X3X.X{.{.{.{.{.{.{.{.{.{.{.                    ",
"              4X+X~ ` 6.R 4.' ' /.(.U 6.! 4.' _.] ' j.^ [ ! ~ -X4X4X4X4X4X4X4X4X3X3X#X{.{.{.{.{.{.{.{.}.{.{.                    ",
"              4X&X/.~.j.[ E.! /.4.j.! k.4.' h.l.h.h./.[ l.K R.<X4X4X3X4X4X4X4X4X4X3X#X{.{.{.{.{.{.{.{.{.{.{.                    ",
"              4X2X-X<X1X1X*X!.1X=X-X=X-X&X-X-X@X=X*X-X&Xj.R L +X4X4X4X4X3X4X4X4X4X3X$X{.{.{.{.{.{.{.{.{.{.{.                    ",
"              4X&X] ~.=X<X1X<X.X.X4X4X4X4X4X4X4X4X4X4X4X+X!.(.3X4X4X4X4X4X4X4X4X4X3X$X{.{.{.{.{.{.{.{.{.{.{.                    ",
"              4X+X! _.[ 4.R.' 4.!.j.l.'.l.@X4X4X4X4X4X4X4X4X3X4X3X4X4X4X4X4X3X4X3X3X#X{.{.{.{.{.{.{.{.{.{.{.                    ",
"              4X+X^ ~.6.6.[ ! k.6.[ ] ! L E.4X4X4X4X4X3X4X4X4X4X4X4X4X4X4X4X4X4X3X3X$X{.{.{.{.{.{.{.{.{.{.{.                    ",
"              4X<X_._.'.'.6.R l.!.!.l.[ ! '.4X4X4X4X4X4X4X4X4X4X4X4X4X4X4X4X4X4X4X3X$X{.{.{.{.{.{.{.{.{.{.{.                    ",
"              4X4X4X4X4X3X/.] `.3X1X<X-X.X=X4X4X4X4X4X4X4X4X4X4X4X4X4X4X3X4X4X4X3X3X$X{.{.{.{.}.{.{.{.{.{.{.                    ",
"              4X4X4X4X4X3X3X1X3X4X4X4X4X4X4X4X4X3X4X4X4X4X4X3X4X4X4X4X3X4X4X4X4X3X3X$X{.{.{.{.}.{.{.}.{.{.{.                    ",
"              4X3X4X4X4X3X4X4X3X3X4X4X4X4X4X4X4X3X4X4X4X4X4X3X4X4X4X3X4X4X4X4X4X3X3X$X{.{.{.}.}.{.{.[.`.x.x.                    ",
"              4X4X4X3X4X4X4X4X4X4X4X4X4X4X4X4X4X4X4X4X4X4X4X4X4X4X4X4X4X4X4X4X4X4X4X$X{.[.[.'.S.S.d.n.w.q.q.                    ",
"              4X4X4X4X3X4X4X4X4X4X4X4X4X4X4X4X4X4X4X4X4X4X4X4X4X3X4X4X4X4X4X4X3X4X2XXXS.S.V.C.b.b.v.y.t.w.q.                    ",
"              4X4X4X4X4X4X4X4X4X4X4X4X4X4X4X4X4X4X4X4X3X4X4X4X4X4X4X4X4X4X4X3X3X2XoXF.B.B.M.C.C.b.v.v.t.w.q.                    ",
"              4X4X4X4X3X4X4X4X4X4X3X4X4X4X4X4X3X4X4X4X4X4X4X3X4X4X4X4X4X4X4X4X2XoXH.F.B.N.M.C.b.b.v.v.y.w.q.                    ",
"              4X3X4X4X4X4X4X4X4X4X4X4X4X4X4X4X4X4X4X4X4X4X4X4X4X4X4X4X4X4X4X2XL.H.H.F.B.N.M.M.C.v.v.v.y.w.q.                    ",
"              3X3X4X4X4X4X4X4X4X4X4X4X4X4X4X4X4X4X4X4X3X4X4X3X4X4X4X4X4X4X,XL.H.H.H.F.B.N.M.C.C.b.v.y.y.y.q.                    ",
"              3X3X4X4X4X4X4X4X3X4X4X4X3X3X4X4X4X4X4X4X4X4X4X4X4X3X4X4X4X,XL.H.H.H.H.F.B.N.N.C.C.b.v.a.f.,.0.                    ",
"              3X3X4X4X4X4X4X3X4X4X4X4X4X4X4X4X4X4X4X4X4X4X4X4X4X4X4X4X,XL.F.H.H.H.H.G.B.V.m.d.i.u.^ I U U ,.                    ",
"              4X4X4X4X4X4X4X4X4X4X4X4X4X4X4X4X4X3X4X3X4X4X4X4X4X4X4X,XK.H.H.H.H.H.H.F.s.5.{ _ R ( ! I P U ,.                    ",
"              4X3X4X4X4X3X4X4X4X3X4X4X4X3X4X4X4X4X4X4X4X4X4X3X4X4X:XK.H.H.H.H.H.H.H.G.u._ } ) I ) / U U I ,.                    ",
"              3X3X3X3X4X4X4X4X4X4X4X4X4X4X4X4X4X4X4X4X4X4X4X4X4X:XK.H.H.H.H.H.H.H.H.F.u.) } _ ( ) ( U I I <.                    ",
"                  3X3X3X3X3X3X3X4X4X4X4X4X4X4X4X4X4X4X4X4X4X4X:XK.H.H.H.H.H.H.H.H.H.F.u.) { ) I ) ( I I / ,.                    ",
"                              3X3X3X3X3X3X3X4X4X4X4X4X4X4X4X>XK.H.H.H.H.H.H.H.H.H.H.F.u.) { ) I ) ( I / / ,.r.                  ",
"                                        3X3X3X3X2X4X4X4X4X>XK.F.H.H.H.H.H.H.H.H.H.H.G.g.) { ) / ) ) ~ <.p.e.r.                  ",
"                                                    4X4X>XK.H.H.H.F.H.H.H.H.H.H.H.J.G.g.) { ] 1.p.d.a.v.t.w.                    ",
"                                                              J.H.H.H.H.H.H.H.H.H.H.G.s.i.d.m.C.b.b.                            ",
"                                                                          J.H.H.J.J.H.B.B.N.                                    ",
"                                                                                                                                ",
"                                                                                                                                "
};
