/* XPM */
static char *_2b8a62db3c34404a40ca99ebabdb654T5DCjMF5ruDNs6I0[] = {
/* columns rows colors chars-per-pixel */
"64 64 225 2 ",
"   c #352D2A",
".  c #39312D",
"X  c #3B2D3B",
"o  c #382A39",
"O  c #3A3633",
"+  c #3D323C",
"@  c #3C393B",
"#  c #582C2A",
"$  c #562D3D",
"%  c #453C36",
"&  c #443D3C",
"*  c #493B3C",
"=  c #583E3A",
"-  c #593637",
";  c #4A2E3D",
":  c #6B3837",
">  c #653837",
",  c #773B39",
"<  c #632B2A",
"1  c #45413B",
"2  c #53423C",
"3  c #67433F",
"4  c #78443B",
"5  c #3E2C43",
"6  c #3E2E4B",
"7  c #392549",
"8  c #3D3142",
"9  c #402E45",
"0  c #412E4A",
"q  c #572F42",
"w  c #443444",
"e  c #453B43",
"r  c #44334A",
"t  c #49374F",
"y  c #46394A",
"u  c #4A3B4C",
"i  c #4A3D47",
"p  c #5A3143",
"a  c #553647",
"s  c #412D51",
"d  c #463452",
"f  c #4A3753",
"g  c #463852",
"h  c #4C3C53",
"j  c #4A3659",
"k  c #4E3D5C",
"l  c #513E56",
"z  c #5E3C55",
"x  c #533E5D",
"c  c #5A3D5B",
"v  c #533750",
"b  c #603E56",
"n  c #4F3B62",
"m  c #533E62",
"M  c #543F68",
"N  c #4B4543",
"B  c #4D4946",
"V  c #4C444A",
"C  c #4D4A4A",
"Z  c #454244",
"A  c #534A46",
"S  c #534C4B",
"D  c #5B4D4A",
"F  c #554547",
"G  c #55514D",
"H  c #59514E",
"J  c #4F4154",
"K  c #4E415B",
"L  c #524354",
"P  c #554C52",
"I  c #594D54",
"U  c #54425D",
"Y  c #5B435D",
"T  c #56495C",
"R  c #5A4B5C",
"E  c #5A4157",
"W  c #545152",
"Q  c #5C5453",
"!  c #5E5955",
"~  c #5C555A",
"^  c #5F595B",
"/  c #6C4542",
"(  c #654946",
")  c #644D4A",
"_  c #694946",
"`  c #7D4442",
"'  c #7B4B44",
"]  c #724D4A",
"[  c #744945",
"{  c #63524E",
"}  c #7C524C",
"|  c #75524D",
" . c #614259",
".. c #6D4F51",
"X. c #764C58",
"o. c #625554",
"O. c #6B5553",
"+. c #635956",
"@. c #6B5A55",
"#. c #62555C",
"$. c #645C5B",
"%. c #6A5D5C",
"&. c #735552",
"*. c #7B5553",
"=. c #7A5A54",
"-. c #765C5A",
";. c #7B5C5A",
":. c #745757",
">. c #65625D",
",. c #6B615D",
"<. c #74615D",
"1. c #7D615D",
"2. c #554263",
"3. c #594464",
"4. c #574965",
"5. c #5A4963",
"6. c #564268",
"7. c #594469",
"8. c #574869",
"9. c #5C4A6A",
"0. c #5E5263",
"q. c #5F5866",
"w. c #604765",
"e. c #645563",
"r. c #655C62",
"t. c #6A5D63",
"y. c #62526B",
"u. c #6B5C6E",
"i. c #67596A",
"p. c #775A65",
"a. c #6F5F71",
"s. c #6C6464",
"d. c #6D6A66",
"f. c #6E636A",
"g. c #6E6A6A",
"h. c #656163",
"j. c #726564",
"k. c #7C6462",
"l. c #736966",
"z. c #71646B",
"x. c #746B6B",
"c. c #7A6D6C",
"v. c #7B6A66",
"b. c #76716F",
"n. c #79716D",
"m. c #736473",
"M. c #746C72",
"N. c #796C74",
"B. c #7C6D7A",
"V. c #756778",
"C. c #757273",
"Z. c #7C7473",
"A. c #7D7A75",
"S. c #7C7479",
"D. c #7D797A",
"F. c #6D6F69",
"G. c #80433C",
"H. c #824641",
"J. c #834C45",
"K. c #8B4C44",
"L. c #844D4A",
"P. c #8C4D4A",
"I. c #924D45",
"U. c #914D4B",
"Y. c #83534C",
"T. c #8C534C",
"R. c #865146",
"E. c #925145",
"W. c #95524C",
"Q. c #99574C",
"!. c #835352",
"~. c #8C5552",
"^. c #845954",
"/. c #8C5A54",
"(. c #82555D",
"). c #8D5C5B",
"_. c #865B5C",
"`. c #945652",
"'. c #9A5654",
"]. c #945B54",
"[. c #9C5B55",
"{. c #945B5A",
"}. c #9C5E5B",
"|. c #A15C54",
" X c #A15C5A",
".X c #84615E",
"XX c #93615C",
"oX c #9C635C",
"OX c #A4625C",
"+X c #A6655C",
"@X c #885A63",
"#X c #826363",
"$X c #836A66",
"%X c #886968",
"&X c #9A6462",
"*X c #82726D",
"=X c #89716D",
"-X c #826C78",
";X c #827474",
":X c #8C7573",
">X c #837976",
",X c #81747C",
"<X c #837B7B",
"1X c #8B7D7C",
"2X c #927D7B",
"3X c #947A77",
"4X c #A46764",
"5X c #7E8075",
"6X c #8A817E",
"7X c #85817C",
"8X c #97817C",
"9X c #857583",
"0X c #897D84",
"qX c #877C85",
"wX c #927885",
"eX c #858283",
"rX c #8C8483",
"tX c #8D888A",
"yX c #948583",
"uX c #9B8684",
"iX c #948A89",
"pX c #988A88",
"aX c #A68E8B",
"sX c #AA9996",
"dX c #B09D99",
/* pixels */
"7 0 r d r 0 0 5 r 0 0 0 r d 6 6 6 r 6 6 6 6 6 6 6 6 6 r r 6 6 6 6 6 6 6 6 6 6 6 r 6 6 6 6 6 6 6 0 0 0 9 0 r 5 r r 0 d 6 s d 6 7 ",
"U 3.9.3.3.3.3.2.3.3.3.3.6.3.7.7.3.3.4.6.4.4.2.2.4.4.6.4.2.3.4.4.2.4.4.2.5.6.4.4.2.3.4.2.4.4.4.2.3.5.5.3.5.2.3.3.5.3.3.6.7.9.6.M ",
"j x 2.U x U U k U U 2.2.m m m 6.U m 2.c 2.U 2.2.U 2.U 2.m 2.m m 2.U 2.2.U 2.U 2.m 2.m m 2.2.2.2.2.x 2.U U U 2.U U U x k m 6.m j ",
"j x 2.2.x 2.U U 2.2.2.U 6.2.6.m 2.2.2.m 2.2.2.U 2.U 2.2.U 3.3.m 2.2.2.U 2.2.U 2.2.3.3.m 2.U 2.U 2.2.2.2.U 2.2.2.2.2.m x m 6.m j ",
"x 6.7.6.6.5.7.6.3.6.7.6.3.6.7.7.7.7.7.7.7.7.7.7.6.7.w.7.7.7.7.w.w.M w.w.3.3.7.7.w.7.7.w.7.7.7.7.6.3.7.7.7.6.7.6.6.3.2.2.6.5.6.x ",
"j k m m m 2.m m 2.m 2.x m 2.m 2.m m m m c m m m m m m m m m m m M m m m m M m m m m m m m m m m 2.m m m 6.2.m m 2.m x x x 2.k j ",
"j m 6.6.6.6.7.6.6.6.6.6.6.2.2.2.3.3.m 7.m 7.3.3.3.3.m 3.m 7.M w.M Y Y M m 3.m 7.m 3.w.M m m 3.6.6.6.M 6.6.6.M 6.6.6.6.2.2.3.U k ",
"k m 6.6.6.6.6.M M m m 2.m U U U 2.c c m c c m c c m c m m b c m m m 3.m c m c c m c c 3.m b c Y m 2.m M m M M m 6.6.6.U 2.3.U h ",
"j 2.6.m 7.6.M 6.M 7.2.x 3.3.L l Y U U U Y x U 3.Y 3.x T c T x 3.c x Y 3.E h x T Y Y 3.Y c x U 3.2.2.2.6.M M M 6.6.m 2.2.x 2.T f ",
"j 6.6.2.M M M 6.n 6.6.k k k x T E U x l x U E l h l l x U 5.Y E c l l L U U U x l x x x L U U l x x x 2.6.7.M n 6.m 6.6.2.U 3.f ",
"j U 6.m 7.M M 6.7.9.6.U U E L L L L L h l Y L u l l L y l L L y l l v y v L L y u u u u l L l y U L x h 6.7.7.m 6.M M 6.U 2.U h ",
"f 2.6.m 7.6.M 6.7.m 2.9.m.9X,Xa.B.,X9XB.N.,X9X,X9X0X0XB.-XB.9XV.,XqX9XN.B.9X,Xm.B.9X,X,XqXwX9Xm.9XB.i.U x 3.7.m 6.m 6.6.U 2.Y f ",
"t U 3.U 3.6.m 7.7.k l U y.-XqXz.#.s.f.r.#.r.t.d.x.z.S.t.f.e.f.z.#.x.N.h.$.f.d.#.t.f.z.s.x.N.x.$.u.a.#.L t l 3.7.6.m 6.6.m 2.T j ",
"t U 2.U 2.2.2.6.7.m x h 9 R N.z.f.l.l.f.t.s.x.n.N.l.;Xs.l.S ! Q Q z.Z.x.s.z.l.d.l.z.x.b.c.N.x.x.%.t.p.e.R U 2.7.6.m 2.2.m 2.T f ",
"t Y T x 2.2.2.6.m k 5.E w e.wX0X6XA.n.A.>XZ.<XrX6Xb.<XZ.6XG S B Q b.<X7X;XC.;Xn.;XA.>X6X<XC.;X6XyXwX<X,Xa.3.k m 6.m 2.6.x 3.3.f ",
"t U T x 6.6.m 3.3.x T L X P f.D l.+.A ! ,.+.+.d.x.G >.s.A.1 O   % H s.,.>.+.! H >.$.s.l.s.Q >.;Xl.o.o.e.e.L x 9.6.m 6.6.2.2.3.f ",
"g U K K 6.6.2.2.2.h k R M.C.rXx.A.<X;Xc.>X0X>Xl.<Xl.<XC.A.Z.<Xc.x.A.<XG +.H H Z.n.<X;Xd.yXn.l.Z.6XyX#.o i U K 2.6.U m 3.m 3.Y f ",
"g U 2.n 6.6.x 2.5.x h L f.M.eXs.l.Z.>X;XZ.A.Z.x.N.$.d.f.D.<XS.S C.7XA.O 1 B D s.Z.<XZ.o.x.t.x.;Xh.>Xz.i L 0.4.k 6.m M 3.m 3.3.f ",
"g U U K 6.3.m m U k h r I ~ D.g.o.s.x.j.$.,.s.j.N ! A.d.#.Q f.d.Q +.,.% G D Q d.,.l.c.~ #.Q s.z.l.N.f.P y g U 2.2.m 6.6.x 3.3.f ",
"g U U n 6.6.m m 6.5.R y i V D.C.A.<X>XZ.c.;X<XrXiX>XZ.c.<X;XrXrXrXA.>XD.iXc.c.rXN.Z.yXyX6XN.<XZ.x.t.S.qXV.J h 4.6.x 2.3.m 3.Y f ",
"g K U k 2.3.m 2.2.3.R y i V g.! s.+.! +.s.,.l.l.x.Q H D $.N D %.l.o.D G ,.N H ,.l.+.l.x.c.W $.h.z.$.f.B.u.U U 4.3.m M 7.x 3.3.f ",
"g K 2.k 3.6.x m U x h V r.h.C.B Q A G >.b.b.x.l.;XH D %.uX*X%.+.@.,.<.{ <.>.n.Q 1Xl.s.! >.C ^ g.x.x.Q e 8 u U 2.3.x 7.m m 3.Y f ",
"g 2.2.k 6.3.m m 9.2.U T M.qXrX! 1 1 B >.l.l.n.;X;XyXsXpXsX8XuXdX1XsXdXyXuX8XpXo.n.n.s.N G C ^ g.t.>Xf.u L 0.2.g m M M 7.x 3.3.f ",
"g K m x 6.3.m 3.K k J i W q.C.C O O 1 G +.+.n.8XyXuX2X<.:X:X3X3X$X3X8X:X6X:XpXs.2 ,.$.O Z Z C ~ #.x.I + u T k 5.3.m 3.m m Y 3.f ",
"g K 2.K 6.6.m m x U h u + W eXA.A.G N G A ,.yX6XO.) 2 2 / = _ - 2 3 ( = ( { v.dXN.;X<XeXD.C.D.eXA.Z.qX,XR J 2.K 3.m 7.m m 3.Y f ",
"g 4.2.U 3.6.m m 3.w.R L e C S.F.5XC     % ,.6X$X<.=.1.^.%X} ^.] ;.;.#X=.:.&.) *XuX;Xc.c.x.s.g.D.S.z.f.m.i.T U 5.6.m m 3.m 7.3.f ",
"g 4.U n 3.3.x 3.d U g u J ~ g.! A.! 1 A H v.v.( ( _ / > ] b @X!.} _ _ / &.:...k.1Xv.t.x.x.s.h.C.;Xx.~ V L L k K 3.m m M x 3.3.f ",
"g K K n M 3.m m 9.y.L 0.D.tXtXb.n.7X6X6X*X8X$XO.3 3 = # : < !.!.' < # # - = - ( 3X:X*X;XD.D.D.D.S.0Xf.+ y 0.5.K 6.m 3.3.m Y 3.f ",
"g K K n 8.6.m 2.k 2.8 u q.g.C.s.+.,.c.v.o.*X&.&.] *.!.' ~.` {.P.&XL.!.T.L.(.| ;.k.c.z.o.I r.f.h.t.,Xz.i i T 6.2.3.m 7.m x 3.3.f ",
"g K 2.U 6.2.m m 2.5.h u Z P C.>XC.n.c.*X1.uX-.#X- / [ : G.b `.P.` < : , > / ] ;.@X3X2XN.l.C.D.S.s.x.z.f.e.h g 5.3.M m 7.m 3.Y f ",
"g K 2.n 8.6.m 2.2.U L L e V C.C.Z.l.<.c.<.aX_ =.- : : < , , U.P.`., ` p > > [ X...k.;X1X,XZ.x.g.<Xz.B.qXV.T U 9.3.m M 3.m c 3.f ",
"g 4.K U 2.6.x m 3.k L R i V h.S l.+.o.<.{ :X_ &X).&X4X{.+X|.OXU.4XP.&X4X{.&X&X@X:.O.t.c.z.~ I t.s.P Q r.T h U k M m 3.3.x 3.3.f ",
"g 2.2.k 7.m m 3.2.k J 0.S.D.tXb.<X7X>Xn.$X8X| ^.~.`.'.'.].W.J.4 {.~.P.`.'.`.T.^.%XpXZ.C.tXqX1Xx.<X0Xt.X L T K K 4.2.3.m m 3.3.f ",
"g K U n 3.3.m m 3.K u J h.f.D.^ Q ! ,.,.@.$X_ Y.P.P.U.I.P.P.Y.R.L.J.K.I.E.I.J.} _ c.$.h.C.f.x.+.%.t.~ % L K 5.9.6.m m 3.m 3.Y f ",
"g K 2.k 3.6.m m 5.2.L u T W D.b.b.! ! +.D .X| ^.L.P.'.'.`.`.T.R.J.T.'.Q.E.I.L.' O.;Xh.g.D.x.Z.v.%.t.z.R R h K h 6.m 6.6.m Y 3.f ",
"g 4.m k 6.3.x 2.2.5.5.t e C D.D.tXG % 1 2 v.| /.{.}. X X[.].Y.J.~.oXOX|.|.oX].^.k.tXC.D.eXx.>X1X<XZ.qXN.a.L 4.k 2.x 2.6.x 3.3.f ",
"g T U n 3.6.x 3.U 2.L t V P C.h.A.1 O O D =X} XX4X4X'.U.W.`.Y.' T.XX[.'.|.+XoX/.&.<Xs.g.C.$.x.c.c.t.f.#.R L 4.2.3.m m M m 3.3.f ",
"g K 2.K 6.3.m m 3.U J J f.C.D.C G C S +.1.3X| XX~.'. X X[.].J.4 ].].Q.'.|.OX].} &.1Xx.C.S.s.c.c.Z.z.~ w u t U 2.7.c 7.7.x 3.3.f ",
"g K U n 6.2.m 2.6.U J L V.D.eXQ O C H +.*X8Xp !.H.U. X XOXW.H.4 ].].Q.|.OXW.R.' 1.iXC.C.S.g.;Xc.1X0Xz.e T L 4.9.6.m m 7.x 3.Y f ",
"g K 2.K 6.3.m 2.U U J y P ^ C.Q 1 G A A :XaX} _.P.'. XU.H.G.Y./.' ' E.|.|.W.J.*.-.1Xh.W W G -.O.o.z.$.X L J h K 6.x 7.m x 3.3.f ",
"g 4.2.n 6.2.n 2.6.U h L + W eXD.C.b.<X>X<..X3 XX`.'.'.'.U.H.J./.T.4 E.OXQ.Q.[.' 1.j.& h.S Z o.N o.x.qX9Xr.J J 9.6.x m 7.m 3.Y f ",
"g K 2.K 2.8.m 2.k L T T e Z ^ W b.Q H >.<.8X1.XX&X X X'.P.H.J.Y.H., Q.+X|.+X+X^.<.@.@ C e O *   * Q z.M.u.5.2.K 6.m 7.m m 3.3.f ",
"g 8.U K 6.6.m m 6.5.h V V ~ C.g.g.d.l.,.{ 1.3 Y.}.}. X X'.L.H.' T.J.[.4XOXOXoX} 1.+.P Z C & F D z.t.P e 8 J U 2.6.m m 3.c m 3.f ",
"g K U n 2.6.x 2.k 2.g R S.qX<Xd.D.b.b.n.*XaX.XY.L.U.'.'.}.`.H.4 {.].|.|.G.K.R.[ $Xx.C.W W N o.v.<XZ.h.P J 5.9.K 6.x 6.3.m 3.Y f ",
"g K 2.k 6.6.x 2.2.5.r u e.h.g.>.S G l.,.{ .X| /.L.P.U.'.[.].T.4 `.`.[.Q.G.E.T.} ;.s.h.@ @ @ F o.Q #.Q y w J K k 3.m m 7.m 3.Y f ",
"g U U k 2.3.m m 9.9.t X X V C.5XeX>.2 2 @.8X=.4 '.`.W.'.'.oX/.Y.Y.].[.[.|.OX].Y.%X;X^ Z h.x.;X>X*X,XS.t.R R 9.y.3.m 7.M m 3.3.f ",
"g K 2.k 6.7.m m j U U ~ V W D.C.b.S 1 1 2 v.=.XXoX}.|.'.[.XX`.R./.oXOX[.OX+XQ.} &.b.& @ ~ g.<X<Xc.Z.,XN.u.T j d m M M 3.x 3.3.f ",
"g 2.m k 3.3.x 3.5.U J L e P F.! 5XG 1 1 2 <.| XX{. XOX X|.oXT.G.].OXQ.W.|.+XXX/..XaXW S G ! l.n.c.t.I L J h U 5.3.m 3.3.U U Y f ",
"j U U U 6.2.U 2.k 5.L R ,XyX<Xc.5X5X5Xn.*X8X} } Y.T.W.T.`.[.T., Q.Q.Q.Q.R.R.R.Y.=.=X*Xn.<XA.A.C.1X0X%.e u T c 3.6.2.3.2.L T Y f ",
"g U 2.x 2.6.m 6.U L v i #.j.l.s.>.F.5Xl.1.8X| ^.' T.L.P.`.{.E.G.G.E.E.G.G.R.} ] =.%XO.o.+.! d.M.z.x.%.l L T 3.3.6.x 2.U U T L t ",
"f U U k 6.6.n 2.6.x k y i %.c.N.>.F.b.l.<.8X4 =.L.~./.~.'.}.`.L.+X[.`./.XXXX^.=.=.*Xv.c.x.d.C.C.z.p.m.u.R l x k 6.m 2.2.U E T u ",
"t U U x 6.6.m 2.3.x U L y I -XN.D.C.b.F.7X8X.X.X(.@X@X).(.{.(.L.XXXX/.XXXX.Xp.:.-.:X;X1X0XM.M.g.,XN.9X9Xi.3.3.2.6.m 2.2.x 3.T f ",
"t U x x 6.6.m 6.6.x 2.U r h R L q.0.C ~ p.wXp.X.@X@X@X@X@X@X(.X./.@X_.(.@X%Xp.X.-X-Xa.z.f.0.q.0.r.E e.u.3.U 6.6.6.m 2.2.x U 3.g ",
"t U U x 2.2.n 6.6.m 2.U l v t e 8 Z 8 6 h Y a a a p q q q q $ q $ $ p q p a p q a v X X y 8 + X e w w t h f n m 6.m 3.6.2.2.3.h ",
"t L U x 3.6.2.2.m 6.6.6.9.U x U K 0.U 5.l c v b b b z b b b b b b b  .b b b  .E v T v R q.U 4.4.L E U U 3.3.6.9.6.m 6.2.2.2.Y j ",
"t U U x 2.3.x 2.M 7.m m 3.U x 9.4.9.h 3.x 3.c 3.w.c v b c w.c b c c c c l x Y x Y 5.k U 4.6 K 8.h 9.U U 5.3.m 6.6.m 6.6.m 6.2.f ",
"g x U U U 2.6.m m 6.m 2.m m m 2.8.K 6.n n U m c c c x c c m x c c m x m c U m m K 6.n K K 2.K K U U U U x U m m 6.m 6.6.x 2.2.j ",
"h U U U 2.3.2.6.6.6.6.6.6.6.6.6.6.6.6.8.6.6.6.3.m 3.7.3.3.3.3.3.m 3.2.6.6.6.3.3.6.6.2.2.2.8.K 8.U 2.2.2.6.6.6.6.6.m 6.6.2.6.2.j ",
"f k U x x U U k 2.2.2.2.2.2.U m 2.K 2.2.U n 2.2.m m M m M m M m m 6.2.2.2.2.2.2.n K n 6.K 6.K 6.2.U 2.U U 2.2.U m k m 2.x 2.U j ",
"k x 3.3.2.2.3.2.6.2.2.3.2.3.6.6.2.8.2.6.6.8.6.6.7.7.7.3.7.3.3.3.7.3.6.2.2.2.2.6.8.8.8.8.8.8.8.6.7.3.3.3.6.3.3.3.9.6.3.9.2.9.5.k ",
"f x m m U U x x x 2.U U U 2.U 2.2.U m K K U U 2.2.2.2.x m m m 3.U U U U K K 2.K 8.K 8.K 6.K K 2.m 2.U m U x U U U x U 3.U 2.2.f ",
"f k m x x 2.U x U U U U U U U U 2.U U U 6.U U U 2.U 2.2.m m 3.c 2.L U U 2.U 2.2.K K K 8.6.6.6.6.2.2.2.2.2.Y U 2.U x U U x U U f ",
"n m 6.3.3.3.5.3.5.3.5.5.3.5.3.5.5.5.4.8.8.4.4.4.5.3.3.5.w.w.w.3.4.T 5.5.5.5.5.4.8.8.8.8.8.8.8.8.7.3.3.5.3.5.5.3.3.T 5.5.T 5.5.h ",
"7 6 s r 0 r r 9 9 9 9 9 9 0 0 9 5 6 5 8 6 5 8 6 5 6 6 0 0 0 0 0 9 8 9 5 5 8 6 8 6 6 7 6 6 6 6 6 6 0 6 6 0 0 9 0 9 9 0 0 9 0 0 7 "
};
