/* XPM */
static char *result[] = {
/* columns rows colors chars-per-pixel */
"64 64 222 2 ",
"   c #070605",
".  c #140C01",
"X  c #15160F",
"o  c #291502",
"O  c #2E1813",
"+  c #032B03",
"@  c #0D380D",
"#  c #142B15",
"$  c #3E2C1A",
"%  c #3B371B",
"&  c #2A2F0F",
"*  c #341C21",
"=  c #2C2A2A",
"-  c #282625",
";  c #3A2E23",
":  c #322D28",
">  c #2A372C",
",  c #33312A",
"<  c #3B3B3B",
"1  c #383633",
"2  c #55090A",
"3  c #531617",
"4  c #4A100F",
"5  c #6A0C0D",
"6  c #6C110F",
"7  c #482602",
"8  c #4D3709",
"9  c #5D3508",
"0  c #422A19",
"q  c #45311C",
"w  c #4D361C",
"e  c #593A17",
"r  c #592E14",
"t  c #773A05",
"y  c #67370F",
"u  c #592829",
"i  c #48392A",
"p  c #553924",
"a  c #483F37",
"s  c #753E23",
"d  c #035503",
"f  c #18531B",
"g  c #114512",
"h  c #24520E",
"j  c #0B7015",
"k  c #3A610F",
"l  c #155B25",
"z  c #3B5A24",
"x  c #2E4831",
"c  c #197A29",
"v  c #2A6B36",
"b  c #23702E",
"n  c #524316",
"m  c #644506",
"M  c #784306",
"N  c #68441A",
"B  c #764815",
"V  c #635816",
"C  c #7A581B",
"Z  c #735C03",
"A  c #4F611B",
"S  c #736012",
"D  c #5D442A",
"F  c #554835",
"G  c #43422F",
"H  c #654B2A",
"J  c #625022",
"K  c #7A5326",
"L  c #634A33",
"P  c #665437",
"I  c #734A2C",
"U  c #4E7D31",
"Y  c #776521",
"T  c #396746",
"R  c #434343",
"E  c #4E4E4E",
"W  c #4C4946",
"Q  c #4D524D",
"!  c #5D5443",
"~  c #5A5A4B",
"^  c #555555",
"/  c #5A5B59",
"(  c #4F4D4D",
")  c #685A47",
"_  c #406C43",
"`  c #686757",
"'  c #75695A",
"]  c #646565",
"[  c #6B6B6B",
"{  c #6F6967",
"}  c #787565",
"|  c #717273",
" . c #797A7C",
".. c #930D08",
"X. c #A50708",
"o. c #B50807",
"O. c #B01107",
"+. c #A72412",
"@. c #CD0E0D",
"#. c #E90402",
"$. c #FD0000",
"%. c #F20305",
"&. c #CE2C2C",
"*. c #864504",
"=. c #934C04",
"-. c #9C4D00",
";. c #85580B",
":. c #94510A",
">. c #985705",
",. c #875416",
"<. c #834A12",
"1. c #A95A07",
"2. c #A35C14",
"3. c #A04E00",
"4. c #976A0B",
"5. c #97760A",
"6. c #9D6C14",
"7. c #936E12",
"8. c #A66708",
"9. c #B6680C",
"0. c #AC7602",
"q. c #B57602",
"w. c #A7791E",
"e. c #8C5927",
"r. c #945D23",
"t. c #8E6824",
"y. c #9D7620",
"u. c #C46301",
"i. c #CD6600",
"p. c #C76806",
"a. c #CC7702",
"s. c #D67600",
"d. c #C17C14",
"f. c #957F59",
"g. c #A87F48",
"h. c #887B70",
"j. c #088B18",
"k. c #06941F",
"l. c #13842A",
"z. c #0F9628",
"x. c #29862F",
"c. c #0DA22E",
"v. c #00B528",
"b. c #41942A",
"n. c #00C62D",
"m. c #4C8A58",
"M. c #7E8379",
"N. c #769479",
"B. c #AC8204",
"V. c #BB8302",
"C. c #B98706",
"Z. c #B88E18",
"A. c #AD952D",
"S. c #C58801",
"D. c #DB8B01",
"F. c #D88503",
"G. c #C69205",
"H. c #D49A00",
"J. c #D89705",
"K. c #CA9416",
"L. c #E59800",
"P. c #CCA301",
"I. c #D8A703",
"U. c #D5AC14",
"Y. c #ECA400",
"T. c #EDAB02",
"R. c #E4A707",
"E. c #F2AD00",
"W. c #EBB508",
"Q. c #F3B500",
"!. c #F5BB01",
"~. c #FABD00",
"^. c #C69728",
"/. c #D3B137",
"(. c #E0B326",
"). c #FBC400",
"_. c #FFCC00",
"`. c #FFCF09",
"'. c #FFD100",
"]. c #FFD317",
"[. c #FFDB25",
"{. c #FFE23E",
"}. c #8B8859",
"|. c #A9974B",
" X c #9A9769",
".X c #878473",
"XX c #9C9D7A",
"oX c #8C8968",
"OX c #A28866",
"+X c #A38C77",
"@X c #AA947B",
"#X c #9FA178",
"$X c #A5A57D",
"%X c #B5B57B",
"&X c #FFE64B",
"*X c #D0CF7D",
"=X c #7C9886",
"-X c #878B88",
";X c #9C9B9A",
":X c #AF9996",
">X c #A6A684",
",X c #B6B685",
"<X c #A4A4A4",
"1X c #A6AAA8",
"2X c #BABABB",
"3X c #BDBAB2",
"4X c #AEB8AE",
"5X c #95A796",
"6X c #D1A29D",
"7X c #BCCABF",
"8X c #C9C988",
"9X c #D8D891",
"0X c #E6E68C",
"qX c #E7E794",
"wX c #FDFD9A",
"eX c #F2F294",
"rX c #C6C6C7",
"tX c #D5D7D8",
"yX c #DBE1DC",
"uX c #E3E3E5",
"iX c #FAF9FA",
"pX c None",
/* pixels */
"pXpXpXpXpXpXpXpXpXpXpXpXpXpXpXpXpXpXpXpXpXpXpXpXpXpXpXpXpXpXpXpXpXpXpXpXpXpXpXpXpXpXpXpXpXpXpXpXpXpXpXpXpXpXpXpXpXpXpXpXpXpXpXpX",
"pXpXpXpXpXpXpXpXpXpXpXpXpXpXpXpXpXpXpXpXpXpXpXpXpXpXpXpXpXpXpXpXpXpXpXpXpXpXpXpXpXpXpXpXpXpXpXpXpXpXpXpXpXpXpXpXpXpXpXpXpXpXpXpX",
"pXpXpXpXpXpXpXpXpXpXpXpXpXpXpXpXpXpXpXpXpXpXpXpXpXpXpXpXpXpXpXpXpXpXpXpXpXpXpXpXpXpXpXpXpXpXpXpXpXpXpXpXpXpXpXpXpXpXpXpXpXpXpXpX",
"pXpXpXpXpXpXpXpXpXpXpXpXpXpXpXpXpXpXpXpXpXpXpXpXpXpXpXpXpXpXpXpXpXpXpXpXpXpXpXpXpXpXpXpXpXpXpXpXpXpXpXpXpXpXpXpXpXpXpXpXpXpXpXpX",
"pXpXpXpXpXpXpXpXpXpXpXpXpXpXpXpXpXpXpXpXpXpXpXpXpXpXpXpXpXpXpXpXpXpXpXpXpXpXpXpXpXpXpXpXpXpXpXpXpXpXpXpXpXpXpXpXpXpXpXpXpXpXpXpX",
"pXpXpXpXpXpXpXpXpXpXpXpXpXpXpXpXpXpXpXpXpXpXpXpXpXpXpXpXpXpXpXpXpXpXpXpXpXpXpXpXpXpXpXpXpXpXpXpXpXpXpXpXpXpXpXpXpXpXpXpXpXpXpXpX",
"pXpXpXpXpXpXpXpXpXpXpXpXpXpXpXpXpXpXpXpXpXpXpXpXpXpXpXpXpXpXpXpXpXpXpXpXpXpXpXpXpXpXpXpXpXpXpXpXpXpXpXpXpXpXpXpXpXpXpXpXpXpXpXpX",
"pXpXpXpXpXpXpXpXpXpXpXpXpXpXpXpXpXpXpXpXpXpXpXpXpXpXpXpXpXpXpXpXpXpXpXpXpXpXpXpXpXpXpXpXpXpXpXpXpXpXpXpXpXpXpXpXpXpXpXpXpXpXpXpX",
"pXpXpXpXpXpXpXpXpXpXpXpXpXpXpXpXpXpXpXpXpXpXpXpXpXpXpXpXpXpXpXpXpXpXpXpXpXpXpXpXpXpXpXpXpXpXpXpXpXpXpXpXpXpXpXpXpXpXpXpXpXpXpXpX",
"pXpXpXpXpXpXpXpXpXpXpXpXpXpXpXpXpXpXpXpXpXpXpXpXpXpXpXpXpXpXpXpXpXpXpXpXpXpXpXpXpXpXpXpXpXpXpXpXpXpXpXpXpXpXpXpXpXpXpXpXpXpXpXpX",
"pXpXpXpXpXpXpXpXpXpXpXpXpXpXpXpXpXpXpXpXpXpXpXpXpXpXpXpXpXpXpXpXpXpXpXpXpXpXpXpXpXpX3 pXpXpXpXpXpXpXpXpXpXpXpXpXpXpXpXpXpXpXpXpX",
"pXpXpXpXpXpXpXpXpXpXpXpXpXpXpXpXpXpXpXpXpXpXpXpXpXpXpXpXpXpXpXpXpXpXpXpXpXpXpXpXpX5 o.O pXpXpXpXpXpXpXpXpXpXpXpXpXpXpXpXpXpXpXpX",
"pXpXpXpXpXpXpXpXpXpXpXpXpXpXpXpXpXpXpXpXpXpXpXpXpXpXpXpXpXpXpXpXpXpXpXpXpXpXpXpX5 %.X.2 pXpX7 pXpXpXpXpXpXpXpXpXpXpXpXpXpXpXpXpX",
"pXpXpXpXpXpXpXpXpXpXpXpXpXpXpXpXpXpXpXpXpXpXpXpXpXpXpXpXpXpXpXpXpXpXpXpXpXN pXpX+.$.@.@.4 $ ;.pXpXpXpXpXpXpXpXpXpXpXpXpXpXpXpXpX",
"pXpXpXpXpXpXpXpXpXpXpXpXpXpXpXpXpXpXpXpXpXpXpXpXpXpXpXpXpXpXpXpXpXpXpXpXpXt.t.2 #.$.$.#.X.t C.pXpXpXpXpXpXpXpXpXpXpXpXpXpXpXpXpX",
"pXpXpXpXpXpXpXpXpXpXpXpXpXpXpXpXpXpXpXpXpXpXpXpXpXpXpXpXpXpXpXpXpXpXpXpXpXV.4.4 %.%.&.@.X.8.P.pXpXpXpXpXpXpXpXpXpXpXpXpXpXpXpXpX",
"pXpXpXpXpXpXpXpXpXpXpXpXpXpXpXpXpXpXpXpXpXpXpXpXpXpXpXpXpXpXpXpXpXpXpXpXpXV.V.2 @.I 1 u r I.H.- X pXpXpXpX. pXpXpXpXpXpXpXpXpXpX",
"pXpXpXpXpXpXpXpXpXpXpXpXpXpXpXpXpXpXpXpXpXpXpXpXpXpXpXpXpXpXpXpXpXpXpXpXpXr.N 0 U z o.r 5._.C.{ x + > q M 8.pXpXpXpXpXpXpXpXpXpX",
"pXpXpXpXpXpXpXpXpXpXpXpXpXpXpXpXpXpXpXpXpXpXpXpXpXpXpXpXpXpXpXpXpXpXpXpXpXu O.k.j.o.$...q.~.6.2X4Xf + V ).G.pXpXpXpXpXpXpXpXpXpX",
"pXpXpXpXpXpXpXpXpXpXpXpXpXpXpXpXpXpXpXpXpXpXpXpXpXpXpXpXpXpXpXpXpXpXpXpXpX5 M v.i %.X.p w.D.K uXiXrXN.v Z.B.pXpXpXpXpXpXpXpXpXpX",
"pXpXpXpXpXpXpXpXpXpXpXpXpXpXpXpXpXpXpXpXpXpXpXpXpXpXpXpXpXpXpXpXpXpXpXpXpX* z k...&..Xc.x.y.N .XuXiXiX=XU ;.pXpXpXpXpXpXpXpXpXpX",
"pXpXpXpXpXpXpXpXpXpXpXpXpXpXpXpXpXpXpXpXpXpXpXpXpXpXpXpXpXpXpXpXpXpXpXpXpXt z j 0 :XrXc.n.z.V 0.)  .uXuX_ % pXpXpXpXpXpXpXpXpXpX",
"pXpXpXpXpXpXpXpXpXpXpXpXpXpXpXpXpXpXpXpXpXpXpXpXpXpXpXpXpXpXpXpXpXpXpXpX4.~.S.h p 6XN.& j j.A Q.B ^  .iX1X> pXpXpXpXpXpXpXpXpXpX",
"pXpXpXpXpXpXpXpXpXpXpXpXpXpXpXpXpXpXpXpXpXpXpXpXpXpXpXpXpXpXpXpXpXpXpXp /.(.W.8.' N.S J.5.h k 0.} 1X^ 2XyXv x pXpXpXpXpXpXpXpXpX",
"pXpXpXpXpXpXpXpXpXpXpXpXpXpXpXpXpXpXpXpXpXpXpXpXpXpXpXpXpXpXpXpXpXpXpX6./.^.W.L.U.d.W.[._.C.8 V  .-X^ =XiXm.l pXpXpXpXpXpXpXpXpX",
"pXpXpXpXpXpXpXpXpXpXpXpXpXpXpXpXpXpXpXpXpXpXpXpXpXpXpXpXpXpXpXpXpXpXL J._._.).].[._._.Q.~.).,.^ [ ] F F uXN.b pXpXpXpXpXpXpXpXpX",
"pXpXpXpXpXpXpXpXpXpXpXpXpXpXpXpXpXpXpXpXpXpXpXpXpXpXpXpXpXpXpXpXpXpXt J.).).Q.[.&X'.Q.a.D._.Z.^ [ ^ B.C.3X5Xl.pXpXpXpXpXpXpXpXpX",
"pXpXpXpXpXpXpXpXpXpXpXpXpXpXpXpXpXpXpXpXpXpXpXpXpXpXpXpXpXpXpXpXpXpXN F.L.D.!.`.`._.L.t 2.~.q.W ] K ).).|.2Xc l pXpXpXpXpXpXpXpX",
"pXpXpXpXpXpXpXpXpXpXpXpXpXpXpXpXpXpXpXpXpXpXpXpXpXpXpXpXpXpXpXpXpXpXpX9.p.p.R.`._.T.1.6 =.Q.q.] ~ P._._.I.h.x.v , pXpXpXpXpXpXpX",
"pXpXpXpXpXpXpXpXpXpXpXpXpXpXpXpXpXpXpXpXpXpXpXpXpXpXpXpXpXpXpXpXpXpXpXt :.-.s.Y.Y.u.I 3 >.Q.<./ C _.`._.!.}.m.x.,.q pXpXpXpXpXpX",
"pXpXpXpXpXpXpXpXpXpXpXpXpXpXpXpXpXpXpXpXpXpXpXpXpXpXpXpXpXpXpXpXpXpXpXpXD F 3.i.p.r.[ I D.D.p F H.].]._.'.y.v c.K.G.F pXpXpXpXpX",
"pXpXpXpXpXpXpXpXpXpXpXpXpXpXpXpXpXpXpXpXpXpXpXpXpXpXpXpXpXpXpXpXpXpXpXpX< | ) I +X<X .y.Q.:.= 8 Q._._._.'.G.& k.A.C.F pXpXpXpXpX",
"pXpXpXpXpXpXpXpXpXpXpXpXpXpXpXpXpXpXpXpXpXpXpXpXpXpXpXpXpXpXpXpXpXpXpXpX. ) OXJ ) @XOXW.S.q / ) S.'.'.~.G.;.& c V 9 pXpXpXpXpXpX",
"pXpXpXpXpXpXpXpXpXpXpXpXpXpXpXpXpXpXpXpXpXpXpXpXpXpXpXpXpXpXpXpXpXpXpXpXq M L.Q.H.J.W.E.B < 8X%X4.a.Z m i < > j # pXpXpXpXpXpXpX",
"pXpXpXpXpXpXpXpXpXpXpXpXpXpXpXpXpXpXpXpXpXpXpXpXpXpXpXpXpXpXpXpXpXpXpXpX: m ).~.~._.'.V.W XXwX0Xi ; E E ] [ Q d @ pXpXpXpXpXpXpX",
"pXpXpXpXpXpXpXpXpXpXpXpXpXpXpXpXpXpXpXpXpXpXpXpXpXpXpXpXpXpXpXpXpXpXpXpXR D F.=.>.Q.R.C %XeXwXqX~ [ | ] ] 1X[ d pXpXpXpXpXpXpXpX",
"pXpXpXpXpXpXpXpXpXpXpXpXpXpXpXpXpXpXpXpXpXpXpXpXpXpXpXpXpXpXpXpXpXpXpXpX^ [ p : $ 8 w  XwXwXqXXXR <X;X] [ ;X` d pXpXpXpXpXpXpXpX",
"pXpXpXpXpXpXpXpXpXpXpXpXpXpXpXpXpXpXpXpXpXpXpXpXpXpXpXpXpXpXpXpXpXpXpXpX/ | | Q .X.X#X8X8X,X$X%X~  . .] ] [ Q @ pXpXpXpXpXpXpXpX",
"pXpXpXpXpXpXpXpXpXpXpXpXpXpXpXpXpXpXpXpXpXpXpXpXpXpXpXpXpXpXpXpXpXpXpXpX= G ] Q %XqX>X>X>X,XeXeXG , , > , : > g pXpXpXpXpXpXpXpX",
"pXpXpXpXpXpXpXpXpXpXpXpXpXpXpXpXpXpXpXpXpXpXpXpXpXpXpXpXpXpXpXpXpXpXpXpX>.6.q ; XXwXeXwXwXwXwX0X,.q.I.I.I.G.n f pXpXpXpXpXpXpXpX",
"pXpXpXpXpXpXpXpXpXpXpXpXpXpXpXpXpXpXpXpXpXpXpXpXpXpXpXpXpXpXpXpXpXpXpXpXI._.L.9.' 9XeXwXwXwXwX|.H._._._._.'.7.W pXpXpXpXpXpXpXpX",
"pXpXpXpXpXpXpXpXpXpXpXpXpXpXpXpXpXpXpXpXpXpXpXpXpXpXpXpXpXpXpXpXpXpXpXpXJ.'.'.T.e.oX>X9XeX9X$XC !.&X]._._.'.q.p q pXpXpXpXpXpXpX",
"pXpXpXpXpXpXpXpXpXpXpXpXpXpXpXpXpXpXpXpXpXpXpXpXpXpXpXpXpXpXpXpXpXpXpXpXJ.).W.E.2.}.8X$X$X$X X:.~.{.]._._.'.q.C e pXpXpXpXpXpXpX",
"pXpXpXpXpXpXpXpXpXpXpXpXpXpXpXpXpXpXpXpXpXpXpXpXpXpXpXpXpXpXpXpXpXpXpXpXq.U.J a.:.P 8XwXwXwX*X>.Y._._._._.).,.1.M pXpXpXpXpXpXpX",
"pXpXpXpXpXpXpXpXpXpXpXpXpXpXpXpXpXpXpXpXpXpXpXpXpXpXpXpXpXpXpXpXpXpXpXpX<.F.B ! p N ` 8XwXwXeXP >.)._._._.T.e M t pXpXpXpXpXpXpX",
"pXpXpXpXpXpXpXpXpXpXpXpXpXpXpXpXpXpXpXpXpXpXpXpXpXpXpXpXpXpXpXpXpXpXpXpXi *.p.,.e N K ) $X%X>X` 7 H.K.T.R.>.o     pXpXpXpXpXpXpX",
"pXpXpXpXpXpXpXpXpXpXpXpXpXpXpXpXpXpXpXpXpXpXpXpXpXpXpXpXpXpXpXpXpXpXpXpXpX; 7 7 B i.i.2.i } ,X X:.y N 8.y y P pXpXpXpXpXpXpXpXpX",
"pXpXpXpXpXpXpXpXpXpXpXpXpXpXpXpXpXpXpXpXpXpXpXpXpXpXpXpXpXpXpXpXpXpXpXpXpXpXpXy i.i.i.i.9.w ` } e.u.2.r 3.:.a pXpXpXpXpXpXpXpXpX",
"pXpXpXpXpXpXpXpXpXpXpXpXpXpXpXpXpXpXpXpXpXpXpXpXpXpXpXpXpXpXpXpXpXpXpXpXpXpXpXi M i.i.i.u.N pX= w u.i.i.i.*.q pXpXpXpXpXpXpXpXpX",
"pXpXpXpXpXpXpXpXpXpXpXpXpXpXpXpXpXpXpXpXpXpXpXpXpXpXpXpXpXpXpXpXpXpXpXpXpXpXpXpXJ F.s.i.,.< pXpXq 2.i.s.i.H :.i pXpXpXpXpXpXpXpX",
"pXpXpXpXpXpXpXpXpXpXpXpXpXpXpXpXpXpXpXpXpXpXpXpXpXpXpXpXpXpXpXpXpXpXpXpXpXpX= N R._.~.s.=.pXpXpXpXB L.).!.7.B O pXpXpXpXpXpXpXpX",
"pXpXpXpXpXpXpXpXpXpXpXpXpXpXpXpXpXpXpXpXpXpXpXpXpXpXpXpXpXpXpXpXpXpXpXpXpXpX' G._.).`.L.=.pXpXpXpX>._._.'.Q.9 pXpXpXpXpXpXpXpXpX",
"pXpXpXpXpXpXpXpXpXpXpXpXpXpXpXpXpXpXpXpXpXpXpXpXpXpXpXpXpXpXpXpXpXpXpXpXpX| 2X+XR.).E.1.p pXpXpXpX;.~._.).J.B pXpXpXpXpXpXpXpXpX",
"pXpXpXpXpXpXpXpXpXpXpXpXpXpXpXpXpXpXpXpXpXpXpXpXpXpXpXpXpXpXpXpXpXpXpXpXpXE ;XrXA.F.M 0 pXpXpXpXpXe D.Q.d.>Xh.pXpXpXpXpXpXpXpXpX",
"pXpXpXpXpXpXpXpXpXpXpXpXpXpXpXpXpXpXpXpXpXpXpXpXpXpXpXpXpXpXpXpXpXpXpXpXpXpX< - X o , pXpXpXpXpXpXa :.|.;XtX1XpXpXpXpXpXpXpXpXpX",
"pXpXpXpXpXpXpXpXpXpXpXpXpXpXpXpXpXpXpXpXpXpXpXpXpXpXpXpXpXpXpXpXpXpXpXpXpXpXpXpXpXpXpXpXpXpXpXpXpXpXi ;XrX2X| pXpXpXpXpXpXpXpXpX",
"pXpXpXpXpXpXpXpXpXpXpXpXpXpXpXpXpXpXpXpXpXpXpXpXpXpXpXpXpXpXpXpXpXpXpXpXpXpXpXpXpXpXpXpXpXpXpXpXpXpXpXE -XR pXpXpXpXpXpXpXpXpXpX",
"pXpXpXpXpXpXpXpXpXpXpXpXpXpXpXpXpXpXpXpXpXpXpXpXpXpXpXpXpXpXpXpXpXpXpXpXpXpXpXpXpXpXpXpXpXpXpXpXpXpXpXpXX pXpXpXpXpXpXpXpXpXpXpX",
"pXpXpXpXpXpXpXpXpXpXpXpXpXpXpXpXpXpXpXpXpXpXpXpXpXpXpXpXpXpXpXpXpXpXpXpXpXpXpXpXpXpXpXpXpXpXpXpXpXpXpXpXpXpXpXpXpXpXpXpXpXpXpXpX",
"pXpXpXpXpXpXpXpXpXpXpXpXpXpXpXpXpXpXpXpXpXpXpXpXpXpXpXpXpXpXpXpXpXpXpXpXpXpXpXpXpXpXpXpXpXpXpXpXpXpXpXpXpXpXpXpXpXpXpXpXpXpXpXpX",
"pXpXpXpXpXpXpXpXpXpXpXpXpXpXpXpXpXpXpXpXpXpXpXpXpXpXpXpXpXpXpXpXpXpXpXpXpXpXpXpXpXpXpXpXpXpXpXpXpXpXpXpXpXpXpXpXpXpXpXpXpXpXpXpX",
"pXpXpXpXpXpXpXpXpXpXpXpXpXpXpXpXpXpXpXpXpXpXpXpXpXpXpXpXpXpXpXpXpXpXpXpXpXpXpXpXpXpXpXpXpXpXpXpXpXpXpXpXpXpXpXpXpXpXpXpXpXpXpXpX",
"pXpXpXpXpXpXpXpXpXpXpXpXpXpXpXpXpXpXpXpXpXpXpXpXpXpXpXpXpXpXpXpXpXpXpXpXpXpXpXpXpXpXpXpXpXpXpXpXpXpXpXpXpXpXpXpXpXpXpXpXpXpXpXpX",
"pXpXpXpXpXpXpXpXpXpXpXpXpXpXpXpXpXpXpXpXpXpXpXpXpXpXpXpXpXpXpXpXpXpXpXpXpXpXpXpXpXpXpXpXpXpXpXpXpXpXpXpXpXpXpXpXpXpXpXpXpXpXpXpX"
};
