/* XPM */
static char *result[] = {
/* columns rows colors chars-per-pixel */
"64 64 239 2 ",
"   c #1A1B19",
".  c #120F09",
"X  c #241817",
"o  c #31170D",
"O  c #10310D",
"+  c #3C2306",
"@  c #3A291D",
"#  c #2D2D2B",
"$  c #282625",
"%  c #342B28",
"&  c #33322C",
"*  c #3C3526",
"=  c #373738",
"-  c #213E29",
";  c #5D0506",
":  c #521B1A",
">  c #73100F",
",  c #492909",
"<  c #583A0F",
"1  c #4B3617",
"2  c #5A3717",
"3  c #4C2D0F",
"4  c #653D17",
"5  c #79360B",
"6  c #473725",
"7  c #533C25",
"8  c #473C34",
"9  c #512F2F",
"0  c #6D2C26",
"q  c #1B4911",
"w  c #324A13",
"e  c #097115",
"r  c #256315",
"t  c #1F552C",
"y  c #3A4F39",
"u  c #1A7729",
"i  c #156F2B",
"p  c #2F6A33",
"a  c #5E4517",
"s  c #424901",
"d  c #6A4508",
"f  c #744502",
"g  c #755C07",
"h  c #734719",
"j  c #785318",
"k  c #6A4417",
"l  c #4C6410",
"z  c #766A18",
"x  c #5A412B",
"c  c #594A3C",
"v  c #4A5033",
"b  c #664725",
"n  c #71522D",
"m  c #6E6A30",
"M  c #57564B",
"N  c #575758",
"B  c #4A4A4D",
"V  c #6F5A47",
"C  c #706952",
"Z  c #5E5F60",
"A  c #656566",
"S  c #6C6C6C",
"D  c #797668",
"F  c #767677",
"G  c #6F6F72",
"H  c #516C45",
"J  c #970808",
"K  c #8B0E09",
"L  c #AB0809",
"P  c #BF1515",
"I  c #9A2203",
"U  c #A63023",
"Y  c #CE0E0B",
"T  c #E50000",
"R  c #FE0000",
"E  c #F40706",
"W  c #D82E08",
"Q  c #FF3300",
"!  c #FF3B00",
"~  c #F53100",
"^  c #EE2900",
"/  c #894B06",
"(  c #934804",
")  c #895709",
"_  c #945808",
"`  c #815917",
"'  c #9A5B13",
"]  c #A95502",
"[  c #A9570A",
"{  c #8A6608",
"}  c #986703",
"|  c #987606",
" . c #86751E",
".. c #9A6913",
"X. c #A36704",
"o. c #B76804",
"O. c #A67A0A",
"+. c #B77801",
"@. c #A96B17",
"#. c #A8403F",
"$. c #967527",
"%. c #936929",
"&. c #9B642F",
"*. c #ED4E06",
"=. c #FF4300",
"-. c #FF4B01",
";. c #FB4707",
":. c #FE5301",
">. c #FE5C01",
",. c #FB5808",
"<. c #CC7605",
"1. c #CB720C",
"2. c #FF6401",
"3. c #FF6B02",
"4. c #FF6808",
"5. c #E97A03",
"6. c #FF7C00",
"7. c #F97300",
"8. c #FF6818",
"9. c #FF7215",
"0. c #FF772E",
"q. c #CF5903",
"w. c #94504D",
"e. c #B56154",
"r. c #AB524B",
"t. c #C35455",
"y. c #00A81F",
"u. c #17872A",
"i. c #079723",
"p. c #0C8525",
"a. c #289530",
"s. c #04AB2A",
"d. c #448E2C",
"f. c #00C52D",
"g. c #3B8847",
"h. c #59825F",
"j. c #74947B",
"k. c #9F8115",
"l. c #B88803",
"z. c #BB970B",
"x. c #B38715",
"c. c #9C8124",
"v. c #B7872A",
"b. c #C18400",
"n. c #C98E00",
"m. c #C98605",
"M. c #DC8402",
"N. c #CC9201",
"B. c #C79601",
"V. c #D49708",
"C. c #C79B17",
"Z. c #D29712",
"A. c #FF8B00",
"S. c #FF8709",
"D. c #E69901",
"F. c #FF9A08",
"G. c #FF8714",
"H. c #FF9916",
"J. c #CBA306",
"K. c #D5A700",
"L. c #D9AB11",
"P. c #ECAB00",
"I. c #E5A906",
"U. c #FDA804",
"Y. c #F7B801",
"T. c #FFA413",
"R. c #FFA71B",
"E. c #EEBF09",
"W. c #FF9934",
"Q. c #FF9E20",
"!. c #D8AF25",
"~. c #FFA628",
"^. c #FFB42A",
"/. c #FFAF37",
"(. c #FFB738",
"). c #FCC300",
"_. c #FFCD00",
"`. c #F4C104",
"'. c #FFD100",
"]. c #FFD20C",
"[. c #FFD718",
"{. c #FAC511",
"}. c #FFD824",
"|. c #FFC23F",
" X c #FFE13B",
".X c #968B52",
"XX c #A3835B",
"oX c #AEA158",
"OX c #838369",
"+X c #9A9A7C",
"@X c #94896F",
"#X c #AFAF7A",
"$X c #A18C76",
"%X c #DDBF4C",
"&X c #FFBB4A",
"*X c #FFC748",
"=X c #FFCB58",
"-X c #FFD552",
";X c #FFD76A",
":X c #FFD874",
">X c #858788",
",X c #979797",
"<X c #89968C",
"1X c #A98780",
"2X c #A9A982",
"3X c #B4B486",
"4X c #B3AD95",
"5X c #9CB9A0",
"6X c #A4A3A4",
"7X c #ACADAE",
"8X c #B9B8B9",
"9X c #AFB2A7",
"0X c #C4B1A4",
"qX c #D5D592",
"wX c #CECF8B",
"eX c #FFDB83",
"rX c #DFE088",
"tX c #FFE484",
"yX c #E8E894",
"uX c #FFEC9A",
"iX c #FEFE9A",
"pX c #F2F39A",
"aX c #E1E28E",
"sX c #FFF1A5",
"dX c #FFFABB",
"fX c #FFF6B4",
"gX c #FFECA4",
"hX c #BDBFC2",
"jX c #D6BEC0",
"kX c #D7D7D8",
"lX c #C5CAC7",
"zX c #E0DDDF",
"xX c #FFFDC4",
"cX c #FFFFCD",
"vX c #FFFFD1",
"bX c #FEFEFE",
"nX c #F3F1F3",
"mX c #E6E6E6",
"MX c None",
/* pixels */
"MXMXMXMXMXMXMXMXMXMXMXMXMXMXMXMXMXMXMXMXMXMXMXMXMXMXMXMXMXMXMXMXMXMXMXMXMXMXMXMXMXMXMXMXMXMXMXMXMXMXMXMXMXMXMXMXMXMXMXMXMXMXMXMX",
"MXMXMXMXMXMXMXMXMXMXMXMXMXMXMXMXMXMXMXMXMXMXMXMXMXMXMXMXMXMXMXMXMXMXMXMXMXMXMXMXMXMXMXMXMXMXMXMXMXMXMXMXMXMXMXMXMXMXMXMXMXMXMXMX",
"MXMXMXMXMXMXMXMXMXMXMXMXMXMXMXMXMXMXMXMXMXMXMXMXMXMXMXMXMXMXMXMXMXMXMXMXMXMXMXMXMXMXMXMXMXMXMXMXMXMXMXMXMXMXMXMXMXMXMXMXMXMXMXMX",
"MXMXMXMXMXMXMXMXMXMXMXMXMXMXMXMXMXMXMXMXMXMXMXMXMXMXMXMXMXMXMXMXMXMXMXMXMXMXMXMXMXMXMXMXMXMXMXMXMXMXMXMXMXMXMXMXMXMXMXMXMXMXMXMX",
"MXMXMXMXMXMXMXMXMXMXMXMXMXMXMXMXMXMXMXMXMXMXMXMXMXMXMXMXMXMXMXMXMXMXMXMXMXMXMXMXMXMXMXMXMXMXMXMXMXMXMXMXMXMXMXMXMXMXMXMXMXMXMXMX",
"MXMXMXMXMXMXMXMXMXMXMXMXMXMXMXMXMXMXMXMXMXMXMXMXMXMXMXMXMXMXMXMXMXMXMXMXMXMXMXMXMXMXMXMXMXMXMXMXMXMXMXMXMXMXMXMXMXMXMXMXMXMXMXMX",
"MXMXMXMXMXMXMXMXMXMXMXMXMXMXMXMXMXMXMXMXMXMXMXMXMXMXMXMXMXMXMXMXMXMXMXMXMXMXMXMXMXMXMXMXMXMXMXMXMXMXMXMXMXMXMXMXMXMXMXMXMXMXMXMX",
"MXMXMXMXMXMXMXMXMXMXMXMXMXMXMXMXMXMXMXMXMXMXMXMXMXMXMXMXMXMXMXMXMXMXMXMXMXMXMXMXMXMXMXMXMXMXMXMXMXMXMXMXMXMXMXMXMXMXMXMXMXMXMXMX",
"MXMXMXMXMXMXMXMXMXMXMXMXMXMXMXMXMXMXMXMXMXMXMXMXMXMXMXMXMXMXMXMXMXMXMXMXMXMXMXMXMXMXMXMXMXMXMXMXMXMXMXMXMXMXMXMXMXMXMXMXMXMXMXMX",
"MXMXMXMXMXMXMXMXMXMXMXMXMXMXMXMXMXMXMXMXMXMXMXMXMXMXMXMXMXMXMXMXMXMXMXMXMXMXMXMXMXMXMXMXMXMXMXMXMXMXMXMXMXMXMXMXMXMXMXMXMXMXMXMX",
"MXMXMXMXMXMXMXMXMXMXMXMXMXMXMXMXMXMXMXMXMXMXMXMXMXMXMXMXMXMXMXMXMXMXMXMXMXMXMXMXMXMXMXMXMXMXMXMXMXMXMXMXMXMXMXMXMXMXMXMXMXMXMXMX",
"MXMXMXMXMXMXMXMXMXMXMXMXMXMXMXMXMXMXMXMXMXMXMXMXMXMXMXMXMXMXMXMXMXMXMXMXMXMXMXMXMXMXMXMXMXMXMXMXMXMXMXMXMXMXMXMXMXMXMXMXMXMXMXMX",
"MXMXMXMXMXMXMXMXMXMXMXMXMXMXMXMXMXMXMXMXMXMXMXMXMXMXMXMXMXMXMXMXMXMXMXMXMXMXMXMXMXMXMXMXMXMXMXMXMXMXMXMXMXMXMXMXMXMXMXMXMXMXMXMX",
"MXMXMXMXMXMXMXMXMXMXMXMXMXMXMXMXMXMXMXMXMXMXMXMXMXMXMXMXMXMXMXMXMXMXMXMXMXMXMXMXMXMX@ : 8 & - . MXMXMXMXMXMXMXMXMXMXMXMXMXMXMXMX",
"MXMXMXMXMXMXMXMXMXMXMXMXMXMXMXMXMXMXMXMXMXMXMXMXMXMXMXMXMXMXMXMXMXMXMXMXMXMXMXMXMXo J L X ,XS .     MXMXMXMX  MXMXMXMXMXMXMXMXMX",
"MXMXMXMXMXMXMXMXMXMXMXMXMXMXMXMXMXMXMXMXMXMXMXMXMXMXMXMXMXMXMXMXMXMXMXMXMXMX7 MXMXJ E K > 8Xe.C 6Xq O # < X.X.MXMXMXMXMXMXMXMXMX",
"MXMXMXMXMXMXMXMXMXMXMXMXMXMXMXMXMXMXMXMXMXMXMXMXMXMXMXMXMXMXMXMXMXMXMXMXMXMXk 1 & Y R Y Y 9 V $.kX5Xq O z ).+.MXMXMXMXMXMXMXMXMX",
"MXMXMXMXMXMXMXMXMXMXMXMXMXMXMXMXMXMXMXMXMXMXMXMXMXMXMXMXMXMXMXMXMXMXMXMXMXMX$.b ; R R R T L _ z.kXbXkX>Xg.z.{ MXMXMXMXMXMXMXMXMX",
"MXMXMXMXMXMXMXMXMXMXMXMXMXMXMXMXMXMXMXMXMXMXMXMXMXMXMXMXMXMXMXMXMXMXMXMXMXMXN.` ; R Y #.P K b.z.hXbXbXnXj.m f MXMXMXMXMXMXMXMXMX",
"MXMXMXMXMXMXMXMXMXMXMXMXMXMXMXMXMXMXMXMXMXMXMXMXMXMXMXMXMXMXMXMXMXMXMXMXMXMXm.{ ; U v % 6 d Y.l.>XlXmXbXkXp * MXMXMXMXMXMXMXMXMX",
"MXMXMXMXMXMXMXMXMXMXMXMXMXMXMXMXMXMXMXMXMXMXMXMXMXMXMXMXMXMXMXMXMXMXMXMXMXMX&.0 s a.4 Y 2 b._.} , C 7XmXbX<X- MXMXMXMXMXMXMXMXMX",
"MXMXMXMXMXMXMXMXMXMXMXMXMXMXMXMXMXMXMXMXMXMXMXMXMXMXMXMXMXMXMXMXMXMXMXMXMXMX> I s.r T T K m.Y.` Z.+.c Z kXlXi MXMXMXMXMXMXMXMXMX",
"MXMXMXMXMXMXMXMXMXMXMXMXMXMXMXMXMXMXMXMXMXMXMXMXMXMXMXMXMXMXMXMXMXMXMXMXMXMX> g s.0 E > v x.<.z _.`.j N F zXg.t MXMXMXMXMXMXMXMX",
"MXMXMXMXMXMXMXMXMXMXMXMXMXMXMXMXMXMXMXMXMXMXMXMXMXMXMXMXMXMXMXMXMXMXMXMXMXMXo  .u P t.j.s.a.z k.'.B.C 7XN 7Xh.u MXMXMXMXMXMXMXMX",
"MXMXMXMXMXMXMXMXMXMXMXMXMXMXMXMXMXMXMXMXMXMXMXMXMXMXMXMXMXMXMXMXMXMXMXMXMX+ _ l i : jX5Xi.f.e c.).z G ,XN F j.p.MXMXMXMXMXMXMXMX",
"MXMXMXMXMXMXMXMXMXMXMXMXMXMXMXMXMXMXMXMXMXMXMXMXMXMXMXMXMXMXMXMXMXMXMXMXx l._.l.w n 9XH + e e z +.M A A c c >Xp.t MXMXMXMXMXMXMX",
"MXMXMXMXMXMXMXMXMXMXMXMXMXMXMXMXMXMXMXMXMXMXMXMXMXMXMXMXMXMXMXMXMXMXMXMXn %X!.5.[ D D | L.| r s b Z A N O.B.C a.p % MXMXMXMXMXMX",
"MXMXMXMXMXMXMXMXMXMXMXMXMXMXMXMXMXMXMXMXMXMXMXMXMXMXMXMXMXMXMXMXMXMXMXx x.!.1.;.3.I.<.{.[.'.b., B G N m `._.c.u p X.1 MXMXMXMXMX",
"MXMXMXMXMXMXMXMXMXMXMXMXMXMXMXMXMXMXMXMXMXMXMXMXMXMXMXMXMXMXMXMXMXMXMXn D.U.-.Q ;.R.U._.P.).).n >X6XM B._._.K.q a.L.l.c MXMXMXMX",
"MXMXMXMXMXMXMXMXMXMXMXMXMXMXMXMXMXMXMXMXMXMXMXMXMXMXMXMXMXMXMXMXMXMXMXf 5.=.=.6.-.;.U.P.o.<._...S >Xj Y.]._.).l i.z...MXMXMXMXMX",
"MXMXMXMXMXMXMXMXMXMXMXMXMXMXMXMXMXMXMXMXMXMXMXMXMXMXMXMXMXMXMXMXMXQ MXn 5.! 2.~.2.-.A.n.8 %.P.} B c n.[.[._.'.| e a 6 MXMXMXMXMX",
"MXMXMXMXMXMXMXMXMXMXMXMXMXMXMXMXMXMXMXMXMXMXMXMXMXMXMXMXMXMXMXMXQ Q Q b q.:.T.=XH.A.*.I > ] M.k = 3 I._.'.'.'.B.q   MXMXMXMXMXMX",
"MXMXMXMXMXMXMXMXMXMXMXMXMXMXMXMXMXMXMXMXMXMXMXMXMXMXMXMXMXMXMXQ -.2.Q ~ Q 9.;XuX&XH.*.w.J ] q..XrXC l._.'.).B.} O MXMXMXMXMXMXMX",
"MXMXMXMXMXMXMXMXMXMXMXMXMXMXMXMXMXMXMXMXMXMXMXMXMXMXMXQ MXMXQ Q >.A.! ! Q W.xXcXgX&X,.r.0 _ _ rXyXOX) m.g d 6 = = MXMXMXMXMXMXMX",
"MXMXMXMXMXMXMXMXMXMXMXMXMXMXMXMXMXMXMXMXMXMXMXMXMXQ Q Q Q MXQ :.H./.A.6.! 0.dXcXvX&X^ #.D [ %.wX2X3X6 % B N Z S N MXMXMXMXMXMXMX",
"MXMXMXMXMXMXMXMXMXMXMXMXMXMXMXMXMXMXMXMXMXMXMXMXMXQ ! ! Q Q =.A.R.;XT.A.! ,.:XxXtXG.Y w.n [ C 2XyXyXM A F A A 6XF MXMXMXMXMXMXMX",
"MXMXMXMXMXMXMXMXMXMXMXMXMXMXMXMXMXMXMXMXQ MXMXMXQ Q 3.2.Q Q :.T.;XgX&XQ.! -.H.-XH.=.e.w.n ] .XiXiXyXM ,X6XA A ,XG & MXMXMXMXMXMX",
"MXMXMXMXMXMXMXMXMXMXMXMXMXMXMXMXMXMXMXMXQ Q MXQ Q -.G.S.-.=.:.:XxXcXdX/.! W ,.6.:.W $X,X' ' #XiXiXyXM F >XA A A N . MXMXMXMXMXMX",
"MXMXMXMXMXMXMXMXMXMXMXMXMXMXMXMXMXMXMXQ Q Q Q Q -.T.(.(.A.6.! =XcXcXxX~.W V U ~ >.+.&.@XZ...rXiXqX+X= % % & & & #   MXMXMXMXMXMX",
"MXMXMXMXMXMXMXMXMXMXMXMXMXMXMXMXMXMXQ Q >.=.Q Q ,.(.=X;XT.G.! ~.fXcXtX3.*.n + K._.'.).E.P.n 3X+X+X2Xj +.K.K.K.B.5 + MXMXMXMXMXMX",
"MXMXMXMXMXMXMXMXMXMXMXMXMXMXMXMXMX! Q ! A.>.Q Q 8.tXfXeX(./.=.4.*X:XR.! A.Y.{ I.P.D.).'.n.C #XqXsXoXN._._._._.'.| & MXMXMXMXMXMX",
"MXMXMXMXMXMXMXMXMXMXMXMXMXMXMXMXMXQ -.6./.S.2.3.0.xXvXdXgX/.=.Q :.,.=.=.Y.'.J.X./ , b.N.j wXiXiXpX$.P. X}._._._.b.% MXMXMXMXMXMX",
"MXMXMXMXMXMXMXMXMXMXMXMXMXMXMXMXMX! H.R.=X^.F.A.8.fXcXcXxXW.Q MXQ Q ^ / ).`.Y.) 1 h , o .XiXiXuX#X) Y. X}._._.'.b.+ MXMXMXMXMXMX",
"MXMXMXMXMXMXMXMXMXMXMXMXMXMXMXMXMX:.~.-XuX&X^.H.,.eXvXcXtX4.Q MXMXMXMX2 I.$._ <.5 ( _ 7 M +X#X+XOX/ D._._._._.).} MXMXMXMXMXMXMX",
"MXMXMXMXMXMXMXMXMXMXMXMXMXMXMXMXMX2.*XdXcX:X;X^.:.R.tXtXR.-.Q MXMXMXMX@ o.+.x M 2 k @.5 MX& j.3XqXV / Y.)._._.Y.f MXMXMXMXMXMXMX",
"MXMXMXMXMXMXMXMXMXMXMXMXMXMXMXMXMX>.:XcXcXcXfX^.:.2.T.T.2.Q MXMXMXMXMXMX4 ] [ h a x.M.5 MXMX& C j.G 6 n.V.I.I.X.} 2 MXMXMXMXMXMX",
"MXMXMXMXMXMXMXMXMXMXMXMXMXMXMXMXMX=.&XcXcXcXfXH.=.Q -.-.Q MXMXMXMXMXMXMXN 7 3 < J.Y.o.7 MXMXMXMX#     1 6 @.f g I.k MXMXMXMXMXMX",
"MXMXMXMXMXMXMXMXMXMXMXMXMXMXMXMXMX! ~.dXvXcX:X6.Q MXMXQ MXMXMXMXMXMXMXMXG 8X9XZ.I./ 3 MXMXMXMXMXMXMXMXMX6 d l.m.XXV MXMXMXMXMXMX",
"MXMXMXMXMXMXMXMXMXMXMXMXMXMXMXMXMX! 4.(.;X=XG.=.Q MXMXMXMXMXMXMXMXMXMXMXMXN M 1 , $ MXMXMXMXMXMXMXMXMXMX7 o.v.$XhX6XMXMXMXMXMXMX",
"MXMXMXMXMXMXMXMXMXMXMXMXMXMXMXMXMXMXQ :.A.3.! Q MXMXMXMXMXMXMXMXMXMXMXMXMXMXMXMXMXMXMXMXMXMXMXMXMXMXMXMXMXb 6XhXkX@XMXMXMXMXMXMX",
"MXMXMXMXMXMXMXMXMXMXMXMXMXMXMXMXMXMXQ Q Q Q Q MXMXMXMXMXMXMXMXMXMXMXMXMXMXMXMXMXMXMXMXMXMXMXMXMXMXMXMXMXMX= F 7XZ B MXMXMXMXMXMX",
"MXMXMXMXMXMXMXMXMXMXMXMXMXMXMXMXMXMXMXMXQ Q MXMXMXMXMXMXMXMXMXMXMXMXMXMXMXMXMXMXMXMXMXMXMXMXMXMXMXMXMXMXMXMX= # MXMXMXMXMXMXMXMX",
"MXMXMXMXMXMXMXMXMXMXMXMXMXMXMXMXMXMXMXMXMXMXMXMXMXMXMXMXMXMXMXMXMXMXMXMXMXMXMXMXMXMXMXMXMXMXMXMXMXMXMXMXMXMXMXMXMXMXMXMXMXMXMXMX",
"MXMXMXMXMXMXMXMXMXMXMXMXMXMXMXMXMXMXMXMXMXMXMXMXMXMXMXMXMXMXMXMXMXMXMXMXMXMXMXMXMXMXMXMXMXMXMXMXMXMXMXMXMXMXMXMXMXMXMXMXMXMXMXMX",
"MXMXMXMXMXMXMXMXMXMXMXMXMXMXMXMXMXMXMXMXMXMXMXMXMXMXMXMXMXMXMXMXMXMXMXMXMXMXMXMXMXMXMXMXMXMXMXMXMXMXMXMXMXMXMXMXMXMXMXMXMXMXMXMX",
"MXMXMXMXMXMXMXMXMXMXMXMXMXMXMXMXMXMXMXMXMXMXMXMXMXMXMXMXMXMXMXMXMXMXMXMXMXMXMXMXMXMXMXMXMXMXMXMXMXMXMXMXMXMXMXMXMXMXMXMXMXMXMXMX",
"MXMXMXMXMXMXMXMXMXMXMXMXMXMXMXMXMXMXMXMXMXMXMXMXMXMXMXMXMXMXMXMXMXMXMXMXMXMXMXMXMXMXMXMXMXMXMXMXMXMXMXMXMXMXMXMXMXMXMXMXMXMXMXMX",
"MXMXMXMXMXMXMXMXMXMXMXMXMXMXMXMXMXMXMXMXMXMXMXMXMXMXMXMXMXMXMXMXMXMXMXMXMXMXMXMXMXMXMXMXMXMXMXMXMXMXMXMXMXMXMXMXMXMXMXMXMXMXMXMX",
"MXMXMXMXMXMXMXMXMXMXMXMXMXMXMXMXMXMXMXMXMXMXMXMXMXMXMXMXMXMXMXMXMXMXMXMXMXMXMXMXMXMXMXMXMXMXMXMXMXMXMXMXMXMXMXMXMXMXMXMXMXMXMXMX",
"MXMXMXMXMXMXMXMXMXMXMXMXMXMXMXMXMXMXMXMXMXMXMXMXMXMXMXMXMXMXMXMXMXMXMXMXMXMXMXMXMXMXMXMXMXMXMXMXMXMXMXMXMXMXMXMXMXMXMXMXMXMXMXMX",
"MXMXMXMXMXMXMXMXMXMXMXMXMXMXMXMXMXMXMXMXMXMXMXMXMXMXMXMXMXMXMXMXMXMXMXMXMXMXMXMXMXMXMXMXMXMXMXMXMXMXMXMXMXMXMXMXMXMXMXMXMXMXMXMX",
"MXMXMXMXMXMXMXMXMXMXMXMXMXMXMXMXMXMXMXMXMXMXMXMXMXMXMXMXMXMXMXMXMXMXMXMXMXMXMXMXMXMXMXMXMXMXMXMXMXMXMXMXMXMXMXMXMXMXMXMXMXMXMXMX",
"MXMXMXMXMXMXMXMXMXMXMXMXMXMXMXMXMXMXMXMXMXMXMXMXMXMXMXMXMXMXMXMXMXMXMXMXMXMXMXMXMXMXMXMXMXMXMXMXMXMXMXMXMXMXMXMXMXMXMXMXMXMXMXMX",
"MXMXMXMXMXMXMXMXMXMXMXMXMXMXMXMXMXMXMXMXMXMXMXMXMXMXMXMXMXMXMXMXMXMXMXMXMXMXMXMXMXMXMXMXMXMXMXMXMXMXMXMXMXMXMXMXMXMXMXMXMXMXMXMX"
};
