/* XPM */
static char *result[] = {
/* columns rows colors chars-per-pixel */
"64 64 233 2 ",
"   c #0A0B0B",
".  c #121110",
"X  c #271606",
"o  c #321903",
"O  c #2D1616",
"+  c #132413",
"@  c #1B3D00",
"#  c #392715",
"$  c #2F2812",
"%  c #1D3125",
"&  c #252626",
"*  c #352D24",
"=  c #373535",
"-  c #34342B",
";  c #421C1D",
":  c #560F0E",
">  c #680B0A",
",  c #790D03",
"<  c #442E1A",
"1  c #463B11",
"2  c #483319",
"3  c #55361B",
"4  c #512F08",
"5  c #693700",
"6  c #743D05",
"7  c #643C14",
"8  c #703F10",
"9  c #4A3929",
"0  c #543D26",
"q  c #483D36",
"w  c #643924",
"e  c #692724",
"r  c #12570E",
"t  c #10460C",
"y  c #0F6F14",
"u  c #284E31",
"i  c #19672B",
"p  c #137323",
"a  c #2B692F",
"s  c #285E18",
"d  c #5C4706",
"f  c #6B4708",
"g  c #774501",
"h  c #6B560A",
"j  c #77570E",
"k  c #664719",
"l  c #764914",
"z  c #795416",
"x  c #5D6C04",
"c  c #57422C",
"v  c #484337",
"b  c #544839",
"n  c #4B4C30",
"m  c #644828",
"M  c #754927",
"N  c #7B5624",
"B  c #6F5330",
"V  c #47762F",
"C  c #6B7021",
"Z  c #403F41",
"A  c #367343",
"S  c #454546",
"D  c #57574B",
"F  c #595858",
"G  c #51524F",
"H  c #6A5642",
"J  c #736147",
"K  c #696959",
"L  c #7D7956",
"P  c #64725F",
"I  c #5E5E61",
"U  c #5F6063",
"Y  c #646465",
"T  c #6B6C6E",
"R  c #676666",
"E  c #776D66",
"W  c #797666",
"Q  c #7C7C7D",
"!  c #747575",
"~  c #6E6E70",
"^  c #4A654B",
"/  c #860404",
"(  c #8F130C",
")  c #A20809",
"_  c #B9100C",
"`  c #9C3829",
"'  c #D80707",
"]  c #CE1211",
"[  c #EB0400",
"{  c #FD0101",
"}  c #F30404",
"|  c #CC2C27",
" . c #884807",
".. c #904A01",
"X. c #875709",
"o. c #985409",
"O. c #875216",
"+. c #A34F00",
"@. c #A55705",
"#. c #B05700",
"$. c #8A6708",
"%. c #986905",
"&. c #89681C",
"*. c #9B6A14",
"=. c #AB7505",
"-. c #B37B02",
";. c #B97803",
":. c #B57819",
">. c #A76712",
",. c #875830",
"<. c #926825",
"1. c #957120",
"2. c #A06824",
"3. c #CD6E00",
"4. c #C27708",
"5. c #D17A06",
"6. c #C37322",
"7. c #A13F41",
"8. c #904D4D",
"9. c #AB4F41",
"0. c #8E7752",
"q. c #AB794B",
"w. c #8E7C69",
"e. c #CC775C",
"r. c #028F19",
"t. c #0E8523",
"y. c #12932A",
"u. c #208A32",
"i. c #02B72B",
"p. c #598B2C",
"a. c #5D8361",
"s. c #738B71",
"d. c #488A53",
"f. c #9C820C",
"g. c #BC8300",
"h. c #B78715",
"j. c #BC9B10",
"k. c #AF8C0E",
"l. c #C68906",
"z. c #DA8701",
"x. c #C99701",
"c. c #D89804",
"v. c #C79018",
"b. c #E28C00",
"n. c #E59D00",
"m. c #E19C1C",
"M. c #DDA200",
"N. c #D9A706",
"B. c #D5AE17",
"V. c #E9AC00",
"C. c #E6A602",
"Z. c #E9B305",
"A. c #F2B401",
"S. c #F7BC03",
"D. c #F9B902",
"F. c #F2BB13",
"G. c #D79D31",
"H. c #D6902B",
"J. c #DBB53B",
"K. c #E7B72E",
"L. c #FBC400",
"P. c #FFCC00",
"I. c #F9C608",
"U. c #FFD100",
"Y. c #FFD10B",
"T. c #FFD515",
"R. c #F5C217",
"E. c #FAD22B",
"W. c #988D55",
"Q. c #B5875A",
"!. c #A58C4B",
"~. c #8B8A68",
"^. c #96977C",
"/. c #898A75",
"(. c #B88B65",
"). c #BE9270",
"_. c #AEAD71",
"`. c #C39558",
"'. c #C98D4E",
"]. c #E1B54F",
"[. c #CC9965",
"{. c #CC996B",
"}. c #CA966E",
"|. c #CC9974",
" X c #CC9B7A",
".X c #C89474",
"XX c #CEA37F",
"oX c #D5AD79",
"OX c #DBA94A",
"+X c #FFE84E",
"@X c #878787",
"#X c #93908C",
"$X c #A29284",
"%X c #A29E9C",
"&X c #ABAB83",
"*X c #B9B988",
"=X c #9DB4A3",
"-X c #A9A9A8",
";X c #B3B3B4",
":X c #BDBBB9",
">X c #8FA597",
",X c #CC9B83",
"<X c #CC9B8D",
"1X c #CC9E94",
"2X c #CCA38A",
"3X c #CCA59A",
"4X c #CCABAC",
"5X c #CCA8A7",
"6X c #CCABB5",
"7X c #CCB3BC",
"8X c #D5B9B3",
"9X c #CCCC8D",
"0X c #D5D689",
"qX c #CECE95",
"wX c #DADA90",
"eX c #E8E893",
"rX c #FDFE9A",
"tX c #F5F696",
"yX c #E7E88F",
"uX c #CCB4C4",
"iX c #CCB8C9",
"pX c #CCBCD7",
"aX c #CCBDE0",
"sX c #D3D4D3",
"dX c gainsboro",
"fX c #CBC7D1",
"gX c #CCC6E8",
"hX c #CCCAF5",
"jX c #CCCDFE",
"kX c #FDFCFD",
"lX c #F3F3F3",
"zX c #EDECED",
"xX c None",
/* pixels */
"xXxXxXxXxXxXxXxXxXxXxXxXxXxXxXxXxXxXxXxXxXxXxXxXxXxXxXxXxXxXxXxXxXxXxXxXxXxXxXxXxXxXxXxXxXxXxXxXxXxXxXxXxXxXxXxXxXxXxXxXxXxXxXxX",
"xXxXxXxXxXxXxXxXxXxXxXxXxXxXxXxXxXxXxXxXxXxXxXxXxXxXxXxXxXxXxXxXxXxXxXxXxXxXxXxXxXxXxXxXxXxXxXxXxXxXxXxXxXxXxXxXxXxXxXxXxXxXxXxX",
"xXxXxXxXxXxXxXxXxXxXxXxXxXxXxXxXxXxXxXxXxXxXxXxXxXxXxXxXxXxXxXxXxXxXxXxXxXxXxXxXxXxXxXxXxXxXxXxXxXxXxXxXxXxXxXxXxXxXxXxXxXxXxXxX",
"xXxXxXxXxXxXxXxXxXxXxXxXxXxXxXxXxXxXxXxXxXxXxXxXxXxXxXxXxXxXxXxXxXxXxXxXxXxXxXxXxXxXxXxXxXxXxXxXxXxXxXxXxXxXxXxXxXxXxXxXxXxXxXxX",
"xXxXxXxXxXxXxXxXxXxXxXxXxXxXxXxXxXxXxXxXxXxXxXxXxXxXxXxXxXxXxXxXxXxXxXxXxXxXxXxXxXxXxXxXxXxXxXxXxXxXxXxXxXxXxXxXxXxXxXxXxXxXxXxX",
"xXxXxXxXxXxXxXxXxXxXxXxXxXxXxXxXxXxXxXxXxXxXxXxXxXxXxXxXxXxXxXxXxXxXxXxXxXxXxXxXxXxXxXxXxXxXxXxXxXxXxXxXxXxXxXxXxXxXxXxXxXxXxXxX",
"xXxXxXxXxXxXxXxXxXxXxXxXxXxXxXxXxXxXxXxXxXxXxXxXxXxXxXxXxXxXxXxXxXxXxXxXxXxXxXxXxXxXxXxXxXxXxXxXxXxXxXxXxXxXxXxXxXxXxXxXxXxXxXxX",
"xXxXxXxXxXxXxXxXxXxXxXxXxXxXxXxXxXxXxXxXxXxXxXxXxXxXxXxXxXxXxXxXxXxXxXxXxXxXxXxXxXxXxXxXxXxXxXxXxXxXxXxXxXxXxXxXxXxXxXxXxXxXxXxX",
"xXxXxXxXxXxXxXxXxXxXxXxXxXxXxXxXxXxXxXxXxXxXxXxXxXxXxXxXxXxXxXxXxXxXxXxXxXxXxXxXxXxXxXxXxXxXxXxXxXxXxXxXxXxXxXxXxXxXxXxXxXxXxXxX",
"xXxXxXxXxXxXxXxXxXxXxXxXxXxXxXxXxXxXxXxXxXxXxXxXxXxXxXxXxXxXxXxXxXxXxXxXxXxXxXxXxXxXxXxXxXxXxXxXxXxXxXxXxXxXxXxXxXxXxXxXxXxXxXxX",
"xXxXxXxXxXxXxXxXxXxXxXxXxXxXxXxXxXxXxXxXxXxXxXxXxXxXxXxXxXxXxXxXxXxXxXxXxXxXxXxXxXxXxXxXxXxXxXxXxXxXxXxXxXxXxXxXxXxXxXxXxXxXxXxX",
"xXxXxXxXxXxXxXxXxXxXxXxXxXxXxXxXxXxXxXxXxXxXxXxXxXxXxXxXxXxXxXxXxXxXxXxXxXxXxXxXxXxXxXxXxXxXxXxXxXxXxXxXxXxXxXxXxXxXxXxXxXxXxXxX",
"xXxXxXxXxXxXxXxXxXxXxXxXxXxXxXxXxXxXxXxXxXxXxXxXxXxXxXxXxXxXxXxXxXxXxXxXxXxXxXxXxXxXxX; xXxXxXxXxXxXxXxXxXxXxXxXxXxXxXxXxXxXxXxX",
"xXxXxXxXxXxXxXxXxXxXxXxXxXxXxXxXxXxXxXxXxXxXxXxXxXxXxXxXxXxXxXxXxXxXxXxXxXxXxXxXxXxX> ) O xXxXxXxXxXxXxXxXxXxXxXxXxXxXxXxXxXxXxX",
"xXxXxXxXxXxXxXxXxXxXxXxXxXxXxXxXxXxXxXxXxXxXxXxXxXxXxXxXxXxXxXxXxXxXxXxXxXxXxXxXxX, } / : Z 0 o xXxXxXxXxXxXxXxXxXxXxXxXxXxXxXxX",
"xXxXxXxXxXxXxXxXxXxXxXxXxXxXxXxXxXxXxXxXxXxXxXxXxXxXxXxXxXxXxXxXxXxXxXxXxXxX7 xXxX_ { ] ) D J 7 & + & xXxXo 4 xXxXxXxXxXxXxXxXxX",
"xXxXxXxXxXxXxXxXxXxXxXxXxXxXxXxXxXxXxXxXxXxXxXxXxXxXxXxXxXxXxXxXxXxXxXxXxXxX&.N > [ { { [ , X.k.%Xa @ + h x.-.xXxXxXxXxXxXxXxXxX",
"xXxXxXxXxXxXxXxXxXxXxXxXxXxXxXxXxXxXxXxXxXxXxXxXxXxXxXxXxXxXxXxXxXxXxXxXxXxXl.z > { } ] ' ) -.j.sXsXF t C F.=.xXxXxXxXxXxXxXxXxX",
"xXxXxXxXxXxXxXxXxXxXxXxXxXxXxXxXxXxXxXxXxXxXxXxXxXxXxXxXxXxXxXxXxXxXxXxXxXxXc.%.> ' ,.= e 3 V.j.sXkXlX;XA k.$.xXxXxXxXxXxXxXxXxX",
"xXxXxXxXxXxXxXxXxXxXxXxXxXxXxXxXxXxXxXxXxXxXxXxXxXxXxXxXxXxXxXxXxXxXxXxXxXxX2.k < V u ) 3 =.P.:.;XzXkXkX>XV 3 xXxXxXxXxXxXxXxXxX",
"xXxXxXxXxXxXxXxXxXxXxXxXxXxXxXxXxXxXxXxXxXxXxXxXxXxXxXxXxXxXxXxXxXxXxXxXxXxXe ( r.p ' [ , x.L.X.T ;XdXlXzX^ - xXxXxXxXxXxXxXxXxX",
"xXxXxXxXxXxXxXxXxXxXxXxXxXxXxXxXxXxXxXxXxXxXxXxXxXxXxXxXxXxXxXxXxXxXxXxXxXxX/ j i.3 { ) w v.z.8 X.c #XsXkX=Xu xXxXxXxXxXxXxXxXxX",
"xXxXxXxXxXxXxXxXxXxXxXxXxXxXxXxXxXxXxXxXxXxXxXxXxXxXxXxXxXxXxXxXxXxXxXxXxXxX< s t._ | P y.p.*.&.D.M.k Z :XsXi u xXxXxXxXxXxXxXxX",
"xXxXxXxXxXxXxXxXxXxXxXxXxXxXxXxXxXxXxXxXxXxXxXxXxXxXxXxXxXxXxXxXxXxXxXxXxXxX7 i p e 4X=Xi.i.i =.U.D.N ~ Y sXd.a xXxXxXxXxXxXxXxX",
"xXxXxXxXxXxXxXxXxXxXxXxXxXxXxXxXxXxXxXxXxXxXxXxXxXxXxXxXxXxXxXxXxXxXxXxXq %.A.*.r e 8Xs.t r.r.C P.-.! ;XI #Xa.p xXxXxXxXxXxXxXxX",
"xXxXxXxXxXxXxXxXxXxXxXxXxXxXxXxXxXxXxXxXxXxXxXxXxXxXxXxXxXxXxXxXxXxXxXxXm K.K.'.M ! /.h h.h r x V.B T s.F T #Xt.xXxXxXxXxXxXxXxX",
"xXxXxXxXxXxXxXxXxXxXxXxXxXxXxXxXxXxXxXxXxXxXxXxXxXxXxXxXxXxXxXxXxXxXxXxX1.J.`.[.G.v.:.F.T.S.$.d %.F R Y c N ! t.u xXxXxXxXxXxXxX",
"xXxXxXxXxXxXxXxXxXxXxXxXxXxXxXxXxXxXxXxXxXxXxXxXxXxXxXxXxXxXxXxXxXxXxXB C.L.J.[.].E.D.L.I.P.S.z q Y K D j.N.L t.a < xXxXxXxXxXxX",
"xXxXxXxXxXxXxXxXxXxXxXxXxXxXxXxXxXxXxXxXxXxXxXxXxXxXxXxXxXxXxXxXxXxXxX6 n.R.OX2XoX].I.A.5.b.L.1.F Q I &.L.U.k.i p.;.k xXxXxXxXxX",
"xXxXxXxXxXxXxXxXxXxXxXxXxXxXxXxXxXxXxXxXxXxXxXxXxXxXxXxXxXxXxXxX[.[.xXj b.m.2XuX.X[.F.m.c 2.D.%.Q -Xb N.U.P.V.s y.B.x.b xXxXxXxX",
"xXxXxXxXxXxXxXxXxXxXxXxXxXxXxXxXxXxXxXxXxXxXxXxXxXxXxXxXxXxXxXxX{.{.[.Q.5.H. XuX1X Xm.+.: @.b.l R ~ $.I.T.P.P.x y.k.z xXxXxXxXxX",
"xXxXxXxXxXxXxXxXxXxXxXxXxXxXxXxXxXxXxXxXxXxXxXxXxXxX[.xXxXxXxX[. X2X{.(.o.'.3XgXuX X:.,.) @.3.m S 0 N.Y.Y.P.U.%.y $ xXxXxXxXxXxX",
"xXxXxXxXxXxXxXxXxXxXxXxXxXxXxXxXxXxXxXxXxXxXxXxXxXxX[.[.xXxXxX[.2X4X{.(.0 q.iXjXpX X,.8.e +.@.oXa.< c.P.U.P.U.M.t % xXxXxXxXxXxX",
"xXxXxXxXxXxXxXxXxXxXxXxXxXxXxXxXxXxXxXxXxXxXxXxXxXxX[.[.xXxXxX[.3X7X.X(.O.'.uXjXgX X` 9.E @.,.tXrXW.-.P.L.V.%.d $ xXxXxXxXxXxXxX",
"xXxXxXxXxXxXxXxXxXxXxXxXxXxXxXxXxXxXxXxX[.xXxXxXxX[.{.|.[.xXxX|.5XpX5X(. .q.uXjXpX.X] 7.J #.!.rX9X/.k o.2 # Z G u xXxXxXxXxXxXxX",
"xXxXxXxXxXxXxXxXxXxXxXxXxXxXxXxXxXxXxXxX[.[.xXxXxX{.4X3X[.[.[.|.iXjXpX,XH H 4XjXpXe.9.8.B #.W.*X_.9Xv = I U Y Q I xXxXxXxXxXxXxX",
"xXxXxXxXxXxXxXxXxXxXxXxXxXxXxXxXxXxXxX[.[.[.xX[.xX{.7X3X{.[.[. XhXjXaX,Xw.w.2X6X3X9.$X#XO.o.W 9XtXeXF Q s.R R -XQ xXxXxXxXxXxXxX",
"xXxXxXxXxXxXxXxXxXxXxXxXxXxXxXxXxXxXxX{.XX{.xX[.[.|.6X6X X|.[.2XhXjXaX.XT $X{. X{.,.0.#Xv.%.0XrXrXeXD #X-XR R Q R * xXxXxXxXxXxX",
"xXxXxXxXxXxXxXxXxXxXxXxXxXxXxXxXxXxXxX{.3XXX[.[.[.,XiXgX6X|.[. XaXjXpX).R ! 0.`.OXF.C.B.C.N eXrXrXwXG R T F U I G   xXxXxXxXxXxX",
"xXxXxXxXxXxXxXxXxXxXxXxXxXxXxXxXxXxX[.XXuX2X[.[.[.3XhXjXiX|.[.|.iXhXuX(.3 S 0 B.D.D.L.U.c.0.tXeX*X^.* # 2 1 1 1 # O xXxXxXxXxXxX",
"xXxXxXxXxXxXxXxXxXxXxXxXxXxXxXxXxXxX[. XuX<X{.{.[.6XjXjXgX|.xX{.1X4X<X'.c.*.5 4.#.g n.A.O.s._.$X*X_.*.n.L.L.L.A.O.$ xXxXxXxXxXxX",
"xXxXxXxXxXxXxXxXxXxXxXxXxXxXxXxXxXxX[.,XuX6X<X{.[.uXjXjXfX XxX{.|.<X|.G.P.L.C.5 2 c 4 d W.wX0XeXrX!.c.Y.Y.P.P.U.-.= xXxXxXxXxXxX",
"xXxXxXxXxXxXxXxXxXxXxXxXxXxXxXxXxXxX{.4XgXhX4X X[.4XhXjXuX|.xXxX[.{.Q.X.L.P.P.5.3 2 v _.tXrXrXrXeX1.Z.+XE.U.P.U.g.# xXxXxXxXxXxX",
"xXxXxXxXxXxXxXxXxXxXxXxXxXxXxXxXxXxX|.uXjXjX7X X[.2XgXjX6X}.xXxXxXxXxXg L.B.C.b...5 M b _.tXtXwX/.O.D.T.T.U.P.P.g.o xXxXxXxXxXxX",
"xXxXxXxXxXxXxXxXxXxXxXxXxXxXxXxXxXxX|.aXjXjXuX.X[. X4X7X<X{.xXxXxXxXxX3 c.&.8 >.8  .o.w S K ^.^.^.O.z.L.P.P.P.L.X.xXxXxXxXxXxXxX",
"xXxXxXxXxXxXxXxXxXxXxXxXxXxXxXxXxXxX|.pXjXjX6X[.[.{.,X<X|.xXxXxXxXxXxXxXo.3.B b 3 m 4.6 xX= K *XqXL f Z.L.L.P.n.6 xXxXxXxXxXxXxX",
"xXxXxXxXxXxXxXxXxXxXxXxXxXxXxXxXxXxX|.7XjXhX5X}.xX[.{.{.[.xXxXxXxXxXxXxX9 ..@.8 j N.z.6 xXxXxXv D F - =.:.n.v.j g.3 xXxXxXxXxXxX",
"xXxXxXxXxXxXxXxXxXxXxXxXxXxXxXxXxXxX}.4XhXhX3X{.xXxXxX[.xXxXxXxXxXxXxXxX! D v j Z.V...9 xXxXxXxX&   . * * j f %.c.l xXxXxXxXxXxX",
"xXxXxXxXxXxXxXxXxXxXxXxXxXxXxXxXxXxX[.2XiXiX,X[.xXxXxXxXxXxXxXxXxXxXxXxXF ;X:Xv.4.7 * xXxXxXxXxXxXxXxXxX2 $.c.6.^.0.xXxXxXxXxXxX",
"xXxXxXxXxXxXxXxXxXxXxXxXxXxXxXxXxXxX[.{.,X X{.xXxXxXxXxXxXxXxXxXxXxXxXxXxX= & X X xXxXxXxXxXxXxXxXxXxXxXv @.!.%XfX-XxXxXxXxXxXxX",
"xXxXxXxXxXxXxXxXxXxXxXxXxXxXxXxXxXxXxX[.[.[.[.xXxXxXxXxXxXxXxXxXxXxXxXxXxXxXxXxXxXxXxXxXxXxXxXxXxXxXxXxXxX0 %XfX:X~ xXxXxXxXxXxX",
"xXxXxXxXxXxXxXxXxXxXxXxXxXxXxXxXxXxXxXxX[.[.xXxXxXxXxXxXxXxXxXxXxXxXxXxXxXxXxXxXxXxXxXxXxXxXxXxXxXxXxXxXxXxXF #XZ xXxXxXxXxXxXxX",
"xXxXxXxXxXxXxXxXxXxXxXxXxXxXxXxXxXxXxXxXxXxXxXxXxXxXxXxXxXxXxXxXxXxXxXxXxXxXxXxXxXxXxXxXxXxXxXxXxXxXxXxXxXxXxX. xXxXxXxXxXxXxXxX",
"xXxXxXxXxXxXxXxXxXxXxXxXxXxXxXxXxXxXxXxXxXxXxXxXxXxXxXxXxXxXxXxXxXxXxXxXxXxXxXxXxXxXxXxXxXxXxXxXxXxXxXxXxXxXxXxXxXxXxXxXxXxXxXxX",
"xXxXxXxXxXxXxXxXxXxXxXxXxXxXxXxXxXxXxXxXxXxXxXxXxXxXxXxXxXxXxXxXxXxXxXxXxXxXxXxXxXxXxXxXxXxXxXxXxXxXxXxXxXxXxXxXxXxXxXxXxXxXxXxX",
"xXxXxXxXxXxXxXxXxXxXxXxXxXxXxXxXxXxXxXxXxXxXxXxXxXxXxXxXxXxXxXxXxXxXxXxXxXxXxXxXxXxXxXxXxXxXxXxXxXxXxXxXxXxXxXxXxXxXxXxXxXxXxXxX",
"xXxXxXxXxXxXxXxXxXxXxXxXxXxXxXxXxXxXxXxXxXxXxXxXxXxXxXxXxXxXxXxXxXxXxXxXxXxXxXxXxXxXxXxXxXxXxXxXxXxXxXxXxXxXxXxXxXxXxXxXxXxXxXxX",
"xXxXxXxXxXxXxXxXxXxXxXxXxXxXxXxXxXxXxXxXxXxXxXxXxXxXxXxXxXxXxXxXxXxXxXxXxXxXxXxXxXxXxXxXxXxXxXxXxXxXxXxXxXxXxXxXxXxXxXxXxXxXxXxX",
"xXxXxXxXxXxXxXxXxXxXxXxXxXxXxXxXxXxXxXxXxXxXxXxXxXxXxXxXxXxXxXxXxXxXxXxXxXxXxXxXxXxXxXxXxXxXxXxXxXxXxXxXxXxXxXxXxXxXxXxXxXxXxXxX",
"xXxXxXxXxXxXxXxXxXxXxXxXxXxXxXxXxXxXxXxXxXxXxXxXxXxXxXxXxXxXxXxXxXxXxXxXxXxXxXxXxXxXxXxXxXxXxXxXxXxXxXxXxXxXxXxXxXxXxXxXxXxXxXxX",
"xXxXxXxXxXxXxXxXxXxXxXxXxXxXxXxXxXxXxXxXxXxXxXxXxXxXxXxXxXxXxXxXxXxXxXxXxXxXxXxXxXxXxXxXxXxXxXxXxXxXxXxXxXxXxXxXxXxXxXxXxXxXxXxX",
"xXxXxXxXxXxXxXxXxXxXxXxXxXxXxXxXxXxXxXxXxXxXxXxXxXxXxXxXxXxXxXxXxXxXxXxXxXxXxXxXxXxXxXxXxXxXxXxXxXxXxXxXxXxXxXxXxXxXxXxXxXxXxXxX",
"xXxXxXxXxXxXxXxXxXxXxXxXxXxXxXxXxXxXxXxXxXxXxXxXxXxXxXxXxXxXxXxXxXxXxXxXxXxXxXxXxXxXxXxXxXxXxXxXxXxXxXxXxXxXxXxXxXxXxXxXxXxXxXxX",
"xXxXxXxXxXxXxXxXxXxXxXxXxXxXxXxXxXxXxXxXxXxXxXxXxXxXxXxXxXxXxXxXxXxXxXxXxXxXxXxXxXxXxXxXxXxXxXxXxXxXxXxXxXxXxXxXxXxXxXxXxXxXxXxX"
};
