/* XPM */
static char *result[] = {
/* columns rows colors chars-per-pixel */
"64 64 235 2 ",
"   c #080808",
".  c #121515",
"X  c #281602",
"o  c #301411",
"O  c #023103",
"+  c #3A230A",
"@  c #2B251B",
"#  c #372818",
"$  c #37321D",
"%  c #363C13",
"&  c #1B3922",
"*  c #292927",
"=  c #3D342B",
"-  c #383836",
";  c #332C26",
":  c #490703",
">  c #461817",
",  c #531B1C",
"<  c #731512",
"1  c #462609",
"2  c #552D08",
"3  c #57360C",
"4  c #563512",
"5  c #4A3015",
"6  c #673908",
"7  c #623B14",
"8  c #62231C",
"9  c #441E24",
"0  c #582321",
"q  c #493929",
"w  c #573F28",
"e  c #4B3A34",
"r  c #6B312C",
"t  c #135809",
"y  c #125112",
"u  c #1C6219",
"i  c #087919",
"p  c #286113",
"a  c #395A39",
"s  c #2E502E",
"d  c #157328",
"f  c #156727",
"g  c #26752D",
"h  c #354F08",
"j  c #4F4F10",
"k  c #694803",
"l  c #754809",
"z  c #7C5707",
"x  c #684417",
"c  c #794616",
"v  c #7B5518",
"b  c #655A14",
"n  c #70680E",
"m  c #5D4627",
"M  c #584B38",
"N  c #4D512F",
"B  c #684A28",
"V  c #7A5527",
"C  c #7A5733",
"Z  c #6F502F",
"A  c #457936",
"S  c #7B6331",
"D  c #357343",
"F  c #444444",
"G  c #484A4A",
"H  c #574A43",
"J  c #565549",
"K  c #595A59",
"L  c #4F5051",
"P  c #695648",
"I  c #597B5C",
"U  c #66604C",
"Y  c #67685A",
"T  c #796F54",
"R  c #5E5F61",
"E  c #656565",
"W  c #696969",
"Q  c #7B7668",
"!  c #727273",
"~  c #797878",
"^  c #746A62",
"/  c #8F0C09",
"(  c #BA0606",
")  c #AB1212",
"_  c #8C3900",
"`  c #8D2314",
"'  c #A6290F",
"]  c #942B2D",
"[  c #B62222",
"{  c #C30507",
"}  c #D70001",
"|  c #C81300",
" . c #E70606",
".. c #FD0101",
"X. c #F10000",
"o. c #E41617",
"O. c #854804",
"+. c #914C03",
"@. c #934400",
"#. c #885A09",
"$. c #975505",
"%. c #995A18",
"&. c #845118",
"*. c #A75806",
"=. c #B65B01",
"-. c #966808",
";. c #9F6913",
":. c #8C6711",
">. c #A46A01",
",. c #AA6804",
"<. c #B46409",
"1. c #A77608",
"2. c #B87C03",
"3. c #A86F15",
"4. c #905A27",
"5. c #8F702C",
"6. c #A97731",
"7. c #CB6704",
"8. c #CA7601",
"9. c #D67801",
"0. c #D0791B",
"q. c #905252",
"w. c #876647",
"e. c #8A7945",
"r. c #867B51",
"t. c #867F73",
"y. c #B06C6C",
"u. c #C7765A",
"i. c #048E1D",
"p. c #00A31D",
"a. c #17862E",
"s. c #0C9428",
"d. c #258731",
"f. c #0AA92B",
"g. c #59872B",
"h. c #01C32D",
"j. c #6D8E73",
"k. c #AC8100",
"l. c #B98604",
"z. c #B6961C",
"x. c #BF8C0F",
"c. c #9A9225",
"v. c #BE8F25",
"b. c #DE8B00",
"n. c #D48701",
"m. c #CD9200",
"M. c #C69702",
"N. c #D39C00",
"B. c #DA9802",
"V. c #C38916",
"C. c #D39916",
"Z. c #C78505",
"A. c #E18C00",
"S. c #E79A00",
"D. c #D8A700",
"F. c #DEB200",
"G. c #DEAF12",
"H. c #E9A803",
"J. c #ECB301",
"K. c #EBBA00",
"L. c #E7B30C",
"P. c #F3BA03",
"I. c #F4B701",
"U. c #E6A719",
"Y. c #C2972A",
"T. c #E8B62F",
"R. c #FCC300",
"E. c #FFCC00",
"W. c #FAC908",
"Q. c #FFD101",
"!. c #FFD10D",
"~. c #FFD518",
"^. c #F8C916",
"/. c #FFDC2C",
"(. c #A6815B",
"). c #88847A",
"_. c #9E9E7A",
"`. c #9B8276",
"'. c #A89773",
"]. c #AC8A6F",
"[. c #A9A978",
"{. c #B2B379",
"}. c #ADAC71",
"|. c #8D8B59",
" X c #C88F55",
".X c #D0AB52",
"XX c #CC9966",
"oX c #CC996B",
"OX c #CC9765",
"+X c #CC9C74",
"@X c #CC9B7C",
"#X c #D09D6E",
"$X c #CCA17C",
"%X c #FFEA58",
"&X c #C4C277",
"*X c #898787",
"=X c #979695",
"-X c #969786",
";X c #A69997",
":X c #A9A984",
">X c #B5B586",
",X c #9C9DA0",
"<X c #9CACA2",
"1X c #A4A5A5",
"2X c #AAA9AA",
"3X c #B2AAA2",
"4X c #B5B7B5",
"5X c #CC9D89",
"6X c #CC9895",
"7X c #CCA588",
"8X c #CDA499",
"9X c #CCA394",
"0X c #C89DA1",
"qX c #CCABAB",
"wX c #CCA7A4",
"eX c #CEB1A8",
"rX c #CDB4BA",
"tX c #CDAFBA",
"yX c #BFC087",
"uX c #ABC4AF",
"iX c #D7D78E",
"pX c #CACA91",
"aX c #DFE095",
"sX c #FEFE9B",
"dX c #F4F598",
"fX c #E3E38E",
"gX c #CCB7C7",
"hX c #CCBCD5",
"jX c #BCC5C0",
"kX c #CCC2DB",
"lX c #D2D3D3",
"zX c #CDC7E8",
"xX c #CCCAF9",
"cX c #F3F2F3",
"vX c None",
/* pixels */
"vXvXvXvXvXvXvXvXvXvXvXvXvXvXvXvXvXvXvXvXvXvXvXvXvXvXvXvXvXvXvXvXvXvXvXvXvXvXvXvXvXvXvXvXvXvXvXvXvXvXvXvXvXvXvXvXvXvXvXvXvXvXvXvX",
"vXvXvXvXvXvXvXvXvXvXvXvXvXvXvXvXvXvXvXvXvXvXvXvXvXvXvXvXvXvXvXvXvXvXvXvXvXvXvXvXvXvXvXvXvXvXvXvXvXvXvXvXvXvXvXvXvXvXvXvXvXvXvXvX",
"vXvXvXvXvXvXvXvXvXvXvXvXvXvXvXvXvXvXvXvXvXvXvXvXvXvXvXvXvXvXvXvXvXvXvXvXvXvXvXvXvXvXvXvXvXvXvXvXvXvXvXvXvXvXvXvXvXvXvXvXvXvXvXvX",
"vXvXvXvXvXvXvXvXvXvXvXvXvXvXvXvXvXvXvXvXvXvXvXvXvXvXvXvXvXvXvXvXvXvXvXvXvXvXvXvXvXvXvXvXvXvXvXvXvXvXvXvXvXvXvXvXvXvXvXvXvXvXvXvX",
"vXvXvXvXvXvXvXvXvXvXvXvXvXvXvXvXvXvXvXvXvXvXvXvXvXvXvXvXvXvXvXvXvXvXvXvXvXvXvXvXvXvXvXvXvXvXvXvXvXvXvXvXvXvXvXvXvXvXvXvXvXvXvXvX",
"vXvXvXvXvXvXvXvXvXvXvXvXvXvXvXvXvXvXvXvXvXvXvXvXvXvXvXvXvXvXvXvXvXvXvXvXvXvXvXvXvXvXvXvXvXvXvXvXvXvXvXvXvXvXvXvXvXvXvXvXvXvXvXvX",
"vXvXvXvXvXvXvXvXvXvXvXvXvXvXvXvXvXvXvXvXvXvXvXvXvXvXvXvXvXvXvXvXvXvXvXvXvXvXvXvXvXvXvXvXvXvXvXvXvXvXvXvXvXvXvXvXvXvXvXvXvXvXvXvX",
"vXvXvXvXvXvXvXvXvXvXvXvXvXvXvXvXvXvXvXvXvXvXvXvXvXvXvXvXvXvXvXvXvXvXvXvXvXvXvXvXvXvXvXvXvXvXvXvXvXvXvXvXvXvXvXvXvXvXvXvXvXvXvXvX",
"vXvXvXvXvXvXvXvXvXvXvXvXvXvXvXvXvXvXvXvXvXvXvXvXvXvXvXvXvXvXvXvXvXvXvXvXvXvXvXvXvXvXvXvXvXvXvXvXvXvXvXvXvXvXvXvXvXvXvXvXvXvXvXvX",
"vXvXvXvXvXvXvXvXvXvXvXvXvXvXvXvXvXvXvXvXvXvXvXvXvXvXvXvXvXvXvXvXvXvXvXvXvXvXvXvXvXvXvXvXo vXvXvXvXvXvXvXvXvXvXvXvXvXvXvXvXvXvXvX",
"vXvXvXvXvXvXvXvXvXvXvXvXvXvXvXvXvXvXvXvXvXvXvXvXvXvXvXvXvXvXvXvXvXvXvXvXvXvXvXvXvXvXvX> / 8 vXvXvXvXvXvXvXvXvXvXvXvXvXvXvXvXvXvX",
"vXvXvXvXvXvXvXvXvXvXvXvXvXvXvXvXvXvXvXvXvXvXvXvXvXvXvXvXvXvXvXvXvXvXvXvXvXvXvXvXvXvX: { { o vXvX1 vXvXvXvXvXvXvXvXvXvXvXvXvXvXvX",
"vXvXvXvXvXvXvXvXvXvXvXvXvXvXvXvXvXvXvXvXvXvXvXvXvXvXvXvXvXvXvXvXvXvXvXvXvXvXvXB 1 vX` ..{ ) , @ 6 vXvXvXvXvXvXvXvXvXvXvXvXvXvXvX",
"vXvXvXvXvXvXvXvXvXvXvXvXvXvXvXvXvXvXvXvXvXvXvXvXvXvXvXvXvXvXvXvXvXvXvXvXvXvXvXV &.vX| .... ./ 2 l.q vXvXvXvXvXvXvXvXvXvXvXvXvXvX",
"vXvXvXvXvXvXvXvXvXvXvXvXvXvXvXvXvXvXvXvXvXvXvXvXvXvXvXvXvXvXvXvXvXvXvXvXvXvXvX3.3.>  ...o. .{ @.D.@ . vXvXvXvXX vXvXvXvXvXvXvXvX",
"vXvXvXvXvXvXvXvXvXvXvXvXvXvXvXvXvXvXvXvXvXvXvXvXvXvXvXvXvXvXvXvXvXvXvXvXvXvXvXk.M.: } ' H r 8 8.F.).a O & 5 z 2.vXvXvXvXvXvXvXvX",
"vXvXvXvXvXvXvXvXvXvXvXvXvXvXvXvXvXvXvXvXvXvXvXvXvXvXvXvXvXvXvXvXvXvXvXvXvXvXvX;.:.> Z g < 8 n I.N.3XlXa O j L.N.vXvXvXvXvXvXvXvX",
"vXvXvXvXvXvXvXvXvXvXvXvXvXvXvXvXvXvXvXvXvXvXvXvXvXvXvXvXvXvXvXvXvXvXvXvXvXvXvXe ) p s.` ../ <.W.k.*XcXcX<XD c.l.vXvXvXvXvXvXvXvX",
"vXvXvXvXvXvXvXvXvXvXvXvXvXvXvXvXvXvXvXvXvXvXvXvXvXvXvXvXvXvXvXvXvXvXvXvXvXvXvX< ' p.p  .} < 3.S.O.x T lXcX<Xg.v vXvXvXvXvXvXvXvX",
"vXvXvXvXvXvXvXvXvXvXvXvXvXvXvXvXvXvXvXvXvXvXvXvXvXvXvXvXvXvXvXvXvXvXvXvXvXvXvX9 j p.` o.P a.g.V.v H.l.M R lXI $ vXvXvXvXvXvXvXvX",
"vXvXvXvXvXvXvXvXvXvXvXvXvXvXvXvXvXvXvXvXvXvXvXvXvXvXvXvXvXvXvXvXvXvXvXvXvXvXvX1 s s.0 y.jXf.h.g n !.J.B R ~ 4Xs vXvXvXvXvXvXvXvX",
"vXvXvXvXvXvXvXvXvXvXvXvXvXvXvXvXvXvXvXvXvXvXvXvXvXvXvXvXvXvXvXvXvXvXvXvXvXvXk N.k.t + 6XuXy p.p.N W.1.).1XK 1XD s vXvXvXvXvXvXvX",
"vXvXvXvXvXvXvXvXvXvXvXvXvXvXvXvXvXvXvXvXvXvXvXvXvXvXvXvXvXvXvXvXvXvXvXvXvXe v.^.J.#.K -XN >.b t p D.B ~ *XL *Xj.f vXvXvXvXvXvXvX",
"vXvXvXvXvXvXvXvXvXvXvXvXvXvXvXvXvXvXvXvXvXvXvXvXvXvXvXvXvXvXvXvXvXvXvXvXvXv .XY.L.b.Y.6.C.~.R.3.% k K W R m P j.d vXvXvXvXvXvXvX",
"vXvXvXvXvXvXvXvXvXvXvXvXvXvXvXvXvXvXvXvXvXvXvXvXvXvXvXvXvXvXvXvXvXvXvXvXH x.W.L.R.W.!.I.E.!.W.W.x N W E J M.M.I a.& vXvXvXvXvXvX",
"vXvXvXvXvXvXvXvXvXvXvXvXvXvXvXvXvXvXvXvXvXvXvXvXvXvXvXvXvXvXvXvXvXvXvXvX2 b.E.E.P.~.%XE.P.b.A.P.z.R ! R :.E.R.5.d d vXvXvXvXvXvX",
"vXvXvXvXvXvXvXvXvXvXvXvXvXvXvXvXvXvXvXvXvXvXvXvXvXvXvXvXvXvXvXvXvXvXvXvX4 b.H.S.U.^.~.E.I.v 4.I.Z.t.,XM K.Q.E.m.y a.; vXvXvXvXvX",
"vXvXvXvXvXvXvXvXvXvXvXvXvXvXvXvXvXvXvXvXvXvXvXvXvXvXvXvXvXvXvXvXvXvXvXvXvX3.9.7. XT.!.R.8.8 6 A.,.^ W -.!.!.E.K.h d.;.4 vXvXvXvX",
"vXvXvXvXvXvXvXvXvXvXvXvXvXvXvXvXvXvXvXvXvXvXvXvXvXvXvXvXvXvXvXvXvXvXvXvXvXO.*.%.#X#XL.9.%./ _ 9.6 G m H.~.!.E.E.n s.z.D.m vXvXvX",
"vXvXvXvXvXvXvXvXvXvXvXvXvXvXvXvXvXvXvXvXvXvXvXvXvXvXvXvXvXvXvXvXvXvXvXvXvXvX7 w.qX8X0.*.q.] _ =.1 - 3 I.E.E.Q.Q.l.i c.2.M vXvXvX",
"vXvXvXvXvXvXvXvXvXvXvXvXvXvXvXvXvXvXvXvXvXvXvXvXvXvXvXvXvXvXvXvXvXvXOXvXvXvXq ].hXtX Xr ] ! 4.O.Y >XU m.Q.E.J.1.k u j 4 vXvXvXvX",
"vXvXvXvXvXvXvXvXvXvXvXvXvXvXvXvXvXvXvXvXvXvXvXvXvXvXvXvXvXvXvXvXvXvX7X#XvXq 6 r.zXtXt.) [ ! *.c yXsX'.#.,.j 5 e F s & vXvXvXvXvX",
"vXvXvXvXvXvXvXvXvXvXvXvXvXvXvXvXvXvXvXvXvXvXvXvXvXvXvXvXXXvXvXvXvX+XqX#XvX- * M gX0X' [ q.P =.5.dXsXpX; - K K E ! G   vXvXvXvXvX",
"vXvXvXvXvXvXvXvXvXvXvXvXvXvXvXvXvXvXvXvXvXvXvXvXvXvXvXvXXXvXvXvXvX$XhX9X(.- E t.].u.( q.;Xr *.e.sXdX_.F ~ ~ R W 4XR   vXvXvXvXvX",
"vXvXvXvXvXvXvXvXvXvXvXvXvXvXvXvXvXvXvXvXvXvXvXvXvXvXvX+X@XXXvXvXvX8XxXeXw.G ! *X'.C 2 P 3X6.<.}.aX[._.J 1X=XR W =XK   vXvXvXvXvX",
"vXvXvXvXvXvXvXvXvXvXvXvXvXvXvXvXvXvXvXvXvXvXvXvXvXvXvX7XqXXXvXvXvX8XxXeXw.L W R ,.B.R.S.Y.L.$.Q :XiXfXJ ~ ! E W R G F vXvXvXvXvX",
"vXvXvXvXvXvXvXvXvXvXvXvXvXvXvXvXvXvXvXvXvXXXXXvXvXvXXX8XhX5XvXvXvX7XkX8XvXo = F M.E.R.E.Q.P.V yXdXsX&X@ @ ; $ $ # * vXvXvXvXvXvX",
"vXvXvXvXvXvXvXvXvXvXvXvXvXvXvXvXvXvXvXvXvX$X#XvXvXvXXXqXxXqXOXvXvXvX$X#XvX+.Z.x >.n.+.b.R.l.r.sXsXsX|.O.B.K.K.K.N.3 vXvXvXvXvXvX",
"vXvXvXvXvXvXvXvXvXvXvXvXvXvXvXvXvXvXvXvXXX9X7XXXvXvXoXgXxXqXvXvXvXvXvXvXvXl.Q.J.#.2 - 3 k S fXsXsXaXS H.Q.E.E.E.E.:.vXvXvXvXvXvX",
"vXvXvXvXvXvXvXvXvXvXvXvXvXvXvXvXvXvXvXvXoXeX8XoXvXvXoXgXxXqXvXvXvXvXvXvXvX2.E.Q.J.;.= Y Q {.iXiX[.Q v W.%X~.E.E.E.-.. vXvXvXvXvX",
"vXvXvXvXvXvXvXvXvXvXvXvXvXvXvXvXvXvXvXvXoXrXhX5XvXvXvXwXkX7XvXvXvXvXvXvXvX1.E.G.I.9.7 T iX{.{.{.pX}.*.R./.!.E.E.E.>.1 vXvXvXvXvX",
"vXvXvXvXvXvXvXvXvXvXvXvXvXvXvXvXvXvXvXvX+XkXxX6XvXvXvX5X8X@XvXvXvXvXvXvXvX#.L.x ,.$.c V {.sXsXsXsX&X+.H.E.E.E.E.R.$.l vXvXvXvXvX",
"vXvXvXvXvXvXvXvXvXvXvXvXvXvXvXvXvXvXvXvX$XxXxX7XvXvXvXXXOXvXvXvXvXvXvXvXvX4 8.*.H w 7 B P {.sXsXsX}.# $.W.R.E.E.B.2 6 vXvXvXvXvX",
"vXvXvXvXvXvXvXvXvXvXvXvXvXvXvXvXvXvXvXvX+XhXxX5XvXvXvXvXvXvXvXvXvXvXvXvXvXvX7 =.%.7 7 <.*.M ).[._._.4.6 m.V.J.C.O.X vXvXvXvXvXvX",
"vXvXvXvXvXvXvXvXvXvXvXvXvXvXvXvXvXvXvXvXoXgXgX+XvXvXvXvXvXvXvXvXvXvXvXvXvXvXvXX X @ 4 7.7.<.e Y :XpXT $.6 w $.+ B 7 vXvXvXvXvXvX",
"vXvXvXvXvXvXvXvXvXvXvXvXvXvXvXvXvXvXvXvXXX5X5XoXvXvXvXvXvXvXvXvXvXvXvXvXvXvXvXvXvX; v B.A.7.%.* K T ^ &.7.V.z = &.*.q vXvXvXvXvX",
"vXvXvXvXvXvXvXvXvXvXvXvXvXvXvXvXvXvXvXvXvXoX+XvXvXvXvXvXvXvXvXvXvXvXvXvXvXvXvXvX- c J.Q.R.S.*.vXvX* . x H.R.Q.Z.5 + vXvXvXvXvXvX",
"vXvXvXvXvXvXvXvXvXvXvXvXvXvXvXvXvXvXvXvXvXvXvXvXvXvXvXvXvXvXvXvXvXvXvXvXvXvXvXvX).v.R.E.E.S.@.vXvXvXvX$.E.E.E.R.l vXvXvXvXvXvXvX",
"vXvXvXvXvXvXvXvXvXvXvXvXvXvXvXvXvXvXvXvXvXvXvXvXvXvXvXvXvXvXvXvXvXvXvXvXvXvXvXE 4X3XC.R.S.+.q vXvXvXvXx J.E.I.C.C vXvXvXvXvXvXvX",
"vXvXvXvXvXvXvXvXvXvXvXvXvXvXvXvXvXvXvXvXvXvXvXvXvXvXvXvXvXvXvXvXvXvXvXvXvXvXvXG ~ 2Xe.>.3 @ vXvXvXvXvX5 2.F.6.;X=XvXvXvXvXvXvXvX",
"vXvXvXvXvXvXvXvXvXvXvXvXvXvXvXvXvXvXvXvXvXvXvXvXvXvXvXvXvXvXvXvXvXvXvXvXvXvXvXvXvXvXvXvXvXvXvXvXvXvXvXvXx y.2XlX2XvXvXvXvXvXvXvX",
"vXvXvXvXvXvXvXvXvXvXvXvXvXvXvXvXvXvXvXvXvXvXvXvXvXvXvXvXvXvXvXvXvXvXvXvXvXvXvXvXvXvXvXvXvXvXvXvXvXvXvXvXe *XlX1XE vXvXvXvXvXvXvX",
"vXvXvXvXvXvXvXvXvXvXvXvXvXvXvXvXvXvXvXvXvXvXvXvXvXvXvXvXvXvXvXvXvXvXvXvXvXvXvXvXvXvXvXvXvXvXvXvXvXvXvXvXvX- W * vXvXvXvXvXvXvXvX",
"vXvXvXvXvXvXvXvXvXvXvXvXvXvXvXvXvXvXvXvXvXvXvXvXvXvXvXvXvXvXvXvXvXvXvXvXvXvXvXvXvXvXvXvXvXvXvXvXvXvXvXvXvXvXvXvXvXvXvXvXvXvXvXvX",
"vXvXvXvXvXvXvXvXvXvXvXvXvXvXvXvXvXvXvXvXvXvXvXvXvXvXvXvXvXvXvXvXvXvXvXvXvXvXvXvXvXvXvXvXvXvXvXvXvXvXvXvXvXvXvXvXvXvXvXvXvXvXvXvX",
"vXvXvXvXvXvXvXvXvXvXvXvXvXvXvXvXvXvXvXvXvXvXvXvXvXvXvXvXvXvXvXvXvXvXvXvXvXvXvXvXvXvXvXvXvXvXvXvXvXvXvXvXvXvXvXvXvXvXvXvXvXvXvXvX",
"vXvXvXvXvXvXvXvXvXvXvXvXvXvXvXvXvXvXvXvXvXvXvXvXvXvXvXvXvXvXvXvXvXvXvXvXvXvXvXvXvXvXvXvXvXvXvXvXvXvXvXvXvXvXvXvXvXvXvXvXvXvXvXvX",
"vXvXvXvXvXvXvXvXvXvXvXvXvXvXvXvXvXvXvXvXvXvXvXvXvXvXvXvXvXvXvXvXvXvXvXvXvXvXvXvXvXvXvXvXvXvXvXvXvXvXvXvXvXvXvXvXvXvXvXvXvXvXvXvX",
"vXvXvXvXvXvXvXvXvXvXvXvXvXvXvXvXvXvXvXvXvXvXvXvXvXvXvXvXvXvXvXvXvXvXvXvXvXvXvXvXvXvXvXvXvXvXvXvXvXvXvXvXvXvXvXvXvXvXvXvXvXvXvXvX",
"vXvXvXvXvXvXvXvXvXvXvXvXvXvXvXvXvXvXvXvXvXvXvXvXvXvXvXvXvXvXvXvXvXvXvXvXvXvXvXvXvXvXvXvXvXvXvXvXvXvXvXvXvXvXvXvXvXvXvXvXvXvXvXvX",
"vXvXvXvXvXvXvXvXvXvXvXvXvXvXvXvXvXvXvXvXvXvXvXvXvXvXvXvXvXvXvXvXvXvXvXvXvXvXvXvXvXvXvXvXvXvXvXvXvXvXvXvXvXvXvXvXvXvXvXvXvXvXvXvX",
"vXvXvXvXvXvXvXvXvXvXvXvXvXvXvXvXvXvXvXvXvXvXvXvXvXvXvXvXvXvXvXvXvXvXvXvXvXvXvXvXvXvXvXvXvXvXvXvXvXvXvXvXvXvXvXvXvXvXvXvXvXvXvXvX",
"vXvXvXvXvXvXvXvXvXvXvXvXvXvXvXvXvXvXvXvXvXvXvXvXvXvXvXvXvXvXvXvXvXvXvXvXvXvXvXvXvXvXvXvXvXvXvXvXvXvXvXvXvXvXvXvXvXvXvXvXvXvXvXvX",
"vXvXvXvXvXvXvXvXvXvXvXvXvXvXvXvXvXvXvXvXvXvXvXvXvXvXvXvXvXvXvXvXvXvXvXvXvXvXvXvXvXvXvXvXvXvXvXvXvXvXvXvXvXvXvXvXvXvXvXvXvXvXvXvX"
};
