/* XPM */
static char *result[] = {
/* columns rows colors chars-per-pixel */
"64 64 231 2 ",
"   c #1B1B1B",
".  c #191616",
"X  c #140A07",
"o  c #31180C",
"O  c #0E2F0A",
"+  c #3A2409",
"@  c #382716",
"#  c #332A1D",
"$  c #252624",
"%  c #34322C",
"&  c #333434",
"*  c #393939",
"=  c #363835",
"-  c #2C3421",
";  c #551313",
":  c #55120D",
">  c #680202",
",  c #781906",
"<  c #791616",
"1  c #492705",
"2  c #562B02",
"3  c #57340D",
"4  c #452E17",
"5  c #512419",
"6  c #49331A",
"7  c #583916",
"8  c #673906",
"9  c #7A3A08",
"0  c #653E17",
"q  c #7B230C",
"w  c #483828",
"e  c #543C26",
"r  c #4A3E32",
"t  c #443D3A",
"y  c #6F3C3A",
"u  c #145418",
"i  c #335413",
"p  c #08630E",
"a  c #057E1D",
"s  c #296815",
"d  c #384928",
"f  c #136A25",
"g  c #2D7632",
"h  c #1C4E29",
"j  c #4E490C",
"k  c #6A4804",
"l  c #764907",
"z  c #765D06",
"x  c #614118",
"c  c #754918",
"v  c #755818",
"b  c #796101",
"n  c #564A38",
"m  c #514A33",
"M  c #67482D",
"N  c #744D23",
"B  c #66552D",
"V  c #785928",
"C  c #675136",
"Z  c #407833",
"A  c #6F6B2D",
"S  c #50650E",
"D  c #3A6D42",
"F  c #454747",
"G  c #585649",
"H  c #5D5C5B",
"J  c #555555",
"K  c #49544E",
"L  c #665B46",
"P  c #7C4E4D",
"I  c #457145",
"U  c #676755",
"Y  c #776A54",
"T  c #726E52",
"R  c #656566",
"E  c #6A6A6B",
"W  c #776B61",
"Q  c #797A7A",
"!  c #77726C",
"~  c #981516",
"^  c #890E04",
"/  c #A70404",
"(  c #B80202",
")  c #B21C1D",
"_  c #892217",
"`  c #873411",
"'  c #97352A",
"]  c #813B3B",
"[  c #AF2424",
"{  c #D50303",
"}  c #C60D0D",
"|  c #FE0001",
" . c #F40603",
".. c #E90405",
"X. c #C62122",
"o. c #854400",
"O. c #884805",
"+. c #944F03",
"@. c #875402",
"#. c #9A5A09",
"$. c #854E14",
"%. c #895411",
"&. c #995819",
"*. c #B65D04",
"=. c #A55E19",
"-. c #A55302",
";. c #97650B",
":. c #9A6601",
">. c #916F0F",
",. c #A76903",
"<. c #BA6B07",
"1. c #A87905",
"2. c #B97803",
"3. c #A66719",
"4. c #B66915",
"5. c #AF7B16",
"6. c #835623",
"7. c #8B5D30",
"8. c #8A632A",
"9. c #8E6B32",
"0. c #94732B",
"q. c #B47820",
"w. c #C86800",
"e. c #C67708",
"r. c #D77C01",
"t. c #CC730B",
"y. c #C87E3A",
"u. c #96484A",
"i. c #844747",
"p. c #8A6941",
"a. c #8C7B55",
"s. c #A57840",
"d. c #9A6C6E",
"f. c #CA7F61",
"g. c #0D991B",
"h. c #0D8625",
"j. c #0A9822",
"k. c #3F922C",
"l. c #238626",
"z. c #00A924",
"x. c #738C2D",
"c. c #00C12B",
"v. c #729B7D",
"b. c #51A364",
"n. c #4B8551",
"m. c #B88603",
"M. c #B49000",
"N. c #B28C11",
"B. c #B99036",
"V. c #C98A05",
"C. c #D98A04",
"Z. c #C99504",
"A. c #DF9B00",
"S. c #C69D1C",
"D. c #E69A00",
"F. c #DCA104",
"G. c #D5AA0A",
"H. c #E7A702",
"J. c #F1AD00",
"K. c #EDB300",
"L. c #E8B30A",
"P. c #F2B301",
"I. c #F5BB00",
"U. c #FABE00",
"Y. c #F4BC08",
"T. c #ECBD15",
"R. c #CE922D",
"E. c #FBC401",
"W. c #FFCC00",
"Q. c #F9C707",
"!. c #FFD101",
"~. c #FFD517",
"^. c #F2C11D",
"/. c #FFDA26",
"(. c #FFDD32",
"). c #FFE13C",
"_. c #938C59",
"`. c #92854E",
"'. c #9D9D7B",
"]. c #989773",
"[. c #8C8B74",
"{. c #A9A878",
"}. c #B3B379",
"|. c #B28970",
" X c #CB8843",
".X c #DDBE50",
"XX c #CC9965",
"oX c #CC9A6C",
"OX c #CC9767",
"+X c #CC9B73",
"@X c #CC9C7B",
"#X c #CCA379",
"$X c #D0AC7F",
"%X c #FFE54A",
"&X c #8D8D8D",
"*X c #858686",
"=X c #979797",
"-X c #859F8C",
";X c #A78A85",
":X c #A39B96",
">X c #A6A783",
",X c #B3B08C",
"<X c #9A9DA1",
"1X c #BF9FA3",
"2X c #A6A6A6",
"3X c #B1B1B1",
"4X c #AEAAA4",
"5X c #CC9E86",
"6X c #CCA289",
"7X c #CCA69A",
"8X c #CCA9A6",
"9X c #CBACB5",
"0X c #CAB6B9",
"qX c #BEC0BF",
"wX c #C7C787",
"eX c #D4D48E",
"rX c #E9E996",
"tX c #FDFD99",
"yX c #F4F595",
"uX c #E4E58D",
"iX c #CCB7C7",
"pX c #CCBDD4",
"aX c #CACACB",
"sX c #C3C3C4",
"dX c #CDC6DB",
"fX c #DBDBDC",
"gX c #CCCAF8",
"hX c #CCC6EB",
"jX c #F8F9FB",
"kX c #EEE8E8",
"lX c None",
/* pixels */
"lXlXlXlXlXlXlXlXlXlXlXlXlXlXlXlXlXlXlXlXlXlXlXlXlXlXlXlXlXlXlXlXlXlXlXlXlXlXlXlXlXlXlXlXlXlXlXlXlXlXlXlXlXlXlXlXlXlXlXlXlXlXlXlX",
"lXlXlXlXlXlXlXlXlXlXlXlXlXlXlXlXlXlXlXlXlXlXlXlXlXlXlXlXlXlXlXlXlXlXlXlXlXlXlXlXlXlXlXlXlXlXlXlXlXlXlXlXlXlXlXlXlXlXlXlXlXlXlXlX",
"lXlXlXlXlXlXlXlXlXlXlXlXlXlXlXlXlXlXlXlXlXlXlXlXlXlXlXlXlXlXlXlXlXlXlXlXlXlXlXlXlXlXlXlXlXlXlXlXlXlXlXlXlXlXlXlXlXlXlXlXlXlXlXlX",
"lXlXlXlXlXlXlXlXlXlXlXlXlXlXlXlXlXlXlXlXlXlXlXlXlXlXlXlXlXlXlXlXlXlXlXlXlXlXlXlXlXlXlXlXlXlXlXlXlXlXlXlXlXlXlXlXlXlXlXlXlXlXlXlX",
"lXlXlXlXlXlXlXlXlXlXlXlXlXlXlXlXlXlXlXlXlXlXlXlXlXlXlXlXlXlXlXlXlXlXlXlXlXlXlXlXlXlXlXlXlXlXlXlXlXlXlXlXlXlXlXlXlXlXlXlXlXlXlXlX",
"lXlXlXlXlXlXlXlXlXlXlXlXlXlXlXlXlXlXlXlXlXlXlXlXlXlXlXlXlXlXlXlXlXlXlXlXlXlXlXlXlXlXlXlXlXlXlXlXlXlXlXlXlXlXlXlXlXlXlXlXlXlXlXlX",
"lXlXlXlXlXlXlXlXlXlXlXlXlXlXlXlXlXlXlXlXlXlXlXlXlXlXlXlXlXlXlXlXlXlXlXlXlXlXlXlXlXlXlXlXlXlXlXlXlXlXlXlXlXlXlXlXlXlXlXlXlXlXlXlX",
"lXlXlXlXlXlXlXlXlXlXlXlXlXlXlXlXlXlXlXlXlXlXlXlXlXlXlXlXlXlXlXlXlXlXlXlXlXlXlXlXlXlXlXlXlXlXlXlXlXlXlXlXlXlXlXlXlXlXlXlXlXlXlXlX",
"lXlXlXlXlXlXlXlXlXlXlXlXlXlXlXlXlXlXlXlXlXlXlXlXlXlXlXlXlXlXlXlXlXlXlXlXlXlXlXlXlXlXlXlXlXlXlXlXlXlXlXlXlXlXlXlXlXlXlXlXlXlXlXlX",
"lXlXlXlXlXlXlXlXlXlXlXlXlXlXlXlXlXlXlXlXlXlXlXlXlXlXlXlXlXlXlXlXlXlXlXlXlXlXlXlXlXlXlXlX; < lXlXlXlXlXlXlXlXlXlXlXlXlXlXlXlXlXlX",
"lXlXlXlXlXlXlXlXlXlXlXlXlXlXlXlXlXlXlXlXlXlXlXlXlXlXlXlXlXlXlXlXlXlXlXlXlXlXlXlXlXlXlX> { > X lX6 lXlXlXlXlXlXlXlXlXlXlXlXlXlXlX",
"lXlXlXlXlXlXlXlXlXlXlXlXlXlXlXlXlXlXlXlXlXlXlXlXlXlXlXlXlXlXlXlXlXlXlXlXlXlXlXlXe lX@ {  .~ > lX2 lXlXlXlXlXlXlXlXlXlXlXlXlXlXlX",
"lXlXlXlXlXlXlXlXlXlXlXlXlXlXlXlXlXlXlXlXlXlXlXlXlXlXlXlXlXlXlXlXlXlXlXlXlXlXlXlXc lX,  . ...( o >.l lXlXlXlXlXlXlXlXlXlXlXlXlXlX",
"lXlXlXlXlXlXlXlXlXlXlXlXlXlXlXlXlXlXlXlXlXlXlXlXlXlXlXlXlXlXlXlXlXlXlXlXlXlXlXB V.w / | |  .{ ^ Z.v X lXlXlXlXlXlXlXlXlXlXlXlXlX",
"lXlXlXlXlXlXlXlXlXlXlXlXlXlXlXlXlXlXlXlXlXlXlXlXlXlXlXlXlXlXlXlXlXlXlXlXlXlXlXk H.3 / ..' ] ~ 9 K.0.K O O t + @.k lXlXlXlXlXlXlX",
"lXlXlXlXlXlXlXlXlXlXlXlXlXlXlXlXlXlXlXlXlXlXlXlXlXlXlXlXlXlXlXlXlXlXlXlXlXlXlXc V.6 ^ B m ; w m.W.`.dXD O O m.U.@.lXlXlXlXlXlXlX",
"lXlXlXlXlXlXlXlXlXlXlXlXlXlXlXlXlXlXlXlXlXlXlXlXlXlXlXlXlXlXlXlXlXlXlXlXlXlXlXC ' 5 l.g } ( c J.I.9.jXfX&XD A G.k lXlXlXlXlXlXlX",
"lXlXlXlXlXlXlXlXlXlXlXlXlXlXlXlXlXlXlXlXlXlXlXlXlXlXlXlXlXlXlXlXlXlXlXlXlXlXlX= / S z.< | ( ` F.V.6 W fXjXqXD N.lXlXlXlXlXlXlXlX",
"lXlXlXlXlXlXlXlXlXlXlXlXlXlXlXlXlXlXlXlXlXlXlXlXlXlXlXlXlXlXlXlXlXlXlXlXlXlXlXlX, g.s } X.d k.V.#.5.m.C *XaX-Xi lXlXlXlXlXlXlXlX",
"lXlXlXlXlXlXlXlXlXlXlXlXlXlXlXlXlXlXlXlXlXlXlXlXlXlXlXlXlXlXlXlXlXlXlXlXlXlXlXlX- g.d [ 1Xb.c.k.m G.!.,.t R aXI - lXlXlXlXlXlXlX",
"lXlXlXlXlXlXlXlXlXlXlXlXlXlXlXlXlXlXlXlXlXlXlXlXlXlXlXlXlXlXlXlXlXlXlXlXlXlXlX@.N.i u y kXn.j.z.p S.P.V 2XR &Xv.h lXlXlXlXlXlXlX",
"lXlXlXlXlXlXlXlXlXlXlXlXlXlXlXlXlXlXlXlXlXlXlXlXlXlXlXlXlXlXlXlXlXlXlXlXlXlXN Y.E.1.d d.[.3 S p p M.m.H 2XE R 2Xf lXlXlXlXlXlXlX",
"lXlXlXlXlXlXlXlXlXlXlXlXlXlXlXlXlXlXlXlXlXlXlXlXlXlXlXlXlXlXlXlXlXlXlXlXlXe 0..XS.J.q.a.9.L.Y.1.i b B R E J r &Xg D lXlXlXlXlXlX",
"lXlXlXlXlXlXlXlXlXlXlXlXlXlXlXlXlXlXlXlXlXlXlXlXlXlXlXlXlXlXlXlXlXlXlXlXlX7.L.L.L.P.U.P.H.~.~.W.:.@ H R R V V.T D f lXlXlXlXlXlX",
"lXlXlXlXlXlXlXlXlXlXlXlXlXlXlXlXlXlXlXlXlXlXlXlXlXlXlXlXlXlXlXlXlXlXlXlXlX#.U.!.E.W.%X~.W.P.C.U.L.G E R K G.!.N.D h.lXlXlXlXlXlX",
"lXlXlXlXlXlXlXlXlXlXlXlXlXlXlXlXlXlXlXlXlXlXlXlXlXlXlXlXlXlXlXlXlXlXlXlXlX,.H.U.H.E.%X~.W.e.&.V.E.V 2XR >.W.!.I.i h.d lXlXlXlXlX",
"lXlXlXlXlXlXlXlXlXlXlXlXlXlXlXlXlXlXlXlXlXlXlXlXlXlXlXlXlXlXlXlXlXlXlXlXlX0.C.r.D.^.W.W.P.%.w t.D.V <Xn F.!.W.W.z a B 3 lXlXlXlX",
"lXlXlXlXlXlXlXlXlXlXlXlXlXlXlXlXlXlXlXlXlXlXlXlXlXlXlXlXlXlXlXlXlXlXlXlXlX8 *.=. X6XT.J.e._ , w.<.t J ;.Q./.W.!.m.h.x.F.v lXlXlX",
"lXlXlXlXlXlXlXlXlXlXlXlXlXlXlXlXlXlXlXlXlXlXlXlXlXlXlXlXlXlXlXlXlXlXlXlXlXlX8 c |.iXR.w.7.u.^ w.o.$ # V.!.W.W.!.K.s k.L.6.lXlXlX",
"lXlXlXlXlXlXlXlXlXlXlXlXlXlXlXlXlXlXlXlXlXlXlXlXlXlXlXlXlXlXlXlXlXlXXXlXlXlX$ Y 1XpXy.&.y u.M *.4 [.U :.W.!.W.K.Z.i g @.m lXlXlX",
"lXlXlXlXlXlXlXlXlXlXlXlXlXlXlXlXlXlXlXlXlXlXlXlXlXlXlXlXlXlXlXlXlXlX+X+XlXlX8 M ;X9Xd.i.( d.p.-.U rXwX6.C.1.>.3 % % - . lXlXlXlX",
"lXlXlXlXlXlXlXlXlXlXlXlXlXlXlXlXlXlXlXlXlXlXlXlXlXlXlXlXlXlXlXlXlXlX8X7XlXlX@ . Y OX_ ^ [ P %.+.,XtXyXL 4 t d J E H $ lXlXlXlXlX",
"lXlXlXlXlXlXlXlXlXlXlXlXlXlXlXlXlXlXlXlXlXlXlXlXlXlXlXlXXXlXlXlXlXlXiXiXlXlXK H J ;X} ) ;XP =.$.eXtXrXU J E E R *X&X. lXlXlXlXlX",
"lXlXlXlXlXlXlXlXlXlXlXlXlXlXlXlXlXlXlXlXlXlXlXlXlXlXlXlX$XoXlXlXlXlXdXiXlX= R &X*X<X: 5 3X! 2.9.yXeX{.G ! 3XE R &X=X  lXlXlXlXlX",
"lXlXlXlXlXlXlXlXlXlXlXlXlXlXlXlXlXlXlXlXlXlXlXlXlXlXlXoX8X+XlXlXlXlX0X0XlX& R Q 8.e.Z.V.R.B.V.V >X>XuX_.E =XE R E R = lXlXlXlXlX",
"lXlXlXlXlXlXlXlXlXlXlXlXlXlXlXlXlXlXlXlXlXlXXXlXlXlXlXoXiX7XoXlXlXlX+XoXlX  & J v E.W.W.U.W.m.W wXyXyXU & * * * * & * lXlXlXlXlX",
"lXlXlXlXlXlXlXlXlXlXlXlXlXlXlXlXlXlXlXlXlXlX@XXXlXlXlX6XhXiX+XlXlXlXlXlXlX1 +.M k P.e.C.W.U.%.wXtXtXuX7 @.m.M.M.m.8   lXlXlXlXlX",
"lXlXlXlXlXlXlXlXlXlXlXlXlXlXlXlXlXlXlXlXlXlX8XoXlXlXlX6XhX0XOXlXlXlXlXlXlXl U.K.,.l 6 3 ,.@._.tXtXtX{.:.E.W.!.W.!.Z.r lXlXlXlXlX",
"lXlXlXlXlXlXlXlXlXlXlXlXlXlXlXlXlXlXlXlXlX5XiX5XlXlXlX@XdX8XlXlXlXlXlXlXlXl E.W.E.#.m F F T uXyXeX>XU V.~.(.W.W.W.F.4 lXlXlXlXlX",
"lXlXlXlXlXlXlXlXlXlXlXlXlXlXlXlXlXlXlXlXlX6XhX9XoXlXlXlX6X@XlXlXlXlXlXlXlX8 I.Q.E.D.O.m wX>X'.'.>X,XV D.(.%XW.W.!.H.+ lXlXlXlXlX",
"lXlXlXlXlXlXlXlXlXlXlXlXlXlXlXlXlXlXlXlXlX8XgX0XlXlXlXlXlXlXlXlXlXlXlXlXlX7 H.N.>.r.$.6._.tXtXtXtXyX7.C.W.W.W.W.!.Z.9 6 lXlXlXlX",
"lXlXlXlXlXlXlXlXlXlXlXlXlXlXlXlXlXlXlXlXlX8XgX9XlXlXlXlXlXlXlXlXlXlXlXlXlXlX<.2.e C 3 c L {.yXtXtXyXm o.K.W.W.Q.E.:.o.3 lXlXlXlX",
"lXlXlXlXlXlXlXlXlXlXlXlXlXlXlXlXlXlXlXlXlX6XpX7XlXlXlXlXlXlXlXlXlXlXlXlXlXlX0 <.=.N 5 c 4.e ].wX}.,XY 8 1.P.A.Q.V.2 X lXlXlXlXlX",
"lXlXlXlXlXlXlXlXlXlXlXlXlXlXlXlXlXlXlXlXlXoX@X+XlXlXlXlXlXlXlXlXlXlXlXlXlXlXlX6 2 5 + *.w.4.M K '.,X].O.$.x 3.:.4 0 lXlXlXlXlXlX",
"lXlXlXlXlXlXlXlXlXlXlXlXlXlXlXlXlXlXlXlXlXlXXXlXlXlXlXlXlXlXlXlXlXlXlXlXlXlXlXlXlXlX% 3.C.w.4.r G ].'.v 4.-.v @ r *.x lXlXlXlXlX",
"lXlXlXlXlXlXlXlXlXlXlXlXlXlXlXlXlXlXlXlXlXlXlXlXlXlXlXlXlXlXlXlXlXlXlXlXlXlXlXlXlX# :.E.W.D.w.2 lX$ = # <.P.W.Z.7 8 1 lXlXlXlXlX",
"lXlXlXlXlXlXlXlXlXlXlXlXlXlXlXlXlXlXlXlXlXlXlXlXlXlXlXlXlXlXlXlXlXlXlXlXlXlXlXlXE 9.Y.W.!.E.w.2 lXlXlX+ F.W.W.W.2.  lXlXlXlXlXlX",
"lXlXlXlXlXlXlXlXlXlXlXlXlXlXlXlXlXlXlXlXlXlXlXlXlXlXlXlXlXlXlXlXlXlXlXlXlXlXlXlX:X4XR.Q.E.C.l n lXlXlX4 V.W.W.K.5.w lXlXlXlXlXlX",
"lXlXlXlXlXlXlXlXlXlXlXlXlXlXlXlXlXlXlXlXlXlXlXlXlXlXlXlXlXlXlXlXlXlXlXlXlXlXlXlXE sX>XZ.<.1 % lXlXlXlXlX#.U.H.s.:Xm lXlXlXlXlXlX",
"lXlXlXlXlXlXlXlXlXlXlXlXlXlXlXlXlXlXlXlXlXlXlXlXlXlXlXlXlXlXlXlXlXlXlXlXlXlXlXlXlX& $ o o lXlXlXlXlXlXlXx 4.d.qXaXQ lXlXlXlXlXlX",
"lXlXlXlXlXlXlXlXlXlXlXlXlXlXlXlXlXlXlXlXlXlXlXlXlXlXlXlXlXlXlXlXlXlXlXlXlXlXlXlXlXlXlXlXlXlXlXlXlXlXlXlXlXL aXsX=XR lXlXlXlXlXlX",
"lXlXlXlXlXlXlXlXlXlXlXlXlXlXlXlXlXlXlXlXlXlXlXlXlXlXlXlXlXlXlXlXlXlXlXlXlXlXlXlXlXlXlXlXlXlXlXlXlXlXlXlXlX= *XE F lXlXlXlXlXlXlX",
"lXlXlXlXlXlXlXlXlXlXlXlXlXlXlXlXlXlXlXlXlXlXlXlXlXlXlXlXlXlXlXlXlXlXlXlXlXlXlXlXlXlXlXlXlXlXlXlXlXlXlXlXlXlX$ lXlXlXlXlXlXlXlXlX",
"lXlXlXlXlXlXlXlXlXlXlXlXlXlXlXlXlXlXlXlXlXlXlXlXlXlXlXlXlXlXlXlXlXlXlXlXlXlXlXlXlXlXlXlXlXlXlXlXlXlXlXlXlXlXlXlXlXlXlXlXlXlXlXlX",
"lXlXlXlXlXlXlXlXlXlXlXlXlXlXlXlXlXlXlXlXlXlXlXlXlXlXlXlXlXlXlXlXlXlXlXlXlXlXlXlXlXlXlXlXlXlXlXlXlXlXlXlXlXlXlXlXlXlXlXlXlXlXlXlX",
"lXlXlXlXlXlXlXlXlXlXlXlXlXlXlXlXlXlXlXlXlXlXlXlXlXlXlXlXlXlXlXlXlXlXlXlXlXlXlXlXlXlXlXlXlXlXlXlXlXlXlXlXlXlXlXlXlXlXlXlXlXlXlXlX",
"lXlXlXlXlXlXlXlXlXlXlXlXlXlXlXlXlXlXlXlXlXlXlXlXlXlXlXlXlXlXlXlXlXlXlXlXlXlXlXlXlXlXlXlXlXlXlXlXlXlXlXlXlXlXlXlXlXlXlXlXlXlXlXlX",
"lXlXlXlXlXlXlXlXlXlXlXlXlXlXlXlXlXlXlXlXlXlXlXlXlXlXlXlXlXlXlXlXlXlXlXlXlXlXlXlXlXlXlXlXlXlXlXlXlXlXlXlXlXlXlXlXlXlXlXlXlXlXlXlX",
"lXlXlXlXlXlXlXlXlXlXlXlXlXlXlXlXlXlXlXlXlXlXlXlXlXlXlXlXlXlXlXlXlXlXlXlXlXlXlXlXlXlXlXlXlXlXlXlXlXlXlXlXlXlXlXlXlXlXlXlXlXlXlXlX",
"lXlXlXlXlXlXlXlXlXlXlXlXlXlXlXlXlXlXlXlXlXlXlXlXlXlXlXlXlXlXlXlXlXlXlXlXlXlXlXlXlXlXlXlXlXlXlXlXlXlXlXlXlXlXlXlXlXlXlXlXlXlXlXlX",
"lXlXlXlXlXlXlXlXlXlXlXlXlXlXlXlXlXlXlXlXlXlXlXlXlXlXlXlXlXlXlXlXlXlXlXlXlXlXlXlXlXlXlXlXlXlXlXlXlXlXlXlXlXlXlXlXlXlXlXlXlXlXlXlX",
"lXlXlXlXlXlXlXlXlXlXlXlXlXlXlXlXlXlXlXlXlXlXlXlXlXlXlXlXlXlXlXlXlXlXlXlXlXlXlXlXlXlXlXlXlXlXlXlXlXlXlXlXlXlXlXlXlXlXlXlXlXlXlXlX",
"lXlXlXlXlXlXlXlXlXlXlXlXlXlXlXlXlXlXlXlXlXlXlXlXlXlXlXlXlXlXlXlXlXlXlXlXlXlXlXlXlXlXlXlXlXlXlXlXlXlXlXlXlXlXlXlXlXlXlXlXlXlXlXlX",
"lXlXlXlXlXlXlXlXlXlXlXlXlXlXlXlXlXlXlXlXlXlXlXlXlXlXlXlXlXlXlXlXlXlXlXlXlXlXlXlXlXlXlXlXlXlXlXlXlXlXlXlXlXlXlXlXlXlXlXlXlXlXlXlX"
};
