/* XPM */
static char *result[] = {
/* columns rows colors chars-per-pixel */
"64 64 224 2 ",
"   c #0C0503",
".  c #140900",
"X  c #1A1818",
"o  c #090B11",
"O  c #2E1904",
"+  c #291C11",
"@  c #3E1C1C",
"#  c #0E2F0A",
"$  c #39260B",
"%  c #3B2917",
"&  c #2A2B1C",
"*  c #292A28",
"=  c #352823",
"-  c #37312C",
";  c #343434",
":  c #393B38",
">  c #490D06",
",  c #5D0808",
"<  c #780A0A",
"1  c #6F1E0A",
"2  c #472705",
"3  c #5A2A04",
"4  c #593408",
"5  c #493419",
"6  c #573817",
"7  c #4D261A",
"8  c #663806",
"9  c #763E06",
"0  c #623C18",
"q  c #6C2E19",
"w  c #463626",
"e  c #583E23",
"r  c #483D35",
"t  c #4E2824",
"y  c #702A2B",
"u  c #1C5119",
"i  c #3C4A1E",
"p  c #2E4F16",
"a  c #136F15",
"s  c #1E5525",
"d  c #1A6A29",
"f  c #137824",
"g  c #30713C",
"h  c #5D490B",
"j  c #415F0C",
"k  c #694602",
"l  c #7C450A",
"z  c #6F5B0A",
"x  c #745902",
"c  c #754C1B",
"v  c #6D5118",
"b  c #736301",
"n  c #57422A",
"m  c #494B39",
"M  c #574A39",
"N  c #6A4A2B",
"B  c #6B5223",
"V  c #795A24",
"C  c #655537",
"Z  c #775937",
"A  c #6B4B30",
"S  c #4D632D",
"D  c #6D6C27",
"F  c #3D3F42",
"G  c #3F4041",
"H  c #3A7044",
"J  c #484847",
"K  c #534A47",
"L  c #5B5C4D",
"P  c #58544B",
"I  c #4C4D52",
"U  c #535354",
"Y  c #5D5D5D",
"T  c #595450",
"R  c #49554E",
"E  c #675B4E",
"W  c #615B55",
"Q  c #604940",
"!  c #457145",
"~  c #786A47",
"^  c #696755",
"/  c #736B5E",
"(  c #646465",
")  c #6B6B6B",
"_  c #676769",
"`  c #777777",
"'  c #990304",
"]  c #8B1102",
"[  c #800500",
"{  c #A70606",
"}  c #B51214",
"|  c #83270A",
" . c #912E14",
".. c #8D3737",
"X. c #B52D2D",
"o. c #C80303",
"O. c #D60909",
"+. c #CF0F12",
"@. c #FE0000",
"#. c #F00102",
"$. c #EE0904",
"%. c #C62120",
"&. c #864605",
"*. c #994D01",
"=. c #895507",
"-. c #9B5207",
";. c #824B17",
":. c #855D18",
">. c #A65806",
",. c #B75C02",
"<. c #A65D14",
"1. c #88640B",
"2. c #996607",
"3. c #986118",
"4. c #8F7210",
"5. c #BB630B",
"6. c #B86B01",
"7. c #AB7103",
"8. c #A86718",
"9. c #B36412",
"0. c #AB7715",
"q. c #B2740B",
"w. c #8A5822",
"e. c #955525",
"r. c #916F2B",
"t. c #A16425",
"y. c #A07820",
"u. c #CE6600",
"i. c #C86801",
"p. c #C67702",
"a. c #D67A00",
"s. c #CB7209",
"d. c #8B5352",
"f. c #A45959",
"g. c #897349",
"h. c #855F62",
"j. c #966465",
"k. c #AB6F72",
"l. c #058319",
"z. c #25981B",
"x. c #0B8527",
"c. c #1D862B",
"v. c #3E8E2B",
"b. c #07A823",
"n. c #04B52A",
"m. c #6F8A2A",
"M. c #469458",
"N. c #569961",
"B. c #71937B",
"V. c #AC8A05",
"C. c #BB8705",
"Z. c #BA8F12",
"A. c #A58031",
"S. c #C98801",
"D. c #D88904",
"F. c #C89603",
"G. c #DD9504",
"H. c #DB9C04",
"J. c #C9951A",
"K. c #E28B00",
"L. c #E59500",
"P. c #E69C03",
"I. c #D9A706",
"U. c #CBA318",
"Y. c #D8A615",
"T. c #E1A401",
"R. c #ECA700",
"E. c #EDAA01",
"W. c #E4A901",
"Q. c #F1AD00",
"!. c #ECB203",
"~. c #E7B305",
"^. c #F4B500",
"/. c #F5BB00",
"(. c #F9BD00",
"). c #DAB425",
"_. c #FCC300",
"`. c #FFCC00",
"'. c #F7C203",
"]. c #FFD100",
"[. c #FFD20C",
"{. c #FFD51B",
"}. c #FFD611",
"|. c #FFDF34",
" X c #FFD820",
".X c #858659",
"XX c #938B5A",
"oX c #AF8D54",
"OX c #888467",
"+X c #9D9D7B",
"@X c #999A74",
"#X c #8E897B",
"$X c #A4906A",
"%X c #A5A67D",
"&X c #E8C545",
"*X c #FFE853",
"=X c #C6C57C",
"-X c #7F8781",
";X c #898A8B",
":X c #9B9A99",
">X c #979888",
",X c #A89F97",
"<X c #A2A281",
"1X c #ADAD87",
"2X c #B7B888",
"3X c #A5A4A4",
"4X c #B5B5B5",
"5X c #ACB4AB",
"6X c #CC9D87",
"7X c #CCAB98",
"8X c #CCAFB1",
"9X c #BFC187",
"0X c #C6C789",
"qX c #D9D98D",
"wX c #D7D793",
"eX c #E5E595",
"rX c #F4F595",
"tX c #FDFD9A",
"yX c #F1F19B",
"uX c #EAEB8F",
"iX c #C7C7C8",
"pX c #D1D2D4",
"aX c #EBE3E5",
"sX c None",
/* pixels */
"sXsXsXsXsXsXsXsXsXsXsXsXsXsXsXsXsXsXsXsXsXsXsXsXsXsXsXsXsXsXsXsXsXsXsXsXsXsXsXsXsXsXsXsXsXsXsXsXsXsXsXsXsXsXsXsXsXsXsXsXsXsXsXsX",
"sXsXsXsXsXsXsXsXsXsXsXsXsXsXsXsXsXsXsXsXsXsXsXsXsXsXsXsXsXsXsXsXsXsXsXsXsXsXsXsXsXsXsXsXsXsXsXsXsXsXsXsXsXsXsXsXsXsXsXsXsXsXsXsX",
"sXsXsXsXsXsXsXsXsXsXsXsXsXsXsXsXsXsXsXsXsXsXsXsXsXsXsXsXsXsXsXsXsXsXsXsXsXsXsXsXsXsXsXsXsXsXsXsXsXsXsXsXsXsXsXsXsXsXsXsXsXsXsXsX",
"sXsXsXsXsXsXsXsXsXsXsXsXsXsXsXsXsXsXsXsXsXsXsXsXsXsXsXsXsXsXsXsXsXsXsXsXsXsXsXsXsXsXsXsXsXsXsXsXsXsXsXsXsXsXsXsXsXsXsXsXsXsXsXsX",
"sXsXsXsXsXsXsXsXsXsXsXsXsXsXsXsXsXsXsXsXsXsXsXsXsXsXsXsXsXsXsXsXsXsXsXsXsXsXsXsXsXsXsXsXsXsXsXsXsXsXsXsXsXsXsXsXsXsXsXsXsXsXsXsX",
"sXsXsXsXsXsXsXsXsXsXsXsXsXsXsXsXsXsXsXsXsXsXsXsXsXsXsXsXsXsXsXsXsXsXsXsXsXsXsXsXsXsXsXsXsXsXsXsXsXsXsXsXsXsXsXsXsXsXsXsXsXsXsXsX",
"sXsXsXsXsXsXsXsXsXsXsXsXsXsXsXsXsXsXsXsXsXsXsXsXsXsXsXsXsXsXsXsXsXsXsXsXsXsXsXsXsXsXsXsXsXsXsXsXsXsXsXsXsXsXsXsXsXsXsXsXsXsXsXsX",
"sXsXsXsXsXsXsXsXsXsXsXsXsXsXsXsXsXsXsXsXsXsXsXsXsXsXsXsXsXsXsXsXsXsXsXsXsXsXsXsXsXsXsXsXsXsXsXsXsXsXsXsXsXsXsXsXsXsXsXsXsXsXsXsX",
"sXsXsXsXsXsXsXsXsXsXsXsXsXsXsXsXsXsXsXsXsXsXsXsXsXsXsXsXsXsXsXsXsXsXsXsXsXsXsXsXsXsXsXsX@ q sXsXsXsXsXsXsXsXsXsXsXsXsXsXsXsXsXsX",
"sXsXsXsXsXsXsXsXsXsXsXsXsXsXsXsXsXsXsXsXsXsXsXsXsXsXsXsXsXsXsXsXsXsXsXsXsXsXsXsXsXsXsX> { <   sX- sXsXsXsXsXsXsXsXsXsXsXsXsXsXsX",
"sXsXsXsXsXsXsXsXsXsXsXsXsXsXsXsXsXsXsXsXsXsXsXsXsXsXsXsXsXsXsXsXsXsXsXsXsXsXsXsXw sXsXo.#.< , sX2 sXsXsXsXsXsXsXsXsXsXsXsXsXsXsX",
"sXsXsXsXsXsXsXsXsXsXsXsXsXsXsXsXsXsXsXsXsXsXsXsXsXsXsXsXsXsXsXsXsXsXsXsXsXsXsXsX8 sX6 $.#.O.{ X :.8 sXsXsXsXsXsXsXsXsXsXsXsXsXsX",
"sXsXsXsXsXsXsXsXsXsXsXsXsXsXsXsXsXsXsXsXsXsXsXsXsXsXsXsXsXsXsXsXsXsXsXsXsXsXsXE 0.r { @.@.@.O.[ C.1.sXsXsXsXsXsXsXsXsXsXsXsXsXsX",
"sXsXsXsXsXsXsXsXsXsXsXsXsXsXsXsXsXsXsXsXsXsXsXsXsXsXsXsXsXsXsXsXsXsXsXsXsXsXsXk H.6 { @.%.X.} | ~.z o sXsXsXsXsXsXsXsXsXsXsXsXsX",
"sXsXsXsXsXsXsXsXsXsXsXsXsXsXsXsXsXsXsXsXsXsXsXsXsXsXsXsXsXsXsXsXsXsXsXsXsXsXsXk T.4 '  .m @ t 2.'.r.R # # r $ =.k sXsXsXsXsXsXsX",
"sXsXsXsXsXsXsXsXsXsXsXsXsXsXsXsXsXsXsXsXsXsXsXsXsXsXsXsXsXsXsXsXsXsXsXsXsXsXsXZ e.7 S x. .{ v I.'.r.pXH # # C./.=.sXsXsXsXsXsXsX",
"sXsXsXsXsXsXsXsXsXsXsXsXsXsXsXsXsXsXsXsXsXsXsXsXsXsXsXsXsXsXsXsXsXsXsXsXsXsXsX: { h n.0 @.o.| W.H.n :XpX;XH D ~.k sXsXsXsXsXsXsX",
"sXsXsXsXsXsXsXsXsXsXsXsXsXsXsXsXsXsXsXsXsXsXsXsXsXsXsXsXsXsXsXsXsXsXsXsXsXsXsXsX] z.f } O.6 S D.>.=.2./ iX3XH A.sXsXsXsXsXsXsXsX",
"sXsXsXsXsXsXsXsXsXsXsXsXsXsXsXsXsXsXsXsXsXsXsXsXsXsXsXsXsXsXsXsXsXsXsXsXsXsXsXsX% b.i +.k.N.n.m.B Y.`.2.; ` B.p sXsXsXsXsXsXsXsX",
"sXsXsXsXsXsXsXsXsXsXsXsXsXsXsXsXsXsXsXsXsXsXsXsXsXsXsXsXsXsXsXsXsXsXsXsXsXsXsX3 :.a s y aXN.n.n.s U._.:.;XY >XR * sXsXsXsXsXsXsX",
"sXsXsXsXsXsXsXsXsXsXsXsXsXsXsXsXsXsXsXsXsXsXsXsXsXsXsXsXsXsXsXsXsXsXsXsXsXsXv I._.b p f.5Xi p l.a V.F.E 4X) _ B.s sXsXsXsXsXsXsX",
"sXsXsXsXsXsXsXsXsXsXsXsXsXsXsXsXsXsXsXsXsXsXsXsXsXsXsXsXsXsXsXsXsXsXsXsXsXr r.&XY.P.r.` ~ C.I.z a 4.V ( ` Y J -Xf sXsXsXsXsXsXsX",
"sXsXsXsXsXsXsXsXsXsXsXsXsXsXsXsXsXsXsXsXsXsXsXsXsXsXsXsXsXsXsXsXsXsXsXsXsXc J.).Y.R.Q.Y.G. X[.(.=.2 P ( ( C 2.^ g H sXsXsXsXsXsX",
"sXsXsXsXsXsXsXsXsXsXsXsXsXsXsXsXsXsXsXsXsXsXsXsXsXsXsXsXsXsXsXsXsXsXsXsXsXt.(.`.`._.|.[.`._.E.`.I.m ( ( U V.`.y.d d sXsXsXsXsXsX",
"sXsXsXsXsXsXsXsXsXsXsXsXsXsXsXsXsXsXsXsXsXsXsXsXsXsXsXsXsXsXsXsXsXsXsXsXsX7.R.`.Q._.*X{.`.D.5.P.(.Z ;X( D '.`.W.p x.sXsXsXsXsXsX",
"sXsXsXsXsXsXsXsXsXsXsXsXsXsXsXsXsXsXsXsXsXsXsXsXsXsXsXsXsXsXsXsXsXsXsXsXsX8.K.D.L.`.`.`.'.3.r q.R.V 4XP F.].`.`.b x.: sXsXsXsXsX",
"sXsXsXsXsXsXsXsXsXsXsXsXsXsXsXsXsXsXsXsXsXsXsXsXsXsXsXsXsXsXsXsXsXsXsXsXsXc u.9.a.(.`./.D.| 1 i.p.M ) V /. X`.`.V.l.D 4 sXsXsXsX",
"sXsXsXsXsXsXsXsXsXsXsXsXsXsXsXsXsXsXsXsXsXsXsXsXsXsXsXsXsXsXsXsXsXsXsXsXsXsX&.l 6.a.E.a.t...] i.*.& - S.].`.`.`.I.x.m.H.V sXsXsX",
"sXsXsXsXsXsXsXsXsXsXsXsXsXsXsXsXsXsXsXsXsXsXsXsXsXsXsXsXsXsXsXsXsXsXsXsXsXsX& E q ,.u.<.A d.q ,.6 P m 7.`.`.`.`.!.j v.!.b sXsXsX",
"sXsXsXsXsXsXsXsXsXsXsXsXsXsXsXsXsXsXsXsXsXsXsXsXsXsXsXsXsXsXsXsXsXsXsXsXsXsX3 E t > h.d.{ j.~ ,.% %X1X:.^.I.F.=.5 * S =.m sXsXsX",
"sXsXsXsXsXsXsXsXsXsXsXsXsXsXsXsXsXsXsXsXsXsXsXsXsXsXsXsXsXsXsXsXsXsXsXsXsXsX7 O J } | ..X.h.3.8 L eXwXQ 8 w - G Y U * X sXsXsXsX",
"sXsXsXsXsXsXsXsXsXsXsXsXsXsXsXsXsXsXsXsXsXsXsXsXsXsXsXsXsXsXsXsXsXsXsXsXsXsXJ ; ;Xk.' h.3XQ 9.n 0XtXyX/ F ( _ ( ` B.X sXsXsXsXsX",
"sXsXsXsXsXsXsXsXsXsXsXsXsXsXsXsXsXsXsXsXsXsXsXsXsXsXsXsXsXsXsXsXsXsXsXsXsX: Y Y $XZ 4 Z ,XA.6.XXtXtXeX^ ` :X_ ( :X:XX sXsXsXsXsX",
"sXsXsXsXsXsXsXsXsXsXsXsXsXsXsXsXsXsXsXsXsXsXsXsXsXsXsXsXsXsXsXsXsXsXsXsXsX; ) W 6.Q.`.E.U.!.=.=XtXwX<XL ` 3X) _ ) ) X sXsXsXsXsX",
"sXsXsXsXsXsXsXsXsXsXsXsXsXsXsXsXsXsXsXsXsXsXsXsXsXsXsXsX8XsXsXsXsXsXsXsXsX* I J F.`.(._.]./.V 0X1X+XeXg.J I I I I I : sXsXsXsXsX",
"sXsXsXsXsXsXsXsXsXsXsXsXsXsXsXsXsXsXsXsXsXsXsXsXsXsXsXsX7XsXsXsXsXsXsXsXsXO 8 w -.p.9 S._.q.^ %X0XtXtX.X3 x b x z 2 ; sXsXsXsXsX",
"sXsXsXsXsXsXsXsXsXsXsXsXsXsXsXsXsXsXsXsXsXsXsXsXsXsXsXsXsXsXsXsXsXsXsXsXsX9 R.F.l $ - 6 h C qXtXtXtXuX0.!.`.].].`.V.= sXsXsXsXsX",
"sXsXsXsXsXsXsXsXsXsXsXsXsXsXsXsXsXsXsXsXsXsX7XsXsXsXsXsXsXsXsXsXsXsXsXsXsXx _.`.^.p.C @XqXuXtXtXtXtX$XS.[.{.`.`.`.W.5 sXsXsXsXsX",
"sXsXsXsXsXsXsXsXsXsXsXsXsXsXsXsXsXsXsXsXsXsX8XsXsXsXsXsXsXsXsXsXsXsXsXsXsX8 /.`.`.L.w.^ %XwXrXrXwX%XZ G.|.*X`.`.`.W.% sXsXsXsXsX",
"sXsXsXsXsXsXsXsXsXsXsXsXsXsXsXsXsXsXsXsXsXsX6XsXsXsXsXsXsXsXsXsXsXsXsXsXsXk !.U.C.K.l C %X+X+X+X%X2XV L.[.[.`.`.`.H.2 sXsXsXsXsX",
"sXsXsXsXsXsXsXsXsXsXsXsXsXsXsXsXsXsXsXsXsXsXsXsXsXsXsXsXsXsXsXsXsXsXsXsXsXw 6.0.6 w.4 c XXtXtXtXtXrXB >.(.`.`.`.`.7.&.5 sXsXsXsX",
"sXsXsXsXsXsXsXsXsXsXsXsXsXsXsXsXsXsXsXsXsXsXsXsXsXsXsXsXsXsXsXsXsXsXsXsXsXsX;.i.w.C e 0 Z %XyXtXtXrXv 8 C._.E.`.P.l *.4 sXsXsXsX",
"sXsXsXsXsXsXsXsXsXsXsXsXsXsXsXsXsXsXsXsXsXsXsXsXsXsXsXsXsXsXsXsXsXsXsXsXsXsX; 8 l q 9 i.9.n @X0X0X<XZ <.=.1.q.S.4 . .   sXsXsXsX",
"sXsXsXsXsXsXsXsXsXsXsXsXsXsXsXsXsXsXsXsXsXsXsXsXsXsXsXsXsXsXsXsXsXsXsXsXsXsXsXsXsX* -.i.u.,.N P <X1Xj.,.<.l N 3 = R sXsXsXsXsXsX",
"sXsXsXsXsXsXsXsXsXsXsXsXsXsXsXsXsXsXsXsXsXsXsXsXsXsXsXsXsXsXsXsXsXsXsXsXsXsXsXsXsXsX% >.u.u.5.r L +XOX;.u.u.,.*.N 0 sXsXsXsXsXsX",
"sXsXsXsXsXsXsXsXsXsXsXsXsXsXsXsXsXsXsXsXsXsXsXsXsXsXsXsXsXsXsXsXsXsXsXsXsXsXsXsXsXsXw Z.P.i.i.5 sXX ; 6 5.a.P.3.;.c sXsXsXsXsXsX",
"sXsXsXsXsXsXsXsXsXsXsXsXsXsXsXsXsXsXsXsXsXsXsXsXsXsXsXsXsXsXsXsXsXsXsXsXsXsXsXsXsX5 S.`.`.^.u.3 sXsXsX% p.'.].~.=.;.2 sXsXsXsXsX",
"sXsXsXsXsXsXsXsXsXsXsXsXsXsXsXsXsXsXsXsXsXsXsXsXsXsXsXsXsXsXsXsXsXsXsXsXsXsXsXsX` oX~.`.`./.6.6 sXsXsX2 T.].`.].q.+ sXsXsXsXsXsX",
"sXsXsXsXsXsXsXsXsXsXsXsXsXsXsXsXsXsXsXsXsXsXsXsXsXsXsXsXsXsXsXsXsXsXsXsXsXsXsXsX3X8XoX_.^.p.4 sXsXsXsXw q.].`.H.r.6 sXsXsXsXsXsX",
"sXsXsXsXsXsXsXsXsXsXsXsXsXsXsXsXsXsXsXsXsXsXsXsXsXsXsXsXsXsXsXsXsXsXsXsXsXsXsXsXY 3X#X2.l + sXsXsXsXsXsX=.R.J.k.4XK sXsXsXsXsXsX",
"sXsXsXsXsXsXsXsXsXsXsXsXsXsXsXsXsXsXsXsXsXsXsXsXsXsXsXsXsXsXsXsXsXsXsXsXsXsXsXsXsXsXsXsXsXsXsXsXsXsXsXsXe t.:XiXiX-XsXsXsXsXsXsX",
"sXsXsXsXsXsXsXsXsXsXsXsXsXsXsXsXsXsXsXsXsXsXsXsXsXsXsXsXsXsXsXsXsXsXsXsXsXsXsXsXsXsXsXsXsXsXsXsXsXsXsXsXsXP iX5X-XU sXsXsXsXsXsX",
"sXsXsXsXsXsXsXsXsXsXsXsXsXsXsXsXsXsXsXsXsXsXsXsXsXsXsXsXsXsXsXsXsXsXsXsXsXsXsXsXsXsXsXsXsXsXsXsXsXsXsXsXsX; Y J ; sXsXsXsXsXsXsX",
"sXsXsXsXsXsXsXsXsXsXsXsXsXsXsXsXsXsXsXsXsXsXsXsXsXsXsXsXsXsXsXsXsXsXsXsXsXsXsXsXsXsXsXsXsXsXsXsXsXsXsXsXsXsXsXsXsXsXsXsXsXsXsXsX",
"sXsXsXsXsXsXsXsXsXsXsXsXsXsXsXsXsXsXsXsXsXsXsXsXsXsXsXsXsXsXsXsXsXsXsXsXsXsXsXsXsXsXsXsXsXsXsXsXsXsXsXsXsXsXsXsXsXsXsXsXsXsXsXsX",
"sXsXsXsXsXsXsXsXsXsXsXsXsXsXsXsXsXsXsXsXsXsXsXsXsXsXsXsXsXsXsXsXsXsXsXsXsXsXsXsXsXsXsXsXsXsXsXsXsXsXsXsXsXsXsXsXsXsXsXsXsXsXsXsX",
"sXsXsXsXsXsXsXsXsXsXsXsXsXsXsXsXsXsXsXsXsXsXsXsXsXsXsXsXsXsXsXsXsXsXsXsXsXsXsXsXsXsXsXsXsXsXsXsXsXsXsXsXsXsXsXsXsXsXsXsXsXsXsXsX",
"sXsXsXsXsXsXsXsXsXsXsXsXsXsXsXsXsXsXsXsXsXsXsXsXsXsXsXsXsXsXsXsXsXsXsXsXsXsXsXsXsXsXsXsXsXsXsXsXsXsXsXsXsXsXsXsXsXsXsXsXsXsXsXsX",
"sXsXsXsXsXsXsXsXsXsXsXsXsXsXsXsXsXsXsXsXsXsXsXsXsXsXsXsXsXsXsXsXsXsXsXsXsXsXsXsXsXsXsXsXsXsXsXsXsXsXsXsXsXsXsXsXsXsXsXsXsXsXsXsX",
"sXsXsXsXsXsXsXsXsXsXsXsXsXsXsXsXsXsXsXsXsXsXsXsXsXsXsXsXsXsXsXsXsXsXsXsXsXsXsXsXsXsXsXsXsXsXsXsXsXsXsXsXsXsXsXsXsXsXsXsXsXsXsXsX",
"sXsXsXsXsXsXsXsXsXsXsXsXsXsXsXsXsXsXsXsXsXsXsXsXsXsXsXsXsXsXsXsXsXsXsXsXsXsXsXsXsXsXsXsXsXsXsXsXsXsXsXsXsXsXsXsXsXsXsXsXsXsXsXsX",
"sXsXsXsXsXsXsXsXsXsXsXsXsXsXsXsXsXsXsXsXsXsXsXsXsXsXsXsXsXsXsXsXsXsXsXsXsXsXsXsXsXsXsXsXsXsXsXsXsXsXsXsXsXsXsXsXsXsXsXsXsXsXsXsX",
"sXsXsXsXsXsXsXsXsXsXsXsXsXsXsXsXsXsXsXsXsXsXsXsXsXsXsXsXsXsXsXsXsXsXsXsXsXsXsXsXsXsXsXsXsXsXsXsXsXsXsXsXsXsXsXsXsXsXsXsXsXsXsXsX",
"sXsXsXsXsXsXsXsXsXsXsXsXsXsXsXsXsXsXsXsXsXsXsXsXsXsXsXsXsXsXsXsXsXsXsXsXsXsXsXsXsXsXsXsXsXsXsXsXsXsXsXsXsXsXsXsXsXsXsXsXsXsXsXsX"
};
