/* XPM */
static char *result[] = {
/* columns rows colors chars-per-pixel */
"64 64 234 2 ",
"   c #060504",
".  c #150A02",
"X  c #171515",
"o  c #191100",
"O  c #281707",
"+  c #341B03",
"@  c #291D13",
"#  c #380F0F",
"$  c #023703",
"%  c #142B14",
"&  c #26290F",
"*  c #3B2809",
"=  c #3B2A19",
"-  c #1B1E20",
";  c #2B2B2D",
":  c #282C27",
">  c #382B25",
",  c #36322C",
"<  c #343434",
"1  c #373937",
"2  c #253527",
"3  c #5F0403",
"4  c #600404",
"5  c #4B2704",
"6  c #562B05",
"7  c #5A3408",
"8  c #492919",
"9  c #4B331C",
"0  c #493218",
"q  c #573816",
"w  c #463200",
"e  c #633803",
"r  c #7C3A02",
"t  c #643817",
"y  c #63200F",
"u  c #661F20",
"i  c #463627",
"p  c #5B3E23",
"a  c #433A39",
"s  c #472727",
"d  c #703029",
"f  c #164814",
"g  c #105A10",
"h  c #3C4C11",
"j  c #07660E",
"k  c #0B7018",
"l  c #244A28",
"z  c #275729",
"x  c #384838",
"c  c #3C5C39",
"v  c #345826",
"b  c #176523",
"n  c #0A7B28",
"m  c #2F7936",
"M  c #5E480D",
"N  c #514A1C",
"B  c #4C530B",
"V  c #684505",
"C  c #775E02",
"Z  c #674614",
"A  c #784718",
"S  c #73520E",
"D  c #786414",
"F  c #594327",
"G  c #46443B",
"H  c #5A4B3A",
"J  c #575338",
"K  c #4A5326",
"L  c #685527",
"P  c #795529",
"I  c #614E3B",
"U  c #6A5636",
"Y  c #745031",
"T  c #506221",
"R  c #3E3F41",
"E  c #403F40",
"W  c #364640",
"Q  c #3C6D46",
"!  c #434343",
"~  c #4B4B48",
"^  c #574A49",
"/  c #58544A",
"(  c #4D4E53",
")  c #4F5255",
"_  c #545454",
"`  c #5B5C5B",
"'  c #5A5C55",
"]  c #4F584F",
"[  c #685742",
"{  c #6C5558",
"}  c #70524D",
"|  c #5E655E",
" . c #407C4C",
".. c #6E7053",
"X. c #646465",
"o. c #6B6B6C",
"O. c #6D6666",
"+. c #79797A",
"@. c #737468",
"#. c #830808",
"$. c #940906",
"%. c #9D1A17",
"&. c #8D140C",
"*. c #A40503",
"=. c #853204",
"-. c #923E3E",
";. c #C70203",
":. c #C31914",
">. c #DD1012",
",. c #EB0102",
"<. c #FD0200",
"1. c #F20001",
"2. c #E9100D",
"3. c #844503",
"4. c #8B4C0B",
"5. c #864A07",
"6. c #89560A",
"7. c #834C16",
"8. c #835915",
"9. c #935709",
"0. c #A95705",
"q. c #B75D03",
"w. c #A05912",
"e. c #8D6400",
"r. c #9C6707",
"t. c #8B6517",
"y. c #946413",
"u. c #9E7206",
"i. c #A66703",
"p. c #BB6B00",
"a. c #B96405",
"s. c #B77A03",
"d. c #B86613",
"f. c #A97E17",
"g. c #B3721B",
"h. c #845D28",
"j. c #8C5B32",
"k. c #866537",
"l. c #976E31",
"z. c #A06224",
"x. c #CC6601",
"c. c #C96903",
"v. c #D56D00",
"b. c #C37904",
"n. c #D57800",
"m. c #A24346",
"M. c #887155",
"N. c #A86D5F",
"B. c #099225",
"V. c #149329",
"C. c #36852D",
"Z. c #00A922",
"A. c #11A729",
"S. c #368817",
"D. c #48932B",
"F. c #00C52B",
"G. c #589266",
"H. c #61886B",
"J. c #9D870E",
"K. c #BC8101",
"L. c #B08F09",
"P. c #BB8812",
"I. c #AF8913",
"U. c #898528",
"Y. c #B88D27",
"T. c #A68B34",
"R. c #C58802",
"E. c #D68A02",
"W. c #C99401",
"Q. c #DB9806",
"!. c #C99219",
"~. c #E39400",
"^. c #E59C00",
"/. c #EB9B00",
"(. c #E18C00",
"). c #D7A703",
"_. c #DEB100",
"`. c #EBAD02",
"'. c #E5A702",
"]. c #F2AC00",
"[. c #ECB204",
"{. c #EABA08",
"}. c #F3B400",
"|. c #F5BB01",
" X c #FABC00",
".X c #F3BC09",
"XX c #E6BA13",
"oX c #D4B43D",
"OX c #FBC301",
"+X c #FFCD01",
"@X c #F7C605",
"#X c #FFD000",
"$X c #FFD40B",
"%X c #FFD51B",
"&X c #FFD212",
"*X c #FDCF1C",
"=X c #F9D026",
"-X c #8B835E",
";X c #AF8D54",
":X c #868166",
">X c #98997C",
",X c #8C8A70",
"<X c #A08569",
"1X c #ABAC7D",
"2X c #A2A27F",
"3X c #B5B16A",
"4X c #FFEC5E",
"5X c #FFED61",
"6X c #7F8080",
"7X c #848384",
"8X c #88898B",
"9X c #9B9C9C",
"0X c #999694",
"qX c #8F9291",
"wX c #A4989B",
"eX c #8EA292",
"rX c #BABB87",
"tX c #AEAF84",
"yX c #A8A8A8",
"uX c #B6B6B6",
"iX c #BFC086",
"pX c #C5C586",
"aX c #D8D887",
"sX c #DBDB96",
"dX c #C0C193",
"fX c #E4E48D",
"gX c #E7E794",
"hX c #ECEC95",
"jX c #FFFF9A",
"kX c #F1F298",
"lX c #C6C9BE",
"zX c #C9C8C9",
"xX c #D7D8D9",
"cX c None",
/* pixels */
"cXcXcXcXcXcXcXcXcXcXcXcXcXcXcXcXcXcXcXcXcXcXcXcXcXcXcXcXcXcXcXcXcXcXcXcXcXcXcXcXcXcXcXcXcXcXcXcXcXcXcXcXcXcXcXcXcXcXcXcXcXcXcXcX",
"cXcXcXcXcXcXcXcXcXcXcXcXcXcXcXcXcXcXcXcXcXcXcXcXcXcXcXcXcXcXcXcXcXcXcXcXcXcXcXcXcXcXcXcXcXcXcXcXcXcXcXcXcXcXcXcXcXcXcXcXcXcXcXcX",
"cXcXcXcXcXcXcXcXcXcXcXcXcXcXcXcXcXcXcXcXcXcXcXcXcXcXcXcXcXcXcXcXcXcXcXcXcXcXcXcXcXcXcXcXcXcXcXcXcXcXcXcXcXcXcXcXcXcXcXcXcXcXcXcX",
"cXcXcXcXcXcXcXcXcXcXcXcXcXcXcXcXcXcXcXcXcXcXcXcXcXcXcXcXcXcXcXcXcXcXcXcXcXcXcXcXcXcXcXcXcXcXcXcXcXcXcXcXcXcXcXcXcXcXcXcXcXcXcXcX",
"cXcXcXcXcXcXcXcXcXcXcXcXcXcXcXcXcXcXcXcXcXcXcXcXcXcXcXcXcXcXcXcXcXcXcXcXcXcXcXcXcXcXcXcXcXcXcXcXcXcXcXcXcXcXcXcXcXcXcXcXcXcXcXcX",
"cXcXcXcXcXcXcXcXcXcXcXcXcXcXcXcXcXcXcXcXcXcXcXcXcXcXcXcXcXcXcXcXcXcXcXcXcXcXcXcXcXcXcXcXcXcXcXcXcXcXcXcXcXcXcXcXcXcXcXcXcXcXcXcX",
"cXcXcXcXcXcXcXcXcXcXcXcXcXcXcXcXcXcXcXcXcXcXcXcXcXcXcXcXcXcXcXcXcXcXcXcXcXcXcXcXcXcXcXcXcXcXcXcXcXcXcXcXcXcXcXcXcXcXcXcXcXcXcXcX",
"cXcXcXcXcXcXcXcXcXcXcXcXcXcXcXcXcXcXcXcXcXcXcXcXcXcXcXcXcXcXcXcXcXcXcXcXcXcXcXcXcXcXcXcX> s cXcXcXcXcXcXcXcXcXcXcXcXcXcXcXcXcXcX",
"cXcXcXcXcXcXcXcXcXcXcXcXcXcXcXcXcXcXcXcXcXcXcXcXcXcXcXcXcXcXcXcXcXcXcXcXcXcXcXcXcXcXcX= #.&.cXcXcXcXcXcXcXcXcXcXcXcXcXcXcXcXcXcX",
"cXcXcXcXcXcXcXcXcXcXcXcXcXcXcXcXcXcXcXcXcXcXcXcXcXcXcXcXcXcXcXcXcXcXcXcXcXcXcXcX, cXcX*.,.4 # cX5 cXcXcXcXcXcXcXcXcXcXcXcXcXcXcX",
"cXcXcXcXcXcXcXcXcXcXcXcXcXcXcXcXcXcXcXcXcXcXcXcXcXcXcXcXcXcXcXcXcXcXcXcXcXcXcXcX7 cX8 2.,.:.$.- Z 6 cXcXcXcXcXcXcXcXcXcXcXcXcXcX",
"cXcXcXcXcXcXcXcXcXcXcXcXcXcXcXcXcXcXcXcXcXcXcXcXcXcXcXcXcXcXcXcXcXcXcXcXcXcXcX[ y.cX$.<.<.,.;.4 I.C cXcXcXcXcXcXcXcXcXcXcXcXcXcX",
"cXcXcXcXcXcXcXcXcXcXcXcXcXcXcXcXcXcXcXcXcXcXcXcXcXcXcXcXcXcXcXcXcXcXcXcXcXcXcXZ Q.i *.<.2.>.;.&.).D cXcXcXcXcXcXcXcXcXcXcXcXcXcX",
"cXcXcXcXcXcXcXcXcXcXcXcXcXcXcXcXcXcXcXcXcXcXcXcXcXcXcXcXcXcXcXcXcXcXcXcXcXcXcXV [.7 *.%.I a u 6.OXD : % cXcX. 7 w cXcXcXcXcXcXcX",
"cXcXcXcXcXcXcXcXcXcXcXcXcXcXcXcXcXcXcXcXcXcXcXcXcXcXcXcXcXcXcXcXcXcXcXcXcXcXcXP z.8 t C.d $.N ).@Xl.9Xf $ & u.`.6.cXcXcXcXcXcXcX",
"cXcXcXcXcXcXcXcXcXcXcXcXcXcXcXcXcXcXcXcXcXcXcXcXcXcXcXcXcXcXcXcXcXcXcXcXcXcXcX! %.e Z.B 1.;.r `.'.M.xX| x z U.|.e cXcXcXcXcXcXcX",
"cXcXcXcXcXcXcXcXcXcXcXcXcXcXcXcXcXcXcXcXcXcXcXcXcXcXcXcXcXcXcXcXcXcXcXcXcXcXcXa *.S.B.%.,.&.Y Q.a.> 9XxXzXqXm P.* cXcXcXcXcXcXcX",
"cXcXcXcXcXcXcXcXcXcXcXcXcXcXcXcXcXcXcXcXcXcXcXcXcXcXcXcXcXcXcXcXcXcXcXcXcXcXcXcX8 B.h >.m.Q V.J.S y.V +.zXzXH.T cXcXcXcXcXcXcXcX",
"cXcXcXcXcXcXcXcXcXcXcXcXcXcXcXcXcXcXcXcXcXcXcXcXcXcXcXcXcXcXcXcXcXcXcXcXcXcXcX+ N k l d wXG.F.A.v ).`.N x o.uXx cXcXcXcXcXcXcXcX",
"cXcXcXcXcXcXcXcXcXcXcXcXcXcXcXcXcXcXcXcXcXcXcXcXcXcXcXcXcXcXcXcXcXcXcXcXcXcXp R.}.B f j.lXc g Z.k P.).} 6X1 8XH.l cXcXcXcXcXcXcX",
"cXcXcXcXcXcXcXcXcXcXcXcXcXcXcXcXcXcXcXcXcXcXcXcXcXcXcXcXcXcXcXcXcXcXcXcXcXcXh.=X.XW.U 7X@.e.J.h g J.t.7X9X] ~ eXb cXcXcXcXcXcXcX",
"cXcXcXcXcXcXcXcXcXcXcXcXcXcXcXcXcXcXcXcXcXcXcXcXcXcXcXcXcXcXcXcXcXcXcXcXcXN Y.oX!.].~.Y.b.*X&X'.M V / o.o.~ < 9Xm Q cXcXcXcXcXcX",
"cXcXcXcXcXcXcXcXcXcXcXcXcXcXcXcXcXcXcXcXcXcXcXcXcXcXcXcXcXcXcXcXcXcXcXcXcXz.|.@X+XOX%X@XOX+X.X+XW., X.X.` t.S o.m b cXcXcXcXcXcX",
"cXcXcXcXcXcXcXcXcXcXcXcXcXcXcXcXcXcXcXcXcXcXcXcXcXcXcXcXcXcXcXcXcXcXcXcXcXi.}.+X.XOX5X%X+X/.n. X@XU X.X.U {._.F Q n cXcXcXcXcXcX",
"cXcXcXcXcXcXcXcXcXcXcXcXcXcXcXcXcXcXcXcXcXcXcXcXcXcXcXcXcXcXcXcXcXcXcXcXcXi.~.'./.@X%X$XOXp.t ~. XP +.' L.+X+XJ.Q B.1 cXcXcXcXcX",
"cXcXcXcXcXcXcXcXcXcXcXcXcXcXcXcXcXcXcXcXcXcXcXcXcXcXcXcXcXcXcXcXcXcXcXcXcXh.n.c.(.@X+XOX~.=.y E.].k.8XL @X+X+X).H V.K 8 cXcXcXcX",
"cXcXcXcXcXcXcXcXcXcXcXcXcXcXcXcXcXcXcXcXcXcXcXcXcXcXcXcXcXcXcXcXcXcXcXcXcX* w.4.x.~..X(.d.d y ^.E.H / s.&X&X+X@XZ n D.b.F cXcXcX",
"cXcXcXcXcXcXcXcXcXcXcXcXcXcXcXcXcXcXcXcXcXcXcXcXcXcXcXcXcXcXcXcXcXcXcXcXcXcX# U =.x.v.q.U O.6.`.i.1 Z |.+X+X+X+Xe.j D. Xy.cXcXcX",
"cXcXcXcXcXcXcXcXcXcXcXcXcXcXcXcXcXcXcXcXcXcXcXcXcXcXcXcXcXcXcXcXcXcXcXcXcXcXX ` < 6 l.M.{ U Q.Q.7 / p ).#X#X+X+Xs.b C.g.J cXcXcX",
"cXcXcXcXcXcXcXcXcXcXcXcXcXcXcXcXcXcXcXcXcXcXcXcXcXcXcXcXcXcXcXcXcXcXcXcXcXcX@ q } { ^ { N.T.}.4.! sX-XK.[.).s.M * v g O G cXcXcX",
"cXcXcXcXcXcXcXcXcXcXcXcXcXcXcXcXcXcXcXcXcXcXcXcXcXcXcXcXcXcXcXcXcXcXcXcXcXcXi q j.l.l.j.N.XXQ.q tXjXpX7 e < , _ X.! f ; cXcXcXcX",
"cXcXcXcXcXcXcXcXcXcXcXcXcXcXcXcXcXcXcXcXcXcXcXcXcXcXcXcXcXcXcXcXcXcXcXcXcXcX< < s. X#X}.[. Xa.M.kXjXaXx ( o.X.o.7X] $ cXcXcXcXcX",
"cXcXcXcXcXcXcXcXcXcXcXcXcXcXcXcXcXcXcXcXcXcXcXcXcXcXcXcXcXcXcXcXcXcXcXcXcXR ~ ( W.OX}. X+X}.P aXjXgX>X~ qX6XX.o.yX| $ cXcXcXcXcX",
"cXcXcXcXcXcXcXcXcXcXcXcXcXcXcXcXcXcXcXcXcXcXcXcXcXcXcXcXcXcXcXcXcXcXcXcXcX. _ ` 6.p.e s.}.r.:XkXpXtX1X/ 0X8XX.o.+.( % cXcXcXcXcX",
"cXcXcXcXcXcXcXcXcXcXcXcXcXcXcXcXcXcXcXcXcXcXcXcXcXcXcXcXcXcXcXcXcXcXcXcXcX  ! _ ! s G L N H ,X>XtXfXfXG ) ) ( ( ( x ; cXcXcXcXcX",
"cXcXcXcXcXcXcXcXcXcXcXcXcXcXcXcXcXcXcXcXcXcXcXcXcXcXcXcXcXcXcXcXcXcXcXcXcX. 5 p 1 , | gXgXsXsXgXjXjXfXN e C C C V & 2 cXcXcXcXcX",
"cXcXcXcXcXcXcXcXcXcXcXcXcXcXcXcXcXcXcXcXcXcXcXcXcXcXcXcXcXcXcXcXcXcXcXcXcX. R.`.i.5.Y pXjXjXjXjXjXjX3XR. X#X+X#X@XS W cXcXcXcXcX",
"cXcXcXcXcXcXcXcXcXcXcXcXcXcXcXcXcXcXcXcXcXcXcXcXcXcXcXcXcXcXcXcXcXcXcXcXcXo W.+X+X/.z.@.rXgXjXjXhXpXh.|.%X$X+X+X+Xi.= cXcXcXcXcX",
"cXcXcXcXcXcXcXcXcXcXcXcXcXcXcXcXcXcXcXcXcXcXcXcXcXcXcXcXcXcXcXcXcXcXcXcXcX. W.+X@X|.d.[ 1X>X2X1X>X:X9.@X4X%X+X+X+Xi.7 cXcXcXcXcX",
"cXcXcXcXcXcXcXcXcXcXcXcXcXcXcXcXcXcXcXcXcXcXcXcXcXcXcXcXcXcXcXcXcXcXcXcXcX@ s.@XI.^.a.i 3XhXfXgXhX3X0. X&X+X+X+X+Xi.3.cXcXcXcXcX",
"cXcXcXcXcXcXcXcXcXcXcXcXcXcXcXcXcXcXcXcXcXcXcXcXcXcXcXcXcXcXcXcXcXcXcXcXcXR S Q.q h.t A H aXjXjXjXaXA E.+X+X+X+X|.3.q.q cXcXcXcX",
"cXcXcXcXcXcXcXcXcXcXcXcXcXcXcXcXcXcXcXcXcXcXcXcXcXcXcXcXcXcXcXcXcXcXcXcXcXcXp q.q.I F 0 P H rXkXgXiXq e |.[.@X Xs.O + . cXcXcXcX",
"cXcXcXcXcXcXcXcXcXcXcXcXcXcXcXcXcXcXcXcXcXcXcXcXcXcXcXcXcXcXcXcXcXcXcXcXcXcX_ 9 A r t 0.x.w.H X.>XqXk.4.9.t.E.y.0 ;     cXcXcXcX",
"cXcXcXcXcXcXcXcXcXcXcXcXcXcXcXcXcXcXcXcXcXcXcXcXcXcXcXcXcXcXcXcXcXcXcXcXcXcXcXcXcX@ 7.x.x.v.w.p @.pX:X0.7.A 6 e 0 F cXcXcXcXcXcX",
"cXcXcXcXcXcXcXcXcXcXcXcXcXcXcXcXcXcXcXcXcXcXcXcXcXcXcXcXcXcXcXcXcXcXcXcXcXcXcXcXcXcX= w.x.x.c.A G : a 5.v.c.0.0.4.t cXcXcXcXcXcX",
"cXcXcXcXcXcXcXcXcXcXcXcXcXcXcXcXcXcXcXcXcXcXcXcXcXcXcXcXcXcXcXcXcXcXcXcXcXcXcXcXcXcX9 P.^.v.c.9 cX: X 9 d.n./.w.7.0.i cXcXcXcXcX",
"cXcXcXcXcXcXcXcXcXcXcXcXcXcXcXcXcXcXcXcXcXcXcXcXcXcXcXcXcXcXcXcXcXcXcXcXcXcXcXcXcX0 R.+X+X}.x.6 cXcXcX8 b.OX#X[.6.* . cXcXcXcXcX",
"cXcXcXcXcXcXcXcXcXcXcXcXcXcXcXcXcXcXcXcXcXcXcXcXcXcXcXcXcXcXcXcXcXcXcXcXcXcXcXcX+.;X[.+X+X|.p.q cXcXcX5 '.+X+X#XK.X cXcXcXcXcXcX",
"cXcXcXcXcXcXcXcXcXcXcXcXcXcXcXcXcXcXcXcXcXcXcXcXcXcXcXcXcXcXcXcXcXcXcXcXcXcXcXcX9XuX;XOX|.c.q cXcXcXcXi s.#X+XQ.l.9 cXcXcXcXcXcX",
"cXcXcXcXcXcXcXcXcXcXcXcXcXcXcXcXcXcXcXcXcXcXcXcXcXcXcXcXcXcXcXcXcXcXcXcXcXcXcXcX` yX>Xi.S @ cXcXcXcXcXcX4.`.!.<XuX^ cXcXcXcXcXcX",
"cXcXcXcXcXcXcXcXcXcXcXcXcXcXcXcXcXcXcXcXcXcXcXcXcXcXcXcXcXcXcXcXcXcXcXcXcXcXcXcXcXcXcXcXcXcXcXcXcXcXcXcXp z.0XzXzXM.cXcXcXcXcXcX",
"cXcXcXcXcXcXcXcXcXcXcXcXcXcXcXcXcXcXcXcXcXcXcXcXcXcXcXcXcXcXcXcXcXcXcXcXcXcXcXcXcXcXcXcXcXcXcXcXcXcXcXcXcX/ zXuX7X( cXcXcXcXcXcX",
"cXcXcXcXcXcXcXcXcXcXcXcXcXcXcXcXcXcXcXcXcXcXcXcXcXcXcXcXcXcXcXcXcXcXcXcXcXcXcXcXcXcXcXcXcXcXcXcXcXcXcXcXcX< ` ! R cXcXcXcXcXcXcX",
"cXcXcXcXcXcXcXcXcXcXcXcXcXcXcXcXcXcXcXcXcXcXcXcXcXcXcXcXcXcXcXcXcXcXcXcXcXcXcXcXcXcXcXcXcXcXcXcXcXcXcXcXcXcXcXcXcXcXcXcXcXcXcXcX",
"cXcXcXcXcXcXcXcXcXcXcXcXcXcXcXcXcXcXcXcXcXcXcXcXcXcXcXcXcXcXcXcXcXcXcXcXcXcXcXcXcXcXcXcXcXcXcXcXcXcXcXcXcXcXcXcXcXcXcXcXcXcXcXcX",
"cXcXcXcXcXcXcXcXcXcXcXcXcXcXcXcXcXcXcXcXcXcXcXcXcXcXcXcXcXcXcXcXcXcXcXcXcXcXcXcXcXcXcXcXcXcXcXcXcXcXcXcXcXcXcXcXcXcXcXcXcXcXcXcX",
"cXcXcXcXcXcXcXcXcXcXcXcXcXcXcXcXcXcXcXcXcXcXcXcXcXcXcXcXcXcXcXcXcXcXcXcXcXcXcXcXcXcXcXcXcXcXcXcXcXcXcXcXcXcXcXcXcXcXcXcXcXcXcXcX",
"cXcXcXcXcXcXcXcXcXcXcXcXcXcXcXcXcXcXcXcXcXcXcXcXcXcXcXcXcXcXcXcXcXcXcXcXcXcXcXcXcXcXcXcXcXcXcXcXcXcXcXcXcXcXcXcXcXcXcXcXcXcXcXcX",
"cXcXcXcXcXcXcXcXcXcXcXcXcXcXcXcXcXcXcXcXcXcXcXcXcXcXcXcXcXcXcXcXcXcXcXcXcXcXcXcXcXcXcXcXcXcXcXcXcXcXcXcXcXcXcXcXcXcXcXcXcXcXcXcX",
"cXcXcXcXcXcXcXcXcXcXcXcXcXcXcXcXcXcXcXcXcXcXcXcXcXcXcXcXcXcXcXcXcXcXcXcXcXcXcXcXcXcXcXcXcXcXcXcXcXcXcXcXcXcXcXcXcXcXcXcXcXcXcXcX",
"cXcXcXcXcXcXcXcXcXcXcXcXcXcXcXcXcXcXcXcXcXcXcXcXcXcXcXcXcXcXcXcXcXcXcXcXcXcXcXcXcXcXcXcXcXcXcXcXcXcXcXcXcXcXcXcXcXcXcXcXcXcXcXcX",
"cXcXcXcXcXcXcXcXcXcXcXcXcXcXcXcXcXcXcXcXcXcXcXcXcXcXcXcXcXcXcXcXcXcXcXcXcXcXcXcXcXcXcXcXcXcXcXcXcXcXcXcXcXcXcXcXcXcXcXcXcXcXcXcX",
"cXcXcXcXcXcXcXcXcXcXcXcXcXcXcXcXcXcXcXcXcXcXcXcXcXcXcXcXcXcXcXcXcXcXcXcXcXcXcXcXcXcXcXcXcXcXcXcXcXcXcXcXcXcXcXcXcXcXcXcXcXcXcXcX",
"cXcXcXcXcXcXcXcXcXcXcXcXcXcXcXcXcXcXcXcXcXcXcXcXcXcXcXcXcXcXcXcXcXcXcXcXcXcXcXcXcXcXcXcXcXcXcXcXcXcXcXcXcXcXcXcXcXcXcXcXcXcXcXcX"
};
