/* XPM */
static char *result[] = {
/* columns rows colors chars-per-pixel */
"64 64 228 2 ",
"   c #0C0A0A",
".  c #1B1818",
"X  c #1D0C07",
"o  c #2E160A",
"O  c #042E04",
"+  c #1C2D1C",
"@  c #3A2409",
"#  c #382818",
"$  c #202B15",
"%  c #2B2C2B",
"&  c #363427",
"*  c #353535",
"=  c #373836",
"-  c #2B3128",
";  c #590503",
":  c #591517",
">  c #7A1D05",
",  c #6D0808",
"<  c #4C2A09",
"1  c #532A01",
"2  c #552B01",
"3  c #5A3607",
"4  c #452B17",
"5  c #49311A",
"6  c #46381C",
"7  c #533514",
"8  c #563A19",
"9  c #542C12",
"0  c #673806",
"q  c #773C01",
"w  c #663D12",
"e  c #422D2A",
"r  c #532625",
"t  c #473726",
"y  c #573C26",
"u  c #443C37",
"i  c #6C3C39",
"p  c #1A4C17",
"a  c #334D18",
"s  c #2E530E",
"d  c #09620D",
"f  c #1E6E0E",
"g  c #357018",
"h  c #165C26",
"j  c #384726",
"k  c #204C2B",
"l  c #0E7424",
"z  c #346B3B",
"x  c #337632",
"c  c #5C4707",
"v  c #5B4B15",
"b  c #784407",
"n  c #795405",
"m  c #63411A",
"M  c #794915",
"N  c #7C581B",
"B  c #68510E",
"V  c #7D641C",
"C  c #474337",
"Z  c #594937",
"A  c #5B553E",
"S  c #524829",
"D  c #674729",
"F  c #6C5927",
"G  c #75582D",
"H  c #69573D",
"J  c #735838",
"K  c #6B4C2D",
"L  c #516F2F",
"P  c #7F7033",
"I  c #3E4E42",
"U  c #3B6E43",
"Y  c #454543",
"T  c #5A574A",
"R  c #5C5D5D",
"E  c #565453",
"W  c #514F4F",
"Q  c #774D4A",
"!  c #5F6052",
"~  c #796E5A",
"^  c #7B7857",
"/  c #6F684A",
"(  c #5D5E61",
")  c #646465",
"_  c #6A6A6A",
"`  c #6A6561",
"'  c #777778",
"]  c #786E62",
"[  c #861802",
"{  c #8B1911",
"}  c #951416",
"|  c #8E140D",
" . c #A50606",
".. c #B60303",
"X. c #AB1818",
"o. c #972822",
"O. c #853A3A",
"+. c #973A39",
"@. c #AD2727",
"#. c #B52628",
"$. c #D40607",
"%. c #C40505",
"&. c #E60706",
"*. c #FF0000",
"=. c #F60401",
"-. c #894A08",
";. c #984D03",
":. c #835C00",
">. c #8B5606",
",. c #945605",
"<. c #864614",
"1. c #885618",
"2. c #99581B",
"3. c #A75708",
"4. c #B75C01",
"5. c #A55E17",
"6. c #8D6909",
"7. c #9A6604",
"8. c #9A7B08",
"9. c #9D7A18",
"0. c #A86C0A",
"q. c #B66508",
"w. c #A67506",
"e. c #B87806",
"r. c #AA6519",
"t. c #B07516",
"y. c #875829",
"u. c #8A6737",
"i. c #936A2A",
"p. c #A67128",
"a. c #C66601",
"s. c #CD6600",
"d. c #C66905",
"f. c #C77602",
"g. c #D37601",
"h. c #CE7709",
"j. c #8D4D4F",
"k. c #8B7755",
"l. c #817965",
"z. c #906F70",
"x. c #A87A7B",
"c. c #028D1D",
"v. c #039D22",
"b. c #128B26",
"n. c #278235",
"m. c #08B325",
"M. c #49912D",
"N. c #00C12C",
"B. c #43A559",
"V. c #6E9274",
"C. c #B98701",
"Z. c #BB9702",
"A. c #BE8317",
"S. c #AD8100",
"D. c #828729",
"F. c #9D8221",
"G. c #AE8830",
"H. c #BEA032",
"J. c #C88907",
"K. c #D98601",
"L. c #C89603",
"P. c #D99C00",
"I. c #D99605",
"U. c #E38D00",
"Y. c #E59400",
"T. c #E79C00",
"R. c #DBA702",
"E. c #D1A519",
"W. c #EBA300",
"Q. c #E5AC02",
"!. c #EAAD03",
"~. c #E2A409",
"^. c #F1AD00",
"/. c #EBB403",
"(. c #E6B50A",
"). c #F2B300",
"_. c #F5BB01",
"`. c #E6B910",
"'. c #FCC401",
"]. c #FFCD00",
"[. c #F7C407",
"{. c #FFD001",
"}. c #FFD00B",
"|. c #FFD517",
" X c #FFDC2B",
".X c #FFDF36",
"XX c #FFE03C",
"oX c #9B8755",
"OX c #A7854C",
"+X c #848166",
"@X c #9E9A62",
"#X c #9D9E7C",
"$X c #9A9B76",
"%X c #A08A76",
"&X c #A1A27F",
"*X c #B8B677",
"=X c #C2974A",
"-X c #D9B84C",
";X c #FFE956",
":X c #8C8D8C",
">X c #848484",
",X c #9B9787",
"<X c #989798",
"1X c #8F9190",
"2X c #A38E8F",
"3X c #97AC9A",
"4X c #A7A781",
"5X c #BABB89",
"6X c #B4B590",
"7X c #A3A3A5",
"8X c #AAAAAB",
"9X c #B5B6B6",
"0X c #BEAAAD",
"qX c #C5C586",
"wX c #D3D38C",
"eX c #D7D791",
"rX c #E4E58D",
"tX c #ECED93",
"yX c #EBEB9A",
"uX c #FEFE9A",
"iX c #F4F597",
"pX c #C7C6C7",
"aX c #CFD0D0",
"sX c #DADADC",
"dX c #CCCED0",
"fX c #FAFCFD",
"gX c #EAEAE7",
"hX c None",
/* pixels */
"hXhXhXhXhXhXhXhXhXhXhXhXhXhXhXhXhXhXhXhXhXhXhXhXhXhXhXhXhXhXhXhXhXhXhXhXhXhXhXhXhXhXhXhXhXhXhXhXhXhXhXhXhXhXhXhXhXhXhXhXhXhXhXhX",
"hXhXhXhXhXhXhXhXhXhXhXhXhXhXhXhXhXhXhXhXhXhXhXhXhXhXhXhXhXhXhXhXhXhXhXhXhXhXhXhXhXhXhXhXhXhXhXhXhXhXhXhXhXhXhXhXhXhXhXhXhXhXhXhX",
"hXhXhXhXhXhXhXhXhXhXhXhXhXhXhXhXhXhXhXhXhXhXhXhXhXhXhXhXhXhXhXhXhXhXhXhXhXhXhXhXhXhXhXhXhXhXhXhXhXhXhXhXhXhXhXhXhXhXhXhXhXhXhXhX",
"hXhXhXhXhXhXhXhXhXhXhXhXhXhXhXhXhXhXhXhXhXhXhXhXhXhXhXhXhXhXhXhXhXhXhXhXhXhXhXhXhXhXhXhXhXhXhXhXhXhXhXhXhXhXhXhXhXhXhXhXhXhXhXhX",
"hXhXhXhXhXhXhXhXhXhXhXhXhXhXhXhXhXhXhXhXhXhXhXhXhXhXhXhXhXhXhXhXhXhXhXhXhXhXhXhXhXhXhXhXhXhXhXhXhXhXhXhXhXhXhXhXhXhXhXhXhXhXhXhX",
"hXhXhXhXhXhXhXhXhXhXhXhXhXhXhXhXhXhXhXhXhXhXhXhXhXhXhXhXhXhXhXhXhXhXhXhXhXhXhXhXhXhXhXhXhXhXhXhXhXhXhXhXhXhXhXhXhXhXhXhXhXhXhXhX",
"hXhXhXhXhXhXhXhXhXhXhXhXhXhXhXhXhXhXhXhXhXhXhXhXhXhXhXhXhXhXhXhXhXhXhXhXhXhXhXhXhXhXhXhXhXhXhXhXhXhXhXhXhXhXhXhXhXhXhXhXhXhXhXhX",
"hXhXhXhXhXhXhXhXhXhXhXhXhXhXhXhXhXhXhXhXhXhXhXhXhXhXhXhXhXhXhXhXhXhXhXhXhXhXhXhXhXhXhXhXhXhXhXhXhXhXhXhXhXhXhXhXhXhXhXhXhXhXhXhX",
"hXhXhXhXhXhXhXhXhXhXhXhXhXhXhXhXhXhXhXhXhXhXhXhXhXhXhXhXhXhXhXhXhXhXhXhXhXhXhXhXhXhXhXhXhXhXhXhXhXhXhXhXhXhXhXhXhXhXhXhXhXhXhXhX",
"hXhXhXhXhXhXhXhXhXhXhXhXhXhXhXhXhXhXhXhXhXhXhXhXhXhXhXhXhXhXhXhXhXhXhXhXhXhXhXhXhXhXhXhXhXhXhXhXhXhXhXhXhXhXhXhXhXhXhXhXhXhXhXhX",
"hXhXhXhXhXhXhXhXhXhXhXhXhXhXhXhXhXhXhXhXhXhXhXhXhXhXhXhXhXhXhXhXhXhXhXhXhXhXhXhXhXhXhXhXhXhXhXhXhXhXhXhXhXhXhXhXhXhXhXhXhXhXhXhX",
"hXhXhXhXhXhXhXhXhXhXhXhXhXhXhXhXhXhXhXhXhXhXhXhXhXhXhXhXhXhXhXhXhXhXhXhXhXhXhXhXhXhXhXhXhXhXhXhXhXhXhXhXhXhXhXhXhXhXhXhXhXhXhXhX",
"hXhXhXhXhXhXhXhXhXhXhXhXhXhXhXhXhXhXhXhXhXhXhXhXhXhXhXhXhXhXhXhXhXhXhXhXhXhXhXhXhXhXhXhXhXhXhXhXhXhXhXhXhXhXhXhXhXhXhXhXhXhXhXhX",
"hXhXhXhXhXhXhXhXhXhXhXhXhXhXhXhXhXhXhXhXhXhXhXhXhXhXhXhXhXhXhXhXhXhXhXhXhXhXhXhXhXhXhXhXhXhXhXhXhXhXhXhXhXhXhXhXhXhXhXhXhXhXhXhX",
"hXhXhXhXhXhXhXhXhXhXhXhXhXhXhXhXhXhXhXhXhXhXhXhXhXhXhXhXhXhXhXhXhXhXhXhXhXhXhXhXhXhX, } hXhXhXhXhXhXhXhXhXhXhXhXhXhXhXhXhXhXhXhX",
"hXhXhXhXhXhXhXhXhXhXhXhXhXhXhXhXhXhXhXhXhXhXhXhXhXhXhXhXhXhXhXhXhXhXhXhXhXhXhXhXhX, $.; X hX4 hXhXhXhXhXhXhXhXhXhXhXhXhXhXhXhXhX",
"hXhXhXhXhXhXhXhXhXhXhXhXhXhXhXhXhXhXhXhXhXhXhXhXhXhXhXhXhXhXhXhXhXhXhXhXhXhX5 hX4 &.&.} , hX2 hXhXhXhXhXhXhXhXhXhXhXhXhXhXhXhXhX",
"hXhXhXhXhXhXhXhXhXhXhXhXhXhXhXhXhXhXhXhXhXhXhXhXhXhXhXhXhXhXhXhXhXhXhXhXhXhXb hX[ =.=.&. .o 9.c hXhXhXhXhXhXhXhXhXhXhXhXhXhXhXhX",
"hXhXhXhXhXhXhXhXhXhXhXhXhXhXhXhXhXhXhXhXhXhXhXhXhXhXhXhXhXhXhXhXhXhXhXhXhXG A.& ..*.*.=.$.| R.c   hXhXhXhXhXhXhXhXhXhXhXhXhXhXhX",
"hXhXhXhXhXhXhXhXhXhXhXhXhXhXhXhXhXhXhXhXhXhXhXhXhXhXhXhXhXhXhXhXhXhXhXhXhXn Q.< ..&.+.O.} -./.P I O + u @ ,.c hXhXhXhXhXhXhXhXhX",
"hXhXhXhXhXhXhXhXhXhXhXhXhXhXhXhXhXhXhXhXhXhXhXhXhXhXhXhXhXhXhXhXhXhXhXhXhX1.J.4 | L t : t L._.oXdXU O $ L._.b hXhXhXhXhXhXhXhXhX",
"hXhXhXhXhXhXhXhXhXhXhXhXhXhXhXhXhXhXhXhXhXhXhXhXhXhXhXhXhXhXhXhXhXhXhXhXhXH o.4 n.g $. .n _./.k.fXsX:Xz D.R.3 hXhXhXhXhXhXhXhXhX",
"hXhXhXhXhXhXhXhXhXhXhXhXhXhXhXhXhXhXhXhXhXhXhXhXhXhXhXhXhXhXhXhXhXhXhXhXhXu ..g v.{ =...<.!.e.t ] sXfX9Xx 9.hXhXhXhXhXhXhXhXhXhX",
"hXhXhXhXhXhXhXhXhXhXhXhXhXhXhXhXhXhXhXhXhXhXhXhXhXhXhXhXhXhXhXhXhXhXhXhXhXhX> v.g $.#.j L J.>.S.e.H :XdXV.j hXhXhXhXhXhXhXhXhXhX",
"hXhXhXhXhXhXhXhXhXhXhXhXhXhXhXhXhXhXhXhXhXhXhXhXhXhXhXhXhXhXhXhXhXhXhXhXhXhX& v.S @.0XB.N.M.v [.].7.Y _ pXz hXhXhXhXhXhXhXhXhXhX",
"hXhXhXhXhXhXhXhXhXhXhXhXhXhXhXhXhXhXhXhXhXhXhXhXhXhXhXhXhXhXhXhXhXhXhXhXhX6.S.s + j.gXx v.N.h E.W.J 8XR 1XV.k hXhXhXhXhXhXhXhXhX",
"hXhXhXhXhXhXhXhXhXhXhXhXhXhXhXhXhXhXhXhXhXhXhXhXhXhXhXhXhXhXhXhXhXhXhXhX1.[.[.6.C %XV.c v d d L.w.) 7X) _ 7Xl hXhXhXhXhXhXhXhXhX",
"hXhXhXhXhXhXhXhXhXhXhXhXhXhXhXhXhXhXhXhXhXhXhXhXhXhXhXhXhXhXhXhXhXhXhXm G.-XE.W.t.k.i.`.[.8.a n A ) _ T u :Xx U hXhXhXhXhXhXhXhX",
"hXhXhXhXhXhXhXhXhXhXhXhXhXhXhXhXhXhXhXhXhXhXhXhXhXhXhXhXhXhXhXhXhXhXhX2.E.`./.).'.^.^.|.}.].7.# ( ) ( V J.~ n.h hXhXhXhXhXhXhXhX",
"hXhXhXhXhXhXhXhXhXhXhXhXhXhXhXhXhXhXhXhXhXhXhXhXhXhXhXhXhXhXhXhXhXhXhX0.'.{.].}.;X|.].).Y.'.R.T _ ) T R.{.F.z l hXhXhXhXhXhXhXhX",
"hXhXhXhXhXhXhXhXhXhXhXhXhXhXhXhXhXhXhXhXhXhXhXhXhXhXhXhXhXhXhXhXhXhXhXe.W._.W.'.XX}.'.t.2.I.).J 7XR S.{.]./.s b.j hXhXhXhXhXhXhX",
"hXhXhXhXhXhXhXhXhXhXhXhXhXhXhXhXhXhXhXhXhXhXhXhXhXhXhXhXhXhXhXhXhXhXhXp.K.g.Y.{.].].^.M t h.I.J <XZ R.}.].'.B c.F 7 hXhXhXhXhXhX",
"hXhXhXhXhXhXhXhXhXhXhXhXhXhXhXhXhXhXhXhXhXhXhXhXhXhXhXhXhXhXhXhXhXhXhX0 d.2.g.^.}.T.q.} [ f.q.u E w.}.|.].{.S.c.D.~.F hXhXhXhXhX",
"hXhXhXhXhXhXhXhXhXhXhXhXhXhXhXhXhXhXhXhXhXhXhXhXhXhXhXhXhXhXhXhXhXhXhXhX0 M 4.g.U.s.u.+.[ d.q % # P.{.'.].{.R.f M.!.N hXhXhXhXhX",
"hXhXhXhXhXhXhXhXhXhXhXhXhXhXhXhXhXhXhXhXhXhXhXhXhXhXhXhXhXhXhXhXhXhXhXhX& ` 9 ;.q.y.i j.D 4.4 $X! w.{.{.].Q.C.s L :.u hXhXhXhXhX",
"hXhXhXhXhXhXhXhXhXhXhXhXhXhXhXhXhXhXhXhXhXhXhXhXhXhXhXhXhXhXhXhXhXhXhXhX0 Z : ; ] O.%.z.u.;.^ yXqX1.I.8.:.8 % * + . hXhXhXhXhXhX",
"hXhXhXhXhXhXhXhXhXhXhXhXhXhXhXhXhXhXhXhXhXhXhXhXhXhXhXhXhXhXhXhXhXhXhXhX# . & X.|  .@.Q ,.<.qXuXyXZ @ Y I E _ R . hXhXhXhXhXhXhX",
"hXhXhXhXhXhXhXhXhXhXhXhXhXhXhXhXhXhXhXhXhXhXhXhXhXhXhXhXhXhXhXhXhXhXhX* W R R x.%.@.<XQ 5.1.rXuXeXE R ' ) ) 1X>X  hXhXhXhXhXhXhX",
"hXhXhXhXhXhXhXhXhXhXhXhXhXhXhXhXhXhXhXhXhXhXhXhXhXhXhXhXhXhXhXhXhXhXhX= ) 1X>X2X; y 9X~ d.u.iXwX#XT >X8X_ ) 1X:X. hXhXhXhXhXhXhX",
"hXhXhXhXhXhXhXhXhXhXhXhXhXhXhXhXhXhXhXhXhXhXhXhXhXhXhXhXhXhXhXhXhXhXhX= _ ' y.h.L.K.G.H.J./ 4X4XtX^ _ 1X_ ) _ ( = hXhXhXhXhXhXhX",
"hXhXhXhXhXhXhXhXhXhXhXhXhXhXhXhXhXhXhXhXhXhXhXhXhXhXhXhXhXhXhXhXhXhXhX. * W 6.].].].].].w.k.wXuXuX/ - * * * * * Y hXhXhXhXhXhXhX",
"hXhXhXhXhXhXhXhXhXhXhXhXhXhXhXhXhXhXhXhXhXhXhXhXhXhXhXhXhXhXhXhXhXhXhX9 ,.D n !.f.K.].).N wXuXuXtXF ,.C.Z.Z.C.0 hXhXhXhXhXhXhXhX",
"hXhXhXhXhXhXhXhXhXhXhXhXhXhXhXhXhXhXhXhXhXhXhXhXhXhXhXhXhXhXhXhXhXhXhX:.'.Q.0.b 6 w 7.:.@XuXuXuX*XS.'.{.{.{.{.C.u hXhXhXhXhXhXhX",
"hXhXhXhXhXhXhXhXhXhXhXhXhXhXhXhXhXhXhXhXhXhXhXhXhXhXhXhXhXhXhXhXhXhXhX:.'.]._.,.C C Y +XtXiXwX#X/ P. X X].].{.P.# hXhXhXhXhXhXhX",
"hXhXhXhXhXhXhXhXhXhXhXhXhXhXhXhXhXhXhXhXhXhXhXhXhXhXhXhXhXhXhXhXhXhXhXb '.[.[.U.q T qX4X#X#X4X6XM W..X.X].].].P.@ hXhXhXhXhXhXhX",
"hXhXhXhXhXhXhXhXhXhXhXhXhXhXhXhXhXhXhXhXhXhXhXhXhXhXhXhXhXhXhXhXhXhXhXm /.F.7.g.b y.@XuXuXuXuXtX2.Y.].].].].].e.q t hXhXhXhXhXhX",
"hXhXhXhXhXhXhXhXhXhXhXhXhXhXhXhXhXhXhXhXhXhXhXhXhXhXhXhXhXhXhXhXhXhXhX4 e.q.m H 3 M T *XiXuXuXrX6 ;./.].].].'.>.-.< hXhXhXhXhXhX",
"hXhXhXhXhXhXhXhXhXhXhXhXhXhXhXhXhXhXhXhXhXhXhXhXhXhXhXhXhXhXhXhXhXhXhXhXw 4.5.K 7 <.5.Z $XqXqX#XG 0 C.!.~._.e.o   hXhXhXhXhXhXhX",
"hXhXhXhXhXhXhXhXhXhXhXhXhXhXhXhXhXhXhXhXhXhXhXhXhXhXhXhXhXhXhXhXhXhXhXhXhX< < 9 -.s.s.q.K T 4X6Xk.3.M m r.,.# & hXhXhXhXhXhXhXhX",
"hXhXhXhXhXhXhXhXhXhXhXhXhXhXhXhXhXhXhXhXhXhXhXhXhXhXhXhXhXhXhXhXhXhXhXhXhXhXhXhXt 3.s.s.q.t R #X] ,.q.3.8 1 M M hXhXhXhXhXhXhXhX",
"hXhXhXhXhXhXhXhXhXhXhXhXhXhXhXhXhXhXhXhXhXhXhXhXhXhXhXhXhXhXhXhXhXhXhXhXhXhXhXhX8 J.Y.g.q.e hX. * y d.K.Y.1.2.3.C hXhXhXhXhXhXhX",
"hXhXhXhXhXhXhXhXhXhXhXhXhXhXhXhXhXhXhXhXhXhXhXhXhXhXhXhXhXhXhXhXhXhXhXhXhXhXhX8 P.].].^.a.< hXhXhX4 K.'.].Q.M ;.3 hXhXhXhXhXhXhX",
"hXhXhXhXhXhXhXhXhXhXhXhXhXhXhXhXhXhXhXhXhXhXhXhXhXhXhXhXhXhXhXhXhXhXhXhXhXhX>XOX(.].{.).4.5 hXhXhX2 /.].].].0.. hXhXhXhXhXhXhXhX",
"hXhXhXhXhXhXhXhXhXhXhXhXhXhXhXhXhXhXhXhXhXhXhXhXhXhXhXhXhXhXhXhXhXhXhXhXhXhX7X9X=X[.).q.7 hXhXhXhXt J.].[.I.i.t hXhXhXhXhXhXhXhX",
"hXhXhXhXhXhXhXhXhXhXhXhXhXhXhXhXhXhXhXhXhXhXhXhXhXhXhXhXhXhXhXhXhXhXhXhXhXhX( 7X+X7.b o hXhXhXhXhXhX,.W.J.%X9XY hXhXhXhXhXhXhXhX",
"hXhXhXhXhXhXhXhXhXhXhXhXhXhXhXhXhXhXhXhXhXhXhXhXhXhXhXhXhXhXhXhXhXhXhXhXhXhXhXhXhXhXhXhXhXhXhXhXhXhXy p.7XdX9X' hXhXhXhXhXhXhXhX",
"hXhXhXhXhXhXhXhXhXhXhXhXhXhXhXhXhXhXhXhXhXhXhXhXhXhXhXhXhXhXhXhXhXhXhXhXhXhXhXhXhXhXhXhXhXhXhXhXhXhXhXE aX8X' E hXhXhXhXhXhXhXhX",
"hXhXhXhXhXhXhXhXhXhXhXhXhXhXhXhXhXhXhXhXhXhXhXhXhXhXhXhXhXhXhXhXhXhXhXhXhXhXhXhXhXhXhXhXhXhXhXhXhXhXhX* ( u hXhXhXhXhXhXhXhXhXhX",
"hXhXhXhXhXhXhXhXhXhXhXhXhXhXhXhXhXhXhXhXhXhXhXhXhXhXhXhXhXhXhXhXhXhXhXhXhXhXhXhXhXhXhXhXhXhXhXhXhXhXhXhXhXhXhXhXhXhXhXhXhXhXhXhX",
"hXhXhXhXhXhXhXhXhXhXhXhXhXhXhXhXhXhXhXhXhXhXhXhXhXhXhXhXhXhXhXhXhXhXhXhXhXhXhXhXhXhXhXhXhXhXhXhXhXhXhXhXhXhXhXhXhXhXhXhXhXhXhXhX",
"hXhXhXhXhXhXhXhXhXhXhXhXhXhXhXhXhXhXhXhXhXhXhXhXhXhXhXhXhXhXhXhXhXhXhXhXhXhXhXhXhXhXhXhXhXhXhXhXhXhXhXhXhXhXhXhXhXhXhXhXhXhXhXhX",
"hXhXhXhXhXhXhXhXhXhXhXhXhXhXhXhXhXhXhXhXhXhXhXhXhXhXhXhXhXhXhXhXhXhXhXhXhXhXhXhXhXhXhXhXhXhXhXhXhXhXhXhXhXhXhXhXhXhXhXhXhXhXhXhX",
"hXhXhXhXhXhXhXhXhXhXhXhXhXhXhXhXhXhXhXhXhXhXhXhXhXhXhXhXhXhXhXhXhXhXhXhXhXhXhXhXhXhXhXhXhXhXhXhXhXhXhXhXhXhXhXhXhXhXhXhXhXhXhXhX",
"hXhXhXhXhXhXhXhXhXhXhXhXhXhXhXhXhXhXhXhXhXhXhXhXhXhXhXhXhXhXhXhXhXhXhXhXhXhXhXhXhXhXhXhXhXhXhXhXhXhXhXhXhXhXhXhXhXhXhXhXhXhXhXhX"
};
