/* XPM */
static char *result[] = {
/* columns rows colors chars-per-pixel */
"64 64 233 2 ",
"   c #171817",
".  c #1F1105",
"X  c #211300",
"o  c #2F0C0C",
"O  c #053506",
"+  c #1B291F",
"@  c #3E2B18",
"#  c #3D321E",
"$  c #282927",
"%  c #342B25",
"&  c #372020",
"*  c #36362A",
"=  c #343435",
"-  c #3C3C3C",
";  c #363738",
":  c #27362D",
">  c #4B1919",
",  c #5E0307",
"<  c #780808",
"1  c #700F10",
"2  c #422203",
"3  c #562D05",
"4  c #543B0F",
"5  c #452C14",
"6  c #48361D",
"7  c #573815",
"8  c #4F3201",
"9  c #653702",
"0  c #752818",
"q  c #623E16",
"w  c #683308",
"e  c #473527",
"r  c #563E27",
"t  c #493C32",
"y  c #462E27",
"u  c #6A2B23",
"i  c #0E4F10",
"p  c #2E5618",
"a  c #33540A",
"s  c #087514",
"d  c #286516",
"f  c #1E5E2D",
"g  c #234926",
"h  c #385E37",
"j  c #186F2B",
"k  c #2D632F",
"l  c #2B762D",
"z  c #445816",
"x  c #574B0A",
"c  c #684505",
"v  c #764708",
"b  c #785605",
"n  c #694716",
"m  c #764A1C",
"M  c #715813",
"N  c #706912",
"B  c #5B4329",
"V  c #5A4A37",
"C  c #465D33",
"Z  c #4D4939",
"A  c #654925",
"S  c #775627",
"D  c #675737",
"F  c #754E30",
"G  c #5E7A2D",
"H  c #7D642F",
"J  c #706330",
"K  c #4C6A0E",
"L  c #3F3F42",
"P  c #3F4042",
"I  c #424344",
"U  c gray29",
"Y  c #575858",
"T  c #545149",
"R  c #685747",
"E  c #68604B",
"W  c #686754",
"Q  c #7B7458",
"!  c #7F7E4A",
"~  c #5E5F63",
"^  c #646464",
"/  c #6B6B6B",
"(  c #6A6867",
")  c #7A7968",
"_  c #787878",
"`  c #706E6F",
"'  c #8F120D",
"]  c #A70101",
"[  c #A61415",
"{  c #962A12",
"}  c #913D3D",
"|  c #D20E0B",
" . c #E60000",
".. c #FD0000",
"X. c #E91011",
"o. c #864B0B",
"O. c #895304",
"+. c #975B05",
"@. c #875413",
"#. c #975A17",
"$. c #814E10",
"%. c #A34F00",
"&. c #A85604",
"*. c #AA5C0D",
"=. c #8B6406",
"-. c #996B07",
";. c #9C7A03",
":. c #886414",
">. c #917217",
",. c #A46E08",
"<. c #BA6404",
"1. c #AC7300",
"2. c #A4720A",
"3. c #B47701",
"4. c #AB6414",
"5. c #B56915",
"6. c #AB7A1B",
"7. c #8A5728",
"8. c #997429",
"9. c #8C742F",
"0. c #C77A06",
"q. c #CA740D",
"w. c #915546",
"e. c #897548",
"r. c #8D7D54",
"t. c #A47943",
"y. c #81796D",
"u. c #C16668",
"i. c #00891B",
"p. c #078222",
"a. c #17862A",
"s. c #109829",
"d. c #03B428",
"f. c #30A02A",
"g. c #29972E",
"h. c #45842E",
"j. c #00C22A",
"k. c #3C8848",
"l. c #59825F",
"z. c #76977D",
"x. c #BB8502",
"c. c #B88909",
"v. c #BB9501",
"b. c #A78418",
"n. c #BC9A10",
"m. c #AF8A08",
"M. c #C68903",
"N. c #D88901",
"B. c #CB9502",
"V. c #D69701",
"C. c #C58917",
"Z. c #C19A19",
"A. c #D99E10",
"S. c #E48B03",
"D. c #E49A02",
"F. c #FE9B01",
"G. c #EB9817",
"H. c #D7A906",
"J. c #DBA713",
"K. c #EAAB00",
"L. c #E8A405",
"P. c #FEA100",
"I. c #FDAE00",
"U. c #F9AA07",
"Y. c #EDB601",
"T. c #E5B603",
"R. c #F5B401",
"E. c #FDBD00",
"W. c #F4BC05",
"Q. c #FBA819",
"!. c #E3BA14",
"~. c #FEB31C",
"^. c #EFA11E",
"/. c #C99528",
"(. c #FFBB26",
"). c #F6AF2F",
"_. c #FCC401",
"`. c #FFCD01",
"'. c #FAC806",
"]. c #FFD100",
"[. c #FFD00F",
"{. c #FFD717",
"}. c #FFD02D",
"|. c #998F59",
" X c #A79656",
".X c #B1A55D",
"XX c #868567",
"oX c #97976C",
"OX c #99997B",
"+X c #908974",
"@X c #B5B679",
"#X c #A5A57C",
"$X c #DBC054",
"%X c #FFD04E",
"&X c #FFEB5D",
"*X c #C0C178",
"=X c #FFD869",
"-X c #FFDF75",
";X c #7F9F88",
":X c #878585",
">X c #9B9D9C",
",X c #949394",
"<X c #8C998F",
"1X c #A79B8E",
"2X c #97B59A",
"3X c #AAAA82",
"4X c #B4B481",
"5X c #B5B296",
"6X c #9E9FA1",
"7X c #ACACAC",
"8X c #B4B4B5",
"9X c #ACB7AC",
"0X c #C1BFBF",
"qX c #C8C886",
"wX c #D7D88B",
"eX c #D4D496",
"rX c #FFE488",
"tX c #FEFF9B",
"yX c #F5F698",
"uX c #E8E896",
"iX c #FFEBA6",
"pX c #FFEDB3",
"aX c #FFF5B4",
"sX c #CBCBCC",
"dX c #C5C4C5",
"fX c #DAD9DA",
"gX c #D2CBC8",
"hX c #FFF8DA",
"jX c #FFFCE9",
"kX c #FEFEFE",
"lX c #F4F2F3",
"zX c #E3E4E4",
"xX c None",
/* pixels */
"xXxXxXxXxXxXxXxXxXxXxXxXxXxXxXxXxXxXxXxXxXxXxXxXxXxXxXxXxXxXxXxXxXxXxXxXxXxXxXxXxXxXxXxXxXxXxXxXxXxXxXxXxXxXxXxXxXxXxXxXxXxXxXxX",
"xXxXxXxXxXxXxXxXxXxXxXxXxXxXxXxXxXxXxXxXxXxXxXxXxXxXxXxXxXxXxXxXxXxXxXxXxXxXxXxXxXxXxXxXxXxXxXxXxXxXxXxXxXxXxXxXxXxXxXxXxXxXxXxX",
"xXxXxXxXxXxXxXxXxXxXxXxXxXxXxXxXxXxXxXxXxXxXxXxXxXxXxXxXxXxXxXxXxXxXxXxXxXxXxXxXxXxXxXxXxXxXxXxXxXxXxXxXxXxXxXxXxXxXxXxXxXxXxXxX",
"xXxXxXxXxXxXxXxXxXxXxXxXxXxXxXxXxXxXxXxXxXxXxXxXxXxXxXxXxXxXxXxXxXxXxXxXxXxXxXxXxXxXxXxXxXxXxXxXxXxXxXxXxXxXxXxXxXxXxXxXxXxXxXxX",
"xXxXxXxXxXxXxXxXxXxXxXxXxXxXxXxXxXxXxXxXxXxXxXxXxXxXxXxXxXxXxXxXxXxXxXxXxXxXxXxXxXxXxXxXxXxXxXxXxXxXxXxXxXxXxXxXxXxXxXxXxXxXxXxX",
"xXxXxXxXxXxXxXxXxXxXxXxXxXxXxXxXxXxXxXxXxXxXxXxXxXxXxXxXxXxXxXxXxXxXxXxXxXxXxXxXxXxXxXxXxXxXxXxXxXxXxXxXxXxXxXxXxXxXxXxXxXxXxXxX",
"xXxXxXxXxXxXxXxXxXxXxXxXxXxXxXxXxXxXxXxXxXxXxXxXxXxXxXxXxXxXxXxXxXxXxXxXxXxXxXxXxXxXxXxXxXxXxXxXxXxXxXxXxXxXxXxXxXxXxXxXxXxXxXxX",
"xXxXxXxXxXxXxXxXxXxXxXxXxXxXxXxXxXxXxXxXxXxXxXxXxXxXxXxXxXxXxXxXxXxXxXxXxXxXxXxXxXxXxXxXxXxXxXxXxXxXxXxXxXxXxXxXxXxXxXxXxXxXxXxX",
"xXxXxXxXxXxXxXxXxXxXxXxXxXxXxXxXxXxXxXxXxXxXxXxXxXxXxXxXxXxXxXxXxXxXxXxXxXxXxXxXxXxXxXxXxXxXxXxXxXxXxXxXxXxXxXxXxXxXxXxXxXxXxXxX",
"xXxXxXxXxXxXxXxXxXxXxXxXxXxXxXxXxXxXxXxXxXxXxXxXxXxXxXxXxXxXxXxXxXxXxXxXxXxXxXxXxXxXxXxXxXxXxXxXxXxXxXxXxXxXxXxXxXxXxXxXxXxXxXxX",
"xXxXxXxXxXxXxXxXxXxXxXxXxXxXxXxXxXxXxXxXxXxXxXxXxXxXxXxXxXxXxXxXxXxXxXxXxXxXxXxXxXxXxXxXxXxXxXxXxXxXxXxXxXxXxXxXxXxXxXxXxXxXxXxX",
"xXxXxXxXxXxXxXxXxXxXxXxXxXxXxXxXxXxXxXxXxXxXxXxXxXxXxXxXxXxXxXxXxXxXxXxXxXxXxXxXxXxXxXxXxXxXxXxXxXxXxXxXxXxXxXxXxXxXxXxXxXxXxXxX",
"xXxXxXxXxXxXxXxXxXxXxXxXxXxXxXxXxXxXxXxXxXxXxXxXxXxXxXxXxXxXxXxXxXxXxXxXxXxXxXxXxXxXxXxXxXxXxXxXxXxXxXxXxXxXxXxXxXxXxXxXxXxXxXxX",
"xXxXxXxXxXxXxXxXxXxXxXxXxXxXxXxXxXxXxXxXxXxXxXxXxXxXxXxXxXxXxXxXxXxXxXxXxXxXxXxXxXxXxXxXxXxXxXxXxXxXxXxXxXxXxXxXxXxXxXxXxXxXxXxX",
"xXxXxXxXxXxXxXxXxXxXxXxXxXxXxXxXxXxXxXxXxXxXxXxXxXxXxXxXxXxXxXxXxXxXxXxXxXxXxXxXxXxXxXxXxXxXxXxXxXxXxXxXxXxXxXxXxXxXxXxXxXxXxXxX",
"xXxXxXxXxXxXxXxXxXxXxXxXxXxXxXxXxXxXxXxXxXxXxXxXxXxXxXxXxXxXxXxXxXxXxXxXxXxXxXxXxXxXxXxXxXxXxXxXxXxXxXxXxXxXxXxXxXxXxXxXxXxXxXxX",
"xXxXxXxXxXxXxXxXxXxXxXxXxXxXxXxXxXxXxXxXxXxXxXxXxXxXxXxXxXxXxXxXxXxXxXxXxXxXxXxXxXxX& 1 xXxXxXxXxXxXxXxXxXxXxXxXxXxXxXxXxXxXxXxX",
"xXxXxXxXxXxXxXxXxXxXxXxXxXxXxXxXxXxXxXxXxXxXxXxXxXxXxXxXxXxXxXxXxXxXxXxXxXxXxXxXxXo ] ] . xX% xXxXxXxXxXxXxXxXxXxXxXxXxXxXxXxXxX",
"xXxXxXxXxXxXxXxXxXxXxXxXxXxXxXxXxXxXxXxXxXxXxXxXxXxXxXxXxXxXxXxXxXxXxXxXxXxXr xXxX[ ..' < & # @ xXxXxXxXxXxXxXxXxXxXxXxXxXxXxXxX",
"xXxXxXxXxXxXxXxXxXxXxXxXxXxXxXxXxXxXxXxXxXxXxXxXxXxXxXxXxXxXxXxXxXxXxXxXxXxXn xXxX| .. .| > A O.    xXxXxXxXX xXxXxXxXxXxXxXxXxX",
"xXxXxXxXxXxXxXxXxXxXxXxXxXxXxXxXxXxXxXxXxXxXxXxXxXxXxXxXxXxXxXxXxXxXxXxXxXxX6.S 1 ...... .] -.n.:Xg O $ 4 -.1.xXxXxXxXxXxXxXxXxX",
"xXxXxXxXxXxXxXxXxXxXxXxXxXxXxXxXxXxXxXxXxXxXxXxXxXxXxXxXxXxXxXxXxXxXxXxXxXxXV.=., ..| 7.[ ' M.n.sX9Xg O N _.3.xXxXxXxXxXxXxXxXxX",
"xXxXxXxXxXxXxXxXxXxXxXxXxXxXxXxXxXxXxXxXxXxXxXxXxXxXxXxXxXxXxXxXxXxXxXxXxXxXC.:., { U y y v _.c.sXkXfX<Xl Z.=.xXxXxXxXxXxXxXxXxX",
"xXxXxXxXxXxXxXxXxXxXxXxXxXxXxXxXxXxXxXxXxXxXxXxXxXxXxXxXxXxXxXxXxXxXxXxXxXxX7.0 p s.0 | 7 B.`.,.8XkXkXlX;XG c xXxXxXxXxXxXxXxXxX",
"xXxXxXxXxXxXxXxXxXxXxXxXxXxXxXxXxXxXxXxXxXxXxXxXxXxXxXxXxXxXxXxXxXxXxXxXxXxX' { d.p  . .' M.K.n T 7XzXkXfXh * xXxXxXxXxXxXxXxXxX",
"xXxXxXxXxXxXxXxXxXxXxXxXxXxXxXxXxXxXxXxXxXxXxXxXxXxXxXxXxXxXxXxXxXxXxXxXxXxX1 K s.{ X.u k 6.0.M 0.n _ 7XkX<Xg xXxXxXxXxXxXxXxXxX",
"xXxXxXxXxXxXxXxXxXxXxXxXxXxXxXxXxXxXxXxXxXxXxXxXxXxXxXxXxXxXxXxXxXxXxXxXxXxX& j s [ u.<Xd.f.J m.].V.y T sXsXf xXxXxXxXxXxXxXxXxX",
"xXxXxXxXxXxXxXxXxXxXxXxXxXxXxXxXxXxXxXxXxXxXxXxXxXxXxXxXxXxXxXxXxXxXxXxXxX8 ,.K d > gX2Xi.j.p.H `.,.:Xz.` fXk.j xXxXxXxXxXxXxXxX",
"xXxXxXxXxXxXxXxXxXxXxXxXxXxXxXxXxXxXxXxXxXxXxXxXxXxXxXxXxXxXxXxXxXxXxXxXr B.`.M.N w.5XC x i i.N T.D >X:XU sXl.j xXxXxXxXxXxXxXxX",
"xXxXxXxXxXxXxXxXxXxXxXxXxXxXxXxXxXxXxXxXxXxXxXxXxXxXxXxXxXxXxXxXxXxXxXxXS $X/.Y.0.r.Q 6.'.x.a x @.Y / ^ Z :X;Xj xXxXxXxXxXxXxXxX",
"xXxXxXxXxXxXxXxXxXxXxXxXxXxXxXxXxXxXxXxXxXxXxXxXxXxXxXxXxXxXxXxXxXxXxXV C.!.J.W.K.E.S.[.{.].B.2 Z ( ( T 1.9.6Xp.g xXxXxXxXxXxXxX",
"xXxXxXxXxXxXxXxXxXxXxXxXxXxXxXxXxXxXxXxXxXxXxXxXxXxXxXxXxXxXxXxXxXxXxXm K.`.`.`.E.E.].`.D.R.`.H ~ ( Y >.].J.XXa.k % xXxXxXxXxXxX",
"xXxXxXxXxXxXxXxXxXxXxXxXxXxXxXxXxXxXxXxXxXxXxXxXxXxXxXxXxXxXxXxXxXxXxXv D.E.K.R.I.I._.D.*.q._.2.:X_ D T.`.`.8.j l ,.r xXxXxXxXxX",
"xXxXxXxXxXxXxXxXxXxXxXxXxXxXxXxXxXxXxXxXxXxXxXxXxXxXxXxXxXxXxXxXxXxXxXS N.S.S.F.F.F.E.0.t 7.L.&.,X` -.`.`.].x.i g.J.x.Z xXxXxXxX",
"xXxXxXxXxXxXxXxXxXxXxXxXxXxXxXxXxXxXxXxXxXxXxXxXxXxXxXxXxXxXxXxXxXxXxXxX<.5.S.F.(.U.F.<.< %.0.q ~ A T.}.`.`.Y.a s.Z.-.xXxXxXxXxX",
"xXxXxXxXxXxXxXxXxXxXxXxXxXxXxXxXxXxXxXxXxXxXxXxXxXxXxXxXxXxXxXxXxXxXxXxX3 o.S.Q.%X(.Q.q.' %.<.A : +.`.].`.`._.N s 7 6 xXxXxXxXxX",
"xXxXxXxXxXxXxXxXxXxXxXxXxXxXxXxXxXxXxXxXxXxXxXxXxXxXxXxXxXxXxXxXxXxXxXxX  D Q.%XrX=X}.G.F &.@.qXXXm W.].]._.T.b i + xXxXxXxXxXxX",
"xXxXxXxXxXxXxXxXxXxXxXxXxXxXxXxXxXxXxXxXxXxXxXxXxXxXxXxXxXxXxXxXxXxXxXxX5 &.Q.iXhXiX-X).e.*.9.tXtXe.B.B.m.O.# $ g xXxXxXxXxXxXxX",
"xXxXxXxXxXxXxXxXxXxXxXxXxXxXxXxXxXxXxXxXxXxXxXxXxXxXxXxXxXxXxXxXxXxXxXxX% O.).jXkXkXpX~.%.&. XtXuXW @ e ; P ~ ^ : xXxXxXxXxXxXxX",
"xXxXxXxXxXxXxXxXxXxXxXxXxXxXxXxXxXxXxXxXxXxXxXxXxXxXxXxXxXxXxXxXxXxXxXxX- E ).jXkXkXpX^.7.%.|.eX3XXXZ ~ ( ( ` >X; xXxXxXxXxXxXxX",
"xXxXxXxXxXxXxXxXxXxXxXxXxXxXxXxXxXxXxXxXxXxXxXxXxXxXxXxXxXxXxXxXxXxXxXxXT y.^.iXkXjX=XC.4.O.) 3XuX*XY 7X_ ^ _ 7XU xXxXxXxXxXxXxX",
"xXxXxXxXxXxXxXxXxXxXxXxXxXxXxXxXxXxXxXxXxXxXxXxXxXxXxXxXxXxXxXxXxXxXxXxX~ ) G.(.pX-XU./.A.@.*XtXtX*XY >X_ ^ / ` t xXxXxXxXxXxXxX",
"xXxXxXxXxXxXxXxXxXxXxXxXxXxXxXxXxXxXxXxXxXxXxXxXxXxXxXxXxXxXxXxXxXxXxXxX- U 8.U.(.~.F.E.K.H yXtXtX@X; I P P I Z ; xXxXxXxXxXxXxX",
"xXxXxXxXxXxXxXxXxXxXxXxXxXxXxXxXxXxXxXxXxXxXxXxXxXxXxXxXxXxXxXxXxXxXxXxX9 m 6 D.F.S.U.`.x.|.tXyXwXQ 9 =.;.;.;.v 5 xXxXxXxXxXxXxX",
"xXxXxXxXxXxXxXxXxXxXxXxXxXxXxXxXxXxXxXxXxXxXxXxXxXxXxXxXxXxXxXxXxXxXxXxXV.E.1.O.v 7 1.3.n 3XqX1XOXH L.`.`.].].Y.B xXxXxXxXxXxXxX",
"xXxXxXxXxXxXxXxXxXxXxXxXxXxXxXxXxXxXxXxXxXxXxXxXxXxXxXxXxXxXxXxXxXxXxXxXH.`.`.1.r = * e.oX4X4XeXqX2.[.}.`.`.`._.9   xXxXxXxXxXxX",
"xXxXxXxXxXxXxXxXxXxXxXxXxXxXxXxXxXxXxXxXxXxXxXxXxXxXxXxXxXxXxXxXxXxXxXxXV.`.'.R.*.3 Z wXtXtXtXtX.X<.[.&X`.`.`._.b % xXxXxXxXxXxX",
"xXxXxXxXxXxXxXxXxXxXxXxXxXxXxXxXxXxXxXxXxXxXxXxXxXxXxXxXxXxXxXxXxXxXxXxXx.!.:.S.&.o.q E qXtXtXyXe.0.'.].`.`.`.Y.n 3 xXxXxXxXxXxX",
"xXxXxXxXxXxXxXxXxXxXxXxXxXxXxXxXxXxXxXxXxXxXxXxXxXxXxXxXxXxXxXxXxXxXxXxXO.V.7 F 7 $.$.@.T oX#XOXXXw D.`.`.`.`.V.@ xXxXxXxXxXxXxX",
"xXxXxXxXxXxXxXxXxXxXxXxXxXxXxXxXxXxXxXxXxXxXxXxXxXxXxXxXxXxXxXxXxXxXxXxXr *.<.F r q 4.#.t % z.5XeXz.b E.A._.L.$.xXxXxXxXxXxXxXxX",
"xXxXxXxXxXxXxXxXxXxXxXxXxXxXxXxXxXxXxXxXxXxXxXxXxXxXxXxXxXxXxXxXxXxXxXxXxX5 9 9 m Y.S.&.xXxX= E ) _ V v 7.M.4 :.n xXxXxXxXxXxXxX",
"xXxXxXxXxXxXxXxXxXxXxXxXxXxXxXxXxXxXxXxXxXxXxXxXxXxXxXxXxXxXxXxXxXxXxXxXxX` #.v.T.`.K.&.xXxXxXxX$     X m c v.'.3.xXxXxXxXxXxXxX",
"xXxXxXxXxXxXxXxXxXxXxXxXxXxXxXxXxXxXxXxXxXxXxXxXxXxXxXxXxXxXxXxXxXxXxXxX~ 8X1XG.].R.<.7 xXxXxXxXxXxXxX5 M.'.`.Y.6.e xXxXxXxXxXxX",
"xXxXxXxXxXxXxXxXxXxXxXxXxXxXxXxXxXxXxXxXxXxXxXxXxXxXxXxXxXxXxXxXxXxXxXxXU :XgX XN.O.5 xXxXxXxXxXxXxXxXxX+.W.D.t.1Xt xXxXxXxXxXxX",
"xXxXxXxXxXxXxXxXxXxXxXxXxXxXxXxXxXxXxXxXxXxXxXxXxXxXxXxXxXxXxXxXxXxXxXxXxXh $   X % xXxXxXxXxXxXxXxXxXxXq 5.+X0XsX_ xXxXxXxXxXxX",
"xXxXxXxXxXxXxXxXxXxXxXxXxXxXxXxXxXxXxXxXxXxXxXxXxXxXxXxXxXxXxXxXxXxXxXxXxXxXxXxXxXxXxXxXxXxXxXxXxXxXxXxXxXR sXdX>X^ xXxXxXxXxXxX",
"xXxXxXxXxXxXxXxXxXxXxXxXxXxXxXxXxXxXxXxXxXxXxXxXxXxXxXxXxXxXxXxXxXxXxXxXxXxXxXxXxXxXxXxXxXxXxXxXxXxXxXxXxX= :X^ L xXxXxXxXxXxXxX",
"xXxXxXxXxXxXxXxXxXxXxXxXxXxXxXxXxXxXxXxXxXxXxXxXxXxXxXxXxXxXxXxXxXxXxXxXxXxXxXxXxXxXxXxXxXxXxXxXxXxXxXxXxXxX$ xXxXxXxXxXxXxXxXxX",
"xXxXxXxXxXxXxXxXxXxXxXxXxXxXxXxXxXxXxXxXxXxXxXxXxXxXxXxXxXxXxXxXxXxXxXxXxXxXxXxXxXxXxXxXxXxXxXxXxXxXxXxXxXxXxXxXxXxXxXxXxXxXxXxX",
"xXxXxXxXxXxXxXxXxXxXxXxXxXxXxXxXxXxXxXxXxXxXxXxXxXxXxXxXxXxXxXxXxXxXxXxXxXxXxXxXxXxXxXxXxXxXxXxXxXxXxXxXxXxXxXxXxXxXxXxXxXxXxXxX",
"xXxXxXxXxXxXxXxXxXxXxXxXxXxXxXxXxXxXxXxXxXxXxXxXxXxXxXxXxXxXxXxXxXxXxXxXxXxXxXxXxXxXxXxXxXxXxXxXxXxXxXxXxXxXxXxXxXxXxXxXxXxXxXxX",
"xXxXxXxXxXxXxXxXxXxXxXxXxXxXxXxXxXxXxXxXxXxXxXxXxXxXxXxXxXxXxXxXxXxXxXxXxXxXxXxXxXxXxXxXxXxXxXxXxXxXxXxXxXxXxXxXxXxXxXxXxXxXxXxX",
"xXxXxXxXxXxXxXxXxXxXxXxXxXxXxXxXxXxXxXxXxXxXxXxXxXxXxXxXxXxXxXxXxXxXxXxXxXxXxXxXxXxXxXxXxXxXxXxXxXxXxXxXxXxXxXxXxXxXxXxXxXxXxXxX",
"xXxXxXxXxXxXxXxXxXxXxXxXxXxXxXxXxXxXxXxXxXxXxXxXxXxXxXxXxXxXxXxXxXxXxXxXxXxXxXxXxXxXxXxXxXxXxXxXxXxXxXxXxXxXxXxXxXxXxXxXxXxXxXxX"
};
