/* XPM */
static char *result[] = {
/* columns rows colors chars-per-pixel */
"64 64 235 2 ",
"   c #180502",
".  c #141617",
"X  c #0B0C0C",
"o  c #381F07",
"O  c #2E1500",
"+  c #0E300E",
"@  c #3B220A",
"#  c #37291D",
"$  c #2A2410",
"%  c #1F3F27",
"&  c #282829",
"*  c #382C24",
"=  c #35332D",
"-  c #353535",
";  c #3A3A39",
":  c #2D3133",
">  c #500E0F",
",  c #78090A",
"<  c #68180D",
"1  c #472908",
"2  c #583606",
"3  c #4A3118",
"4  c #5C3B1C",
"5  c #5A3815",
"6  c #4E2F0C",
"7  c #66390C",
"8  c #623F19",
"9  c #752B13",
"0  c #4D3A24",
"q  c #453426",
"w  c #453D37",
"e  c #612F2B",
"r  c #02550B",
"t  c #135712",
"y  c #144815",
"u  c #255F13",
"i  c #076C13",
"p  c #254125",
"a  c #32542E",
"s  c #344F30",
"d  c #1B6527",
"f  c #137C25",
"g  c #0C7329",
"h  c #2D762E",
"j  c #5D421A",
"k  c #4C520F",
"l  c #734A07",
"z  c #6A5500",
"x  c #775606",
"c  c #664718",
"v  c #764812",
"b  c #775517",
"n  c #6B4F0D",
"m  c #5A4A37",
"M  c #55543A",
"N  c #50482E",
"B  c #614627",
"V  c #754D24",
"C  c #74532A",
"Z  c #695738",
"A  c #70522F",
"S  c #786438",
"D  c #6C6D24",
"F  c #3C7644",
"G  c #454645",
"H  c #575347",
"J  c #4D4F51",
"K  c #5B5B5C",
"L  c #585652",
"P  c #645D46",
"I  c #784040",
"U  c #71715D",
"Y  c #6F655C",
"T  c #646564",
"R  c #6A6A6B",
"E  c #676769",
"W  c #79786A",
"Q  c #737373",
"!  c #7B7B7B",
"~  c #6E6E71",
"^  c #850603",
"/  c #921510",
"(  c #B51918",
")  c #A80B0A",
"_  c #852B12",
"`  c #B42700",
"'  c #903928",
"]  c #A62E27",
"[  c #C80302",
"{  c #D10F0E",
"}  c #FD0001",
"|  c #F60102",
" . c #E70D05",
".. c #DE3307",
"X. c #D72C00",
"o. c #FE3400",
"O. c #FF3E00",
"+. c #E53F00",
"@. c #884A04",
"#. c #954E06",
"$. c #985802",
"%. c #865517",
"&. c #8D5712",
"*. c #A75704",
"=. c #B25900",
"-. c #896502",
";. c #996603",
":. c #9C7305",
">. c #87611B",
",. c #907414",
"<. c #A76503",
"1. c #B36B09",
"2. c #B77A01",
"3. c #B6700D",
"4. c #885D25",
"5. c #955922",
"6. c #A95D21",
"7. c #886428",
"8. c #8E6931",
"9. c #AC7130",
"0. c #C94E00",
"q. c #FA4500",
"w. c #FF5100",
"e. c #FE5C00",
"r. c #F65D00",
"t. c #CE7902",
"y. c #D37900",
"u. c #C8700A",
"i. c #FE6704",
"p. c #FD7504",
"a. c #F1720B",
"s. c #985555",
"d. c #8B4F50",
"f. c #8A784F",
"g. c #8D6265",
"h. c #008315",
"j. c #128A25",
"k. c #2A992C",
"l. c #328A34",
"z. c #00B225",
"x. c #2E8816",
"c. c #64812E",
"v. c #00C12B",
"b. c #6B9272",
"n. c #6EA47C",
"m. c #A98005",
"M. c #B98700",
"N. c #B99506",
"B. c #B58416",
"V. c #9E8037",
"C. c #A38523",
"Z. c #AC9225",
"A. c #C68905",
"S. c #D58904",
"D. c #CC9801",
"F. c #D79603",
"G. c #C79413",
"H. c #D28E18",
"J. c #E58C00",
"K. c #FF8606",
"L. c #E89900",
"P. c #FC9502",
"I. c #FF8C15",
"U. c #DAA506",
"Y. c #C7A315",
"T. c #E5A803",
"R. c #F2A800",
"E. c #ECB504",
"W. c #F4B501",
"Q. c #F6BB01",
"!. c #FABC00",
"~. c #FCB300",
"^. c #FFAB13",
"/. c #C28423",
"(. c #FF9C35",
"). c #FFB432",
"_. c #FCC300",
"`. c #FFCC00",
"'. c #F7C407",
"]. c #FFD101",
"[. c #FFD10E",
"{. c #FFD518",
"}. c #FFCF11",
"|. c #FFD924",
" X c #FFDE33",
".X c #FFE03D",
"XX c #978249",
"oX c #AA9447",
"OX c #878666",
"+X c #9A9A61",
"@X c #898A73",
"#X c #97977D",
"$X c #9E8367",
"%X c #A6A569",
"&X c #BCB86E",
"*X c #B9B878",
"=X c #FFCD54",
"-X c #EAC04F",
";X c #FFE64B",
":X c #FFD66C",
">X c #FFDA75",
",X c #FFC674",
"<X c #888786",
"1X c #999899",
"2X c #8B928C",
"3X c #A78F86",
"4X c #92A189",
"5X c #B7B785",
"6X c #ABA892",
"7X c #9E9FA2",
"8X c #A5A5A5",
"9X c #B8B9B9",
"0X c #A6B2A6",
"qX c #C19092",
"wX c #B0C0B3",
"eX c #C6C789",
"rX c #C8C898",
"tX c #DEE08F",
"yX c #E1E28E",
"uX c #E6E696",
"iX c #FEFE9B",
"pX c #F1F298",
"aX c #FFF9BA",
"sX c #FFF4AD",
"dX c #BEC1C5",
"fX c #C7C8C8",
"gX c #D4D4D4",
"hX c #D0D1D1",
"jX c #ECDCDD",
"kX c #FFFECA",
"lX c #FFFFD0",
"zX c #E5E4E7",
"xX c #FEFDFD",
"cX c #F2F0F1",
"vX c None",
/* pixels */
"vXvXvXvXvXvXvXvXvXvXvXvXvXvXvXvXvXvXvXvXvXvXvXvXvXvXvXvXvXvXvXvXvXvXvXvXvXvXvXvXvXvXvXvXvXvXvXvXvXvXvXvXvXvXvXvXvXvXvXvXvXvXvXvX",
"vXvXvXvXvXvXvXvXvXvXvXvXvXvXvXvXvXvXvXvXvXvXvXvXvXvXvXvXvXvXvXvXvXvXvXvXvXvXvXvXvXvXvXvXvXvXvXvXvXvXvXvXvXvXvXvXvXvXvXvXvXvXvXvX",
"vXvXvXvXvXvXvXvXvXvXvXvXvXvXvXvXvXvXvXvXvXvXvXvXvXvXvXvXvXvXvXvXvXvXvXvXvXvXvXvXvXvXvXvXvXvXvXvXvXvXvXvXvXvXvXvXvXvXvXvXvXvXvXvX",
"vXvXvXvXvXvXvXvXvXvXvXvXvXvXvXvXvXvXvXvXvXvXvXvXvXvXvXvXvXvXvXvXvXvXvXvXvXvXvXvXvXvXvXvXvXvXvXvXvXvXvXvXvXvXvXvXvXvXvXvXvXvXvXvX",
"vXvXvXvXvXvXvXvXvXvXvXvXvXvXvXvXvXvXvXvXvXvXvXvXvXvXvXvXvXvXvXvXvXvXvXvXvXvXvXvXvXvXvXvXvXvXvXvXvXvXvXvXvXvXvXvXvXvXvXvXvXvXvXvX",
"vXvXvXvXvXvXvXvXvXvXvXvXvXvXvXvXvXvXvXvXvXvXvXvXvXvXvXvXvXvXvXvXvXvXvXvXvXvXvXvXvXvXvXvXvXvXvXvXvXvXvXvXvXvXvXvXvXvXvXvXvXvXvXvX",
"vXvXvXvXvXvXvXvXvXvXvXvXvXvXvXvXvXvXvXvXvXvXvXvXvXvXvXvXvXvXvXvXvXvXvXvXvXvXvXvXvXvXvXvXvXvXvXvXvXvXvXvXvXvXvXvXvXvXvXvXvXvXvXvX",
"vXvXvXvXvXvXvXvXvXvXvXvXvXvXvXvXvXvXvXvXvXvXvXvXvXvXvXvXvXvXvXvXvXvXvXvXvXvXvXvXvXvXvXvXvXvXvXvXvXvXvXvXvXvXvXvXvXvXvXvXvXvXvXvX",
"vXvXvXvXvXvXvXvXvXvXvXvXvXvXvXvXvXvXvXvXvXvXvXvXvXvXvXvXvXvXvXvXvXvXvXvXvXvXvXvXvXvXvXvXvXvXvXvXvXvXvXvXvXvXvXvXvXvXvXvXvXvXvXvX",
"vXvXvXvXvXvXvXvXvXvXvXvXvXvXvXvXvXvXvXvXvXvXvXvXvXvXvXvXvXvXvXvXvXvXvXvXvXvXvXvXvXvXvXvXvXvXvXvXvXvXvXvXvXvXvXvXvXvXvXvXvXvXvXvX",
"vXvXvXvXvXvXvXvXvXvXvXvXvXvXvXvXvXvXvXvXvXvXvXvXvXvXvXvXvXvXvXvXvXvXvXvXvXvXvXvXvXvXvXvXvXvXvXvXvXvXvXvXvXvXvXvXvXvXvXvXvXvXvXvX",
"vXvXvXvXvXvXvXvXvXvXvXvXvXvXvXvXvXvXvXvXvXvXvXvXvXvXvXvXvXvXvXvXvXvXvXvXvXvXvXvXvXvXvXvXvXvXvXvXvXvXvXvXvXvXvXvXvXvXvXvXvXvXvXvX",
"vXvXvXvXvXvXvXvXvXvXvXvXvXvXvXvXvXvXvXvXvXvXvXvXvXvXvXvXvXvXvXvXvXvXvXvXvXvXvXvXvXvXvXvXvXvXvXvXvXvXvXvXvXvXvXvXvXvXvXvXvXvXvXvX",
"vXvXvXvXvXvXvXvXvXvXvXvXvXvXvXvXvXvXvXvXvXvXvXvXvXvXvXvXvXvXvXvXvXvXvXvXvXvXvXvXvXvXvXvXvXvXvXvXvXvXvXvXvXvXvXvXvXvXvXvXvXvXvXvX",
"vXvXvXvXvXvXvXvXvXvXvXvXvXvXvXvXvXvXvXvXvXvXvXvXvXvXvXvXvXvXvXvXvXvXvXvXvXvXvXvXvXvXvX> / vXvXvXvXvXvXvXvXvXvXvXvXvXvXvXvXvXvXvX",
"vXvXvXvXvXvXvXvXvXvXvXvXvXvXvXvXvXvXvXvXvXvXvXvXvXvXvXvXvXvXvXvXvXvXvXvXvXvXvXvXvXvX> [ ,   vX# vXvXvXvXvXvXvXvXvXvXvXvXvXvXvXvX",
"vXvXvXvXvXvXvXvXvXvXvXvXvXvXvXvXvXvXvXvXvXvXvXvXvXvXvXvXvXvXvXvXvXvXvXvXvXvXvXj vXvX{ } / ^ - 3 @ vXvXvXvXvXvXvXvXvXvXvXvXvXvXvX",
"vXvXvXvXvXvXvXvXvXvXvXvXvXvXvXvXvXvXvXvXvXvXvXvXvXvXvXvXvXvXvXvXvXvXvXvXvXvXvXl vX<  .}  .) > b x . . vXvXvXO O vXvXvXvXvXvXvXvX",
"vXvXvXvXvXvXvXvXvXvXvXvXvXvXvXvXvXvXvXvXvXvXvXvXvXvXvXvXvXvXvXvXvXvXvXvXvXvXN B.B ^ } } }  .) 2.Z.1Xt + & n A.:.vXvXvXvXvXvXvXvX",
"vXvXvXvXvXvXvXvXvXvXvXvXvXvXvXvXvXvXvXvXvXvXvXvXvXvXvXvXvXvXvXvXvXvXvXvXvXvX6 T.l ^ } ] I / 9 T.Z.zX0Xp y ,._.-.vXvXvXvXvXvXvXvX",
"vXvXvXvXvXvXvXvXvXvXvXvXvXvXvXvXvXvXvXvXvXvXvXvXvXvXvXvXvXvXvXvXvXvXvXvXvXvX8 A.j , C N > q :._.C.zXxXzX2Xh N.z vXvXvXvXvXvXvXvX",
"vXvXvXvXvXvXvXvXvXvXvXvXvXvXvXvXvXvXvXvXvXvXvXvXvXvXvXvXvXvXvXvXvXvXvXvXvXvXL ' < f k./ [ 7 T._.7.dXxXxXcXb.D 2 vXvXvXvXvXvXvXvX",
"vXvXvXvXvXvXvXvXvXvXvXvXvXvXvXvXvXvXvXvXvXvXvXvXvXvXvXvXvXvXvXvXvXvXvXvXvXvXvX) l z.2 } [ _ F.F.8 m 8XzXxXhXs = vXvXvXvXvXvXvXvX",
"vXvXvXvXvXvXvXvXvXvXvXvXvXvXvXvXvXvXvXvXvXvXvXvXvXvXvXvXvXvXvXvXvXvXvXvXvXvXvX< x.j.( { N h B.<.,.S.c R 0XxX<X% vXvXvXvXvXvXvXvX",
"vXvXvXvXvXvXvXvXvXvXvXvXvXvXvXvXvXvXvXvXvXvXvXvXvXvXvXvXvXvXvXvXvXvXvXvXvXvXvX# j.u / qXn.z.k.M N.].A.w K gXwXd vXvXvXvXvXvXvXvX",
"vXvXvXvXvXvXvXvXvXvXvXvXvXvXvXvXvXvXvXvXvXvXvXvXvXvXvXvXvXvXvXvXvXvXvXvXvXvXl A.k t e jXb.h.v.i C.!.%.7XQ ! gXh a vXvXvXvXvXvXvX",
"vXvXvXvXvXvXvXvXvXvXvXvXvXvXvXvXvXvXvXvXvXvXvXvXvXvXvXvXvXvXvXvXvXvXvXvXvXB T.}.M.s g.4Xk c t i C.N.H 7XQ K hXF f vXvXvXvXvXvXvX",
"vXvXvXvXvXvXvXvXvXvXvXvXvXvXvXvXvXvXvXvXvXvXvXvXvXvXvXvXvXvXvXvXvXvXvXvX0 8.-XH.E.u.f.f.U.}.A.k z b T R K q 2Xb.f vXvXvXvXvXvXvX",
"vXvXvXvXvXvXvXvXvXvXvXvXvXvXvXvXvXvXvXvXvXvXvXvXvXvXvXvXvXvXvXvXvXvXvXvXC U.'.W.W.Q.Q.R.}.}.`.M.$ L E T M A.XX@Xj.p vXvXvXvXvXvX",
"vXvXvXvXvXvXvXvXvXvXvXvXvXvXvXvXvXvXvXvXvXvXvXvXvXvXvXvXvXvXvXvXvXvXvXvX&.R.`.`.`.;X|.`.'.J.W.'.S E E L N.].Y.b.j.a * vXvXvXvXvX",
"vXvXvXvXvXvXvXvXvXvXvXvXvXvXvXvXvXvXvXvXvXvXvXvXvXvXvXvXvXvXvXvXvXvXvXvX$.L.~.P._. X{.[.S.%.u.'.%.7X~ D '.`.`.7.g c.1.N vXvXvXvX",
"vXvXvXvXvXvXvXvXvXvXvXvXvXvXvXvXvXvXvXvXvXvXvXvXvXvXvXvXvXvXvXvXvXvXvXvXS y.a.i._._.`.Q.*.q 1.T.%.1XP M.].`.].:.r l.E.:.J vXvXvX",
"vXvXvXvXvXvXvXvXvXvXvXvXvXvXvXvXvXvXvXvXvXvXvXvXvXvXvXvXvXvXvXvXvXvXvXvX7 0.o.o.a.P.R.y._ ^ =.u.0 K %.!.|.`.`.U.t k.G.b vXvXvXvX",
"vXvXvXvXvXvXvXvXvXvXvXvXvXvXvXvXvXvXvXvXvXvXvXvXvXvXvXvXvXvXvXvXvXvXvXvXX...w.e.q.r.y.5.s.^ =.*.M & 2.`.`.`.`._.n i 1 vXvXvXvXvX",
"vXvXvXvXvXvXvXvXvXvXvXvXvXvXvXvXvXvXvXvXvXvXvXvXvXvXvXvXvXvXvXvXvXvXvXvXo.o.p.K.o.q.6.e s.m =.4.yXOXb _.].].'.D.k r & vXvXvXvXvX",
"vXvXvXvXvXvXvXvXvXvXvXvXvXvXvXvXvXvXvXvXvXvXvXvXvXvXvXvXvXvXvXvXvXvXvXvXo.i.).).K.e.' ) s.f.=.oXiXpXS S.m.-.j : = p vXvXvXvXvXvX",
"vXvXvXvXvXvXvXvXvXvXvXvXvXvXvXvXvXvXvXvXvXvXvXvXvXvXvXvXvXvXvXvXvXvXvXvXo.(.=X>X^.i.{ ( d.C *.&XiXeXH o ; G J E T & vXvXvXvXvXvX",
"vXvXvXvXvXvXvXvXvXvXvXvXvXvXvXvXvXvXvXvXvXvXvXvXvXvXvXvXvXvXvXvXvXvXvXvXw.:XkXsX>XI...3Xd.5.#.%X5X5XOXJ ~ E E <X1X: vXvXvXvXvXvX",
"vXvXvXvXvXvXvXvXvXvXvXvXvXvXvXvXvXvXvXvXvXvXvXvXvXvXvXvXvXvXvXvXvXvXvXvXO.,XlXlXaXa._ 8X<X3.v @XeXiX%XT 9XQ T g.7Xw vXvXvXvXvXvX",
"vXvXvXvXvXvXvXvXvXvXvXvXvXvXvXvXvXvXvXvXvXvXvXvXvXvXvXvXvXvXvXvXvXvXvXvXo.(.kXkX>Xi.t./.Z.F.4.tXiXiX%XK 2XQ E R R ; vXvXvXvXvXvX",
"vXvXvXvXvXvXvXvXvXvXvXvXvXvXvXvXvXvXvXvXvXvXvXvXvXvXvXvXvXvXvXvXvXvXvXvXo.p.=X:XK.r.'._.`.F.f.iXiXiX+X& - - ; ; - - vXvXvXvXvXvX",
"vXvXvXvXvXvXvXvXvXvXvXvXvXvXvXvXvXvXvXvXvXvXvXvXvXvXvXvXvXvXvXvXvXvXvXvX/ q.K.P.w.q.t._._.:.&XiXuXeXP @.m.N.N.M.@.1 vXvXvXvXvXvX",
"vXvXvXvXvXvXvXvXvXvXvXvXvXvXvXvXvXvXvXvXvXvXvXvXvXvXvXvXvXvXvXvXvXvXvXvX2 J.w.o.` 5 3 -.@.m 5X5X3X@X,.!.`.].`.].U.3 vXvXvXvXvXvX",
"vXvXvXvXvXvXvXvXvXvXvXvXvXvXvXvXvXvXvXvXvXvXvXvXvXvXvXvXvXvXvXvXvXvXvXvX2 E.~.P.<.B & M +X*XeXeXuX&X2.{..X`.`.`.Q.1 . vXvXvXvXvX",
"vXvXvXvXvXvXvXvXvXvXvXvXvXvXvXvXvXvXvXvXvXvXvXvXvXvXvXvXvXvXvXvXvXvXvXvX6 T.[.'.R.#.6 m yXiXiXiXiXXXS.}.;X[.`.`.W.n q vXvXvXvXvX",
"vXvXvXvXvXvXvXvXvXvXvXvXvXvXvXvXvXvXvXvXvXvXvXvXvXvXvXvXvXvXvXvXvXvXvXvX3 D.G.%.S.@.#.8 P eXiXiXtXS t._.`.`.`.`.F.j @ vXvXvXvXvX",
"vXvXvXvXvXvXvXvXvXvXvXvXvXvXvXvXvXvXvXvXvXvXvXvXvXvXvXvXvXvXvXvXvXvXvXvXvX$.S.8 I 3 v %.%.L @X4X#XOXv T.`.`.`.`.2.vXvXvXvXvXvXvX",
"vXvXvXvXvXvXvXvXvXvXvXvXvXvXvXvXvXvXvXvXvXvXvXvXvXvXvXvXvXvXvXvXvXvXvXvXvX4 *.1.C j b u.%.; - f.rXrXU -.W.F.'.S.c vXvXvXvXvXvXvX",
"vXvXvXvXvXvXvXvXvXvXvXvXvXvXvXvXvXvXvXvXvXvXvXvXvXvXvXvXvXvXvXvXvXvXvXvXvXvX3 2 2 ,.!.J.#.vXvX- M Y T N 2 4.1.k :.4 vXvXvXvXvXvX",
"vXvXvXvXvXvXvXvXvXvXvXvXvXvXvXvXvXvXvXvXvXvXvXvXvXvXvXvXvXvXvXvXvXvXvXvXvXvXW B.U.'.`.L.@.vXvXvXvX& . X @ b x T.`.<.vXvXvXvXvXvX",
"vXvXvXvXvXvXvXvXvXvXvXvXvXvXvXvXvXvXvXvXvXvXvXvXvXvXvXvXvXvXvXvXvXvXvXvXvXR 9X3XT.].T.#.0 vXvXvXvXvXvXvX4 D.`._.U.5.3 vXvXvXvXvX",
"vXvXvXvXvXvXvXvXvXvXvXvXvXvXvXvXvXvXvXvXvXvXvXvXvXvXvXvXvXvXvXvXvXvXvXvXvXJ 2X9X9.2.7 # vXvXvXvXvXvXvXvXvX<.W.H.$X8X= vXvXvXvXvX",
"vXvXvXvXvXvXvXvXvXvXvXvXvXvXvXvXvXvXvXvXvXvXvXvXvXvXvXvXvXvXvXvXvXvXvXvXvXvX- . X X vXvXvXvXvXvXvXvXvXvXvXc 9.2XhXdXR vXvXvXvXvX",
"vXvXvXvXvXvXvXvXvXvXvXvXvXvXvXvXvXvXvXvXvXvXvXvXvXvXvXvXvXvXvXvXvXvXvXvXvXvXvXvXvXvXvXvXvXvXvXvXvXvXvXvXvXw Y gX9X<XK vXvXvXvXvX",
"vXvXvXvXvXvXvXvXvXvXvXvXvXvXvXvXvXvXvXvXvXvXvXvXvXvXvXvXvXvXvXvXvXvXvXvXvXvXvXvXvXvXvXvXvXvXvXvXvXvXvXvXvXvX- ! G ; vXvXvXvXvXvX",
"vXvXvXvXvXvXvXvXvXvXvXvXvXvXvXvXvXvXvXvXvXvXvXvXvXvXvXvXvXvXvXvXvXvXvXvXvXvXvXvXvXvXvXvXvXvXvXvXvXvXvXvXvXvXvXvXvXvXvXvXvXvXvXvX",
"vXvXvXvXvXvXvXvXvXvXvXvXvXvXvXvXvXvXvXvXvXvXvXvXvXvXvXvXvXvXvXvXvXvXvXvXvXvXvXvXvXvXvXvXvXvXvXvXvXvXvXvXvXvXvXvXvXvXvXvXvXvXvXvX",
"vXvXvXvXvXvXvXvXvXvXvXvXvXvXvXvXvXvXvXvXvXvXvXvXvXvXvXvXvXvXvXvXvXvXvXvXvXvXvXvXvXvXvXvXvXvXvXvXvXvXvXvXvXvXvXvXvXvXvXvXvXvXvXvX",
"vXvXvXvXvXvXvXvXvXvXvXvXvXvXvXvXvXvXvXvXvXvXvXvXvXvXvXvXvXvXvXvXvXvXvXvXvXvXvXvXvXvXvXvXvXvXvXvXvXvXvXvXvXvXvXvXvXvXvXvXvXvXvXvX",
"vXvXvXvXvXvXvXvXvXvXvXvXvXvXvXvXvXvXvXvXvXvXvXvXvXvXvXvXvXvXvXvXvXvXvXvXvXvXvXvXvXvXvXvXvXvXvXvXvXvXvXvXvXvXvXvXvXvXvXvXvXvXvXvX",
"vXvXvXvXvXvXvXvXvXvXvXvXvXvXvXvXvXvXvXvXvXvXvXvXvXvXvXvXvXvXvXvXvXvXvXvXvXvXvXvXvXvXvXvXvXvXvXvXvXvXvXvXvXvXvXvXvXvXvXvXvXvXvXvX",
"vXvXvXvXvXvXvXvXvXvXvXvXvXvXvXvXvXvXvXvXvXvXvXvXvXvXvXvXvXvXvXvXvXvXvXvXvXvXvXvXvXvXvXvXvXvXvXvXvXvXvXvXvXvXvXvXvXvXvXvXvXvXvXvX",
"vXvXvXvXvXvXvXvXvXvXvXvXvXvXvXvXvXvXvXvXvXvXvXvXvXvXvXvXvXvXvXvXvXvXvXvXvXvXvXvXvXvXvXvXvXvXvXvXvXvXvXvXvXvXvXvXvXvXvXvXvXvXvXvX",
"vXvXvXvXvXvXvXvXvXvXvXvXvXvXvXvXvXvXvXvXvXvXvXvXvXvXvXvXvXvXvXvXvXvXvXvXvXvXvXvXvXvXvXvXvXvXvXvXvXvXvXvXvXvXvXvXvXvXvXvXvXvXvXvX"
};
