/* XPM */
static char *result[] = {
/* columns rows colors chars-per-pixel */
"64 64 236 2 ",
"   c #1C1A18",
".  c #09090A",
"X  c #2B1604",
"o  c #34130B",
"O  c #182A14",
"+  c #083B04",
"@  c #392409",
"#  c #29271F",
"$  c #35291B",
"%  c #39331B",
"&  c #2E2000",
"*  c #1F3F27",
"=  c #212626",
"-  c #352922",
";  c #343435",
":  c #3A3938",
">  c #35342D",
",  c #640607",
"<  c #7A0401",
"1  c #6F1F10",
"2  c #4B3306",
"3  c #5C3607",
"4  c #4A321A",
"5  c #53381A",
"6  c #4A2B0B",
"7  c #643303",
"8  c #643C14",
"9  c #70330D",
"0  c #493926",
"q  c #573D24",
"w  c #493D38",
"e  c #752626",
"r  c #763523",
"t  c #551A16",
"y  c #0A590E",
"u  c #144815",
"i  c #0D6813",
"p  c #2D6E12",
"a  c #32572D",
"s  c #2A4B30",
"d  c #1A6428",
"f  c #137B25",
"g  c #0C7429",
"h  c #3A6022",
"j  c #574415",
"k  c #684508",
"l  c #794701",
"z  c #685604",
"x  c #785808",
"c  c #6C4619",
"v  c #755617",
"b  c #6C4D14",
"n  c #5B660E",
"m  c #756A02",
"M  c #574838",
"N  c #51472F",
"B  c #674A2B",
"V  c #65522B",
"C  c #795A26",
"Z  c #745031",
"A  c #627428",
"S  c #4A742E",
"D  c #3E7846",
"F  c #494948",
"G  c #52524B",
"H  c #545444",
"J  c #4E5053",
"K  c #595A5D",
"L  c #575758",
"P  c #685847",
"I  c #4B6547",
"U  c #6D6850",
"Y  c #646565",
"T  c #686869",
"R  c #737474",
"E  c #78787A",
"W  c #717266",
"Q  c #9B0806",
"!  c #8F0A0C",
"~  c #AB0D0D",
"^  c #803F01",
"/  c #AC3908",
"(  c #833124",
")  c #D80605",
"_  c #D1180E",
"`  c #CE0000",
"'  c #FC0000",
"]  c #F30602",
"[  c #E80909",
"{  c #C23D14",
"}  c #FB2F01",
"|  c #FF3300",
" . c #FE3B00",
".. c #EB3300",
"X. c #924D05",
"o. c #885506",
"O. c #975A0B",
"+. c #8B5F14",
"@. c #8F500C",
"#. c #A85A02",
"$. c #B64B0B",
"%. c #996702",
"&. c #966816",
"*. c #8E7A19",
"=. c #8E6F0C",
"-. c #A36B02",
";. c #A46703",
":. c #BA6B06",
">. c #A77801",
",. c #B9791B",
"<. c #A47311",
"1. c #8E7029",
"2. c #A47C23",
"3. c #DB4402",
"4. c #D85207",
"5. c #D0491D",
"6. c #EC4A00",
"7. c #FE4300",
"8. c #FD4B00",
"9. c #F24903",
"0. c #FE5400",
"q. c #FF5C01",
"w. c #FF590F",
"e. c #E15000",
"r. c #C86905",
"t. c #D57A04",
"y. c #D56B0E",
"u. c #FF6301",
"i. c #FF6C04",
"p. c #FF6809",
"a. c #E77A01",
"s. c #FE7403",
"d. c #FE7B00",
"f. c #F87C0B",
"g. c #ED6300",
"h. c #C64038",
"j. c #946F6C",
"k. c #248E1A",
"l. c #16912A",
"z. c #089021",
"x. c #2C8B30",
"c. c #00AC25",
"v. c #11B130",
"b. c #64812E",
"n. c #00C22C",
"m. c #59815A",
"M. c #6C8C73",
"N. c #96851F",
"B. c #B88700",
"V. c #B18C0D",
"C. c #9C832D",
"Z. c #AD9326",
"A. c #C88901",
"S. c #D28906",
"D. c #C89503",
"F. c #D89802",
"G. c #C89312",
"H. c #C38615",
"J. c #FF8302",
"K. c #E39800",
"L. c #FF9803",
"P. c #FF8A11",
"I. c #D7AB10",
"U. c #E6AB03",
"Y. c #ECA601",
"T. c #F7A805",
"R. c #ECBC01",
"E. c #E8B303",
"W. c #F2B501",
"Q. c #FABC00",
"!. c #F7BC01",
"~. c #FFAC18",
"^. c #F0BD17",
"/. c #C19024",
"(. c #FF9B25",
"). c #CCA423",
"_. c #FFA524",
"`. c #FFAB34",
"'. c #FFB739",
"]. c #EEBE24",
"[. c #FCC401",
"{. c #FFCC00",
"}. c #F9C90A",
"|. c #FFD101",
" X c #FFD00C",
".X c #FFD314",
"XX c #FFDE32",
"oX c #9C9259",
"OX c #8D825E",
"+X c #A28047",
"@X c #B2A75C",
"#X c #848369",
"$X c #97977D",
"%X c #92926F",
"&X c #A18E7B",
"*X c #AEAC70",
"=X c #D7BB48",
"-X c #FFB343",
";X c #FFCC56",
":X c #FFE955",
">X c #FFCB66",
",X c #FFD966",
"<X c #FFDA74",
"1X c #FFE37E",
"2X c #78AB84",
"3X c #848385",
"4X c #929394",
"5X c #9C9C9E",
"6X c #8B938F",
"7X c #B8B887",
"8X c #AEA98E",
"9X c #A8A8A9",
"0X c #B1B7B0",
"qX c #C7C889",
"wX c #CECE8F",
"eX c #DEE08E",
"rX c #FFE58B",
"tX c #E7E795",
"yX c #FFE694",
"uX c #FEFE9A",
"iX c #F6F798",
"pX c #E6E78D",
"aX c #D3C3B7",
"sX c #FFF2A9",
"dX c #C3C3C4",
"fX c #CBCCCE",
"gX c #DBDADA",
"hX c #CFD3D0",
"jX c #FFFFCB",
"kX c #FFFCC4",
"lX c #FFFFD1",
"zX c #E5E4E6",
"xX c #FFFFFF",
"cX c #F5F4F4",
"vX c #E3D4D1",
"bX c None",
/* pixels */
"bXbXbXbXbXbXbXbXbXbXbXbXbXbXbXbXbXbXbXbXbXbXbXbXbXbXbXbXbXbXbXbXbXbXbXbXbXbXbXbXbXbXbXbXbXbXbXbXbXbXbXbXbXbXbXbXbXbXbXbXbXbXbXbX",
"bXbXbXbXbXbXbXbXbXbXbXbXbXbXbXbXbXbXbXbXbXbXbXbXbXbXbXbXbXbXbXbXbXbXbXbXbXbXbXbXbXbXbXbXbXbXbXbXbXbXbXbXbXbXbXbXbXbXbXbXbXbXbXbX",
"bXbXbXbXbXbXbXbXbXbXbXbXbXbXbXbXbXbXbXbXbXbXbXbXbXbXbXbXbXbXbXbXbXbXbXbXbXbXbXbXbXbXbXbXbXbXbXbXbXbXbXbXbXbXbXbXbXbXbXbXbXbXbXbX",
"bXbXbXbXbXbXbXbXbXbXbXbXbXbXbXbXbXbXbXbXbXbXbXbXbXbXbXbXbXbXbXbXbXbXbXbXbXbXbXbXbXbXbXbXbXbXbXbXbXbXbXbXbXbXbXbXbXbXbXbXbXbXbXbX",
"bXbXbXbXbXbXbXbXbXbXbXbXbXbXbXbXbXbXbXbXbXbXbXbXbXbXbXbXbXbXbXbXbXbXbXbXbXbXbXbXbXbXbXbXbXbXbXbXbXbXbXbXbXbXbXbXbXbXbXbXbXbXbXbX",
"bXbXbXbXbXbXbXbXbXbXbXbXbXbXbXbXbXbXbXbXbXbXbXbXbXbXbXbXbXbXbXbXbXbXbXbXbXbXbXbXbXbXbXbXbXbXbXbXbXbXbXbXbXbXbXbXbXbXbXbXbXbXbXbX",
"bXbXbXbXbXbXbXbXbXbXbXbXbXbXbXbXbXbXbXbXbXbXbXbXbXbXbXbXbXbXbXbXbXbXbXbXbXbXbXbXbXbXbXbXbXbXbXbXbXbXbXbXbXbXbXbXbXbXbXbXbXbXbXbX",
"bXbXbXbXbXbXbXbXbXbXbXbXbXbXbXbXbXbXbXbXbXbXbXbXbXbXbXbXbXbXbXbXbXbXbXbXbXbXbXbXbXbXbXbXbXbXbXbXbXbXbXbXbXbXbXbXbXbXbXbXbXbXbXbX",
"bXbXbXbXbXbXbXbXbXbXbXbXbXbXbXbXbXbXbXbXbXbXbXbXbXbXbXbXbXbXbXbXbXbXbXbXbXbXbXbXbXbXbXbXbXbXbXbXbXbXbXbXbXbXbXbXbXbXbXbXbXbXbXbX",
"bXbXbXbXbXbXbXbXbXbXbXbXbXbXbXbXbXbXbXbXbXbXbXbXbXbXbXbXbXbXbXbXbXbXbXbXbXbXbXbXbXbXbXbXbXbXbXbXbXbXbXbXbXbXbXbXbXbXbXbXbXbXbXbX",
"bXbXbXbXbXbXbXbXbXbXbXbXbXbXbXbXbXbXbXbXbXbXbXbXbXbXbXbXbXbXbXbXbXbXbXbXbXbXbXbXbXbXbXbXbXbXbXbXbXbXbXbXbXbXbXbXbXbXbXbXbXbXbXbX",
"bXbXbXbXbXbXbXbXbXbXbXbXbXbXbXbXbXbXbXbXbXbXbXbXbXbXbXbXbXbXbXbXbXbXbXbXbXbXbXbXbXbXbXbXbXbXbXbXbXbXbXbXbXbXbXbXbXbXbXbXbXbXbXbX",
"bXbXbXbXbXbXbXbXbXbXbXbXbXbXbXbXbXbXbXbXbXbXbXbXbXbXbXbXbXbXbXbXbXbXbXbXbXbXbXbXbXbXbXbXbXbXbXbXbXbXbXbXbXbXbXbXbXbXbXbXbXbXbXbX",
"bXbXbXbXbXbXbXbXbXbXbXbXbXbXbXbXbXbXbXbXbXbXbXbXbXbXbXbXbXbXbXbXbXbXbXbXbXbXbXbXbXbXbXbXbXbXbXbXbXbXbXbXbXbXbXbXbXbXbXbXbXbXbXbX",
"bXbXbXbXbXbXbXbXbXbXbXbXbXbXbXbXbXbXbXbXbXbXbXbXbXbXbXbXbXbXbXbXbXbXbXbXbXbXbXbXbXbXbXbX- bXbXbXbXbXbXbXbXbXbXbXbXbXbXbXbXbXbXbX",
"bXbXbXbXbXbXbXbXbXbXbXbXbXbXbXbXbXbXbXbXbXbXbXbXbXbXbXbXbXbXbXbXbXbXbXbXbXbXbXbXbXbXbX, Q = bXbXbXbXbXbXbXbXbXbXbXbXbXbXbXbXbXbX",
"bXbXbXbXbXbXbXbXbXbXbXbXbXbXbXbXbXbXbXbXbXbXbXbXbXbXbXbXbXbXbXbXbXbXbXbXbXbXbXbXbXbX! [ < o : 0 X bXbXbXbXbXbXbXbXbXbXbXbXbXbXbX",
"bXbXbXbXbXbXbXbXbXbXbXbXbXbXbXbXbXbXbXbXbXbXbXbXbXbXbXbXbXbXbXbXbXbXbXbXbXbXbX8 bX# _ ] ~ Q T Z @   O bXbXbXX X bXbXbXbXbXbXbXbX",
"bXbXbXbXbXbXbXbXbXbXbXbXbXbXbXbXbXbXbXbXbXbXbXbXbXbXbXbXbXbXbXbXbXbXbXbXbXbXbX+.bX< ] ' ] ` , =.2.6Xu + O k A.%.bXbXbXbXbXbXbXbX",
"bXbXbXbXbXbXbXbXbXbXbXbXbXbXbXbXbXbXbXbXbXbXbXbXbXbXbXbXbXbXbXbXbXbXbXbXbXbX5 A.j ! ' ] [ ) Q A.Z.zX9Xs u N.[.%.bXbXbXbXbXbXbXbX",
"bXbXbXbXbXbXbXbXbXbXbXbXbXbXbXbXbXbXbXbXbXbXbXbXbXbXbXbXbXbXbXbXbXbXbXbXbXbX2 U.x < ) Z w e 9 E.Z.zXxXzX6XS V.x bXbXbXbXbXbXbXbX",
"bXbXbXbXbXbXbXbXbXbXbXbXbXbXbXbXbXbXbXbXbXbXbXbXbXbXbXbXbXbXbXbXbXbXbXbXbXbXZ ,.5 1 S N ! 5 B.{.1.hXcXxXzXM.A 3 bXbXbXbXbXbXbXbX",
"bXbXbXbXbXbXbXbXbXbXbXbXbXbXbXbXbXbXbXbXbXbXbXbXbXbXbXbXbXbXbXbXbXbXbXbXbXbXF ( 1 z.d ) ) 9 K.!.C 6XdXzXxXhXs > bXbXbXbXbXbXbXbX",
"bXbXbXbXbXbXbXbXbXbXbXbXbXbXbXbXbXbXbXbXbXbXbXbXbXbXbXbXbXbXbXbXbXbXbXbXbXbXbXQ n c.9 ' Q r S.A.8 9 P 0XzXxXM.s bXbXbXbXbXbXbXbX",
"bXbXbXbXbXbXbXbXbXbXbXbXbXbXbXbXbXbXbXbXbXbXbXbXbXbXbXbXbXbXbXbXbXbXbXbXbXbXbXt k.d _ h.I l.N.&.&.Q.:.M L gX0Xd bXbXbXbXbXbXbXbX",
"bXbXbXbXbXbXbXbXbXbXbXbXbXbXbXbXbXbXbXbXbXbXbXbXbXbXbXbXbXbXbXbXbXbXbXbXbXbXbX5 k.d ( aX2Xn.c.h V.|.R.Z Y E gXx.a bXbXbXbXbXbXbX",
"bXbXbXbXbXbXbXbXbXbXbXbXbXbXbXbXbXbXbXbXbXbXbXbXbXbXbXbXbXbXbXbXbXbXbXbXbX0 %.U.n u e vXm.y c.i N.|.;.3X9XL 9XD d bXbXbXbXbXbXbX",
"bXbXbXbXbXbXbXbXbXbXbXbXbXbXbXbXbXbXbXbXbXbXbXbXbXbXbXbXbXbXbXbXbXbXbXbX$.B ].}.F.V j.#Xz <.h y =.E.q R 2XJ 3XM.l.bXbXbXbXbXbXbX",
"bXbXbXbXbXbXbXbXbXbXbXbXbXbXbXbXbXbXbXbXbXbXbXbXbXbXbXbXbXbXbXbXbXbXbXbXl 2.=X/.E.S.y.4.^..XU.n m +.L T Y N Z M.z.s bXbXbXbXbXbX",
"bXbXbXbXbXbXbXbXbXbXbXbXbXbXbXbXbXbXbXbXbXbXbXbXbXbXbXbXbXbXbXbXbXbXbXbXZ ^.}.!.!.d.8. .L.L.{.F.k M T Y H D.B.W l.a - bXbXbXbXbX",
"bXbXbXbXbXbXbXbXbXbXbXbXbXbXbXbXbXbXbXbXbXbXbXbXbXbXbXbXbXbXbXbXbXbXbXbXX.T.[.Q.s.0.8.8.i.g.Y.[.C K R L *.{.{.1.g A -.q bXbXbXbX",
"bXbXbXbXbXbXbXbXbXbXbXbXbXbXbXbXbXbXbXbXbXbXbXbXbXbXbXbXbXbXbXbXbXbXbXbX/ a.Y.K.8. .J.i.| 5.,.!.+.4X5XM E.{.{.F.i x.^.<.F bXbXbX",
"bXbXbXbXbXbXbXbXbXbXbXbXbXbXbXbXbXbXbXbXbXbXbXbXbXbXbXbXbXbXbXbXbXbXbX| } 6.r.y.0.s.'.(.d.9.4.K.c E T =. X X{.E.p k.G.v bXbXbXbX",
"bXbXbXbXbXbXbXbXbXbXbXbXbXbXbXbXbXbXbXbXbXbXbXbXbXbXbXbXbXbXbXbXbXbXbX| 8. ./ 3.7.`.;X;XT.0.r.r.q J B Y..X X{.{.m i 6 bXbXbXbXbX",
"bXbXbXbXbXbXbXbXbXbXbXbXbXbXbXbXbXbXbXbXbXbXbXbXbXbXbXbXbXbXbXbXbXbX|  .J.7...} w.rXsXyX;Xp.e.&.*XH 3 R.{.{.{.|.B.u O bXbXbXbXbX",
"bXbXbXbXbXbXbXbXbXbXbXbXbXbXbXbXbXbXbXbXbXbXbXbXbXbXbXbXbXbXbXbXbX|  .q._.s.u. .w.sXlXjXyXq.4.1.uXpXU A.{.{.W.>.l O bXbXbXbXbXbX",
"bXbXbXbXbXbXbXbXbXbXbXbXbXbXbXbXbXbXbXbXbXbXbXbXbXbXbXbXbXbXbXbXbX .u.L.;X~.L.0. .>XlXkX>X8.$.@XuXwXW o.-.j 6 w F : bXbXbXbXbXbX",
"bXbXbXbXbXbXbXbXbXbXbXbXbXbXbXbXbXbXbXbXbXbXbXbXbXbXbXbXbXbXbXbXbX .J.~.yX'.~.0. .P.rX>Xs.6.O.*X7X8X7X- > K K Y R J bXbXbXbXbXbX",
"bXbXbXbXbXbXbXbXbXbXbXbXbXbXbXbXbXbXbXbXbXbXbXbXbXbXbXbXbXbXbXbXbX8._.yXkXyX>Xq.} 0.~.L.7.6.@.R qXiXeXG M.R Y W 0XY bXbXbXbXbXbX",
"bXbXbXbXbXbXbXbXbXbXbXbXbXbXbXbXbXbXbXbXbXbXbXbXbXbXbXbXbXbXbXbXbX7.`.jXlXlX<Xq.{ $.7.7.5.t.+.eXuXuXwXM 9X5XY Y 6XL bXbXbXbXbXbX",
"bXbXbXbXbXbXbXbXbXbXbXbXbXbXbXbXbXbXbXbXbXbXbXbXbXbXbXbXbXbXbXbXbX| P.sXlXjX-X8.K.W.L.f.).F.1.iXuXuXqXJ R R Y Y Y F . bXbXbXbXbX",
"bXbXbXbXbXbXbXbXbXbXbXbXbXbXbXbXbXbXbXbXbXbXbXbXbXbXbXbXbXbXbXbXbXbXq.;XsX,Xp.0.Q.Q.[.{.|.A.oXuXtXqX#X- $ % % % $ #   bXbXbXbXbX",
"bXbXbXbXbXbXbXbXbXbXbXbXbXbXbXbXbXbXbXbXbXbXbXbXbXbXbXbXbXbXbXbXbXbX .i.(.f.7...F.#.O.T.!.v %XqX6X*X*X+.F.R.R.R.F.k o bXbXbXbXbX",
"bXbXbXbXbXbXbXbXbXbXbXbXbXbXbXbXbXbXbXbXbXbXbXbXbXbXbXbXbXbXbXbXbXbXbX| | } i.S.7 4 4 k k oXqX*XtXiXC.U.{.{.{.{.{.+.; bXbXbXbXbX",
"bXbXbXbXbXbXbXbXbXbXbXbXbXbXbXbXbXbXbXbXbXbXbXbXbXbXbXbXbXbXbXbXbXbXbXbX..d.{.{.:.4 q M *XiXuXuXuXpX&.!.:X.X{.{.{.-.$ bXbXbXbXbX",
"bXbXbXbXbXbXbXbXbXbXbXbXbXbXbXbXbXbXbXbXbXbXbXbXbXbXbXbXbXbXbXbXbXbXbXbXO.{.I.E.S.9 7 Z P wXuXuXtX#X#.Q.XX.X{.{.{.-.X bXbXbXbXbX",
"bXbXbXbXbXbXbXbXbXbXbXbXbXbXbXbXbXbXbXbXbXbXbXbXbXbXbXbXbXbXbXbXbXbXbXbXb U.v O.#.c X.O.> L #X$X4X#X@.Y.{.{.{.{.!.l bXbXbXbXbXbX",
"bXbXbXbXbXbXbXbXbXbXbXbXbXbXbXbXbXbXbXbXbXbXbXbXbXbXbXbXbXbXbXbXbXbXbXbX4 :.:.M M 7 c r.7 bX: #XqXwXM o.[.!.{.{.F.3 bXbXbXbXbXbX",
"bXbXbXbXbXbXbXbXbXbXbXbXbXbXbXbXbXbXbXbXbXbXbXbXbXbXbXbXbXbXbXbXbXbXbXbXbX5 $.O.c v I.t.7 bXbX; H W Y 4 S.H.Y.G.o.>.5 bXbXbXbXbX",
"bXbXbXbXbXbXbXbXbXbXbXbXbXbXbXbXbXbXbXbXbXbXbXbXbXbXbXbXbXbXbXbXbXbXbXbXbXT M 4 v R.K.X.w bXbXbXbX= .   - 0 O.k -.F.5 bXbXbXbXbX",
"bXbXbXbXbXbXbXbXbXbXbXbXbXbXbXbXbXbXbXbXbXbXbXbXbXbXbXbXbXbXbXbXbXbXbXbXbXR dX8XF.A.7 % bXbXbXbXbXbXbXbXbX0 o.I.Z.4XZ bXbXbXbXbX",
"bXbXbXbXbXbXbXbXbXbXbXbXbXbXbXbXbXbXbXbXbXbXbXbXbXbXbXbXbXbXbXbXbXbXbXbXbXbXF ; @ @ bXbXbXbXbXbXbXbXbXbXbXq :.2.8XfX4XbXbXbXbXbX",
"bXbXbXbXbXbXbXbXbXbXbXbXbXbXbXbXbXbXbXbXbXbXbXbXbXbXbXbXbXbXbXbXbXbXbXbXbXbXbXbXbXbXbXbXbXbXbXbXbXbXbXbXbXbXB 0XdXdXR bXbXbXbXbX",
"bXbXbXbXbXbXbXbXbXbXbXbXbXbXbXbXbXbXbXbXbXbXbXbXbXbXbXbXbXbXbXbXbXbXbXbXbXbXbXbXbXbXbXbXbXbXbXbXbXbXbXbXbXbX: E 4XJ bXbXbXbXbXbX",
"bXbXbXbXbXbXbXbXbXbXbXbXbXbXbXbXbXbXbXbXbXbXbXbXbXbXbXbXbXbXbXbXbXbXbXbXbXbXbXbXbXbXbXbXbXbXbXbXbXbXbXbXbXbXbX:   bXbXbXbXbXbXbX",
"bXbXbXbXbXbXbXbXbXbXbXbXbXbXbXbXbXbXbXbXbXbXbXbXbXbXbXbXbXbXbXbXbXbXbXbXbXbXbXbXbXbXbXbXbXbXbXbXbXbXbXbXbXbXbXbXbXbXbXbXbXbXbXbX",
"bXbXbXbXbXbXbXbXbXbXbXbXbXbXbXbXbXbXbXbXbXbXbXbXbXbXbXbXbXbXbXbXbXbXbXbXbXbXbXbXbXbXbXbXbXbXbXbXbXbXbXbXbXbXbXbXbXbXbXbXbXbXbXbX",
"bXbXbXbXbXbXbXbXbXbXbXbXbXbXbXbXbXbXbXbXbXbXbXbXbXbXbXbXbXbXbXbXbXbXbXbXbXbXbXbXbXbXbXbXbXbXbXbXbXbXbXbXbXbXbXbXbXbXbXbXbXbXbXbX",
"bXbXbXbXbXbXbXbXbXbXbXbXbXbXbXbXbXbXbXbXbXbXbXbXbXbXbXbXbXbXbXbXbXbXbXbXbXbXbXbXbXbXbXbXbXbXbXbXbXbXbXbXbXbXbXbXbXbXbXbXbXbXbXbX",
"bXbXbXbXbXbXbXbXbXbXbXbXbXbXbXbXbXbXbXbXbXbXbXbXbXbXbXbXbXbXbXbXbXbXbXbXbXbXbXbXbXbXbXbXbXbXbXbXbXbXbXbXbXbXbXbXbXbXbXbXbXbXbXbX",
"bXbXbXbXbXbXbXbXbXbXbXbXbXbXbXbXbXbXbXbXbXbXbXbXbXbXbXbXbXbXbXbXbXbXbXbXbXbXbXbXbXbXbXbXbXbXbXbXbXbXbXbXbXbXbXbXbXbXbXbXbXbXbXbX",
"bXbXbXbXbXbXbXbXbXbXbXbXbXbXbXbXbXbXbXbXbXbXbXbXbXbXbXbXbXbXbXbXbXbXbXbXbXbXbXbXbXbXbXbXbXbXbXbXbXbXbXbXbXbXbXbXbXbXbXbXbXbXbXbX",
"bXbXbXbXbXbXbXbXbXbXbXbXbXbXbXbXbXbXbXbXbXbXbXbXbXbXbXbXbXbXbXbXbXbXbXbXbXbXbXbXbXbXbXbXbXbXbXbXbXbXbXbXbXbXbXbXbXbXbXbXbXbXbXbX",
"bXbXbXbXbXbXbXbXbXbXbXbXbXbXbXbXbXbXbXbXbXbXbXbXbXbXbXbXbXbXbXbXbXbXbXbXbXbXbXbXbXbXbXbXbXbXbXbXbXbXbXbXbXbXbXbXbXbXbXbXbXbXbXbX"
};
