/* XPM */
static char *result[] = {
/* columns rows colors chars-per-pixel */
"64 64 240 2 ",
"   c #0D0B07",
".  c #151715",
"X  c #271716",
"o  c #3B1E10",
"O  c #093608",
"+  c #142C11",
"@  c #392108",
"#  c #322515",
"$  c #2A2829",
"%  c #362B29",
"&  c #213728",
"*  c #36322D",
"=  c #353535",
"-  c #3B3B3B",
";  c #2E3134",
":  c #760504",
">  c #791908",
",  c #651813",
"<  c #493409",
"1  c #5A3608",
"2  c #442D19",
"3  c #4E3617",
"4  c #593A15",
"5  c #4D2B04",
"6  c #633805",
"7  c #633B14",
"8  c #792F0B",
"9  c #562623",
"0  c #463726",
"q  c #4E3C2B",
"w  c #6A3720",
"e  c #124E0E",
"r  c #2E500F",
"t  c #0F6D16",
"y  c #246613",
"u  c #185B23",
"i  c #2A512B",
"p  c #167A2B",
"a  c #1B6626",
"s  c #2B6D39",
"d  c #5C4704",
"f  c #5B4318",
"g  c #4D401C",
"h  c #6A4409",
"j  c #784909",
"k  c #775402",
"l  c #63431C",
"z  c #774A15",
"x  c #7E5816",
"c  c #6E5907",
"v  c #457A13",
"b  c #646B05",
"n  c #5A462C",
"m  c #454139",
"M  c #5C4A33",
"N  c #565034",
"B  c #654826",
"V  c #795628",
"C  c #69553A",
"Z  c #70532A",
"A  c #4F7032",
"S  c #7B6931",
"D  c #3B7846",
"F  c #4A4A4A",
"G  c #454748",
"H  c #545248",
"J  c #545453",
"K  c #5C5C5C",
"L  c #574F49",
"P  c #635954",
"I  c #5A795F",
"U  c #796957",
"Y  c #77735C",
"T  c #6C6D58",
"R  c #5F5F60",
"E  c #5F6063",
"W  c #656565",
"Q  c #6A6A6A",
"!  c #696A69",
"~  c #7D7866",
"^  c #777775",
"/  c #667567",
"(  c #8A0503",
")  c #8A1216",
"_  c #920E09",
"`  c #B70506",
"'  c #A90606",
"]  c #8D2D0E",
"[  c #B8280A",
"{  c #8B3632",
"}  c #D90000",
"|  c #D2100F",
" . c #FC0100",
".. c #F30304",
"X. c #EE0000",
"o. c #C42828",
"O. c #855701",
"+. c #975806",
"@. c #8A4D0E",
"#. c #A35705",
"$. c #B35C01",
"%. c #B05700",
"&. c #8D6705",
"*. c #986903",
"=. c #876411",
"-. c #94651E",
";. c #997D16",
":. c #917107",
">. c #A36B02",
",. c #A76604",
"<. c #B66506",
"1. c #A97504",
"2. c #B87408",
"3. c #A47716",
"4. c #B26A16",
"5. c #885A27",
"6. c #94502F",
"7. c #866924",
"8. c #8C752B",
"9. c #DB5600",
"0. c #C36902",
"q. c #CF7A02",
"w. c #E37C00",
"e. c #955153",
"r. c #864A4C",
"t. c #AF5859",
"y. c #987755",
"u. c #847A78",
"i. c #0E8D1C",
"p. c #099025",
"a. c #268F2D",
"s. c #04AB26",
"d. c #02BA2B",
"f. c #5A8E2B",
"g. c #50875B",
"h. c #578761",
"j. c #768E78",
"k. c #9F841C",
"l. c #AA8400",
"z. c #B98601",
"x. c #B99300",
"c. c #B39215",
"v. c #B2881A",
"b. c #AE8B24",
"n. c #C9870A",
"m. c #D78902",
"M. c #CE9700",
"N. c #DB9B00",
"B. c #D69806",
"V. c #CB971C",
"C. c #E49A01",
"Z. c #FC9600",
"A. c #FF9A01",
"S. c #F69B05",
"D. c #E8910E",
"F. c #D7A706",
"G. c #D9A715",
"H. c #CCA402",
"J. c #E7A903",
"K. c #FFA204",
"L. c #F2AE00",
"P. c #FEA30A",
"I. c #FDAB04",
"U. c #EAB201",
"Y. c #F4B401",
"T. c #FBBD00",
"R. c #F5B901",
"E. c #FFAC13",
"W. c #FFB41C",
"Q. c #E6BB10",
"!. c #F19B22",
"~. c #FFBC25",
"^. c #FFB92A",
"/. c #FFBE34",
"(. c #FFAD20",
"). c #D9B430",
"_. c #FCC400",
"`. c #FFCB00",
"'. c #F8C505",
"]. c #FFD000",
"[. c #FFD515",
"{. c #FCCB19",
"}. c #FFC329",
"|. c #FFD928",
" X c #FFC835",
".X c #FFE13D",
"XX c #A68258",
"oX c #A6944D",
"OX c #9B9C7C",
"+X c #939376",
"@X c #968B6B",
"#X c #A39573",
"$X c #A9A874",
"%X c #9B8E50",
"&X c #FFCA47",
"*X c #FFD457",
"=X c #F4CD45",
"-X c #FFE74F",
";X c #FFDB75",
":X c #FFD763",
">X c #FFE47F",
",X c #7BA983",
"<X c #818182",
"1X c #89898A",
"2X c #959595",
"3X c #9A9A9B",
"4X c #918F92",
"5X c #A4A481",
"6X c #B7B785",
"7X c #B8B890",
"8X c #9EB7A4",
"9X c #A3A3A4",
"0X c #ABAAAA",
"qX c #B7B8B7",
"wX c #ADB0B4",
"eX c #C6C788",
"rX c #D5D58B",
"tX c #D1D285",
"yX c #D4D492",
"uX c #FFE589",
"iX c #E8E996",
"pX c #FFE797",
"aX c #FFFF9A",
"sX c #F3F496",
"dX c #E6E68A",
"fX c #C9C2B5",
"gX c #FFEEB6",
"hX c #FFEFAB",
"jX c #BFC1C2",
"kX c #C8C8C9",
"lX c #D8D8D9",
"zX c #D7CFD1",
"xX c #FFF5C3",
"cX c #FFF9D5",
"vX c #FFFCE7",
"bX c #F2F1F2",
"nX c #FFFFFE",
"mX c #F9F7F8",
"MX c #E6E6E9",
"NX c None",
/* pixels */
"NXNXNXNXNXNXNXNXNXNXNXNXNXNXNXNXNXNXNXNXNXNXNXNXNXNXNXNXNXNXNXNXNXNXNXNXNXNXNXNXNXNXNXNXNXNXNXNXNXNXNXNXNXNXNXNXNXNXNXNXNXNXNXNX",
"NXNXNXNXNXNXNXNXNXNXNXNXNXNXNXNXNXNXNXNXNXNXNXNXNXNXNXNXNXNXNXNXNXNXNXNXNXNXNXNXNXNXNXNXNXNXNXNXNXNXNXNXNXNXNXNXNXNXNXNXNXNXNXNX",
"NXNXNXNXNXNXNXNXNXNXNXNXNXNXNXNXNXNXNXNXNXNXNXNXNXNXNXNXNXNXNXNXNXNXNXNXNXNXNXNXNXNXNXNXNXNXNXNXNXNXNXNXNXNXNXNXNXNXNXNXNXNXNXNX",
"NXNXNXNXNXNXNXNXNXNXNXNXNXNXNXNXNXNXNXNXNXNXNXNXNXNXNXNXNXNXNXNXNXNXNXNXNXNXNXNXNXNXNXNXNXNXNXNXNXNXNXNXNXNXNXNXNXNXNXNXNXNXNXNX",
"NXNXNXNXNXNXNXNXNXNXNXNXNXNXNXNXNXNXNXNXNXNXNXNXNXNXNXNXNXNXNXNXNXNXNXNXNXNXNXNXNXNXNXNXNXNXNXNXNXNXNXNXNXNXNXNXNXNXNXNXNXNXNXNX",
"NXNXNXNXNXNXNXNXNXNXNXNXNXNXNXNXNXNXNXNXNXNXNXNXNXNXNXNXNXNXNXNXNXNXNXNXNXNXNXNXNXNXNXNXNXNXNXNXNXNXNXNXNXNXNXNXNXNXNXNXNXNXNXNX",
"NXNXNXNXNXNXNXNXNXNXNXNXNXNXNXNXNXNXNXNXNXNXNXNXNXNXNXNXNXNXNXNXNXNXNXNXNXNXNXNXNXNXNXNXNXNXNXNXNXNXNXNXNXNXNXNXNXNXNXNXNXNXNXNX",
"NXNXNXNXNXNXNXNXNXNXNXNXNXNXNXNXNXNXNXNXNXNXNXNXNXNXNXNXNXNXNXNXNXNXNXNXNXNXNXNXNXNXNXNXNXNXNXNXNXNXNXNXNXNXNXNXNXNXNXNXNXNXNXNX",
"NXNXNXNXNXNXNXNXNXNXNXNXNXNXNXNXNXNXNXNXNXNXNXNXNXNXNXNXNXNXNXNXNXNXNXNXNXNXNXNXNXNXNXNXNXNXNXNXNXNXNXNXNXNXNXNXNXNXNXNXNXNXNXNX",
"NXNXNXNXNXNXNXNXNXNXNXNXNXNXNXNXNXNXNXNXNXNXNXNXNXNXNXNXNXNXNXNXNXNXNXNXNXNXNXNXNXNXNXNXNXNXNXNXNXNXNXNXNXNXNXNXNXNXNXNXNXNXNXNX",
"NXNXNXNXNXNXNXNXNXNXNXNXNXNXNXNXNXNXNXNXNXNXNXNXNXNXNXNXNXNXNXNXNXNXNXNXNXNXNXNXNXNXNXNXNXNXNXNXNXNXNXNXNXNXNXNXNXNXNXNXNXNXNXNX",
"NXNXNXNXNXNXNXNXNXNXNXNXNXNXNXNXNXNXNXNXNXNXNXNXNXNXNXNXNXNXNXNXNXNXNXNXNXNXNXNXNXNXNXNXNXNXNXNXNXNXNXNXNXNXNXNXNXNXNXNXNXNXNXNX",
"NXNXNXNXNXNXNXNXNXNXNXNXNXNXNXNXNXNXNXNXNXNXNXNXNXNXNXNXNXNXNXNXNXNXNXNXNXNXNXNXNXNXNXNXNXNXNXNXNXNXNXNXNXNXNXNXNXNXNXNXNXNXNXNX",
"NXNXNXNXNXNXNXNXNXNXNXNXNXNXNXNXNXNXNXNXNXNXNXNXNXNXNXNXNXNXNXNXNXNXNXNXNXNXNXNXNXNXNXNXNXNXNXNXNXNXNXNXNXNXNXNXNXNXNXNXNXNXNXNX",
"NXNXNXNXNXNXNXNXNXNXNXNXNXNXNXNXNXNXNXNXNXNXNXNXNXNXNXNXNXNXNXNXNXNXNXNXNXNXNXNXNXNXNXNXNXNXNXNXNXNXNXNXNXNXNXNXNXNXNXNXNXNXNXNX",
"NXNXNXNXNXNXNXNXNXNXNXNXNXNXNXNXNXNXNXNXNXNXNXNXNXNXNXNXNXNXNXNXNXNXNXNXNXNXNXNXNXNXNX% 9 - $ $ NXNXNXNXNXNXNXNXNXNXNXNXNXNXNXNX",
"NXNXNXNXNXNXNXNXNXNXNXNXNXNXNXNXNXNXNXNXNXNXNXNXNXNXNXNXNXNXNXNXNXNXNXNXNXNXNXNXNXNXX _ ( $ 3XF   . . NXNXNXNX  NXNXNXNXNXNXNXNX",
"NXNXNXNXNXNXNXNXNXNXNXNXNXNXNXNXNXNXNXNXNXNXNXNXNXNXNXNXNXNXNXNXNXNXNXNXNXNXNX0 NXNX'  .: , lXe.U ^ e + = < +.&.NXNXNXNXNXNXNXNX",
"NXNXNXNXNXNXNXNXNXNXNXNXNXNXNXNXNXNXNXNXNXNXNXNXNXNXNXNXNXNXNXNXNXNXNXNXNXNXNX7 NX% |  .| ' J S y.MXj.O O ;.`.*.NXNXNXNXNXNXNXNX",
"NXNXNXNXNXNXNXNXNXNXNXNXNXNXNXNXNXNXNXNXNXNXNXNXNXNXNXNXNXNXNXNXNXNXNXNXNXNXNX3.0 :  . ...} ( *.b.MXbXqXI A F.k NXNXNXNXNXNXNXNX",
"NXNXNXNXNXNXNXNXNXNXNXNXNXNXNXNXNXNXNXNXNXNXNXNXNXNXNXNXNXNXNXNXNXNXNXNXNXNX1 M.h (  .| o.| ) M.b.lXnXnXlXI 8.d NXNXNXNXNXNXNXNX",
"NXNXNXNXNXNXNXNXNXNXNXNXNXNXNXNXNXNXNXNXNXNXNXNXNXNXNXNXNXNXNXNXNXNXNXNXNXNX< J.k : o.N * 9 k _.k.0XlXbXnXqXi * NXNXNXNXNXNXNXNX",
"NXNXNXNXNXNXNXNXNXNXNXNXNXNXNXNXNXNXNXNXNXNXNXNXNXNXNXNXNXNXNXNXNXNXNXNXNXNXC -.9 4 a.7 ` f M.`.k 2 ^ kXbXmXQ $ NXNXNXNXNXNXNXNX",
"NXNXNXNXNXNXNXNXNXNXNXNXNXNXNXNXNXNXNXNXNXNXNXNXNXNXNXNXNXNXNXNXNXNXNXNXNXNXF ) 8 s.r ..} > N.U.x M.&.P ,XMX8Xu NXNXNXNXNXNXNXNX",
"NXNXNXNXNXNXNXNXNXNXNXNXNXNXNXNXNXNXNXNXNXNXNXNXNXNXNXNXNXNXNXNXNXNXNXNXNXNXNX_ v p.] ..> M m.0.:.].I.7 F 2XlXp i NXNXNXNXNXNXNX",
"NXNXNXNXNXNXNXNXNXNXNXNXNXNXNXNXNXNXNXNXNXNXNXNXNXNXNXNXNXNXNXNXNXNXNXNXNXNXNXo a.y | t.h.s.f.V c.].2.Q 3XP qXD s NXNXNXNXNXNXNX",
"NXNXNXNXNXNXNXNXNXNXNXNXNXNXNXNXNXNXNXNXNXNXNXNXNXNXNXNXNXNXNXNXNXNXNXNXNXNX6 z a u 9 zX,Xd.d.t c.'.x ,X2XJ 2Xg.p NXNXNXNXNXNXNX",
"NXNXNXNXNXNXNXNXNXNXNXNXNXNXNXNXNXNXNXNXNXNXNXNXNXNXNXNXNXNXNXNXNXNXNXNXNXn M.'.:.e { fXH e i.t ;.1.J Q Q m P j.p.& NXNXNXNXNXNX",
"NXNXNXNXNXNXNXNXNXNXNXNXNXNXNXNXNXNXNXNXNXNXNXNXNXNXNXNXNXNXNXNXNXNXNXNXNXV =XG.J.5.^ Y :.B.k u d M W ! H 1.k./ a.i ; NXNXNXNXNX",
"NXNXNXNXNXNXNXNXNXNXNXNXNXNXNXNXNXNXNXNXNXNXNXNXNXNXNXNXNXNXNXNXNXNXNXNXf v.).V.L.C.G.n.{.[.T.&.@ H Q E S _.'.S p A j 0 NXNXNXNX",
"NXNXNXNXNXNXNXNXNXNXNXNXNXNXNXNXNXNXNXNXNXNXNXNXNXNXNXNXNXNXNXNXNXNXNXNX5.S.I._.`.|.[.`.`.L.`.U.m 1X2XH H.].].z.t f.U.:.NXNXNXNX",
"NXNXNXNXNXNXNXNXNXNXNXNXNXNXNXNXNXNXNXNXNXNXNXNXNXNXNXNXNXNXNXNXNXNXNXNX,.A.A.I.T.-X|.'.J.0.m._.7.<X+Xx '.`.`.U.y p.G.=.NXNXNXNX",
"NXNXNXNXNXNXNXNXNXNXNXNXNXNXNXNXNXNXNXNXNXNXNXNXNXNXNXNXNXNXNXNXNXNXNXNXZ.E.E.A.I.'.`._.2.q 4.Y.j J M M.[.[.`._.b t z q NXNXNXNX",
"NXNXNXNXNXNXNXNXNXNXNXNXNXNXNXNXNXNXNXNXNXNXNXNXNXNXNXNXNXNXNXA.NXNXNXA.A.}.W.A.K._.`.C.] , $.m.l = 1 T.`.`.`.].l.e . NXNXNXNXNX",
"NXNXNXNXNXNXNXNXNXNXNXNXNXNXNXNXNXNXNXNXNXNXNXNXNXNXNXNXNXNXNXA.A.NXNXA.W.:X*X}.E.I.m.<.r.( $.<.oX$XC B.].]._.F.:.O NXNXNXNXNXNX",
"NXNXNXNXNXNXNXNXNXNXNXNXNXNXNXNXNXNXNXNXNXNXNXNXNXNXNXNXNXNXA.K.A.NXA.E. XpXuX&X^.w.$.C e.8 $.-.sXiX~ >.m.:.k 0 $ = NXNXNXNXNXNX",
"NXNXNXNXNXNXNXNXNXNXNXNXNXNXNXNXNXNXNXNXNXNXNXNXNXNXNXNXNXA.A.}.A.Z.Z.^.>XvXhXuX(.!.y._ e.U $.8.rX5XOX# 2 F G E Q G NXNXNXNXNXNX",
"NXNXNXNXNXNXNXNXNXNXNXNXNXNXNXNXNXNXNXNXNXNXNXNXNXNXNXNXA.A.E.&X(.E.P. XvXnXnXcX&XD.{ ` e.V %.Y 5XiXrXF Q Q W ! 9XW NXNXNXNXNXNX",
"NXNXNXNXNXNXNXNXNXNXNXNXNXNXNXNXNXNXNXNXNXNXNXNXNXNXNXNXA.E. XpX*X XE./.vXnXnXcX^.9.` t.r.5.#.@XaXaXrXH 9X2XW Q 9XR NXNXNXNXNXNX",
"NXNXNXNXNXNXNXNXNXNXNXNXNXNXNXNXNXNXNXNXNXNXNXNXNXNXNXNXA.}.*XcX;X*XE.E.hXnXnX;X!.[ > 9Xu.#.@.tXaXaXrXH 1X<XW ! Q F   NXNXNXNXNX",
"NXNXNXNXNXNXNXNXNXNXNXNXNXNXNXNXNXNXNXNXNXNXNXNXNXNXNXNXP.*XcXnXgXpX}.K.*XcXgX/.D.O.k XX@Xm.7.sXaXyX+X= = = = - - * . NXNXNXNXNX",
"NXNXNXNXNXNXNXNXNXNXNXNXNXNXNXNXNXNXNXNXNXNXNXNXNXNXNXNXK.;XnXnXnXxX^.Z.S.^.W.A.I._.`.L.Q.N.C yXOXOXOXh >.x.x.x.>.1 @ NXNXNXNXNX",
"NXNXNXNXNXNXNXNXNXNXNXNXNXNXNXNXNXNXNXNXNXNXNXNXNXNXNXNXA.&XvXnXnXpXE.NX2.A.A.m.R.L.L._.].z.T $XyXiXoXF.`.].].].`.x $ NXNXNXNXNX",
"NXNXNXNXNXNXNXNXNXNXNXNXNXNXNXNXNXNXNXNXNXNXNXNXNXNXNXNXZ.W.xXnXcX&XI.NX*.T._.z.<.@.j N.N.V rXaXaXsX-.R..X[.].`.`.>.* NXNXNXNXNX",
"NXNXNXNXNXNXNXNXNXNXNXNXNXNXNXNXNXNXNXNXNXNXNXNXNXNXNXNXNXK.&XhX*XA.A.NX*.'.'.U.h 4 w 5 X $XaXaXsX#X,.R.-X[.`.`.`.>.@ NXNXNXNXNX",
"NXNXNXNXNXNXNXNXNXNXNXNXNXNXNXNXNXNXNXNXNXNXNXNXNXNXNXNXNXA.P.W.E.A.Z.NXz R.8.0.0.j @.+.* Y 5X6X5X~ +.Y.`.].`.`._.O.NXNXNXNXNXNX",
"NXNXNXNXNXNXNXNXNXNXNXNXNXNXNXNXNXNXNXNXNXNXNXNXNXNXNXNXNXNXNXZ.Z.NXNXNX3 q.+.q n 7 z $.1 - q +X7X6XB <.`.'.`.`.L.1 NXNXNXNXNXNX",
"NXNXNXNXNXNXNXNXNXNXNXNXNXNXNXNXNXNXNXNXNXNXNXNXNXNXNXNXNXNXNXNXNXNXNXNXNXj 0.-.B h k.q.6 NXNXG @XOX/ 3 J.B.Y.J.,.O.0 NXNXNXNXNX",
"NXNXNXNXNXNXNXNXNXNXNXNXNXNXNXNXNXNXNXNXNXNXNXNXNXNXNXNXNXNXNXNXNXNXNXNXNXL 3 5 4 H.Y.<.q NXNXNXNX$ $ $ 4 B 0.h &.N.4 NXNXNXNXNX",
"NXNXNXNXNXNXNXNXNXNXNXNXNXNXNXNXNXNXNXNXNXNXNXNXNXNXNXNXNXNXNXNXNXNXNXNXNX<XwX#XB.J.+.2 NXNXNXNXNXNXNXNXNX0 d x.n.XXM NXNXNXNXNX",
"NXNXNXNXNXNXNXNXNXNXNXNXNXNXNXNXNXNXNXNXNXNXNXNXNXNXNXNXNXNXNXNXNXNXNXNXNXF ^ W h 1 X NXNXNXNXNXNXNXNXNXNX7 q.v.#XjX<XNXNXNXNXNX",
"NXNXNXNXNXNXNXNXNXNXNXNXNXNXNXNXNXNXNXNXNXNXNXNXNXNXNXNXNXNXNXNXNXNXNXNXNXNXNXNXNXNXNXNXNXNXNXNXNXNXNXNXNXNXV 0XjXkX1XNXNXNXNXNX",
"NXNXNXNXNXNXNXNXNXNXNXNXNXNXNXNXNXNXNXNXNXNXNXNXNXNXNXNXNXNXNXNXNXNXNXNXNXNXNXNXNXNXNXNXNXNXNXNXNXNXNXNXNXNX- 3X0X^ F NXNXNXNXNX",
"NXNXNXNXNXNXNXNXNXNXNXNXNXNXNXNXNXNXNXNXNXNXNXNXNXNXNXNXNXNXNXNXNXNXNXNXNXNXNXNXNXNXNXNXNXNXNXNXNXNXNXNXNXNXNX- = NXNXNXNXNXNXNX",
"NXNXNXNXNXNXNXNXNXNXNXNXNXNXNXNXNXNXNXNXNXNXNXNXNXNXNXNXNXNXNXNXNXNXNXNXNXNXNXNXNXNXNXNXNXNXNXNXNXNXNXNXNXNXNXNXNXNXNXNXNXNXNXNX",
"NXNXNXNXNXNXNXNXNXNXNXNXNXNXNXNXNXNXNXNXNXNXNXNXNXNXNXNXNXNXNXNXNXNXNXNXNXNXNXNXNXNXNXNXNXNXNXNXNXNXNXNXNXNXNXNXNXNXNXNXNXNXNXNX",
"NXNXNXNXNXNXNXNXNXNXNXNXNXNXNXNXNXNXNXNXNXNXNXNXNXNXNXNXNXNXNXNXNXNXNXNXNXNXNXNXNXNXNXNXNXNXNXNXNXNXNXNXNXNXNXNXNXNXNXNXNXNXNXNX",
"NXNXNXNXNXNXNXNXNXNXNXNXNXNXNXNXNXNXNXNXNXNXNXNXNXNXNXNXNXNXNXNXNXNXNXNXNXNXNXNXNXNXNXNXNXNXNXNXNXNXNXNXNXNXNXNXNXNXNXNXNXNXNXNX",
"NXNXNXNXNXNXNXNXNXNXNXNXNXNXNXNXNXNXNXNXNXNXNXNXNXNXNXNXNXNXNXNXNXNXNXNXNXNXNXNXNXNXNXNXNXNXNXNXNXNXNXNXNXNXNXNXNXNXNXNXNXNXNXNX",
"NXNXNXNXNXNXNXNXNXNXNXNXNXNXNXNXNXNXNXNXNXNXNXNXNXNXNXNXNXNXNXNXNXNXNXNXNXNXNXNXNXNXNXNXNXNXNXNXNXNXNXNXNXNXNXNXNXNXNXNXNXNXNXNX",
"NXNXNXNXNXNXNXNXNXNXNXNXNXNXNXNXNXNXNXNXNXNXNXNXNXNXNXNXNXNXNXNXNXNXNXNXNXNXNXNXNXNXNXNXNXNXNXNXNXNXNXNXNXNXNXNXNXNXNXNXNXNXNXNX",
"NXNXNXNXNXNXNXNXNXNXNXNXNXNXNXNXNXNXNXNXNXNXNXNXNXNXNXNXNXNXNXNXNXNXNXNXNXNXNXNXNXNXNXNXNXNXNXNXNXNXNXNXNXNXNXNXNXNXNXNXNXNXNXNX",
"NXNXNXNXNXNXNXNXNXNXNXNXNXNXNXNXNXNXNXNXNXNXNXNXNXNXNXNXNXNXNXNXNXNXNXNXNXNXNXNXNXNXNXNXNXNXNXNXNXNXNXNXNXNXNXNXNXNXNXNXNXNXNXNX",
"NXNXNXNXNXNXNXNXNXNXNXNXNXNXNXNXNXNXNXNXNXNXNXNXNXNXNXNXNXNXNXNXNXNXNXNXNXNXNXNXNXNXNXNXNXNXNXNXNXNXNXNXNXNXNXNXNXNXNXNXNXNXNXNX"
};
