/* XPM */
static char *result[] = {
/* columns rows colors chars-per-pixel */
"64 64 234 2 ",
"   c #0B0B0C",
".  c #130704",
"X  c #1B1A18",
"o  c #2C170C",
"O  c #083B02",
"+  c #10260E",
"@  c #342616",
"#  c #342316",
"$  c #282926",
"%  c #3A2622",
"&  c #36322D",
"*  c #383838",
"=  c #28302A",
"-  c #7C0709",
";  c #621E1A",
":  c #6D120B",
">  c #472709",
",  c #5B360D",
"<  c #4C3417",
"1  c #553716",
"2  c #4F2E10",
"3  c #663805",
"4  c #793B03",
"5  c #663C13",
"6  c #7E2C1A",
"7  c #483728",
"8  c #443933",
"9  c #4A2B26",
"0  c #632C26",
"q  c #2F4F16",
"w  c #096E12",
"e  c #256116",
"r  c #374538",
"t  c #126C23",
"y  c #177128",
"u  c #36622F",
"i  c #104E17",
"p  c #5C420E",
"a  c #4E4613",
"s  c #694401",
"d  c #784B09",
"f  c #674715",
"g  c #774A17",
"h  c #7B5814",
"j  c #7A6202",
"k  c #7C7800",
"l  c #5A4126",
"z  c #474139",
"x  c #495832",
"c  c #664824",
"v  c #6E5325",
"b  c #795527",
"n  c #675C37",
"m  c #614830",
"M  c #6B682E",
"N  c #4D6918",
"B  c #3D3E40",
"V  c #3D4140",
"C  c #377544",
"Z  c #484747",
"A  c #564E45",
"S  c #56534A",
"D  c #4B4C51",
"F  c #555555",
"G  c #5A5A5A",
"H  c #4E5054",
"J  c #6A5741",
"K  c #4B694C",
"L  c #726957",
"P  c #746D53",
"I  c #646565",
"U  c #6B6B6B",
"Y  c #666769",
"T  c #726E6B",
"R  c #787979",
"E  c #73766B",
"W  c #890504",
"Q  c #920803",
"!  c #831D0A",
"~  c #961716",
"^  c #B60607",
"/  c #B00A0B",
"(  c #803516",
")  c #AA3126",
"_  c #D80505",
"`  c #D21611",
"'  c #FC0100",
"]  c #F60000",
"[  c #E90B0C",
"{  c #844804",
"}  c #855A06",
"|  c #945804",
" . c #885916",
".. c #925A15",
"X. c #A55603",
"o. c #B35C02",
"O. c #9D6A05",
"+. c #9B7206",
"@. c #976419",
"#. c #8A6E0F",
"$. c #A96706",
"%. c #B86906",
"&. c #A87A06",
"*. c #BB7801",
"=. c #A86B14",
"-. c #B66D19",
";. c #8B5425",
":. c #976425",
">. c #8F6A2B",
",. c #C76A00",
"<. c #C97502",
"1. c #D37A02",
"2. c #DD6D04",
"3. c #F57103",
"4. c #806E41",
"5. c #A55A5A",
"6. c #3C8014",
"7. c #0E8725",
"8. c #1C9028",
"9. c #138927",
"0. c #02B226",
"q. c #00A721",
"w. c #269328",
"e. c #578A28",
"r. c #4F8011",
"t. c #00C32F",
"y. c #78A67F",
"u. c #5F8E66",
"i. c #9F861F",
"p. c #BC8201",
"a. c #B0880D",
"s. c #AC8D1D",
"d. c #B08C0B",
"f. c #9D813F",
"g. c #AD8C28",
"h. c #C68902",
"j. c #D88704",
"k. c #D49A00",
"l. c #D89703",
"z. c #CC9413",
"x. c #E99903",
"c. c #FC9701",
"v. c #FF9A01",
"b. c #F79808",
"n. c #E8920F",
"m. c #DBA300",
"M. c #CFA310",
"N. c #EBAD01",
"B. c #E7A503",
"V. c #FFA104",
"C. c #FFA40B",
"Z. c #F9AB00",
"A. c #EDB302",
"S. c #E7B901",
"D. c #F5BB01",
"F. c #F9B600",
"G. c #FFAD13",
"H. c #F7A616",
"J. c #FFB31A",
"K. c #FFB317",
"L. c #E2B412",
"P. c #DC9625",
"I. c #DDB923",
"U. c #FFBA22",
"Y. c #FFB628",
"T. c #FFBD37",
"R. c #FCC301",
"E. c #FFCC00",
"W. c #F3C306",
"Q. c #FFD100",
"!. c #FFD10D",
"~. c #FFD517",
"^. c #FECF17",
"/. c #FFC52B",
"(. c #FFCC3C",
"). c #FFC534",
"_. c #FFD631",
"`. c #A9804E",
"'. c #888972",
"]. c #93926E",
"[. c #ABA364",
"{. c #A9A97C",
"}. c #BDB86B",
"|. c #FFCB49",
" X c #FFD34B",
".X c #FFCA56",
"XX c #FFD75D",
"oX c #E5C54B",
"OX c #FFEC5E",
"+X c #CCCB7E",
"@X c #FFDA66",
"#X c #FFDC6A",
"$X c #FFD460",
"%X c #FFDA73",
"&X c #FFE07A",
"*X c #7F8284",
"=X c #8A8A8B",
"-X c #838384",
";X c #9B9883",
":X c #949495",
">X c #99989A",
",X c #A09080",
"<X c #91AA99",
"1X c #A9A984",
"2X c #BBBB8A",
"3X c #A3A2A3",
"4X c #B3B3B3",
"5X c #BBBBBC",
"6X c #B5B3AA",
"7X c #CECE8C",
"8X c #D7D78A",
"9X c #D7D790",
"0X c #FFDE84",
"qX c #FFE58F",
"wX c #EEEE98",
"eX c #FFE99A",
"rX c #FEFE9A",
"tX c #F3F497",
"yX c #E2E38B",
"uX c #FFEAA5",
"iX c #FFF2B9",
"pX c #FFEFBD",
"aX c #BBBDC0",
"sX c #C5C6C6",
"dX c #D7D7D7",
"fX c #E5D6D9",
"gX c #FFF4C8",
"hX c #FFF9D9",
"jX c #DFE0E3",
"kX c #E9E9EA",
"lX c #FFFCE9",
"zX c #FFFFFE",
"xX c #FCFBF5",
"cX c None",
/* pixels */
"cXcXcXcXcXcXcXcXcXcXcXcXcXcXcXcXcXcXcXcXcXcXcXcXcXcXcXcXcXcXcXcXcXcXcXcXcXcXcXcXcXcXcXcXcXcXcXcXcXcXcXcXcXcXcXcXcXcXcXcXcXcXcXcX",
"cXcXcXcXcXcXcXcXcXcXcXcXcXcXcXcXcXcXcXcXcXcXcXcXcXcXcXcXcXcXcXcXcXcXcXcXcXcXcXcXcXcXcXcXcXcXcXcXcXcXcXcXcXcXcXcXcXcXcXcXcXcXcXcX",
"cXcXcXcXcXcXcXcXcXcXcXcXcXcXcXcXcXcXcXcXcXcXcXcXcXcXcXcXcXcXcXcXcXcXcXcXcXcXcXcXcXcXcXcXcXcXcXcXcXcXcXcXcXcXcXcXcXcXcXcXcXcXcXcX",
"cXcXcXcXcXcXcXcXcXcXcXcXcXcXcXcXcXcXcXcXcXcXcXcXcXcXcXcXcXcXcXcXcXcXcXcXcXcXcXcXcXcXcXcXcXcXcXcXcXcXcXcXcXcXcXcXcXcXcXcXcXcXcXcX",
"cXcXcXcXcXcXcXcXcXcXcXcXcXcXcXcXcXcXcXcXcXcXcXcXcXcXcXcXcXcXcXcXcXcXcXcXcXcXcXcXcXcXcXcXcXcXcXcXcXcXcXcXcXcXcXcXcXcXcXcXcXcXcXcX",
"cXcXcXcXcXcXcXcXcXcXcXcXcXcXcXcXcXcXcXcXcXcXcXcXcXcXcXcXcXcXcXcXcXcXcXcXcXcXcXcXcXcXcXcXcXcXcXcXcXcXcXcXcXcXcXcXcXcXcXcXcXcXcXcX",
"cXcXcXcXcXcXcXcXcXcXcXcXcXcXcXcXcXcXcXcXcXcXcXcXcXcXcXcXcXcXcXcXcXcXcXcXcXcXcXcXcXcXcXcXcXcXcXcXcXcXcXcXcXcXcXcXcXcXcXcXcXcXcXcX",
"cXcXcXcXcXcXcXcXcXcXcXcXcXcXcXcXcXcXcXcXcXcXcXcXcXcXcXcXcXcXcXcXcXcXcXcXcXcXcXcXcXcXcXcXcXcXcXcXcXcXcXcXcXcXcXcXcXcXcXcXcXcXcXcX",
"cXcXcXcXcXcXcXcXcXcXcXcXcXcXcXcXcXcXcXcXcXcXcXcXcXcXcXcXcXcXcXcXcXcXcXcXcXcXcXcXcXcXcXcXcXcXcXcXcXcXcXcXcXcXcXcXcXcXcXcXcXcXcXcX",
"cXcXcXcXcXcXcXcXcXcXcXcXcXcXcXcXcXcXcXcXcXcXcXcXcXcXcXcXcXcXcXcXcXcXcXcXcXcXcXcXcXcXcXcXcXcXcXcXcXcXcXcXcXcXcXcXcXcXcXcXcXcXcXcX",
"cXcXcXcXcXcXcXcXcXcXcXcXcXcXcXcXcXcXcXcXcXcXcXcXcXcXcXcXcXcXcXcXcXcXcXcXcXcXcXcXcXcXcXcXcXcXcXcXcXcXcXcXcXcXcXcXcXcXcXcXcXcXcXcX",
"cXcXcXcXcXcXcXcXcXcXcXcXcXcXcXcXcXcXcXcXcXcXcXcXcXcXcXcXcXcXcXcXcXcXcXcXcXcXcXcXcXcXcXcXcXcXcXcXcXcXcXcXcXcXcXcXcXcXcXcXcXcXcXcX",
"cXcXcXcXcXcXcXcXcXcXcXcXcXcXcXcXcXcXcXcXcXcXcXcXcXcXcXcXcXcXcXcXcXcXcXcXcXcXcXcXcXcXcXcXcXcXcXcXcXcXcXcXcXcXcXcXcXcXcXcXcXcXcXcX",
"cXcXcXcXcXcXcXcXcXcXcXcXcXcXcXcXcXcXcXcXcXcXcXcXcXcXcXcXcXcXcXcXcXcXcXcXcXcXcXcXcXcXcX# ; cXcXcXcXcXcXcXcXcXcXcXcXcXcXcXcXcXcXcX",
"cXcXcXcXcXcXcXcXcXcXcXcXcXcXcXcXcXcXcXcXcXcXcXcXcXcXcXcXcXcXcXcXcXcXcXcXcXcXcXcXcXcXo / Q     $ cXcXcXcXcXcXcXcXcXcXcXcXcXcXcXcX",
"cXcXcXcXcXcXcXcXcXcXcXcXcXcXcXcXcXcXcXcXcXcXcXcXcXcXcXcXcXcXcXcXcXcXcXcXcXcXcX7 cXcX^ ' W : Y m o X cXcXcXcXcXcXcXcXcXcXcXcXcXcX",
"cXcXcXcXcXcXcXcXcXcXcXcXcXcXcXcXcXcXcXcXcXcXcXcXcXcXcXcXcXcXcXcXcXcXcXcXcXcXcX5 cX> ` ] _ ^ 8 b f V + + cXX s s cXcXcXcXcXcXcXcX",
"cXcXcXcXcXcXcXcXcXcXcXcXcXcXcXcXcXcXcXcXcXcXcXcXcXcXcXcXcXcXcXcXcXcXcXcXcXcXcX&.m Q ' ' ' _ Q &.g.sXK O + #.D.O.cXcXcXcXcXcXcXcX",
"cXcXcXcXcXcXcXcXcXcXcXcXcXcXcXcXcXcXcXcXcXcXcXcXcXcXcXcXcXcXcXcXcXcXcXcXcXcX2 m.f W ] ` ) ` ! l.g.kXjXu.u M A.j cXcXcXcXcXcXcXcX",
"cXcXcXcXcXcXcXcXcXcXcXcXcXcXcXcXcXcXcXcXcXcXcXcXcXcXcXcXcXcXcXcXcXcXcXcXcXcX, l.s - ) Z % 9 } R.g.jXzXzXsXC i.s cXcXcXcXcXcXcXcX",
"cXcXcXcXcXcXcXcXcXcXcXcXcXcXcXcXcXcXcXcXcXcXcXcXcXcXcXcXcXcXcXcXcXcXcXcXcXcXJ ;.1 x 8.6 ^ p k.E.:.5XkXxXzX<Xu < cXcXcXcXcXcXcXcX",
"cXcXcXcXcXcXcXcXcXcXcXcXcXcXcXcXcXcXcXcXcXcXcXcXcXcXcXcXcXcXcXcXcXcXcXcXcXcXcX~ 4 q.q ] _ 6 l.N.f S 3XdXxXkXF & cXcXcXcXcXcXcXcX",
"cXcXcXcXcXcXcXcXcXcXcXcXcXcXcXcXcXcXcXcXcXcXcXcXcXcXcXcXcXcXcXcXcXcXcXcXcXcXcXW 6.9.~ [ ; x z.%.g %.f R 4XzX<Xi cXcXcXcXcXcXcXcX",
"cXcXcXcXcXcXcXcXcXcXcXcXcXcXcXcXcXcXcXcXcXcXcXcXcXcXcXcXcXcXcXcXcXcXcXcXcXcXcX# w.e.` 5.u.0.e.h a.E.A.p B 4XsXy cXcXcXcXcXcXcXcX",
"cXcXcXcXcXcXcXcXcXcXcXcXcXcXcXcXcXcXcXcXcXcXcXcXcXcXcXcXcXcXcXcXcXcXcXcXcXcX> @.e N 0 fXy.q.t.t s.Q.k.P -XI sXC C cXcXcXcXcXcXcX",
"cXcXcXcXcXcXcXcXcXcXcXcXcXcXcXcXcXcXcXcXcXcXcXcXcXcXcXcXcXcXcXcXcXcXcXcXcXl k.E.+.q 4.6Xx @ w w #.E.h =X3XG <XK t cXcXcXcXcXcXcX",
"cXcXcXcXcXcXcXcXcXcXcXcXcXcXcXcXcXcXcXcXcXcXcXcXcXcXcXcXcXcXcXcXcXcXcXcXcXb oXM.N.:.4.P d.L.} i r.l.A U U Z E y.7.cXcXcXcXcXcXcX",
"cXcXcXcXcXcXcXcXcXcXcXcXcXcXcXcXcXcXcXcXcXcXcXcXcXcXcXcXcXcXcXcXcXcXcXcXc z.I.P.Z.b.I.j.!.~.E.&.d g I Y G  .h E 7.r cXcXcXcXcXcX",
"cXcXcXcXcXcXcXcXcXcXcXcXcXcXcXcXcXcXcXcXcXcXcXcXcXcXcXcXcXcXcXcXcXcXcXcX;.F.E.E.F.V.Z.R.R.B.R.S.v Z I I n S.S.P 8.x 1 cXcXcXcXcX",
"cXcXcXcXcXcXcXcXcXcXcXcXcXcXcXcXcXcXcXcXcXcXcXcXcXcXcXcXcXcXcXcXcXcXcXcX} B.R.Z.c.C.v.F.j.%.j.R. .R -XS d.Q.E.&.t e.l.h cXcXcXcX",
"cXcXcXcXcXcXcXcXcXcXcXcXcXcXcXcXcXcXcXcXcXcXcXcXcXcXcXcXcXcXcXcXcXcXcXcX@.j.x.c.v./.C.v.-.8 -.Z.d :X:Xv W.Q.Q.B.w w.L.&.cXcXcXcX",
"cXcXcXcXcXcXcXcXcXcXcXcXcXcXcXcXcXcXcXcXcXcXcXcXcXcXcXcXcXcXcXcXcXcXv.b...,.-.b.U.#XY.K.2.: o.j.l U S p.~.!.E.F.N 9.O.l cXcXcXcX",
"cXcXcXcXcXcXcXcXcXcXcXcXcXcXcXcXcXcXcXcXcXcXcXcXcXcXcXcXcXcXcXcXcXcXb.V.1.| %.H.#XuX#X(.3.Q o.%.n * f D.Q.E.E.E.#.O X cXcXcXcXcX",
"cXcXcXcXcXcXcXcXcXcXcXcXcXcXcXcXcXcXcXcXcXcXcXcXcXcXcXcXcXcXcXcXcXv.v.U.v.j.c.T.gXlXiX&Xb.6 X.:.yX].1 B.Q.Q.E.E.d.O cXcXcXcXcXcX",
"cXcXcXcXcXcXcXcXcXcXcXcXcXcXcXcXcXcXcXcXcXcXcXcXcXcXcXcXcXv.cXcXv.v.K.(.G.v.c..XzXzXzXeXH.>.o.f.rXtXE h.A.m.*.p @ = cXcXcXcXcXcX",
"cXcXcXcXcXcXcXcXcXcXcXcXcXcXcXcXcXcXcXcXcXcXcXcXcXcXcXcXv.v.cXcXv.K.(.qX(.).c.Y.lXzXzX0XP.b X.}.wX1X'., , & & F I z cXcXcXcXcXcX",
"cXcXcXcXcXcXcXcXcXcXcXcXcXcXcXcXcXcXcXcXcXcXcXcXcXcXcXv.C.C.c.c.v./.#XgXXX|.v.C.qXzXiXT.-.;.X.'.{.7X7Xr F Y U I =XF cXcXcXcXcXcX",
"cXcXcXcXcXcXcXcXcXcXcXcXcXcXcXcXcXcXcXcXcXcXcXcXcXcXv.c.K.U.c.c.G.#XhXlXuX%XV.v.).eX Xv.>.X.g {.wXtX8XF :X=XI U 4XU cXcXcXcXcXcX",
"cXcXcXcXcXcXcXcXcXcXcXcXcXcXcXcXcXcXcXcXcXcXcXcXcXcXv.C.(. XJ.K.G.uXzXzXzXeXV.*.b.K.C.n.>.n.:.tXrXrX8XS >X=XI I u.F X cXcXcXcXcX",
"cXcXcXcXcXcXcXcXcXcXcXcXcXcXcXcXcXcXcXcXcXcXcXcXcXcXC./.#XeX XY.V.0XzXzXxX@Xn.g Z.Z.Z.D.^.m.4.rXrXtX1Xz H H D D D B   cXcXcXcXcX",
"cXcXcXcXcXcXcXcXcXcXcXcXcXcXcXcXcXcXcXcXcXcXcXcXcXcXG. XgXiX#X(.V.|.lXzXpXJ.$.p D.B.x.R.E.&.[.wX2X;X'.< s j j j 4 > # cXcXcXcXcX",
"cXcXcXcXcXcXcXcXcXcXcXcXcXcXcXcXcXcXcXcXcXcXcXcXcXcXU.pXzXlXhX@XC.C.#XiX.Xv.1.{ $.4 3 h.h.v '.].1X7X[.h.F.Q.Q.Q.D.h # cXcXcXcXcX",
"cXcXcXcXcXcXcXcXcXcXcXcXcXcXcXcXcXcXcXcXcXcXcXcXcXcXU.gXzXzXxXXXV.v.b.C.v.Z.R.A.s 7 l @ M 8XrXtXrXrX>.D.~.!.E.E.E.+.& cXcXcXcXcX",
"cXcXcXcXcXcXcXcXcXcXcXcXcXcXcXcXcXcXcXcXcXcXcXcXcXcXC.eXzXzXhX).v.cXc.c.x.R.E.R.1.3 < A {.tXrXrXrX+XO.R.OX_.E.E.E.$.# cXcXcXcXcX",
"cXcXcXcXcXcXcXcXcXcXcXcXcXcXcXcXcXcXcXcXcXcXcXcXcXcXv..XhXlX%XC.cXcXcXcX| R.s.j.1.d 4 ;.8 ].9X9X2XL | F.!.E.E.E.R.O.. cXcXcXcXcX",
"cXcXcXcXcXcXcXcXcXcXcXcXcXcXcXcXcXcXcXcXcXcXcXcXcXcXv.C.XX@XG.v.cXcXcXcX1 l. .c g 5 { $.1 B S ].1X1Xg j.E.E.E.E.A.3 cXcXcXcXcXcX",
"cXcXcXcXcXcXcXcXcXcXcXcXcXcXcXcXcXcXcXcXcXcXcXcXcXcXcXv.C.C.v.v.cXcXcXcX8 | ,.b m < @.<.3 cX* S 1X2XG f D.N.R.R.*.3 cXcXcXcXcXcX",
"cXcXcXcXcXcXcXcXcXcXcXcXcXcXcXcXcXcXcXcXcXcXcXcXcXcXcXcXcXv.cXcXcXcXcXcXcX8 4 4 5 a.D.%.1 cXcXcX$ * Z @ } >.j. .} k.1 cXcXcXcXcX",
"cXcXcXcXcXcXcXcXcXcXcXcXcXcXcXcXcXcXcXcXcXcXcXcXcXcXcXcXcXcXcXcXcXcXcXcXcX-X*XL d.D.<., cXcXcXcXcXcXcXcX& & 5 O.p.g.c cXcXcXcXcX",
"cXcXcXcXcXcXcXcXcXcXcXcXcXcXcXcXcXcXcXcXcXcXcXcXcXcXcXcXcXcXcXcXcXcXcXcXcXF 3X;X=.{ o cXcXcXcXcXcXcXcXcXcX5 *.z.5.6XE cXcXcXcXcX",
"cXcXcXcXcXcXcXcXcXcXcXcXcXcXcXcXcXcXcXcXcXcXcXcXcXcXcXcXcXcXcXcXcXcXcXcXcXcXcXcXcXcXcXcXcXcXcXcXcXcXcXcXcXz ..].5XdX:XcXcXcXcXcX",
"cXcXcXcXcXcXcXcXcXcXcXcXcXcXcXcXcXcXcXcXcXcXcXcXcXcXcXcXcXcXcXcXcXcXcXcXcXcXcXcXcXcXcXcXcXcXcXcXcXcXcXcXcXcX8 4XaX:XS cXcXcXcXcX",
"cXcXcXcXcXcXcXcXcXcXcXcXcXcXcXcXcXcXcXcXcXcXcXcXcXcXcXcXcXcXcXcXcXcXcXcXcXcXcXcXcXcXcXcXcXcXcXcXcXcXcXcXcXcXcXD G $ cXcXcXcXcXcX",
"cXcXcXcXcXcXcXcXcXcXcXcXcXcXcXcXcXcXcXcXcXcXcXcXcXcXcXcXcXcXcXcXcXcXcXcXcXcXcXcXcXcXcXcXcXcXcXcXcXcXcXcXcXcXcXcXcXcXcXcXcXcXcXcX",
"cXcXcXcXcXcXcXcXcXcXcXcXcXcXcXcXcXcXcXcXcXcXcXcXcXcXcXcXcXcXcXcXcXcXcXcXcXcXcXcXcXcXcXcXcXcXcXcXcXcXcXcXcXcXcXcXcXcXcXcXcXcXcXcX",
"cXcXcXcXcXcXcXcXcXcXcXcXcXcXcXcXcXcXcXcXcXcXcXcXcXcXcXcXcXcXcXcXcXcXcXcXcXcXcXcXcXcXcXcXcXcXcXcXcXcXcXcXcXcXcXcXcXcXcXcXcXcXcXcX",
"cXcXcXcXcXcXcXcXcXcXcXcXcXcXcXcXcXcXcXcXcXcXcXcXcXcXcXcXcXcXcXcXcXcXcXcXcXcXcXcXcXcXcXcXcXcXcXcXcXcXcXcXcXcXcXcXcXcXcXcXcXcXcXcX",
"cXcXcXcXcXcXcXcXcXcXcXcXcXcXcXcXcXcXcXcXcXcXcXcXcXcXcXcXcXcXcXcXcXcXcXcXcXcXcXcXcXcXcXcXcXcXcXcXcXcXcXcXcXcXcXcXcXcXcXcXcXcXcXcX",
"cXcXcXcXcXcXcXcXcXcXcXcXcXcXcXcXcXcXcXcXcXcXcXcXcXcXcXcXcXcXcXcXcXcXcXcXcXcXcXcXcXcXcXcXcXcXcXcXcXcXcXcXcXcXcXcXcXcXcXcXcXcXcXcX",
"cXcXcXcXcXcXcXcXcXcXcXcXcXcXcXcXcXcXcXcXcXcXcXcXcXcXcXcXcXcXcXcXcXcXcXcXcXcXcXcXcXcXcXcXcXcXcXcXcXcXcXcXcXcXcXcXcXcXcXcXcXcXcXcX",
"cXcXcXcXcXcXcXcXcXcXcXcXcXcXcXcXcXcXcXcXcXcXcXcXcXcXcXcXcXcXcXcXcXcXcXcXcXcXcXcXcXcXcXcXcXcXcXcXcXcXcXcXcXcXcXcXcXcXcXcXcXcXcXcX",
"cXcXcXcXcXcXcXcXcXcXcXcXcXcXcXcXcXcXcXcXcXcXcXcXcXcXcXcXcXcXcXcXcXcXcXcXcXcXcXcXcXcXcXcXcXcXcXcXcXcXcXcXcXcXcXcXcXcXcXcXcXcXcXcX",
"cXcXcXcXcXcXcXcXcXcXcXcXcXcXcXcXcXcXcXcXcXcXcXcXcXcXcXcXcXcXcXcXcXcXcXcXcXcXcXcXcXcXcXcXcXcXcXcXcXcXcXcXcXcXcXcXcXcXcXcXcXcXcXcX",
"cXcXcXcXcXcXcXcXcXcXcXcXcXcXcXcXcXcXcXcXcXcXcXcXcXcXcXcXcXcXcXcXcXcXcXcXcXcXcXcXcXcXcXcXcXcXcXcXcXcXcXcXcXcXcXcXcXcXcXcXcXcXcXcX"
};
