/* XPM */
static char *result[] = {
/* columns rows colors chars-per-pixel */
"64 64 242 2 ",
"   c #030507",
".  c #12171D",
"X  c #2D1306",
"o  c #102D0E",
"O  c #3D2405",
"+  c #3B2814",
"@  c #1F1F20",
"#  c #282524",
"$  c #32312B",
"%  c #3A3A3A",
"&  c #353534",
"*  c #2B3528",
"=  c #520B0C",
"-  c #780506",
";  c #6E1809",
":  c #691411",
">  c #6A0101",
",  c #472B09",
"<  c #553708",
"1  c #422C1C",
"2  c #493118",
"3  c #573818",
"4  c #4C3400",
"5  c #653D16",
"6  c #6D300F",
"7  c #483623",
"8  c #503920",
"9  c #0B5310",
"0  c #06650E",
"q  c #027214",
"w  c #19751F",
"e  c #1E4428",
"r  c #335131",
"t  c #186726",
"y  c #0D7728",
"u  c #356B3D",
"i  c #285813",
"p  c #5B4B07",
"a  c #5B431B",
"s  c #504F0B",
"d  c #754801",
"f  c #675707",
"g  c #6A4619",
"h  c #774D17",
"j  c #7A5418",
"k  c #764F07",
"l  c #7E6A1B",
"z  c #42562E",
"x  c #484239",
"c  c #574D3B",
"v  c #534B2E",
"b  c #674826",
"n  c #6C5A33",
"m  c #726534",
"M  c #546E27",
"N  c #3E7845",
"B  c #494945",
"V  c #585548",
"C  c #575756",
"Z  c #504C4C",
"A  c #625846",
"S  c #62504D",
"D  c #76785F",
"F  c #656566",
"G  c #6A6A6A",
"H  c #676868",
"J  c #727361",
"K  c #737373",
"L  c #797979",
"P  c #6E6F72",
"I  c #8D181A",
"U  c #930B0C",
"Y  c #BB0805",
"T  c #A30D0D",
"R  c #A23316",
"E  c #8C352A",
"W  c #843618",
"Q  c #C70808",
"!  c #D60102",
"~  c #CA130F",
"^  c #FC0001",
"/  c #F70707",
"(  c #EC0803",
")  c #D33B00",
"_  c #FF2F00",
"`  c #FF3300",
"'  c #FE3C00",
"]  c #F33B04",
"[  c #CC2628",
"{  c #854708",
"}  c #974B04",
"|  c #865C09",
" . c #965805",
".. c #905518",
"X. c #A15904",
"o. c #AF5003",
"O. c #966503",
"+. c #876315",
"@. c #91710C",
"#. c #A76507",
"$. c #A97702",
"%. c #BA7801",
"&. c #BF7D14",
"*. c #B8620C",
"=. c #845923",
"-. c #8E4522",
";. c #84642D",
":. c #917030",
">. c #A4772F",
",. c #B95222",
"<. c #D45704",
"1. c #C55000",
"2. c #FF4400",
"3. c #FF4B01",
"4. c #F54D00",
"5. c #FF5401",
"6. c #FE5B00",
"7. c #FC5706",
"8. c #E25200",
"9. c #C66505",
"0. c #CA7502",
"q. c #D17509",
"w. c #FF6C01",
"e. c #FF6505",
"r. c #FF7301",
"t. c #FF7B01",
"y. c #FB7B08",
"u. c #E37000",
"i. c #FF7826",
"p. c #EB552E",
"a. c #8B7770",
"s. c #168723",
"d. c #098620",
"f. c #2B8A31",
"g. c #00B527",
"h. c #1FA72E",
"j. c #298B18",
"k. c #648530",
"l. c #00C42C",
"z. c #6B9472",
"x. c #B78502",
"c. c #BF9808",
"v. c #BF8619",
"b. c #B08B15",
"n. c #9E8521",
"m. c #AC8D2A",
"M. c #C7860F",
"N. c #D68502",
"B. c #CB9200",
"V. c #D59A00",
"C. c #D59404",
"Z. c #D29311",
"A. c #C08211",
"S. c #E38F00",
"D. c #FF8903",
"F. c #E89600",
"G. c #FF9201",
"H. c #FE9D02",
"J. c #FE960B",
"K. c #FF8319",
"L. c #FF9B19",
"P. c #D7A702",
"I. c #DFA414",
"U. c #E7A903",
"Y. c #FDA501",
"T. c #F2A800",
"R. c #EAB705",
"E. c #F6B900",
"W. c #FFA819",
"Q. c #EAB514",
"!. c #C19126",
"~. c #FF9626",
"^. c #FFA826",
"/. c #FFB326",
"(. c #FFAC36",
"). c #FFB93A",
"_. c #FFB735",
"`. c #FDC400",
"'. c #FFCD00",
"]. c #F9C708",
"[. c #FFD200",
"{. c #FFD20D",
"}. c #FFD61A",
"|. c #EFC209",
" X c #FFC637",
".X c #94854C",
"XX c #919066",
"oX c #939478",
"OX c #898F7A",
"+X c #A08C7A",
"@X c #BCB76C",
"#X c #A6A677",
"$X c #B0B06E",
"%X c #A99C54",
"&X c #D9BF51",
"*X c #FFB745",
"=X c #FFCA48",
"-X c #FFC957",
";X c #FFD25C",
":X c #FFE345",
">X c #FFD36A",
",X c #FFDC76",
"<X c #FFC76D",
"1X c #FFE278",
"2X c #73A981",
"3X c #888686",
"4X c #819587",
"5X c #9A9A99",
"6X c #939488",
"7X c #9AA29C",
"8X c #AAAA82",
"9X c #B8B886",
"0X c #B9B396",
"qX c #9FA1A3",
"wX c #A7A7A9",
"eX c #BBBCBC",
"rX c #B0B0B1",
"tX c #CE9F9F",
"yX c #BAC3BB",
"uX c #D2D289",
"iX c #D0D192",
"pX c #FFDC88",
"aX c #FFE488",
"sX c #FFEA98",
"dX c #FFFF9B",
"fX c #F4F598",
"gX c #EBED94",
"hX c #FFF4AC",
"jX c #FFF4A7",
"kX c #FFFABB",
"lX c #FFF8B9",
"zX c #FFEEA1",
"xX c #D7D7D7",
"cX c #CAC8CA",
"vX c #FFFFCD",
"bX c #FFFCC4",
"nX c #FFFFD1",
"mX c #FBE3D1",
"MX c #FFFEFE",
"NX c #F5F4F4",
"BX c #E7E7EB",
"VX c None",
/* pixels */
"VXVXVXVXVXVXVXVXVXVXVXVXVXVXVXVXVXVXVXVXVXVXVXVXVXVXVXVXVXVXVXVXVXVXVXVXVXVXVXVXVXVXVXVXVXVXVXVXVXVXVXVXVXVXVXVXVXVXVXVXVXVXVXVX",
"VXVXVXVXVXVXVXVXVXVXVXVXVXVXVXVXVXVXVXVXVXVXVXVXVXVXVXVXVXVXVXVXVXVXVXVXVXVXVXVXVXVXVXVXVXVXVXVXVXVXVXVXVXVXVXVXVXVXVXVXVXVXVXVX",
"VXVXVXVXVXVXVXVXVXVXVXVXVXVXVXVXVXVXVXVXVXVXVXVXVXVXVXVXVXVXVXVXVXVXVXVXVXVXVXVXVXVXVXVXVXVXVXVXVXVXVXVXVXVXVXVXVXVXVXVXVXVXVXVX",
"VXVXVXVXVXVXVXVXVXVXVXVXVXVXVXVXVXVXVXVXVXVXVXVXVXVXVXVXVXVXVXVXVXVXVXVXVXVXVXVXVXVXVXVXVXVXVXVXVXVXVXVXVXVXVXVXVXVXVXVXVXVXVXVX",
"VXVXVXVXVXVXVXVXVXVXVXVXVXVXVXVXVXVXVXVXVXVXVXVXVXVXVXVXVXVXVXVXVXVXVXVXVXVXVXVXVXVXVXVXVXVXVXVXVXVXVXVXVXVXVXVXVXVXVXVXVXVXVXVX",
"VXVXVXVXVXVXVXVXVXVXVXVXVXVXVXVXVXVXVXVXVXVXVXVXVXVXVXVXVXVXVXVXVXVXVXVXVXVXVXVXVXVXVXVXVXVXVXVXVXVXVXVXVXVXVXVXVXVXVXVXVXVXVXVX",
"VXVXVXVXVXVXVXVXVXVXVXVXVXVXVXVXVXVXVXVXVXVXVXVXVXVXVXVXVXVXVXVXVXVXVXVXVXVXVXVXVXVXVXVXVXVXVXVXVXVXVXVXVXVXVXVXVXVXVXVXVXVXVXVX",
"VXVXVXVXVXVXVXVXVXVXVXVXVXVXVXVXVXVXVXVXVXVXVXVXVXVXVXVXVXVXVXVXVXVXVXVXVXVXVXVXVXVXVXVXVXVXVXVXVXVXVXVXVXVXVXVXVXVXVXVXVXVXVXVX",
"VXVXVXVXVXVXVXVXVXVXVXVXVXVXVXVXVXVXVXVXVXVXVXVXVXVXVXVXVXVXVXVXVXVXVXVXVXVXVXVXVXVXVXVXVXVXVXVXVXVXVXVXVXVXVXVXVXVXVXVXVXVXVXVX",
"VXVXVXVXVXVXVXVXVXVXVXVXVXVXVXVXVXVXVXVXVXVXVXVXVXVXVXVXVXVXVXVXVXVXVXVXVXVXVXVXVXVXVXVXVXVXVXVXVXVXVXVXVXVXVXVXVXVXVXVXVXVXVXVX",
"VXVXVXVXVXVXVXVXVXVXVXVXVXVXVXVXVXVXVXVXVXVXVXVXVXVXVXVXVXVXVXVXVXVXVXVXVXVXVXVXVXVXVXVXVXVXVXVXVXVXVXVXVXVXVXVXVXVXVXVXVXVXVXVX",
"VXVXVXVXVXVXVXVXVXVXVXVXVXVXVXVXVXVXVXVXVXVXVXVXVXVXVXVXVXVXVXVXVXVXVXVXVXVXVXVXVXVXVXVX# VXVXVXVXVXVXVXVXVXVXVXVXVXVXVXVXVXVXVX",
"VXVXVXVXVXVXVXVXVXVXVXVXVXVXVXVXVXVXVXVXVXVXVXVXVXVXVXVXVXVXVXVXVXVXVXVXVXVXVXVXVXVXVX= I VXVXVXVXVXVXVXVXVXVXVXVXVXVXVXVXVXVXVX",
"VXVXVXVXVXVXVXVXVXVXVXVXVXVXVXVXVXVXVXVXVXVXVXVXVXVXVXVXVXVXVXVXVXVXVXVXVXVXVXVXVXVX> ! - X   + VXVXVXVXVXVXVXVXVXVXVXVXVXVXVXVX",
"VXVXVXVXVXVXVXVXVXVXVXVXVXVXVXVXVXVXVXVXVXVXVXVXVXVXVXVXVXVXVXVXVXVXVXVXVXVXVX5 VXVX~ ^ T U $ 2 O VXVXVXVXVXVXVXVXVXVXVXVXVXVXVX",
"VXVXVXVXVXVXVXVXVXVXVXVXVXVXVXVXVXVXVXVXVXVXVXVXVXVXVXVXVXVXVXVXVXVXVXVXVXVXVXj VX; ( ^ ( Q = +.+.# o VXVXVXO , VXVXVXVXVXVXVXVX",
"VXVXVXVXVXVXVXVXVXVXVXVXVXVXVXVXVXVXVXVXVXVXVXVXVXVXVXVXVXVXVXVXVXVXVXVXVXVXa A.a U ^ ^ / ! T x.m.7Xi o @ k P.O.VXVXVXVXVXVXVXVX",
"VXVXVXVXVXVXVXVXVXVXVXVXVXVXVXVXVXVXVXVXVXVXVXVXVXVXVXVXVXVXVXVXVXVXVXVXVXVX4 U.d U ( E c I 6 R.m.BXyXr 9 n.`.| VXVXVXVXVXVXVXVX",
"VXVXVXVXVXVXVXVXVXVXVXVXVXVXVXVXVXVXVXVXVXVXVXVXVXVXVXVXVXVXVXVXVXVXVXVXVXVXg v.a : n r - 7 $.`.n.BXMXNX7Xu v.f VXVXVXVXVXVXVXVX",
"VXVXVXVXVXVXVXVXVXVXVXVXVXVXVXVXVXVXVXVXVXVXVXVXVXVXVXVXVXVXVXVXVXVXVXVXVXVXZ E ; d.s.Y ! 6 P.`.=.rXNXMXMXz.M < VXVXVXVXVXVXVXVX",
"VXVXVXVXVXVXVXVXVXVXVXVXVXVXVXVXVXVXVXVXVXVXVXVXVXVXVXVXVXVXVXVXVXVXVXVXVXVXVXU f g.6 / Y W Z.N.3 b 6XxXMXxXr $ VXVXVXVXVXVXVXVX",
"VXVXVXVXVXVXVXVXVXVXVXVXVXVXVXVXVXVXVXVXVXVXVXVXVXVXVXVXVXVXVXVXVXVXVXVXVXVXVX: j.w ~ [ z f.b.X.@.U.j C qXMX4Xe VXVXVXVXVXVXVXVX",
"VXVXVXVXVXVXVXVXVXVXVXVXVXVXVXVXVXVXVXVXVXVXVXVXVXVXVXVXVXVXVXVXVXVXVXVXVXVXVX2 w t I tXz.l.h.r Z.[.x.Z C cXyXy VXVXVXVXVXVXVXVX",
"VXVXVXVXVXVXVXVXVXVXVXVXVXVXVXVXVXVXVXVXVXVXVXVXVXVXVXVXVXVXVXVXVXVXVXVXVXVX| Z.s 9 W mXz.q g.q n.|.j wXL P xXu u VXVXVXVXVXVXVX",
"VXVXVXVXVXVXVXVXVXVXVXVXVXVXVXVXVXVXVXVXVXVXVXVXVXVXVXVXVXVXVXVXVXVXVXVXVXg Q.].B.v a.2Xa | i 0 l c.V 5XK C cXN t VXVXVXVXVXVXVX",
"VXVXVXVXVXVXVXVXVXVXVXVXVXVXVXVXVXVXVXVXVXVXVXVXVXVXVXVXVXVXVXVXVXVXVXVX-.>.-Xm.T.M.m.:.Q.{.V.s p b F F C 3 3Xz.s.VXVXVXVXVXVXVX",
"VXVXVXVXVXVXVXVXVXVXVXVXVXVXVXVXVXVXVXVXVXVXVXVXVXVXVXVXVXVXVXVXVXVXVXVX9.U.|.R.E.].T.y.{.{.'.B.O C H F n C..X2Xd.r VXVXVXVXVXVX",
"VXVXVXVXVXVXVXVXVXVXVXVXVXVXVXVXVXVXVXVXVXVXVXVXVXVXVXVXVXVXVXVXVXVXVXVX .R.[.|.'. Xi.w.T.u.T.].m G H C B.[.P.J s.r + VXVXVXVXVX",
"VXVXVXVXVXVXVXVXVXVXVXVXVXVXVXVXVXVXVXVXVXVXVXVXVXVXVXVXVXVXVXVXVXVXVXVX .F.E.F.Y.r.` ` <.,.&.`.+.wXP l ].'.'.+.w k.$.a VXVXVXVX",
"VXVXVXVXVXVXVXVXVXVXVXVXVXVXVXVXVXVXVXVXVXVXVXVXVXVXVXVXVXVXVXVXVXVXVXVX;.q.q.u.6.' w.6._ R #.F.j 6XV Z.{.'.'.$.9 f.Q.b.B VXVXVX",
"VXVXVXVXVXVXVXVXVXVXVXVXVXVXVXVXVXVXVXVXVXVXVXVXVXVXVXVXVXVXVXVXVXVXVXVX` 8...9.] 3.L.y.3.) 9.0.7 C | `.}.'.'.P.i h.v.g VXVXVXVX",
"VXVXVXVXVXVXVXVXVXVXVXVXVXVXVXVXVXVXVXVXVXVXVXVXVXVXVXVXVXVXVXVXVXVXVX` ` 2.-.X.2.J.*X_.D.4.<.X.A # $.'.'.'.'.`.f 0 + VXVXVXVXVX",
"VXVXVXVXVXVXVXVXVXVXVXVXVXVXVXVXVXVXVXVXVXVXVXVXVXVXVXVXVXVXVXVXVXVXVX` e.' p.] 3.*XsX>X^.6.<.;.gX#Xj `.'.'.U.x.4 9 VXVXVXVXVXVX",
"VXVXVXVXVXVXVXVXVXVXVXVXVXVXVXVXVXVXVXVXVXVXVXVXVXVXVXVXVXVX` VXVXVX` 2.G.5.` ` e.hXnXlXpXr.) %XdXfXm 0.O.g < % % e VXVXVXVXVXVX",
"VXVXVXVXVXVXVXVXVXVXVXVXVXVXVXVXVXVXVXVXVXVXVXVXVXVXVXVXVX` ` VXVX` 2.t.*XJ.D.3.3.pXnXnXpX6.o.@XdXiXV @ x Z C F H # VXVXVXVXVXVX",
"VXVXVXVXVXVXVXVXVXVXVXVXVXVXVXVXVXVXVXVXVXVXVXVXVXVXVXVXVX' 2.` VX` t.H.>X/.Y.5.' *XkXzX(.4.{ #X8X$XXXC L F F 2XwX$ VXVXVXVXVXVX",
"VXVXVXVXVXVXVXVXVXVXVXVXVXVXVXVXVXVXVXVXVXVXVXVXVXVXVX` _ 3.t.` ` ' J. XhX-X_.3.` r.=X X6.4.j oXiXdX%XF eXP F L 6XB VXVXVXVXVXVX",
"VXVXVXVXVXVXVXVXVXVXVXVXVXVXVXVXVXVXVXVXVXVXVXVX` VXVX` ' r.L.6.3.3.(.bXvXbX,X5.2.6.t.w.2.u.m gXdXdX$XC 3XP H H H & VXVXVXVXVXVX",
"VXVXVXVXVXVXVXVXVXVXVXVXVXVXVXVXVXVXVXVXVXVX` ` ` ` VX' r.J.-XH.G.3.~.kXvXnX>X5.G.Y.3.2.H.B..XjXdXjXXX# $ * $ $ $ $ VXVXVXVXVXVX",
"VXVXVXVXVXVXVXVXVXVXVXVXVXVXVXVXVXVXVX9.VX` _ 3.5.` ` 2.G./.aXW.J.2.r.sXvXjX~.] S.0.*.Y.E.O.@XjXuX9Xn O.B.P.P.P. .1 VXVXVXVXVXVX",
"VXVXVXVXVXVXVXVXVXVXVXVXVXVXVXVXVXVXVXVXVX` ` w.r.` ` 6.).sXlXpX).6.2.^.1X X7.) d 2 7 k d c #X8XoXoX@.`.'.'.'.[.R.2 VXVXVXVXVXVX",
"VXVXVXVXVXVXVXVXVXVXVXVXVXVXVXVXVXVXVXVX` ' r.L.^.e.e.2.<XvXvXvX=Xe.` 3.7.3.' G.%.b * A @XuXuXuXfX@X%.}.:X'.'.'.E., . VXVXVXVXVX",
"VXVXVXVXVXVXVXVXVXVXVXVXVXVXVXVXVXVXVXVX` 5./._.;XH.D.' (.bXvXkX^.2.VX` ` 2.J.R.T.} 6 v uXfXdXdXdX>.N.}.:X'.'.'.E.d 7 VXVXVXVXVX",
"VXVXVXVXVXVXVXVXVXVXVXVXVXVXVXVXVXVXVXVX` e.-X,XpXW.~.2.K.aXkX;Xe.' VXVXR q.b.h q.k } g c uXfXfXiXn 0.`.'.'.'.'.V.2 X VXVXVXVXVX",
"VXVXVXVXVXVXVXVXVXVXVXVXVXVXVXVXVXVXVXVX` K.jXvXsX;X*X2.2.W. XD.' VXVXVXVX .u.5 A 2 g ....Z J oX6XOXg C.[.`.'.'.%.VXVXVXVXVXVXVX",
"VXVXVXVXVXVXVXVXVXVXVXVXVXVXVXVXVXVXVXVX_ i.kXvXvXvX*X' ` 5.e.2.` VXVXVXVX8 } *.h 5 +.9...& & D iXiXJ | U.Z.E.v.3 VXVXVXVXVXVXVX",
"VXVXVXVXVXVXVXVXVXVXVXVXVXVXVXVXVXVXVXVX_ 7.sXnXnXlX~.` VXVX` VXVXVXVXVXVXVX7 4 < n.`.S.} VXVXVXx C C v O =. .p b.g VXVXVXVXVXVX",
"VXVXVXVXVXVXVXVXVXVXVXVXVXVXVXVXVXVXVXVXVX3.=XkXkX;X6.` VXVXVXVXVXVXVXVXVXVXOXm.E.'.'.S.{ VXVXVXVX@     O +.O.R.[.#.VXVXVXVXVXVX",
"VXVXVXVXVXVXVXVXVXVXVXVXVXVXVXVXVXVXVXVXVX2.D.=X-XJ.2._ VXVXVXVXVXVXVXVXVXP eX0XI.'.C.} 7 VXVXVXVXVXVXVX8 C.[.E.Z.:.2 VXVXVXVXVX",
"VXVXVXVXVXVXVXVXVXVXVXVXVXVXVXVXVXVXVXVXVX` 2.t.D.3.` VXVXVXVXVXVXVXVXVXVXB L wX:. .< # VXVXVXVXVXVXVXVXVXX.U.!.+XrX& VXVXVXVXVX",
"VXVXVXVXVXVXVXVXVXVXVXVXVXVXVXVXVXVXVXVXVXVXVX` ` ` VXVXVXVXVXVXVXVXVXVXVXVXVXVXVXVXVXVXVXVXVXVXVXVXVXVXVXg >.5XxXeXK VXVXVXVXVX",
"VXVXVXVXVXVXVXVXVXVXVXVXVXVXVXVXVXVXVXVXVXVXVXVXVXVXVXVXVXVXVXVXVXVXVXVXVXVXVXVXVXVXVXVXVXVXVXVXVXVXVXVXVXVXC xXwXK VXVXVXVXVXVX",
"VXVXVXVXVXVXVXVXVXVXVXVXVXVXVXVXVXVXVXVXVXVXVXVXVXVXVXVXVXVXVXVXVXVXVXVXVXVXVXVXVXVXVXVXVXVXVXVXVXVXVXVXVXVX& F % VXVXVXVXVXVXVX",
"VXVXVXVXVXVXVXVXVXVXVXVXVXVXVXVXVXVXVXVXVXVXVXVXVXVXVXVXVXVXVXVXVXVXVXVXVXVXVXVXVXVXVXVXVXVXVXVXVXVXVXVXVXVXVXVXVXVXVXVXVXVXVXVX",
"VXVXVXVXVXVXVXVXVXVXVXVXVXVXVXVXVXVXVXVXVXVXVXVXVXVXVXVXVXVXVXVXVXVXVXVXVXVXVXVXVXVXVXVXVXVXVXVXVXVXVXVXVXVXVXVXVXVXVXVXVXVXVXVX",
"VXVXVXVXVXVXVXVXVXVXVXVXVXVXVXVXVXVXVXVXVXVXVXVXVXVXVXVXVXVXVXVXVXVXVXVXVXVXVXVXVXVXVXVXVXVXVXVXVXVXVXVXVXVXVXVXVXVXVXVXVXVXVXVX",
"VXVXVXVXVXVXVXVXVXVXVXVXVXVXVXVXVXVXVXVXVXVXVXVXVXVXVXVXVXVXVXVXVXVXVXVXVXVXVXVXVXVXVXVXVXVXVXVXVXVXVXVXVXVXVXVXVXVXVXVXVXVXVXVX",
"VXVXVXVXVXVXVXVXVXVXVXVXVXVXVXVXVXVXVXVXVXVXVXVXVXVXVXVXVXVXVXVXVXVXVXVXVXVXVXVXVXVXVXVXVXVXVXVXVXVXVXVXVXVXVXVXVXVXVXVXVXVXVXVX",
"VXVXVXVXVXVXVXVXVXVXVXVXVXVXVXVXVXVXVXVXVXVXVXVXVXVXVXVXVXVXVXVXVXVXVXVXVXVXVXVXVXVXVXVXVXVXVXVXVXVXVXVXVXVXVXVXVXVXVXVXVXVXVXVX",
"VXVXVXVXVXVXVXVXVXVXVXVXVXVXVXVXVXVXVXVXVXVXVXVXVXVXVXVXVXVXVXVXVXVXVXVXVXVXVXVXVXVXVXVXVXVXVXVXVXVXVXVXVXVXVXVXVXVXVXVXVXVXVXVX",
"VXVXVXVXVXVXVXVXVXVXVXVXVXVXVXVXVXVXVXVXVXVXVXVXVXVXVXVXVXVXVXVXVXVXVXVXVXVXVXVXVXVXVXVXVXVXVXVXVXVXVXVXVXVXVXVXVXVXVXVXVXVXVXVX",
"VXVXVXVXVXVXVXVXVXVXVXVXVXVXVXVXVXVXVXVXVXVXVXVXVXVXVXVXVXVXVXVXVXVXVXVXVXVXVXVXVXVXVXVXVXVXVXVXVXVXVXVXVXVXVXVXVXVXVXVXVXVXVXVX",
"VXVXVXVXVXVXVXVXVXVXVXVXVXVXVXVXVXVXVXVXVXVXVXVXVXVXVXVXVXVXVXVXVXVXVXVXVXVXVXVXVXVXVXVXVXVXVXVXVXVXVXVXVXVXVXVXVXVXVXVXVXVXVXVX",
"VXVXVXVXVXVXVXVXVXVXVXVXVXVXVXVXVXVXVXVXVXVXVXVXVXVXVXVXVXVXVXVXVXVXVXVXVXVXVXVXVXVXVXVXVXVXVXVXVXVXVXVXVXVXVXVXVXVXVXVXVXVXVXVX"
};
