/* XPM */
static char *result[] = {
/* columns rows colors chars-per-pixel */
"64 64 240 2 ",
"   c #191918",
".  c #1A0B01",
"X  c #321810",
"o  c #0F320F",
"O  c #39281B",
"+  c #362512",
"@  c #1A1E23",
"#  c #1E2322",
"$  c #2A2A29",
"%  c #352D28",
"&  c #3A3939",
"*  c #2C372C",
"=  c #4A150E",
"-  c #72100D",
";  c #4B2906",
":  c #4C3A08",
">  c #5B3908",
",  c #482C11",
"<  c #583915",
"1  c #4D2C18",
"2  c #663805",
"3  c #653E15",
"4  c #7A310D",
"5  c #443428",
"6  c #553C22",
"7  c #453A32",
"8  c #582A24",
"9  c #6A382E",
"0  c #0D5410",
"q  c #2E5317",
"w  c #0A6D16",
"e  c #31641F",
"r  c #2E522B",
"t  c #244E2A",
"y  c #11782A",
"u  c #2A6E2F",
"i  c #155A25",
"p  c #58480F",
"a  c #6B470A",
"s  c #784804",
"d  c #6A4819",
"f  c #764816",
"g  c #78581C",
"h  c #735700",
"j  c #546017",
"k  c #6E6100",
"l  c #5E4727",
"z  c #4D4B2F",
"x  c #664B2C",
"c  c #644732",
"v  c #70582D",
"b  c #407434",
"n  c #7F652F",
"m  c #697A2A",
"M  c #3B7644",
"N  c #414244",
"B  c #494A4C",
"V  c #5B5B5B",
"C  c #595146",
"Z  c #635A4D",
"A  c #6B6855",
"S  c #787557",
"D  c #796E51",
"F  c #5E5F61",
"G  c #636465",
"H  c #6B6B6B",
"J  c #676868",
"K  c #727272",
"L  c #7A7C7C",
"P  c #717670",
"I  c #8A0503",
"U  c #980608",
"Y  c #8B1214",
"T  c #851F0A",
"R  c #BA0707",
"E  c #B51214",
"W  c #AA0D0C",
"Q  c #8D2A11",
"!  c #933D2D",
"~  c #BD2320",
"^  c #D90303",
"/  c #C50306",
"(  c #FC0000",
")  c #E2150E",
"_  c #944B04",
"`  c #985304",
"'  c #845718",
"]  c #894F0C",
"[  c #A95900",
"{  c #B35B01",
"}  c #A55914",
"|  c #8D6503",
" . c #966601",
".. c #997705",
"X. c #886414",
"o. c #987016",
"O. c #A76905",
"+. c #B16804",
"@. c #AA7702",
"#. c #B57A01",
"$. c #AC6818",
"%. c #B56712",
"&. c #A87012",
"*. c #8E4F26",
"=. c #886125",
"-. c #8F6628",
";. c #B77A2E",
":. c #E04900",
">. c #D77B00",
",. c #C67305",
"<. c #E47A00",
"1. c #8D5050",
"2. c #A05657",
"3. c #87744B",
"4. c #A07B52",
"5. c #867161",
"6. c #AF7778",
"7. c #00971C",
"8. c #178F26",
"9. c #0B8623",
"0. c #01B727",
"q. c #2D8D20",
"w. c #44952D",
"e. c #00C42D",
"r. c #598B63",
"t. c #6F8474",
"y. c #669C73",
"u. c #74A079",
"i. c #A78407",
"p. c #BA8403",
"a. c #BE9A09",
"s. c #AE851B",
"d. c #AC8D29",
"f. c #8D8110",
"g. c #CB8409",
"h. c #D88501",
"j. c #C39603",
"k. c #D69605",
"l. c #C19317",
"z. c #E18700",
"x. c #F48E00",
"c. c #EA9B00",
"v. c #E69802",
"b. c #FF9A01",
"n. c #FB9600",
"m. c #DCA301",
"M. c #D6A400",
"N. c #D7A313",
"B. c #CDA717",
"V. c #EDAC02",
"C. c #E9A805",
"Z. c #FFA205",
"A. c #FFA40B",
"S. c #FBAB0A",
"D. c #ECB305",
"F. c #F2B300",
"G. c #F4BB01",
"H. c #FBBF01",
"J. c #FFB700",
"K. c #FFAD13",
"L. c #FFAC17",
"P. c #FFB41C",
"I. c #FFB81E",
"U. c #C89B24",
"Y. c #FFB922",
"T. c #FFBD2D",
"R. c #FFB424",
"E. c #FFAB21",
"W. c #FDC400",
"Q. c #FFCD00",
"!. c #F4C300",
"~. c #FFD100",
"^. c #FFD40F",
"/. c #F8CA15",
"(. c #FFD617",
"). c #EFC109",
"_. c #FFC229",
"`. c #FFD925",
"'. c #FFC433",
"]. c #FFCB3B",
"[. c #FFC839",
"{. c #FFE13C",
"}. c #9E8845",
"|. c #A28E4E",
" X c #898972",
".X c #9A9A7C",
"XX c #918D6D",
"oX c #A8A668",
"OX c #B0AE72",
"+X c #AA9373",
"@X c #FDC947",
"#X c #FFD247",
"$X c #FFCE5C",
"%X c #FFD558",
"&X c #FFE64C",
"*X c #FFDB63",
"=X c #FFDB6B",
"-X c #FFD467",
";X c #FFDB72",
":X c #FFDE7B",
">X c #FFE179",
",X c #898888",
"<X c #979798",
"1X c #889B8B",
"2X c #A0958B",
"3X c #B2B281",
"4X c #AEB190",
"5X c #A6A7A8",
"6X c #B2BAB5",
"7X c #C6C789",
"8X c #D6D88D",
"9X c #D8D893",
"0X c #C9CA98",
"qX c #FFDB90",
"wX c #FFE68B",
"eX c #ECED95",
"rX c #FFE592",
"tX c #FFEA9C",
"yX c #FFFF9B",
"uX c #F4F498",
"iX c #FFEBA8",
"pX c #FFEEB2",
"aX c #FFF2B9",
"sX c #FFF2AD",
"dX c #C3C5C4",
"fX c #C8C7C9",
"gX c #D1D0D2",
"hX c #EADBDD",
"jX c #FFF5CC",
"kX c #FFF5C6",
"lX c #FFF8D9",
"zX c #FFEFC9",
"xX c #DBDBE0",
"cX c #E0DFE0",
"vX c #EAE9EB",
"bX c #FFFDEB",
"nX c #FFFAE4",
"mX c #FFFFF5",
"MX c #FFFFFE",
"NX c None",
/* pixels */
"NXNXNXNXNXNXNXNXNXNXNXNXNXNXNXNXNXNXNXNXNXNXNXNXNXNXNXNXNXNXNXNXNXNXNXNXNXNXNXNXNXNXNXNXNXNXNXNXNXNXNXNXNXNXNXNXNXNXNXNXNXNXNXNX",
"NXNXNXNXNXNXNXNXNXNXNXNXNXNXNXNXNXNXNXNXNXNXNXNXNXNXNXNXNXNXNXNXNXNXNXNXNXNXNXNXNXNXNXNXNXNXNXNXNXNXNXNXNXNXNXNXNXNXNXNXNXNXNXNX",
"NXNXNXNXNXNXNXNXNXNXNXNXNXNXNXNXNXNXNXNXNXNXNXNXNXNXNXNXNXNXNXNXNXNXNXNXNXNXNXNXNXNXNXNXNXNXNXNXNXNXNXNXNXNXNXNXNXNXNXNXNXNXNXNX",
"NXNXNXNXNXNXNXNXNXNXNXNXNXNXNXNXNXNXNXNXNXNXNXNXNXNXNXNXNXNXNXNXNXNXNXNXNXNXNXNXNXNXNXNXNXNXNXNXNXNXNXNXNXNXNXNXNXNXNXNXNXNXNXNX",
"NXNXNXNXNXNXNXNXNXNXNXNXNXNXNXNXNXNXNXNXNXNXNXNXNXNXNXNXNXNXNXNXNXNXNXNXNXNXNXNXNXNXNXNXNXNXNXNXNXNXNXNXNXNXNXNXNXNXNXNXNXNXNXNX",
"NXNXNXNXNXNXNXNXNXNXNXNXNXNXNXNXNXNXNXNXNXNXNXNXNXNXNXNXNXNXNXNXNXNXNXNXNXNXNXNXNXNXNXNXNXNXNXNXNXNXNXNXNXNXNXNXNXNXNXNXNXNXNXNX",
"NXNXNXNXNXNXNXNXNXNXNXNXNXNXNXNXNXNXNXNXNXNXNXNXNXNXNXNXNXNXNXNXNXNXNXNXNXNXNXNXNXNXNXNXNXNXNXNXNXNXNXNXNXNXNXNXNXNXNXNXNXNXNXNX",
"NXNXNXNXNXNXNXNXNXNXNXNXNXNXNXNXNXNXNXNXNXNXNXNXNXNXNXNXNXNXNXNXNXNXNXNXNXNXNXNXNXNXNXNXNXNXNXNXNXNXNXNXNXNXNXNXNXNXNXNXNXNXNXNX",
"NXNXNXNXNXNXNXNXNXNXNXNXNXNXNXNXNXNXNXNXNXNXNXNXNXNXNXNXNXNXNXNXNXNXNXNXNXNXNXNXNXNXNXNXNXNXNXNXNXNXNXNXNXNXNXNXNXNXNXNXNXNXNXNX",
"NXNXNXNXNXNXNXNXNXNXNXNXNXNXNXNXNXNXNXNXNXNXNXNXNXNXNXNXNXNXNXNXNXNXNXNXNXNXNXNXNXNXNXNXNXNXNXNXNXNXNXNXNXNXNXNXNXNXNXNXNXNXNXNX",
"NXNXNXNXNXNXNXNXNXNXNXNXNXNXNXNXNXNXNXNXNXNXNXNXNXNXNXNXNXNXNXNXNXNXNXNXNXNXNXNXNXNXNXNXNXNXNXNXNXNXNXNXNXNXNXNXNXNXNXNXNXNXNXNX",
"NXNXNXNXNXNXNXNXNXNXNXNXNXNXNXNXNXNXNXNXNXNXNXNXNXNXNXNXNXNXNXNXNXNXNXNXNXNXNXNXNXNXNX= - NXNXNXNXNXNXNXNXNXNXNXNXNXNXNXNXNXNXNX",
"NXNXNXNXNXNXNXNXNXNXNXNXNXNXNXNXNXNXNXNXNXNXNXNXNXNXNXNXNXNXNXNXNXNXNXNXNXNXNXNXNXNX= R I . NX% NXNXNXNXNXNXNXNXNXNXNXNXNXNXNXNX",
"NXNXNXNXNXNXNXNXNXNXNXNXNXNXNXNXNXNXNXNXNXNXNXNXNXNXNXNXNXNXNXNXNXNXNXNXNXNXNX< NXNXE ( I - $ , + NXNXNXNXNXNXNXNXNXNXNXNXNXNXNX",
"NXNXNXNXNXNXNXNXNXNXNXNXNXNXNXNXNXNXNXNXNXNXNXNXNXNXNXNXNXNXNXNXNXNXNXNXNXNXNX3 NX; ) ( ^ R X g 2     NXNXNX.   NXNXNXNXNXNXNXNX",
"NXNXNXNXNXNXNXNXNXNXNXNXNXNXNXNXNXNXNXNXNXNXNXNXNXNXNXNXNXNXNXNXNXNXNXNXNXNXNXs.c I ( ( ( ^ U #.d.L 0 o $ > @. .NXNXNXNXNXNXNXNX",
"NXNXNXNXNXNXNXNXNXNXNXNXNXNXNXNXNXNXNXNXNXNXNXNXNXNXNXNXNXNXNXNXNXNXNXNXNXNX: k.f I ( ~ ! E 4 m.d.xX1Xo o f.W. .NXNXNXNXNXNXNXNX",
"NXNXNXNXNXNXNXNXNXNXNXNXNXNXNXNXNXNXNXNXNXNXNXNXNXNXNXNXNXNXNXNXNXNXNXNXNXNX> k.a - *.r = 5 | W.d.vXmXgXt.u k.h NXNXNXNXNXNXNXNX",
"NXNXNXNXNXNXNXNXNXNXNXNXNXNXNXNXNXNXNXNXNXNXNXNXNXNXNXNXNXNXNXNXNXNXNXNXNXNXZ *.8 e 8.Y / 6 m.W.-.gXmXMXvXr.m > NXNXNXNXNXNXNXNX",
"NXNXNXNXNXNXNXNXNXNXNXNXNXNXNXNXNXNXNXNXNXNXNXNXNXNXNXNXNXNXNXNXNXNXNXNXNXNXNXU 4 0.p ( ^ Y k.v.< V 6XvXMXdXq * NXNXNXNXNXNXNXNX",
"NXNXNXNXNXNXNXNXNXNXNXNXNXNXNXNXNXNXNXNXNXNXNXNXNXNXNXNXNXNXNXNXNXNXNXNXNXNXNX- q.9.W ) 8 u g.+.] g.l L dXMXt.* NXNXNXNXNXNXNXNX",
"NXNXNXNXNXNXNXNXNXNXNXNXNXNXNXNXNXNXNXNXNXNXNXNXNXNXNXNXNXNXNXNXNXNXNXNXNXNXNXO 8.q E +Xy.0.w.v a.~.p.& F cX6Xt NXNXNXNXNXNXNXNX",
"NXNXNXNXNXNXNXNXNXNXNXNXNXNXNXNXNXNXNXNXNXNXNXNXNXNXNXNXNXNXNXNXNXNXNXNXNXNX> &.q 0 8 hXu.7.e.w d.W.X.<XH ,XgX8.r NXNXNXNXNXNXNX",
"NXNXNXNXNXNXNXNXNXNXNXNXNXNXNXNXNXNXNXNXNXNXNXNXNXNXNXNXNXNXNXNXNXNXNXNXNXl C.Q.@.q 2.5Xq p w w f.M.c 5XL V gXM u NXNXNXNXNXNXNX",
"NXNXNXNXNXNXNXNXNXNXNXNXNXNXNXNXNXNXNXNXNXNXNXNXNXNXNXNXNXNXNXNXNXNXNXNX7 &.@XU.F.$.5.D j.G.&.q k g F H V 7 <Xr.y NXNXNXNXNXNXNX",
"NXNXNXNXNXNXNXNXNXNXNXNXNXNXNXNXNXNXNXNXNXNXNXNXNXNXNXNXNXNXNXNXNXNXNXNXx V./.N.F.F.G.k.(.(.Q.#.+ C J F x @.XX1Xy t NXNXNXNXNXNX",
"NXNXNXNXNXNXNXNXNXNXNXNXNXNXNXNXNXNXNXNXNXNXNXNXNXNXNXNXNXNXNXNXNXNXNXNX' F.Q.Q.W.{.`.Q.W.v.H.G.v G J V i.~.B.P 8.t * NXNXNXNXNX",
"NXNXNXNXNXNXNXNXNXNXNXNXNXNXNXNXNXNXNXNXNXNXNXNXNXNXNXNXNXNXNXNXNXNXNXNX` c.W.V.H.{.`.W.k.} g.W.X.<XP v ).~.!.n y m ] 7 NXNXNXNX",
"NXNXNXNXNXNXNXNXNXNXNXNXNXNXNXNXNXNXNXNXNXNXNXNXNXNXNXNXNXNXNXNXNXNXNXNX=.v.z.h.W.Q.Q.W.O.5 %.C.' 5XV i.~.Q.Q. .0 w.D.@.NXNXNXNX",
"NXNXNXNXNXNXNXNXNXNXNXNXNXNXNXNXNXNXNXNXNXNXNXNXNXNXNXNXNXNXNXNXNXNXNXNXg n.x.>.F.W.H.h.Q - { >.6 G g G.`.Q.~.k.i 8.B.g NXNXNXNX",
"NXNXNXNXNXNXNXNXNXNXNXNXNXNXNXNXNXNXNXNXNXNXNXNXNXNXNXNXNXNXNXNXNXNXNXNXb.b.b.<.<.v.>.} 1.I { { z $ @.W.Q.Q.Q.!.j y 2 NXNXNXNXNX",
"NXNXNXNXNXNXNXNXNXNXNXNXNXNXNXNXNXNXNXNXNXNXNXNXNXNXNXNXNXNXNXNXNXNXNXNXb.I.K.b.x.,.$.c 1.c { =.7XS ' W.~.~.W.D.p 0 # NXNXNXNXNX",
"NXNXNXNXNXNXNXNXNXNXNXNXNXNXNXNXNXNXNXNXNXNXNXNXNXNXNXNXNXNXNXb.NXNXNXb.A.].T.K.v.3.5.W 2.D { }.yXeX=.v.j.i.s O * t NXNXNXNXNXNX",
"NXNXNXNXNXNXNXNXNXNXNXNXNXNXNXNXNXNXNXNXNXNXNXNXNXNXNXNXNXNXb.b.b.NXb.A.Y.>X;X'.L.} Y R 1.f [ OXyX9XC ; 5 & B G V $ NXNXNXNXNXNX",
"NXNXNXNXNXNXNXNXNXNXNXNXNXNXNXNXNXNXNXNXNXNXNXNXNXNXNXNXNXNXb.K.b.b.b.P.#XaXrX*XT.:.R 6.1.*.[ OX7X4Xt.N J H J P ,X$ NXNXNXNXNXNX",
"NXNXNXNXNXNXNXNXNXNXNXNXNXNXNXNXNXNXNXNXNXNXNXNXNXb.NXNXb.b.Z.'.A.b.b.[.pXMXkXsXT.<.= 5X,X} f  X3XeXoXA 5XK G ,X5Xz NXNXNXNXNXNX",
"NXNXNXNXNXNXNXNXNXNXNXNXNXNXNXNXNXNXNXNXNXNXNXNXb.b.b.NXb.b.Y.=X'.Y.A.[.bXMXMXbX[.c.@.;.|.k.g 8XyXyXoXA 5XH G J H & NXNXNXNXNXNX",
"NXNXNXNXNXNXNXNXNXNXNXNXNXNXNXNXNXNXNXNXNXNXNXb.b.b.b.b.b.Y.].sX*X#XA.R.jXMXMXpXL.H.Q.W.Q.k.3.uXyXyXXX& N N N N N & NXNXNXNXNXNX",
"NXNXNXNXNXNXNXNXNXNXNXNXNXNXNXNXNXNXNXb.NXNXb.b.A.Y.b.b.Z.'.wXbXwX=XP.A.rXMXbX-Xn.h.k.W.Q.&.oXyXuX8XZ 2 | ......2 , NXNXNXNXNXNX",
"NXNXNXNXNXNXNXNXNXNXNXNXNXNXNXNXNXNXb.b.NXNXb.b.I.].A.b.Z.-XmXMXbXaXT.b.T.rX;XK.<.3 > #.@.l 7X7X.X X=.F.Q.~.~.~.M.5 NXNXNXNXNXNX",
"NXNXNXNXNXNXNXNXNXNXNXNXNXNXNXNXNXb.b.b.b.NXb.[.#XrX'._.b.$XMXMXMXpXP.b.b.b.b.Z.#.9 * z }..XOX3X9XOX#.^.`.Q.Q.Q.G.; $ NXNXNXNXNX",
"NXNXNXNXNXNXNXNXNXNXNXNXNXNXNXNXNXb.A.A.b.b.b.;X>XjX#X%Xb.[.nXMXMX:XA.NXs v.Z.H.V.` , C eXyXyXyXyX|.g.(.*XQ.Q.Q.G.> % NXNXNXNXNX",
"NXNXNXNXNXNXNXNXNXNXNXNXNXNXNXb.b.b.I.Y.n.n.b.pXbXnX-XwXP.A.rXbXiXR.b.NX1 k.B.o.h._ _ < A 9XyXyXeX=.>.W.~.~.Q.~.C.2 ; NXNXNXNXNX",
"NXNXNXNXNXNXNXNXNXNXNXNXNXNXNXb.b.P.@X@XK.P.E.lXMXMXlXiXK.b.T.*X'.b.b.NXNX[ g.< *.1 ] ' f A .X3X2XS ] V.~.Q.Q.^.p.# NXNXNXNXNXNX",
"NXNXNXNXNXNXNXNXNXNXNXNXNXNXNXb.Y.*X=XtX].[.P.zXMXMXMXiXA.b.Z.b.b.b.NXNXNXd { %.c l d %.' & & XX7X0XD  .W.C.W.k.d NXNXNXNXNXNXNX",
"NXNXNXNXNXNXNXNXNXNXNXNXNXNXNXb.[.tXkXpX%X*XK.qXMXMXmX=Xb.NXNXNXNXNXNXNXNXNX, 2 2 g F.h._ NXNX7 A t.H x a o.,.p X.< NXNXNXNXNXNX",
"NXNXNXNXNXNXNXNXNXNXNXNXNXNXNXA.%XbXMXlXtXiXP.@XlXmXsXT.b.NXNXNXNXNXNXNXNXNXA &.a.).~.c._ NXNXNXNX$     X d a j.W. .NXNXNXNXNXNX",
"NXNXNXNXNXNXNXNXNXNXNXNXNXNXNXZ.=XMXMXMXMXpXY.A.%XwX'.b.b.NXNXNXNXNXNXNXNXK 6X+XD.~.F.[ 6 NXNXNXNXNXNXNX< k.!.Q.C.o.5 NXNXNXNXNX",
"NXNXNXNXNXNXNXNXNXNXNXNXNXNXNXb.$XmXMXMXMXrXK.b.A.K.b.b.NXNXNXNXNXNXNXNXNXC <XfXd.h.a , NXNXNXNXNXNXNXNXNX+.W.k.4.2XO NXNXNXNXNX",
"NXNXNXNXNXNXNXNXNXNXNXNXNXNXNXb.T.lXMXMXmX%XZ.NXNXb.NXNXNXNXNXNXNXNXNXNXNXNXN $ # . % NXNXNXNXNXNXNXNXNXNXf ;.XXfXfXJ NXNXNXNXNX",
"NXNXNXNXNXNXNXNXNXNXNXNXNXNXNXb.K.;XkXkX:XL.b.NXNXNXNXNXNXNXNXNXNXNXNXNXNXNXNXNXNXNXNXNXNXNXNXNXNXNXNXNXNX7 S gXdX,XG NXNXNXNXNX",
"NXNXNXNXNXNXNXNXNXNXNXNXNXNXNXNXb.A.].@XA.b.b.NXNXNXNXNXNXNXNXNXNXNXNXNXNXNXNXNXNXNXNXNXNXNXNXNXNXNXNXNXNXNX& ,XV N NXNXNXNXNXNX",
"NXNXNXNXNXNXNXNXNXNXNXNXNXNXNXNXNXb.b.b.b.b.NXNXNXNXNXNXNXNXNXNXNXNXNXNXNXNXNXNXNXNXNXNXNXNXNXNXNXNXNXNXNXNXNX# NXNXNXNXNXNXNXNX",
"NXNXNXNXNXNXNXNXNXNXNXNXNXNXNXNXNXNXNXNXNXNXNXNXNXNXNXNXNXNXNXNXNXNXNXNXNXNXNXNXNXNXNXNXNXNXNXNXNXNXNXNXNXNXNXNXNXNXNXNXNXNXNXNX",
"NXNXNXNXNXNXNXNXNXNXNXNXNXNXNXNXNXNXNXNXNXNXNXNXNXNXNXNXNXNXNXNXNXNXNXNXNXNXNXNXNXNXNXNXNXNXNXNXNXNXNXNXNXNXNXNXNXNXNXNXNXNXNXNX",
"NXNXNXNXNXNXNXNXNXNXNXNXNXNXNXNXNXNXNXNXNXNXNXNXNXNXNXNXNXNXNXNXNXNXNXNXNXNXNXNXNXNXNXNXNXNXNXNXNXNXNXNXNXNXNXNXNXNXNXNXNXNXNXNX",
"NXNXNXNXNXNXNXNXNXNXNXNXNXNXNXNXNXNXNXNXNXNXNXNXNXNXNXNXNXNXNXNXNXNXNXNXNXNXNXNXNXNXNXNXNXNXNXNXNXNXNXNXNXNXNXNXNXNXNXNXNXNXNXNX",
"NXNXNXNXNXNXNXNXNXNXNXNXNXNXNXNXNXNXNXNXNXNXNXNXNXNXNXNXNXNXNXNXNXNXNXNXNXNXNXNXNXNXNXNXNXNXNXNXNXNXNXNXNXNXNXNXNXNXNXNXNXNXNXNX",
"NXNXNXNXNXNXNXNXNXNXNXNXNXNXNXNXNXNXNXNXNXNXNXNXNXNXNXNXNXNXNXNXNXNXNXNXNXNXNXNXNXNXNXNXNXNXNXNXNXNXNXNXNXNXNXNXNXNXNXNXNXNXNXNX",
"NXNXNXNXNXNXNXNXNXNXNXNXNXNXNXNXNXNXNXNXNXNXNXNXNXNXNXNXNXNXNXNXNXNXNXNXNXNXNXNXNXNXNXNXNXNXNXNXNXNXNXNXNXNXNXNXNXNXNXNXNXNXNXNX",
"NXNXNXNXNXNXNXNXNXNXNXNXNXNXNXNXNXNXNXNXNXNXNXNXNXNXNXNXNXNXNXNXNXNXNXNXNXNXNXNXNXNXNXNXNXNXNXNXNXNXNXNXNXNXNXNXNXNXNXNXNXNXNXNX",
"NXNXNXNXNXNXNXNXNXNXNXNXNXNXNXNXNXNXNXNXNXNXNXNXNXNXNXNXNXNXNXNXNXNXNXNXNXNXNXNXNXNXNXNXNXNXNXNXNXNXNXNXNXNXNXNXNXNXNXNXNXNXNXNX",
"NXNXNXNXNXNXNXNXNXNXNXNXNXNXNXNXNXNXNXNXNXNXNXNXNXNXNXNXNXNXNXNXNXNXNXNXNXNXNXNXNXNXNXNXNXNXNXNXNXNXNXNXNXNXNXNXNXNXNXNXNXNXNXNX",
"NXNXNXNXNXNXNXNXNXNXNXNXNXNXNXNXNXNXNXNXNXNXNXNXNXNXNXNXNXNXNXNXNXNXNXNXNXNXNXNXNXNXNXNXNXNXNXNXNXNXNXNXNXNXNXNXNXNXNXNXNXNXNXNX"
};
