/* XPM */
static char *result[] = {
/* columns rows colors chars-per-pixel */
"64 64 98 2 ",
"   c #4C2F3F",
".  c #4F3443",
"X  c #4F374B",
"o  c #4D3C4E",
"O  c #523645",
"+  c #52354A",
"@  c #553B4B",
"#  c #5B3C4C",
"$  c #553E52",
"%  c #5B3E52",
"&  c #613E53",
"*  c #6F3E55",
"=  c #4B444F",
"-  c #57404E",
";  c #5B404F",
":  c #4D4351",
">  c #544354",
",  c #5C4354",
"<  c #534A56",
"1  c #594957",
"2  c #574758",
"3  c #5C4659",
"4  c #554A59",
"5  c #5C4A5C",
"6  c #5C525E",
"7  c #634455",
"8  c #6A4357",
"9  c #634857",
"0  c #63465A",
"q  c #6A465A",
"w  c #634B5C",
"e  c #6B4C5D",
"r  c #74455B",
"t  c #724B5E",
"y  c #79495F",
"u  c #65515E",
"i  c #6C505F",
"p  c #5E4F60",
"a  c #5E5161",
"s  c #6F4661",
"d  c #644E61",
"f  c #6B4E61",
"g  c #714761",
"h  c #714E62",
"j  c #7B4D62",
"k  c #744F68",
"l  c #794F69",
"z  c #655264",
"x  c #6B5264",
"c  c #665A66",
"v  c #6D5966",
"b  c #665768",
"n  c #6C5669",
"m  c #665969",
"M  c #6D5A6C",
"N  c #735464",
"B  c #7A5165",
"V  c #745867",
"C  c #735669",
"Z  c #79566A",
"A  c #745A6C",
"S  c #7B5C6C",
"D  c #6E5F70",
"F  c #745E71",
"G  c #7C5E71",
"H  c #6C616D",
"J  c #73606E",
"K  c #7C606F",
"L  c #6E6271",
"P  c #746274",
"I  c #7C6273",
"U  c #7B6975",
"Y  c #766778",
"T  c #7D6679",
"R  c #77697A",
"E  c #7C6A7C",
"W  c #86566C",
"Q  c #815D6F",
"!  c #825E72",
"~  c #895F73",
"^  c #836475",
"/  c #8A6376",
"(  c #836877",
")  c #846679",
"_  c #8A657B",
"`  c #846A7C",
"'  c #8B6B7C",
"]  c #916177",
"[  c #91657A",
"{  c #93697D",
"}  c #8D707F",
"|  c #846D81",
" . c #8B6D81",
".. c #926E84",
"X. c #837183",
"o. c #8C7283",
"O. c #917182",
"+. c #92798C",
/* pixels */
"M E R M F  . .| )  .S 7 V V V S F F | n n +.|  .! ) G q i Q Z Q J M ` n n o.|  .) I ^ e e S S Q J M T n n |  . .G ) ) i 8 N V ^ ",
"D R L z A | | ` )  .Z & V V S K F D T d z  .T | ) T G 0 i Q Z Q F v T d d | T | ` ^ I q q V S Q J C I n d T ` ` I ) ) i 7 N Z Q ",
"m L b 5 n F G G ~ ) C # i V S A F n F p d G F G ) ^ S 7 9 Z B S A x A 3 d F Z F ^ ^ S 9 7 N Z Z F n M d 3 F G G ^ ^ ^ q 7 i h Z ",
"p z p 3 d n f f C N e O , 9 i 9 d d d % p k n f C N t + # t 7 8 z z z > , n f f C N N # # 8 7 t z z d , $ d n w x C C & # 7 8 8 ",
"p a p 3 z n w w N N i # 9 e i ; d z d p d f f 0 x N N # 7 t 7 7 d d d d 3 f f w x N N , ; e 8 7 d d d p % d n 0 i i Z 7 # e 8 8 ",
"b M b n F A d s I ^ / V K K K 9 n M k D F F n d S I ) V Q ) N t d n n n F F C d V K ) Z Z / Z i d F n M M C G d v K ' K Q Q S V ",
"b m m D T A d 0 I Q ' K ( I K 9 z M f F F C n 0 A I ) S ^ } V i 3 n n n F A A 3 V S ' Q ^ ' S B 3 n n F k n F 3 e V ' Q Q ' ^ Q ",
"p a z z n d % % V N ^ Z K K K ; d z d z n f d % f C S Z Q / Z e 2 d d d d n f 3 i V Q V S / V t 3 z d n z d C % w N Q V K / Q Z ",
"p a p 3 d w % % e q h 7 N v N ; d d p 3 d d d % 7 9 e 7 i Q t 9 3 d d 3 % d d % 0 0 f 8 e Z h t p d d p , 3 f % 7 0 h 7 8 S N i ",
"D D b 3 w d f f e f e # N S S u A M n 3 % f f x e e e ; t Q V N n D n d p f f d d q f 7 9 Q Z V n D k d , w n d f e f , 7 Z Z Z ",
"R X.Y b n F G T S I Z 7 U ' } ( E E | f d G F G I S Z e Z } ' ' | E | n d F F G G S S f Z ' ' ' | | | F d C G F ^ I S e N ' ' { ",
"L E F d d n A Z N S f # S ^ ( ( T T E p $ F n F V N i 7 i ' / / T F | d 3 A f F A N N 7 e ( / [ T F E f 2 n n C S C N 7 8 Q ^ ^ ",
"a D b > % d f f q e 7   i V V V n n F $ + d 0 w f w 7 O 7 S V V n z F % $ d % f f 0 0 # & N V V n f F p $ 3 w w e 9 9 O ; B B V ",
"m p p p 3 d f 3 q e 9 # i i i 7 d n d 3 3 w f 3 e f e 7 8 i t 7 p f d p % d d & e e e 7 7 t t 9 p z d 3 , 3 f w 9 q t 7 7 i i 8 ",
"D a p b x n n 0 N N S i K S V ; d F d n n x A 3 f C Z N V Z B 9 d A d z z k A d e C Z N N V V t p M d f n d M e w N V i B Z S N ",
"P D F F P G A w S ^ ' K } ' ( i n P F P T F A e N G ^ ^ ' { ( B z F F F F F F d x G ^ ) / } [ V d F F F G F F x e S ( ( / } ' / ",
"p b b z n k d @ f N G N S S V , 5 z n f n n d % w x C Z S ^ V 7 3 d n z x n f % 9 N Z Z Q Q Z 8 % p f n f k d w % f Z V Z S Q N ",
": p p $ p d & @ 7 e N 7 u e i O , , d w p f 3 % 0 e e e e t 8 # $ $ d , 3 x 3 $ ; 9 i 8 e i i ; $ $ p p p z 3 % $ f N q 7 e e 8 ",
"p D b p x F A k N Z N 7 e i V w v z n w d F n C A S N e e N h 8 d p A d d G C C V S V e e h N t d p k p d F C F h G S e 7 q i t ",
"m E D p k T T | ' ) S 7 e N K S P M F z n ` I ) ^ ( S e e Z Q V F M F d z | T ) I ( K i 8 N Q K F k F d k E G | ^ ` ^ f 7 t S S ",
"D E M p D ) | | O.' S 7 i i K K T F F d n ` T ` ) ( S q 8 V Q ^ F F F d x ` T ` ) ` G e 8 t Q / T D G z n T G | ( ' ) t 9 B Q Q ",
"p b p $ d n C k I S N @ ; 9 V i n z f 3 3 n f C V V N % # 8 N h z z z % 3 n n n N S N ; O 7 h N n d z 3 3 n f n C S N 7 # 7 t i ",
"2 p p $ p d f w N N i O ; 9 i ; p d w $ , d w 3 e N t 7 # 7 8 7 p p d $ , d d 0 e N N % # 7 8 8 p p d % $ p d % e v i 7 # 7 9 8 ",
"b b b n n A C 0 Z S S i Z V V 9 n M n n n C n d S K K V N Z N 9 d M k n n C n w V G ^ N N V N e d n f n k n k d x S Q N i Z B i ",
"D a m F A F C d Z G ) S ' ( K 9 z F n A F C A d S G ) ! ( ' Q e p k k M D D F & N ^ ) ^ ^ ' Q N p M n F F n F e N G ^ Q Q ( Q Z ",
"m p z D n C f % C G ) G ' ' K 9 p n d n n z n % C G G G / ' Q e p M d n k z k 3 z V S S ( { ^ N % f d n M x M 5 f S I K Q ' / K ",
"p p p d p 3 % % f x N 7 V Z i ; % % 3 d d % 3 % u N f e V S i 9 & s s p , p 2 : 1 u x i N W B 8 % s d 0 3 2 6 : 5 z v w i V B t ",
"z z z d 3 3 3 d e f e # i N N 9 z d d p 0 3 3 d e z w 7 i V i i g g k % , a : p < 6 u 1 q B j r s k h w 2 5 4 < 6 6 c , 7 B j y ",
"E E Y n n n F F N C N 7 S ^ ' ^ | | T F n k F F v C z e V ( ( (  . .) k z F D L c v x 9 f ! ] ]  . . .k x M L H H c H 9 i / / / ",
"E E F d z F G F C C x 7 S ( } } | | T d d n F k v A e w V / } } ~  .G k z z M D H H x 9 q ~ { .. . .| k z z H L H v J u t / [ [ ",
"F F M p p k D d v v f # N S / Q F F n $ $ d k d f N e ; i Q ( K l l x d , 2 b a v A u ; 8 Z ~ ~ l G k d > 2 u c H u v , 7 S Q ~ ",
"p z p $ $ d d + w e w O e e i 9 d n d $ $ d z 3 7 z , O , v i 9 s l f w , > d 2 1 w w # & q s 0 s n k 3 , 1 6 1 6 1 9 # # e t t ",
"d z d 5 d x w + w V i 7 N i i 7 d n f p d x d , w v u - u Z i ; 3 k k n d % d 3 7 d x e q i t 7 7 f n f d d z 5 5 e v 7 7 N i i ",
"P P F T R T M e S I ' K } ' Q i n F F F C F n w V I K V ( } ( i d F F F k p k d z I ) ( ( ' ^ V d n A D F F A d z M ( I ^ } ( ^ ",
"D z z M F M f 3 z S ( V ' Q V 8 d k n n D C x w z S S i K ' V 9 p n n n d d n 0 q V ^ I Q ^ K V p d z f n C n d 7 x ^ I K ' K S ",
"p 3 3 5 z w 2 , 7 v V i Z V t ; p p d d z f f 3 7 v i 9 i V i ; 3 d d 3 % % s 0 7 N N t i V i 9 3 p p 3 w f f 0 # e A N i Z v u ",
"z p p 3 d z x d e v x % i t e 7 % p p % w n d 3 e C u , 7 9 7 7 p 3 d $ $ s d k e k h 9 7 9 u 9 3 p 3 $ 3 f g s 9 e V e 9 i u u ",
"M M n d n I I F S K C ; i i V i d k n d d F C 3 A I N ; - ; 9 V p p d $ % k Z G S ! Z 7 ; i v i b b z d d C G F S S K 9 , i u u ",
"F G F M F X.o.E o.` G 7 h Z ( / D E E n C ` I w ` o.I 9 ; , V } b p b 3 d ! | ../ { Q i e V U U P R P D F T  ...{ ' / i 7 H U U ",
"b D z p x F P S I K N O e i V V d k f p d A v 2 A I I @   # i V p 3 $ $ d Z l l S Q N 7 ; u i v b b D p d k Z G ! ^ K 9 - u i v ",
"p z 3 $ p d d s v v w O 7 9 e 9 d p 3 $ p b p $ 9 v C O O O i 7 p $ X $ 3 s s & g k f & - 9 9 6 p p z $ % f q f k S C 7 @ ; 1 w ",
"z n d p n n d p C S N 7 N i i 8 s n z d s k d $ e z w , e ; i 9 p p 3 p d f d % s B Z e 9 i i u p b b d d f f q e Z S u 7 u i u ",
"b D b z A F d d S I I V / S V e d F k n n F k d v v 9 N K 7 V w p d d d s f s 0 h G ^ S K K V i p b z A F C C 0 e S ^ S J K J V ",
"z F M n F F f d I ` ' Q O.' S i d D F M A F C d A A e S I ; V 9 % d d d d d s 0 C ^ ' ' ( } ( V p M z F F A I 0 h G ) ^ ^ ` ( J ",
"3 d p d n f p % u C Z v ^ Z h 7 p d d p d f d % w V w 9 i # i - X $ 3 3 0 d 0 0 0 N V V V Q Z e $ z p d x d x % , i V V V K J e ",
"p d p 3 p d 3 % 7 w e , V N f 7 % f d , $ 3 3 % , u 9 O - 9 N # + 3 d 3 % 3 0 p , w w 7 i Z V 9 % d d d w 5 d , 1 9 u 9 9 V N e ",
"M F D d z z z f z e i ; Z S Z Z F F F d , d d 3 u 9 w   9 ( K 9 s k k d 3 p d d e z e 9 i Q Q V F F G d d z u u u v i 9 e V Q V ",
"R | P n n n C F C V N 7 K ^  . .E | T n d f f d i , V O i } K i F | k d 3 s n z M J x 9 i / { [  .|  .k w m b H J J V 9 e Q ' / ",
"E E F z z A A F S A N 7 S ) ' ' T | T z d k k d f 3 Z % i } V i G ! C d 3 u z b J J v 9 i ~ { ]  .G  .s p n b L H P v 9 e Q [ [ ",
"z b a % 5 5 d w w w 7 O e x V i d n d 3 $ p p % , $ N @ 9 i 9 9 g k & + o 4 5 < 1 1 , # ; t W y s s k 3 $ 5 4 a < 4 < @ # e j j ",
"p z p $ w e 5 , 7 w 7 @ i i i 7 3 d d 3 3 s p $ , 2 x # ; 7 7 7 g g % + X 2 5 : < 1 1 ; 7 r y 8 & s s 3 2 4 p 4 = < 1 - ; 8 t r ",
"F F M n P I x w A I I N ' Q Q h n F F n n F n 0 C S A 7 V K K i l l s , 3 z a 4 6 H J V S ~ W y g F k F D a H p 6 H U J S ^ ~ W ",
"F D n M P I x 2 V ^ ^ K ' ( Q i b m D F F Z k d N Z N e S ) U 9 k d d % d n z % u A I K Q ' Q N s F n F D n M p 9 J U Q ^ / / Q ",
"z z d x M M w - 9 V K V Q ( N 7 a p d z n f q * e t q t Z ^ V , p p 3 p f n d % ; e Z N S K J w p p a b b n d s 7 h Z V Z Q K V ",
"p 3 2 3 e z w , ; N i ; e N e ; 2 2 p % d s s & 8 q & & e V i - $ p $ $ , d f 7 & e e 9 9 i u - : 4 p > 3 d s s # q i 8 7 e i i ",
"p d p p u M S x i V i ; 7 N t 9 p p p p d k Z l j k t 7 7 i i u p a p p d n Z N h Z N 7 7 i u 9 p p p p p s n F e B N 8 7 9 i i ",
"L P J v J ( } } ( } Q u i K Q Q P Y D M F | ..../ { ^ B i K K U D R Y n M E  . .) ' ^ e e S ^ K L Y L n M T  . .) ' ) N e B S ^ ",
"M A M u u U U ( ( ( V ; 7 B K V D P m a k !  .! / / Q 8 9 i J V m Y F p d F ! | ^ _ S q 7 v K J m L D p d F ) ^ ^ ' ! e 7 e V S ",
"z z u , 1 V J v J K i O # e i i a m z $ 3 k F k Z Z h 7 # 8 i u a m b 3 $ k k s N S N ; # e i i a m a > , n C f Z Q N 7 # 7 e x ",
"6 u 6 1 6 i u 9 i V i ; 7 9 9 7 p a d 2 % n s & h B t 7 ; 9 u , 4 a a 2 p d d 3 f Z N ; - 9 w ; p a p > 3 d f 0 f C N 8 ; 8 e e ",
"z m x z v v v 9 v Q V i B V i e a m M d d C k & k Z Z e i Z V 9 p b b d d k n p v S G N i V N 7 p m m a d A n w i S Z V i Z Z V ",
"A H J J K U V u K ( ( ( ' ( Q i b D P D F T Z q S ~ ^ ! ( ' ^ x b M D F G E F s C ^ _ ^ ^ ` ^ v a m D D D T A f V ^ ( Q / ' ' K ",
"6 w z x v u u ; i V Q V ( Q i 8 4 p z n n C q % f B Z S I ( A 0 p p p z M n d & 7 N S V K ( G w 2 p a a z n e , 7 v Z K K / K i ",
"> > 4 u u 1 - - 9 i i i Q Q 9 # o > 2 3 d 0 % + 7 e f N Z G f @ $ o $ p d d % @ + 7 e i N K n % o o : 2 5 w > X @ 7 i i Z K B 7 "
};
