/* XPM */
static char *result[] = {
/* columns rows colors chars-per-pixel */
"64 64 105 2 ",
"   c #170901",
".  c #1C0A02",
"X  c #1F1713",
"o  c #240E02",
"O  c #280F02",
"+  c #2D1103",
"@  c #351403",
"#  c #3A1603",
"$  c #3F1804",
"%  c #241A14",
"&  c #2F1E15",
"*  c #321F15",
"=  c #352016",
"-  c #3D2316",
";  c #401703",
":  c #441A04",
">  c #4B1C04",
",  c #511F05",
"<  c #552005",
"1  c #5B2205",
"2  c #412415",
"3  c #472817",
"4  c #4D2917",
"5  c #472919",
"6  c #4C2C1B",
"7  c #522D1A",
"8  c #57301C",
"9  c #5A311B",
"0  c #642606",
"q  c #682706",
"w  c #6C2906",
"e  c #732C07",
"r  c #7A2E07",
"t  c #7F3007",
"y  c #64341B",
"u  c #6A361B",
"i  c #723618",
"p  c #753B1D",
"a  c #7C3C1C",
"s  c #4C3529",
"d  c #823107",
"f  c #8C3407",
"g  c #843208",
"h  c #8C3508",
"j  c #923707",
"k  c #973807",
"l  c #913708",
"z  c #953809",
"x  c #9B3B09",
"c  c #813C19",
"v  c #A33D09",
"b  c #AA3F08",
"n  c #84411F",
"m  c #8C421B",
"M  c #94461D",
"N  c #9A471D",
"B  c #9B481E",
"V  c #AC410A",
"C  c #B3440A",
"Z  c #BA460A",
"A  c #BF480B",
"S  c #A44C1F",
"D  c #B3511E",
"F  c #BD541E",
"G  c #A24D21",
"H  c #B35321",
"J  c #BA5622",
"K  c #C44A0B",
"L  c #CB4D0C",
"P  c #D04F0C",
"I  c #C5571E",
"U  c #C6581F",
"Y  c #CD5A1E",
"T  c #C15721",
"R  c #C45820",
"E  c #CC5C21",
"W  c #D05E23",
"Q  c #D26D38",
"!  c #C2C4C5",
"~  c #C8C5C4",
"^  c #CEC9C6",
"/  c #C6C8C9",
"(  c #CACBCC",
")  c #D6CBC5",
"_  c #DACCC4",
"`  c #D4CDCA",
"'  c #D9CEC8",
"]  c #D6D0CD",
"[  c #DCD2CD",
"{  c #CED0D0",
"}  c #DBD5D2",
"|  c #DFDFDF",
" . c #E2CEC5",
".. c #E5D1C6",
"X. c #E5D4CB",
"o. c #E9D6CC",
"O. c #ECD8CF",
"+. c #E2D7D1",
"@. c #E5D9D2",
"#. c #EDDBD2",
"$. c #E3E4E4",
"%. c #E7E9EA",
"&. c #ECECED",
"*. c #F4F4F5",
"=. c #FDFDFD",
/* pixels */
"=.*.$.*.*.$.*.=.$.&.=.%.%.=.&.%.=.*.$.*.=.| *.=.$.&.=.%.%.=.&.$.=.*.| *.=.| *.=.$.&.=.%.%.=.&.$.=.*.$.=.=.$.*.=.$.&.=.%.%.=.&.| ",
"*.&.o.#.O.X.#.#.] [ #.o.o.#.o.X.} @.X.#.#.X.#.X.` O.#.o.X.#.@.` #.O.X.#.#.X.[ } o.o.#.o.o.#.` [ #.O.X.O.O.' ] #.o.o.#.o.o.} %.&.",
"$.o.Q Y Y E E E p p Y E E Y E J 6 H W E E E E a p E E E Y Y J 6 H Y E Y E E a u E E E E E J 6 H Y Y E E Y n y E E E Y E T s { =.",
"*.#.Y K L L L L 0 q L L L K L C @ V L L L K L w 0 L L K L L Z @ V L L L L L e 0 L L L L L Z @ V L L L K L r 1 L L L L K A - ! &.",
"=.X.N f f j l l > : l l j f f d o r l h l h l > : l l l l f d o r j h h h j , : l l l l l g O e f l f f j < $ h l j j j d * ! %.",
"$.` 9 : @ . : : : : : : . @ : : $ : > @ . : : > : : : . @ : : : : : # . : : : : : : . + : : $ : : # . : : : : : : . + : : 4 [ =.",
"*.@.R K h : K K K K K K : h L K K L K z $ A K K K K K : g K K K K L z $ A K K K K K > t L K L K L x $ Z K K K K K < r L K Y X.&.",
"=.#.E P j : L L L L L L : j L L L L P z : K K L L L L > l P L L L L k $ K L L L L L > h L L L L L x $ K L L L L L , d L L Y ..$.",
"%.] p 0 > o 0 0 0 0 0 0 o > 0 q 0 q q > . 0 q q q 0 q o > q q w q q > o 0 q 0 0 0 q O : q q q q q , . 0 q 0 q q 0 + : q 0 i [ =.",
"&.[ p 0 q q q w @ @ q 0 w q q 1 . 1 q q w q w # + q q q 0 q 1 . < q q q q q # @ q q q q q 1 . < q q q 0 q $ + q 0 0 q q 0 % / *.",
"=.#.E K L L L P q q P L L L L Z # C L L L L L w q P L L L L C # V L L L L L e 1 L L L L P Z @ V L L L L L r < P L L L L A 2 ! $.",
"%.o.E K K K K K 0 0 L K K K K V @ V K K K K K w 1 K K K K K C @ V K K K K L w < K K K K K C @ V K K K K L e < K K K K K C - / =.",
"%.` 8 : : $ : : O o : : : : : $   $ : : $ > > O O > : $ : : :   $ : : : : : + o : : : : : $   # > : : : : O o : : ; : : ; % / =.",
"=.#.N f 0 @ h l l l l h + q j l l l l q + g h l l l l + 1 z l l l j q + h l l l l j @ 1 l l j l l w O f j j j l j # 1 j j N _ $.",
"&.o.E P l : K L L L L L : l L L L L P z : K L L L P L > h P L L L L x : K L L L L L > h L L L L L x $ K L L L L L , d L L Y o.*.",
"$.X.J C t $ C C C C C V $ t Z C C C C g $ V C C C C V $ r C C C C C h @ V C C C C C : e C C C C C h @ V C C C C C : e C C F o.=.",
"=.} 3 @ @ o @ @ + O @ # o + # @ o @ @ + O @ @ + + @ @ o + # @ o @ @ + o @ @ + o @ # O + @ @ O @ # @ o @ # + o # @ o O # @ = ~ %.",
"*.@.D C V C C C 1 < C V V C V x + x C V C V C 1 < C V C C V v + z V C C C C 0 , C V V C V V + j C V C V C q > C V C C C v * / &.",
"$.o.E L L L L L w w P L P L P C @ C P L L L P e q P L L L L Z @ C P L L L P e 1 L L L L L A # V L L L L P r 1 L L L L L A - ( =.",
"*.@.B j z z j k > : z z z z z g O g z z z z z , : z z z z z h o t z z z z z < : z z z z j g o r z z z z z , $ z z z z z f * ! &.",
"=.[ 7 : @ . : $ $ $ : $ . + : $ # $ : @ . $ : $ # : : . + $ $ $ $ $ @ . $ : $ # : : . + : : $ $ : @ . $ : $ : : : o + : ; 4 ^ %.",
"| ..E K h : A K A K K A : h L K K K K l $ A K K K K A : h L K K K L z # A K K K K K > g K K K K K k # Z K K K K K , r K K I O.=.",
"*.#.E P j > K L L L L L : l P L L L L z $ L L L L L L > h L L L L P x $ K L L L L L , g P L L L P v : K K L L L L , d L K Y o.&.",
"=.} p w > o q w w w w w o > w w w w w , o q w w w w q o > w w w w w < . q w w w w w O : w w w w w , . q w w w w w O : e w a _ $.",
"$.` p 1 0 0 0 0 + @ 0 0 1 0 0 < . < q 0 0 0 0 @ + 0 0 0 1 0 1 . < 0 1 0 1 0 @ + 0 0 0 0 0 < . > 0 1 0 0 0 # + 0 0 0 0 0 < % ( =.",
"&.O.E L L L L L q q L K L L L C @ C L L L L P w 0 L L I L L C # V L L L L P e 1 L L L L L Z @ V L L L L L e 1 L L L L L A - / *.",
"=.#.E K K K K L 0 q L K L L L V @ V L K K K K w 0 K K K L L C @ V L L L K L e 1 L K K I K C # V L L L K L e < K K K L K Z 2 ! $.",
"%.` 9 : > : : > O O > > : : : $   : : : : > > O o > > : : > :   $ : : : > > + o > : : : > :   $ : : : : > + o > : : : > : % / =.",
"%.X.N h 1 + g h h h h h O 1 h h l h h 0 + g h h h f g + 1 h h h f h 0 O g g h h h g @ 1 h h h h h 0 o g h h h g h @ < f f N X.=.",
"=.#.Y L l > L L L L L L : z P L L L P x $ L P P L L L > h P L L L P x : K L L L L P , g L L L P P V $ A L L L L L < d L K Y ..| ",
"&.o.J Z d $ C C C C Z C $ g C Z C C Z g # V C C C C C : t Z C C C Z h @ C C C C C C : r C C C Z Z l @ V C Z C C C > e Z C F X.*.",
"%.` 5 @ + o @ # + + @ @ o + # @ O @ @ + o @ # + + # @ o + # @ O @ @ + o & # @ + # @ o + # @ o @ @ + o @ # + + # @ o + @ @ = ` =.",
"=.#.H b V V V C < 1 V V V V V z @ z V V V V C 1 < C V C V V x + z V V C V V 0 , V V V C V x + z V V V V V q , V V V V V v = ! %.",
"*.#.W L L L L L q w P L L L L Z # C P P L L P w 0 L L L L L Z # C L L L L P e 1 P P L L L A # V L L L L P r 1 L L L L P A - / &.",
"| ' G z x x z x , > x z x x x g o g z z z x z , : x z k x k h o d z k z z z < : z z x z z h + t z z x z z 1 : z z x z z f & ( =.",
"=.} 6 $ @ . # $ # # $ $ . @ $ $ # $ $ @ . $ $ # # $ : . + : $ @ $ : @ . : $ $ # $ : . + : $ @ $ : @ . : $ $ # $ : . + : ; 3 ^ &.",
"*.#.T K g : A K K A K Z : h K A K A K h $ A K K K A K : g K K K K K z $ A K K A K A > t K A K K K z # Z K K K A K > r L K U ..%.",
"$.X.W L z > L L L L L K : z L L L L L z : K L L L L L > h P L L L L z $ K L L L L L , g L L L L L v $ K L L L L L < d P K Y #.=.",
"*.[ a e , o e e e e e e o , e e e w e , o e e e e e w O > e w e w e < o w e w e e e + > e e w e e < o w w w r e e + : e e c _ &.",
"=.+.i , 1 1 1 1 + + 1 1 1 1 1 , . , 0 1 1 1 1 @ + 1 1 1 1 1 < . , 0 1 0 1 1 @ + 1 1 1 1 1 <   , 1 0 1 1 1 # O 1 1 1 1 1 < % ~ %.",
"$.X.W L K L L L q q L L L L L Z # C L L L L L w q L L L L L Z # V L L L L L w 0 L L L L L A # V L L L L L r < L L L L L A - ( =.",
"&.o.E K K L K L 0 q L K K K K C # V L K K K L w 1 L I K L K C @ V L K L L L w 1 L L K K K Z @ b L K K L L r < L K K K L Z - / *.",
"=.} 9 > > > > , + O , > > > , :   : > > > > , + o > > > > > : . $ , > : > , + o , > > : > :   : > > > > , + o > > > > > : % ! $.",
"&.' M g 0 O g g g g g g + 1 g g g g g 0 O g g g h g g + < h g g g g 0 + t g g h g g + 1 f g g g h q o t d h g g g @ < g d m X.=.",
"%.o.W P l : K P L L L K : z P L L L L z : L L L P L L > h P L P L L x $ K L L L L L > g P L L L L x $ K L L L L L < d P L Y o.=.",
"=.#.J Z d $ Z Z Z C Z Z $ g Z Z Z Z Z h # C Z C Z C C : t A C C Z A h # C Z Z C Z C > e Z Z Z Z Z l # V Z Z Z C C > e Z Z I  .| ",
"&.] 5 @ + o @ @ + @ @ @ . + @ @ + @ @ + . @ # + + @ @ . + # @ + @ # + . @ @ @ + @ @ o + $ # o & @ + . # # + + @ # o o # @ - ^ *.",
"$.X.H b b b b b < < V V V V V z + z V V V V V 1 , V V V V V x + h V V V V V 1 , V V V V V z + l V V V V V 0 : V V V V V x = ( =.",
"=.#.E L L L L P q q P L L L L C @ C L L L L P e 0 P L L P L Z @ V P L L P P e 0 P P L P L A @ V L L L L L e 1 L L L K L Z - ! %.",
"*.+.S x x x x v , , v x x v x f o h x v x x x < > x x x x x l O h v x x x x < : x x x x x l + g V z x x V 1 : V z x V x j = / &.",
"| ` 7 # O o $ $ @ @ $ @ . + : @ @ # $ @ . $ $ @ @ $ $ . + # # @ # # + . # $ @ @ $ # . + $ # @ # $ @ . # # @ @ $ $ . + $ # - ] =.",
"=.O.T K g : Z K K A A A : g K K A A K h : Z A A A A K : g K A K A K z $ C K A A A A > t K A A K K z @ Z K A A A A , r K K I X.%.",
"*.#.E P j > K L L L L K > l P L L L L z : L L L L L L > h L L L L L x $ L L L L L P , h L L L L L x $ K P L P L L < d P L Y ..%.",
"$.' m r , o e r r r r r o , r r r e r < o e e r r e e + < e r e r r < o w r r r e e O > r e r r r 1 . e r r r e e + > e e c X.=.",
"*.} y , , < 1 1 O + , 1 1 , , , . , 1 1 1 < 1 + + 1 < 1 < < , . > < < 1 < 1 @ + < < < < < , . : 1 < < < < @ O < < < < 1 , % / &.",
"=.#.Y K L L K P q q L L L L L C @ V L K L L L w 0 L L K L L C # V L L L L L e 1 L L L L L Z # V L L L L L r < L L L L L A - ! %.",
"$.X.W K L K K L q q L L K L K C @ C K K K L L w 0 L L L K K C # V L K K L K e 1 L L K L K Z @ b L K K L L e < L L L L L Z - ( =.",
"&.` y , , , , , O O , , , , , > . : , , , , , + O , > , , , >   : , , , , < + O , , , , , > . : , , , , , @ o , < > > < > % / *.",
"=.@.c g 1 O r d g d d r O 1 d r d d d 1 O r d d d t r + < g d d t t 1 O r t g t d r + , d d d d d 0 o r d d d d t @ > d r m ' $.",
"%.o.W P l > L K L L L L : z P L L L P z : L L L L L L > h P L K P P x : K L L L P K , f P L L L L v $ K L L L K L , d L L Y o.=.",
"%.o.T A g ; Z A Z K K Z ; g A Z Z Z A f ; Z Z Z A Z Z : d A Z Z Z A h # C Z Z Z A Z : r A A Z A A j @ C A Z Z A A : e A A I o.=.",
"=.} s - * % - - * 2 * * % * 2 * 2 - - * % * - - - - - % * 2 - - - - * % - - - - - - % & - - - - - = X - - - - - - % & - * s ^ @.",
"&.%.{ ! ! ( ! ! ( ^ ! / ( ! ( ( ! ! ( ! ! ^ / ! ( / ! / / ! / ( ! ! ( ! / ( ( ! ( / ! ( / ! / ( ! ! ( / ! ( ! ! ^ / ! / / ! &.*.",
"$.&.=.%.&.=.&.%.=.*.| =.=.$.*.=.$.*.=.%.&.=.&.%.=.*.| =.=.$.*.=.%.&.=.%.&.=.&.%.=.*.$.*.=.$.*.=.$.*.=.%.&.=.&.%.=.*.$.=.=.$.*.=."
};
