/* XPM */
static char *result[] = {
/* columns rows colors chars-per-pixel */
"64 64 256 2 ",
"   c #2A1A14",
".  c #4B372F",
"X  c #5A4531",
"o  c #736357",
"O  c #7C4F6D",
"+  c #7B7267",
"@  c #635044",
"#  c #961B1D",
"$  c #B81A17",
"%  c #B4100D",
"&  c #B22E16",
"*  c #B61B27",
"=  c #AC192B",
"-  c #9B2935",
";  c #96342F",
":  c #A92B36",
">  c #B52C2C",
",  c #C70908",
"<  c #D90908",
"1  c #D90B17",
"2  c #C71715",
"3  c #DA1515",
"4  c #C6120C",
"5  c #EC0403",
"6  c #E30B0B",
"7  c #EB0A0B",
"8  c #E90706",
"9  c #F40303",
"0  c #FB0303",
"q  c #F40A04",
"w  c #FC0B04",
"e  c #F4050B",
"r  c #FC040B",
"t  c #F40B0A",
"y  c #FC0A0B",
"u  c #EB120B",
"i  c #F71309",
"p  c #E90A14",
"a  c #FC0512",
"s  c #F70A14",
"d  c #E71618",
"f  c #F41213",
"g  c #F91419",
"h  c #CA271B",
"j  c #D71524",
"k  c #C81326",
"l  c #E91928",
"z  c #F71A24",
"x  c #EF0B22",
"c  c #D12D2C",
"v  c #EB2C2E",
"b  c #F72016",
"n  c #B04F2B",
"m  c #B16036",
"M  c #955436",
"N  c #D9423C",
"B  c #E8473B",
"V  c #97374C",
"C  c #A63445",
"Z  c #F03A4C",
"A  c #DE3E41",
"S  c #9C494A",
"D  c #8F5150",
"F  c #A84E4E",
"G  c #B57647",
"H  c #B0724A",
"J  c #92716D",
"K  c #B27165",
"L  c #92755B",
"P  c #D85153",
"I  c #EC5151",
"U  c #CF6E4B",
"Y  c #E56A5D",
"T  c #D86D69",
"R  c #F0706A",
"E  c #D95A64",
"W  c #B78954",
"Q  c #999578",
"!  c #8A8579",
"~  c #A69879",
"^  c #AA946B",
"/  c #B3A277",
"(  c #A5A56B",
")  c #D4996A",
"_  c #EC8975",
"`  c #C5B577",
"'  c #CDB376",
"]  c #E5B278",
"[  c #D2C373",
"{  c #F4DC74",
"}  c #F4DC7A",
"|  c #F6D77B",
" . c #EFD377",
".. c #F8E47B",
"X. c #F2E377",
"o. c #907989",
"O. c #A07E83",
"+. c #F56281",
"@. c #798C98",
"#. c #7496A5",
"$. c #75B0B1",
"%. c #78B1C3",
"&. c #7CCEFC",
"*. c #7BCAF6",
"=. c #7CD3FE",
"-. c #7BD4F8",
";. c #79D3EB",
":. c #7DE3FE",
">. c #8E8F96",
",. c #AA9489",
"<. c #A6AA9A",
"1. c #B3A894",
"2. c #8C9AA7",
"3. c #959CAB",
"4. c #8C8DA8",
"5. c #AC96A2",
"6. c #88A7AA",
"7. c #8AA5B5",
"8. c #93AEB1",
"9. c #B1B6AF",
"0. c #97A591",
"q. c #F38986",
"w. c #F59489",
"e. c #EC948E",
"r. c #D8BB85",
"t. c #D4AC8F",
"y. c #E9AC93",
"u. c #D5AFA7",
"i. c #F1B1AD",
"p. c #EA999B",
"a. c #BBC5B8",
"s. c #AFC1B3",
"d. c #DAC784",
"f. c #DAD095",
"g. c #E7C989",
"h. c #F6CD8A",
"j. c #E8D789",
"k. c #F5DB82",
"l. c #FBDB84",
"z. c #F4DB8A",
"x. c #FCDC8B",
"c. c #F7D487",
"v. c #E7CA93",
"b. c #ECD695",
"n. c #FCDB93",
"m. c #F8D895",
"M. c #F8CB99",
"N. c #FCE38B",
"B. c #F9E485",
"V. c #FAE498",
"C. c #EDE194",
"Z. c #D3C9AD",
"A. c #E6C8B7",
"S. c #F7C8BD",
"D. c #EBD4AD",
"F. c #EDE4A3",
"G. c #94B7C7",
"H. c #8DBECF",
"J. c #A1B5C4",
"K. c #CAB3C6",
"L. c #93C8D5",
"P. c #B9C7C6",
"I. c #B3D2D3",
"U. c #85CDEB",
"Y. c #96C8EB",
"T. c #89D5E8",
"R. c #9AD5EA",
"E. c #84CCF6",
"W. c #8ACDF6",
"Q. c #85CEFC",
"!. c #8ACEFC",
"~. c #89C3FE",
"^. c #94CCFD",
"/. c #98C9F9",
"(. c #84D3F4",
"). c #8CD3F4",
"_. c #84D2FD",
"`. c #8BD3FD",
"'. c #84DAFD",
"]. c #8DDAFD",
"[. c #84DAF5",
"{. c #9ADAF5",
"}. c #92D6FD",
"|. c #9AD5FC",
" X c #94DAFD",
".X c #9CDCFD",
"XX c #98D5F5",
"oX c #BAD6EB",
"OX c #ACDDF7",
"+X c #A3DDFD",
"@X c #AADEFB",
"#X c #A4D6F6",
"$X c #B6DDF6",
"%X c #A7D2EE",
"&X c #9EE1FD",
"*X c #96E5F9",
"=X c #91ECF3",
"-X c #A4E2FE",
";X c #ACE3FE",
":X c #ADEBFB",
">X c #A6EBF9",
",X c #B4E4FD",
"<X c #BBE4FB",
"1X c #B4EAFE",
"2X c #BCEBFD",
"3X c #B5E6F5",
"4X c #B8F4FA",
"5X c #AFEDF1",
"6X c #D7C8D2",
"7X c #C8D7D6",
"8X c #C9D8CE",
"9X c #FCCBC8",
"0X c #F5D7D1",
"qX c #D6E3DC",
"wX c #C6E5DA",
"eX c #F5E7D9",
"rX c #EFECDB",
"tX c #CEDDED",
"yX c #EEDCE8",
"uX c #D9E7E7",
"iX c #D9F3EA",
"pX c #C5EBF4",
"aX c #CCEDF4",
"sX c #C2E6FB",
"dX c #C3EDFD",
"fX c #CAEDFD",
"gX c #C5E1FA",
"hX c #D8EAF9",
"jX c #C5F1FD",
"kX c #CCF2FD",
"lX c #C5FBFD",
"zX c #C8F5F8",
"xX c #D3F5FE",
"cX c #DBF5FE",
"vX c #D5F9FE",
"bX c #DCFBFE",
"nX c #D8F5F5",
"mX c #C6ECEA",
"MX c #E7EAEB",
"NX c #F9EAE6",
"BX c #E8F7ED",
"VX c #F8F4EA",
"CX c #FAEBF7",
"ZX c #ECFBF5",
"AX c #E3FDFE",
"SX c #ECFCFD",
"DX c #E6F6F7",
"FX c #F5F5F4",
"GX c #FDF4F4",
"HX c #F4FBF5",
"JX c #FDFDF5",
"KX c #FDF5FD",
"LX c #F3FDFD",
"PX c #FDFCFC",
"IX c #F5F3FD",
"UX c #ECEEF4",
/* pixels */
"JXAX#X*._.Q.Q.Q.Q.Q.Q.Q.Q.!.Q.Q.(._.Q.&.~./.!.*.-.(.W.U.;.=.=._._.=.*.U.Y.Y.^.-.Q.~.~.~.~.&.E.E.Q.Q.Q.Q.Q.Q._.Q.`.Q._.&.Q.#XDXPX",
"JXAX#XE._.Q.Q.Q._.Q._.Q.Q._._.Q.E.E._._.!.~.E._.&.&.E.W.E._.(.U.(.(.E.!.!.!.E.&.-.E.!.!.&.*.&.].Q._._.Q.Q.Q.Q.Q.Q.Q._.&._.XXAXJX",
"JXSX#XE._.!.Q.!.!.Q.!.Q.!.Q.Q.Q.~.*._.'.=.*.-.].!.&.=.=.Q.`.).T.T.).!._.=.=.=.Q.'.-.-.=.=.-.Q.^.Q.Q.!.Q.Q.Q.Q.Q._.Q._.&.!.XXSXPX",
"JXAX#X*._._.!.!.`._._.!.`._.!.`.!._._.-.[.).).U.|.Q.&.=.'.'.`._.-.-._.=.&.&.`.W.}.(.-.;.=.].`.~.`.!._.`.`._.`.Q.`.Q.`.E.W.#XAXPX",
"JXAX#XE.]._.`.!._.`.`.`._.`.`._.].Q.!.W.).^././.Y.Y.U.}.).}.=.-.;.*.(.].].).Y.Y.^.^.!.E.E.`.`.Q.`._.`.`.`.!.`.`.`._._.Q.`.#XDXJX",
"JXSX#XE.].`.!.!.`.`.!.`.`.`.!.`.'.!././././.^.^.Y.W.;.L.7.>.o.o.4.>.4.6.L.T.).Y.^.^.!.^./.^.!._.`.`.`.`.`.`.`.!.`.!.].Q.`.#XSXPX",
"JXSXOX(.].`.!.`.`.`.`.`.`.`.`.].'.W./././.E.=.*X[.;.$.! D ; - V C : - V + $.U.=X'._.Q.}././.W.'.`.`.`.`.`.`.`.`.`.`.].Q.`.#XSXPX",
"JXSXOXE.].`.}.!.}.`.`.}.`.}.`.`.E.|./.^._.:.:.-.%.o.V * c T t.i.u.e.T P k C O #.;.:.:._./.@X XU.`.`.}.`.`.`.}.].`.`.]._.}.#XSXJX",
"JXSXOXW. X`.}.`.}.}.].}.`.}.`.}.U..X|.Q.=.=XL.#.F = j Z q.A.eXCXMXeX9Xw.Z l * S @.L.].-.E.^..X(.}.].}.`.`.}.`.}.].}.].`.}.#XSXJX",
"JXSXOXW.].}.}.^.}.].}.}.}.}.}.}.).|.}._._.L.,.S , 6 I i.NXLXIXCXCXKXHXNXi.I d 6 - O.L.[.*.W.|. X}.}.}.}.}.}.}.].}.`.}._. X#XSXJX",
"JXSXOX). X}.].`.}.}.}.}.`.].].}. XE._.].Y.>.C 1 7 B y.BXJXKXPXFXFXFXIXLXBXi.B 5 6 * J U.*X].W. X}.`.].}.}.}.].}.}.`.}.].|.#XSXJX",
"JXSXOX]. X}.|.}.`.}.}.}.|.|.|.|.]./._.=X>.: p 9 k w.eXSXPXPXPXHXZXFXKXLXSXrXw.c 8 6 * >.). X|.`.|.|.}.|.}.|.|.].}.}.}. X|.OXSXPX",
"JXAXOX}. XXX.X X]. X}.XX|.|.|.|._.+X).H.S < i 6 P 9XGXZXPXPXPXLXLXFXPXPXHXJX9XT < w 8 V 2.XX+XQ.|.|.|. XXX|. X'. X X}. X}.$XAXJX",
"JXAXOXXX X}..X X X X}.}..X|.|.|.].=XL.D * u q p p.NXJXSXPXPXPXPXPXHXPXPXZXLXNXi.l 5 i * V J.*X/.|.XX X X|.|.|.]. X&X). X}.OXSXPX",
"JXSX,X}. X X.X.X.X X}.|..X.X}. X*X=Xo.= 1 i 7 v 9XJXSXSXPXPXPXPXPXPXPXPXSXZXJXeXZ e e 6 k J T.@X+X X X X.XXX{.]. X.XXX X|.OXSXPX",
"JXAX$X{..X}..X.X.X X X X X.X X.X>X8.C 1 e w t I VXHXAXLXPXPXPXJXPXJXKXPXZXAXHXJXR a q w e : 6.OX+X X]. X&X|.{. X X X X.X|.OXSXPX",
"JXSX$X}..X.X.X.X&X{.{.*X X X.X+XR.L % s y 0 t q.HXHXSXLXPXPXPXLXPXPXKXKXPXSXZXLXp.u w w 0 1 D R.+X.X X X&X+XXX{. X.X{.&X XOXSXPX",
"JXAX3X|.&X|..X.X{.{.&X&X X.X-X.XG.# 8 0 e 0 s i.KXLXPXPXPXPXPXHXLXPXKXKXPXPXPXKXi.3 w 5 9 7 : 6.|.+X*X]..X.X{.&X X&X|.&X|.3XSXJX",
"JXSX,X.X-X.X-X.X-X{.&X&X X.X;X%X2.* 0 0 9 0 p i.PXKXPXPXPXPXPXLXHXPXPXKXPXPXPXPX9X3 0 e 9 0 c 0.Y.-X*X X-X+X{.&X.X.X.X&X.X,XSXPX",
"JXSX3X.X-X.X+X.X{.|.-X&X}.;XOXL.5.P q 0 9 r 3 9XKXKXKXPXKXPXPXLXLXPXPXPXKXPXPXPXeXh e a 9 t I 5.G.#X&X}..X+X{.-X&X&X.X&X+X$XLXJX",
"JXSX3X.X&X+X-X.X+X.X-X&X|.;X%X7.K._ u y t 0 d 9XPXGXPXPXLXPXPXPXPXPXPXPXPXKXJXJXeX4 f y w i Y 6X7.%X-X X+X+X+X.X.X&X.X-X.X<XSXPX",
"JXSX$X+X-X.X-X+X-X.X-X&X.X,X%X@.MXy.u q f r p A.JXFXJXPXLXLXFXPXPXPXLXPXPXJXPXLX9Xl 0 5 w t R MX@.L.;X{.+X-X.X&X.X-X&X-X+X$XSXJX",
"JXSX,X+X-X+X-X+X-X&X-X.X{.2XG.2.GXt.b 5 t y 7 u.FXHXPXLXPXLXCXPXPXKXPXLXJXJXPXHXi.z 9 5 w 8 _ CX3.G.,X{.+X-X+X.X&X-X+X-X+X<XLXPX",
"JXSX<X+X@X+X@X-X&X-X;X{.*X4X@.6XGXi.z 5 9 g < _ CXPXJXJXJXPXPXPXIXPXKXGXFXPXPXJXe.f 9 t 0 < q.NX6X>.3X&X+X@X+X-X-X-X+X+X@X$XZXPX",
"JXSX<X+X+X+X;X;X&X-X@X.X-X5X>.yXKXi.z 9 0 a 6 I ZXLXJXJXZXLXJXGXKXPXLXZXHXHXFXHXY q 0 y 0 6 q.CXeX>.oX-X+X@X+X-X;X+X+X-XOX3XSXJX",
"JXSX<X@X@X@X@X;X-X-X+X-X;XL.6.UXPXS.f e 0 r e c qXFXPXPXLXLXZXVXGXBXSXSXLXJXFXNXN e 0 y 0 t _ GXMX8.L.>X+X@X;X-X-X;XOX;X+X<XLXPX",
"JXSX<X+X;X@X;X;X;X@X+X;X;XG.9.IXPXi.s 0 0 0 r 6 u.NXGXKXPXPXiXDXBXiXHXPXPXKXGXi.3 w 0 w r r R PXCX9.H.;X-X;X;X+X;X;X+X;X;X<XSXPX",
"JXSX<X@X;X@X;X;X;X;X+X;X@XG.P.PXLXp.s y 0 9 y e P 9XGXMXCXPXHXSXZXHXGXCXMXLX0XE 7 0 0 e r r R IXPXP.7.,X;X-X;XOX@X;X+X;X@X<XLXJX",
"JXSX<X@X;X,X,X;X;X,X-X;X<X6.6XPXZXq.s w 9 9 r r x q.rXnXLXKXKXCXUXKXKXIXnXVXe.l e 0 0 8 r w I ZXPX7X2.<X;X-X:X;X;X;X;X;X;X<XLXJX",
"JXLXsX;X,X@X,X;XOX,X-X;X$X3.uXGXFXR p 0 q 5 0 0 t v u.MXSXPXCXCXCXKXPXSXBXu.N s r 0 0 8 r 0 P VXPXqX2.sX;X-X,X;X;X;X;X,X;XsXLXJX",
"JXLX<X;X,X@X,X,X$X,X;X;XgX2.MXGXNXI s 0 q q 9 0 y < P i.NXZXLXLXPXPXSXVXS.P < y r 0 0 t y 9 v VXFXMX2.<X;X-X,X,X;X1X;X,X,XsXLXJX",
"JXLXpX,X1X,X,X,X3X1X-X,XgX3.UXVXS.z 7 0 w 0 5 0 w f d B q.S.eXVXVXeXD.w.P d t 9 e w 0 e 9 0 l S.JXMX3.$X1X-X:X,X;X,X;X1X,XsXLXJX",
"JXSXsX,X1X,X1X,X<X;X>X1XgX3.UXJXp.g 5 0 0 0 0 r 0 g 9 5 v R q.y.p.w.R v 8 0 y 9 e 0 0 r 9 0 6 p.JXBX3.oX1X>X:X,X,X,X,X1X,XsXLXJX",
"JXLXsX,X,X,X<X,X<X:X-X1XoX3.UXVXE s q 0 0 9 0 e 9 0 0 0 w t 7 z v p 9 0 0 w w 5 e 0 0 0 e w 6 _ FXFX3.oX1X>X,X<X;X,X,X,X,XsXLXJX",
"JXLXpX,X2X,X,X1X<X<X>X:XtX6.ZXi.z y y 9 0 w y 0 9 0 r 0 0 0 9 9 8 9 r 0 0 a y 0 0 w w 9 0 r e v eXBX8.oX2X:X;XgX2X,X,X1X1XsXLXPX",
"JXSXpX,X<X,X2X2X<X,X1X1XoX6.eXT 8 f t 9 0 0 w y 0 0 0 r e e y t q s s 0 0 a r 0 0 0 9 0 0 0 0 7 y.rX6.oXjX:X;XsX2X2X,X2X1XpXLXPX",
"PXSXpX1X2X<X<X1X<X>X4XsXpX>.p.c < t u 5 y 0 9 y 0 0 e r f s s s 7 x p i q 7 e 0 r 9 9 r r 0 9 7 I i.>.aXjX1X:X<X<X2X,X2X3XpXSXPX",
"JXLXpX<X2X<X2X1XdX>X2XgX4X2.P 3 e y 5 9 y w 5 9 i 7 6 f g u p p p x x d d d d d e 5 7 t 9 9 w y j T 3.fX2X4X1X1X2X2X,X2X1XpXLXPX",
"JXLXaX3X2X<X2X2X2X:XsXsX4X9.* e 0 9 9 0 q t f 7 f 7 < , 2 $ $ h > > $ $ 4 2 3 z z d d 7 9 0 w t s : 3.jX,X2X2X2X2X<X,X2X2XpXLXPX",
"JXLXaX<XdX<X2X4X2X2X<X,X1XI.# a 9 0 0 0 5 t g 7 p 6 h & n m m W G H m n & h 3 3 l d 3 d e e r 5 s # P.4X,XdXjXjX2XdX<X2X2XpXLXPX",
"JXLXaX<XjX2XdX2X2XfX<X1X:XmXS r q i q 0 0 r e < % & U ) ]  .z.j.j.z.g.] ) U c % $ % d d f u q 9 z F mX:X,XfX<XfX2XjX2X2X2XaXLXPX",
"JXLXaXdXdXsXjX2X1XhX<X4X2X4X1.% r g 5 5 r 9 , & H ) r.r.d.z.N...N.N.k.g.r.] ) K ; & 3 d v 2 < z * ,.5X4X2XzX3XfXpXdXdX2X2XaXLXPX",
"JXLXaXdXjXsXdX2X2XfXdXdX2X4X7X- 8 s 7 9 i , & U [ j.F.f.d.j.B.X.k.X. .f.Z.C.b.' W n 4 3 c 3 2 j V 6X5X4XjXjX3XfX2XdXsXjXdXaXLXPX",
"JXLXaXdXjXdXjX2X2X2XfXfXjX5XnX>.% 6 a a 4 & W g. .N.F.F.Z.f.j.X.j. . .Z.D.V.B.h.v.) n % c v 2 > o.aX:XdXkXjX2XdXjXjXdXjXdXaXLXJX",
"JXLXaXdXjXdXdXdXdX>XkXhXjX:XfX7XF % r s & m C.n.{ } m.Z.u.f.h.x.m.| j.A.A.C.} l.z.F.W ; d l c F I.jX4XfXhX3XlXsXdXdXsXjXdXaXLXJX",
"PXLXaXdXkXfXdXjXjX2XjXhXjX2XdXvXa.F , 1 & ' V.x...{ j.,.+ ` z.c.n.} [ ! Q j.{ x.c.V.d.n 2 k F 1.kXjXjXfXaX4XjXdXjXjXjXjXjXkXLXPX",
"PXLXxXjXjXfXfXjXzXfXjXfXjXkXfXjXzX<.: $ > g.z.B.x.{ X.o   ( ..B.c...[ . @ j.{ n.| x.h.m : F 5.5XfXzXfXfXfXfXjXfXjXzXfXjXjXxXSXPX",
"PXSXnXfXkXfXfXkXkXfXjXkXfXkXfXfXfXuXu.K ; g.k. .j.X.B.o   / B.z.c...[   . b.} n.c.l.h.M S u.yXzXfXfXfXjXfXzXfXfXjXkXfXfXzXnXLXPX",
"PXLXvXjXkXfXfXkXkXkXjXkXkXkXfXkXhXcXqXZ.L t.m.X.h.} C.o   `  .m.n.B.d.  . m.} h.B.j.b.K u.uXcXfXzXfXkXfXkXfXjXfXzXjXfXjXjXnXLXPX",
"PXLXnXjXkXfXfXkXkXkXkXkXkXkXkXxXfXvX4XzX<.t.F.X.m.} N.L . d. .z.n.B.j.X @ C.} z...k.v.,.xXlXjXcXfXkXkXkXkXfXxXfXzXxXkXkXkXcXLXPX",
"PXLXvXjXkXxXkXxXxXxXkXxXkXkXkXxXzXvX4X4XI./ M. .V.{ N.` L h.| n.m.} C.^ ^ V...V.X.V.t.0.zX>XlXcXxXkXkXxXkXkXxXkXjXkXkXkXzXbXSXJX",
"PXLXcXzXxXxXkXkXxXkXxXkXxXxXxXkXlXvXmX4XwX~ v.B.l. .B.M.r.x.N.l.z.} N.g.b.N.{ k. .V./ s.zXlXkXaXkXxXkXkXxXkXkXkXkXxXxXkXzXcXLXPX",
"PXLXcXkXxXxXfXxXxXxXxXxXxXxXxXxXlXiXhXbXiX1.` V.z.| } n.n.c.B. .k...B.n.n.k.} k.h.[ ~ wXhXcXxXaXxXxXxXkXxXxXxXxXkXxXxXkXvXcXHXJX",
"PXLXbXzXxXcXxXkXxXxXvXxXxXxXxXxXlXtXUXSXcXP.^ v.m.N.| l.x.| .. .k.l.| x.c.| N.z.M./ <.bXhXhXcXvXxXxXxXxXxXxXxXfXxXxXxXxXvXbXLXJX",
"JXLXbXvXvXcXxXxXxXvXxXxXxXxXvXxXzXxXLXhXmXaX0.~ v.V.B.l.l.l.B.{ k.k.| | l.n.V.N.1.Q wXnXDXhXbXzXxXxXxXxXxXxXxXxXzXvXxXxXnXbXLXJX",
"PXPXbXkXvXcXxXxXxXxXxXvXxXxXxXxXnXvXnXnXaXlXI.1./ '  .l.x.n.x.B.x.l.x.l.l.h.[ ` 0.a.iXbXcXhXvXjXkXxXxXxXxXxXxXxXvXvXvXxXvXbXLXJX",
"PXLXbXxXbXcXxXvXvXxXxXxXxXxXvXxXDXxXzXxXvXlXbX6X~ / ` [ d.j.d.} j.g.j.g.' ' / ^ P.bXvXvXxXxXxXlXxXxXxXxXxXxXxXxXxXvXvXvXcXbXHXJX",
"PXHXAXbXcXcXcXxXvXbXbXvXbXvXbXbXbXxXxXbXbXvXcXxXqXP.<.,.Q ,.~ ~ Q ~ Q Q 0.<.a.qXaXbXcXbXcXcXbXxXcXbXbXvXbXbXbXvXcXvXvXcXcXSXLXPX",
"PXLXAXcXcXAXcXbXbXcXbXcXbXcXcXbXbXbXbXbXbXbXvXbXAXiX7XP.a.a.a.9.9.9.Z.a.a.8XuXAXbXbXbXbXbXbXbXbXbXbXbXcXcXbXbXbXcXcXvXvXcXAXLXPX",
"PXLXAXbXcXcXbXbXbXbXbXbXbXbXbXbXbXbXbXbXbXbXbXbXAXAXcXDXiXiXqXqXqXqXiXBXbXDXAXbXbXbXbXbXbXbXbXvXbXbXbXvXbXbXbXbXcXbXbXvXAXSXPXPX",
"PXLXAXbXbXAXcXbXbXbXbXbXbXbXbXbXbXbXbXbXbXbXbXbXbXbXbXAXbXbXbXbXAXbXbXAXAXAXbXbXbXbXbXbXbXbXbXbXbXbXbXbXbXbXbXbXbXbXvXbXcXSXLXPX",
"PXLXAXAXbXAXAXbXbXbXbXbXbXbXbXbXbXbXbXbXbXbXbXbXvXbXbXvXvXvXbXAXbXbXbXvXvXbXbXvXbXbXbXbXbXbXbXbXbXbXbXbXbXbXbXbXbXbXbXbXAXSXPXPX",
"PXLXAXAXbXAXAXbXAXbXAXbXbXAXbXbXAXbXbXAXAXbXAXbXAXbXbXbXbXbXbXAXbXbXbXbXbXbXbXbXAXbXbXAXAXbXAXbXbXAXbXbXbXAXAXbXbXbXbXbXAXSXLXPX",
"PXLXSXbXAXAXAXbXbXAXbXbXAXbXbXAXbXbXAXbXbXAXbXbXAXAXAXAXAXAXbXbXbXbXAXAXAXAXAXAXbXbXAXbXbXAXbXbXAXbXbXAXAXbXbXbXAXAXbXbXAXSXPXPX"
};
