/* XPM */
static char *result[] = {
/* columns rows colors chars-per-pixel */
"64 64 36 1 ",
"  c #65673E",
". c #66693F",
"X c #666A40",
"o c #6B6D42",
"O c #6E7144",
"+ c #727546",
"@ c #757847",
"# c #747748",
"$ c #767949",
"% c #7A7D4C",
"& c #7E814E",
"* c #80834F",
"= c #828651",
"- c #868953",
"; c #8A8D55",
": c #8D9057",
"> c #8E9258",
", c #92955A",
"< c #969A5D",
"1 c #999D5F",
"2 c #9B9F60",
"3 c #9DA162",
"4 c #A1A564",
"5 c #A5A966",
"6 c #A7AB68",
"7 c #A9AE69",
"8 c #ADB16B",
"9 c #B1B66E",
"0 c #B3B86F",
"q c #B3B770",
"w c #B6BA71",
"e c #B9BE73",
"r c #BDC175",
"t c #BFC478",
"y c #C0C577",
"u c #C1C678",
/* pixels */
"O21221@<2222=-2213,@11122@,1222;&2222<.32222&;2121;&22211.,2222@",
"$78877*48788,>78874*78878*38887<:88885&78787=188881;78888=48888;",
"*ryytt,0yyyy54yyyye,ryyyy,9yyyy72ruyrr>rtuuu27ryyy91ryyyy:ryyyy2",
"$55457=25555,:55454=45556-15555<;45455&45555:<55553=55444*14445,",
"@>>->,&:>;;>-=>:=:,%;:-;,*;>;->;&>:=>,&:>=:,&;>:-,:&::&=-.*=*:,-",
"455-45456,>67564-55477;27456<>75564=57568>155552;65465@=;*-;.265",
"eew>7errr21rrrr8-weeee,7eeee4<eerr0-9rrrr,4rrrr5,rrrr0@-:,::.2rr",
"www>70ww03<00008-9weqe,50ewe5,0w009=80090<400006:00009&-,,,,&100",
"244;23112:=<<244=34245;142451;52354&24144:,42442-43244%=-=--.,52",
"@>,:>>O+@+O@.&>,-,;%,,;>,%-,:-,-&,>;::.,,::,&-,>-,-*><=--.=-->:*",
"&78888&&:;;;@>89796-78888;488782,89886=58888:288893:89877=57788:",
"=rtutt=><1<<&2tturw,euuuy<9uuuy72trtrr:ryyyy18yyyy9<yyyyy>eyyyy2",
"+45555$&-=-=O-45554%45555-25656<;55555&35556-,55661-55555*35656-",
"&22>13*=-&*-&;2<:22=22>12-,2<,2,;11:11-<1,<3;,2<,1<-11:11-<1><2:",
"354;35434::33352=45454-27445,:55353*45355-15455<;55354*45455:<64",
"w00-800001200008-9qeqq>5qwww3,qwr08=90r0r:40w005:0ww09-8w0w0<20w",
"rrr<7rrrt53rrrr9:wrrrr,8rerr72errrw>0rrrr15rrrr8,eyere;0rery14re",
"124=<2123>-31133&33133-,3<33,=32133&11,,<&-<,13<-31133*<2114;>31",
"&,<-,,*,,>>,=-,,=,>&,1:,,=><,;,;-,<-,,@&&$@&+><,-<;-<<-,,*,<>;,*",
"*00009:8wq9q33ww0w8;qwqww,6wqqw3100008@->>:>#400005,ww000;9000e,",
"*0rrrr:8rrrr33rrrr0;wrrrr,7rrre51rerr0@:,<,,+5rryr7,rrrrr;9rrrr<",
"@58877=478782>68885&68868;377882:77888+;:->-O177773;67678-47788>",
"*33,24:13,23,>33>23=23>13;<31<4<>31>23*->&->%,3<,31:12;14;14,14>",
"<32*<3223--3333,&23133&>3233;-33131&24<1<&><<23,-23131%13123->31",
"eew>8reee32eeee8-wrrwr>7ewrw4<eewrq-qweee,6eeee7,eeeew-9eeee14ee",
"rrr,8erer32reer9:wwrrr,8rrrr6<eerre;wrrre16erer8,eeere:qrerr24er",
"133*,3123;-22231&12133=,3232,=22122%<2123->2122,=21123%<1132;;11",
"=33,12;132,3>>33:21-33,12-<31,3,>33>33-23,13;<31,2<:33>21-14<<3;",
"&99808;6q88q119q807-8q809;5999q3,8q888-89999>4998w4,99998-8q999>",
"&werrr:8errr32errrq;wtrre>7eeee41rrrrq-qerer,5eree7,eeree;8eere<",
"&99980:7qq9q3<qq808-880qw>5qwqq4,9qqq8-89900,499q96>9q999;8q99w<",
"%<1;12=,2>>2>;1,&;-+-;=,2-,<,>1,-2,;11=11>,1;>1,>1<-1<;<1-,1>,1;",
",31*<3113;-3114,o%*%&%+<2112;;42131&13<32-,3212,-23132%12<23->31",
"rrr,9rrrr44rryr0%,<,<,%7yrye71eerrr>wrrrr17ryey7<eyere>wrrre35rr",
"ewe:7weee3<eeww8#;>,,>+6eeee5,wewwq-8ewew<4weee5,qeeww;8eeee12we",
"345-14344,-44443#*-*--o<4244<;44353&33345;,42441-44344&24245>,43",
"-44,33;14114,,43;,>%,,-23-242<4,,34,33-35<24:<43,41,34,33-35124;",
"%77775*48777,,88674*57777-47777<>68685&67777-277771;77777=57778-",
"=eyyrr:8rryr43eyrr0;eyyrr,7reyy61rttrr>weyey<7errr8,eryee;qryyy2",
"%89799;589893190998;79990;599994>08088-899qq,39q995,9999q-7q7791",
"o>:-,<=-:;:,;-,,-<,&,,;,<=;<>>1;=,,:,<%,<:,<--<>;<,=,,-,<%>,-:,-",
":2<&25244::44343-45145-14345,;54353=45244;14445<;44254-45245:,43",
"q07-9eeer31reee9-wrrrr<8rrre5,rrrrw>weree<6weee7<eerew:qeere24ee",
"wq9=7weee3<weee8;9weww>6wewe5,wwwwq-9weee<5wewe5>weeww-7wewe23we",
"475-47477<,75675-67677>374673:55366-46445;<44574;76577-47477,<75",
"*11-<<=<1,:1;;11;<,*<1>,1*,1,><;-12;2,#&=$%%#,1<;1>-12-<<=<1,,1=",
"%57555=27666>,76563*67666-27757,;67664o&-===o<77571-77554&47776-",
"-yuuuy<quuuu64uuuue:yuuuy<9uuuu73uuuue%<12<<%7yuuu92yuyyy,euyuu2",
"#78789-477781,87787-77788-478882>88787#-:;;:O188774;88888&58788,",
"#<1,<1*,1,,1:-1<><<&<<,<1->1,,1>-<<><<@*&%&&O-1>11,-1,>12&<<><1;",
"154-27457,,54452-45354;25345,>54253-45123=,3135-15435<;55455;453",
"wqq-700001<00w07-9qw9w;50w003,00098-80000>3w000:4000w3:qw009;800",
"rer>8erre51rrrr0;wyeee<7errr5<errrw;0trrt<5rtrr,5errr7>eerre;0ey",
"455-14345<:54222%22457-154551;54454=35445><5355-<54452=44354-344",
"%;>*;-%=--*:&+&%o$$#:>=-;%;>;=;==:>&:-%:>-=:&=:=->-&:;&--%;;*;;%",
"%77757-47758:%----=%77677;177571>77555=48557:176571>67576*47677;",
"*rryrr,0yyyt2&<<<<-=wyyyr<8rurr62ryyre:ettrt<7tttr81ryytr:0yyyy<",
"@88888-48888<@--;;%$79888-3888q2;87987=78888>288884;88888*59979>",
"%32134-<3<24>%-==-%%22<24-<3<23,;41143=22<33;,31231-32134=13<33;",
",1,*12<11&<21,<==2,:2<=23<12&,2212;-12,12&22<<3&>31<1>-11,11*12<",
"995-89898-59999<2889q7-89q98-59qqq2,99997-8q99q;389993>89998;799",
"tt0,rttrt,8trrr53rttrw,eryyr,8rrru72eyyer>errrt<7tttu8<rryrr,0rr",
"11,@<1111@>1122==22222$<2222$:2222;%2221<$,2212%-1111>%11111%,11",
"&&% %&&&& @&&&&+o%%%%%X%%%&&X#%&%%#o%&%%&X%&%&&X+%&&&$X%&%%& %%&"
};
